<svg width="536" height="527" viewBox="0 0 536 527" fill="none" xmlns="http://www.w3.org/2000/svg">
<g clip-path="url(#clip0_1128_19562)">
<rect width="536" height="527" rx="22" fill="#F2F6FF"/>
<g opacity="0.05">
<rect x="174" y="100" width="334" height="70" rx="12" fill="#537AEF"/>
<rect x="454" y="115" width="41" height="9" rx="4.5" transform="rotate(90 454 115)" fill="white"/>
<rect x="471" y="115" width="41" height="9" rx="4.5" transform="rotate(90 471 115)" fill="white"/>
<rect x="488" y="115" width="41" height="9" rx="4.5" transform="rotate(90 488 115)" fill="white"/>
<rect x="240" y="125" width="164" height="20" rx="10" fill="black" fill-opacity="0.2"/>
<rect x="414" y="125" width="20" height="20" rx="10" fill="white"/>
<rect x="203" y="115" width="41" height="9" rx="4.5" transform="rotate(90 203 115)" fill="white"/>
<rect x="222" y="115" width="41" height="9" rx="4.5" transform="rotate(90 222 115)" fill="white"/>
</g>
<g opacity="0.05">
<rect x="37" y="352" width="285" height="59.7305" rx="10.2395" fill="#537AEF"/>
<rect x="275.922" y="364.799" width="34.985" height="7.67964" rx="3.83982" transform="rotate(90 275.922 364.799)" fill="white"/>
<rect x="290.428" y="364.799" width="34.985" height="7.67964" rx="3.83982" transform="rotate(90 290.428 364.799)" fill="white"/>
<rect x="304.934" y="364.799" width="34.985" height="7.67964" rx="3.83982" transform="rotate(90 304.934 364.799)" fill="white"/>
<rect x="93.3174" y="373.332" width="139.94" height="17.0659" rx="8.53293" fill="black" fill-opacity="0.2"/>
<rect x="241.791" y="373.332" width="17.0659" height="17.0659" rx="8.53293" fill="white"/>
<rect x="61.7456" y="364.799" width="34.985" height="7.67964" rx="3.83982" transform="rotate(90 61.7456 364.799)" fill="white"/>
<rect x="77.958" y="364.799" width="34.985" height="7.67964" rx="3.83982" transform="rotate(90 77.958 364.799)" fill="white"/>
</g>
<g opacity="0.05">
<rect x="174" y="209" width="334" height="70" rx="12" fill="#537AEF"/>
<rect x="454" y="224" width="41" height="9" rx="4.5" transform="rotate(90 454 224)" fill="white"/>
<rect x="471" y="224" width="41" height="9" rx="4.5" transform="rotate(90 471 224)" fill="white"/>
<rect x="488" y="224" width="41" height="9" rx="4.5" transform="rotate(90 488 224)" fill="white"/>
<rect x="240" y="234" width="164" height="20" rx="10" fill="black" fill-opacity="0.2"/>
<rect x="414" y="234" width="20" height="20" rx="10" fill="white"/>
<rect x="203" y="224" width="41" height="9" rx="4.5" transform="rotate(90 203 224)" fill="white"/>
<rect x="222" y="224" width="41" height="9" rx="4.5" transform="rotate(90 222 224)" fill="white"/>
</g>
<g opacity="0.05">
<rect x="37" y="428.796" width="285" height="59.7305" rx="10.2395" fill="#537AEF"/>
<rect x="275.922" y="441.596" width="34.985" height="7.67964" rx="3.83982" transform="rotate(90 275.922 441.596)" fill="white"/>
<rect x="290.428" y="441.596" width="34.985" height="7.67964" rx="3.83982" transform="rotate(90 290.428 441.596)" fill="white"/>
<rect x="304.934" y="441.596" width="34.985" height="7.67964" rx="3.83982" transform="rotate(90 304.934 441.596)" fill="white"/>
<rect x="93.3174" y="450.129" width="139.94" height="17.0659" rx="8.53293" fill="black" fill-opacity="0.2"/>
<rect x="241.791" y="450.129" width="17.0659" height="17.0659" rx="8.53293" fill="white"/>
<rect x="61.7456" y="441.596" width="34.985" height="7.67964" rx="3.83982" transform="rotate(90 61.7456 441.596)" fill="white"/>
<rect x="77.958" y="441.596" width="34.985" height="7.67964" rx="3.83982" transform="rotate(90 77.958 441.596)" fill="white"/>
</g>
<path opacity="0.06" d="M135.882 53.2737C126.294 53.2737 122.374 46.4933 127.141 38.1766C129.896 33.3561 128.254 27.2114 123.433 24.4568L114.269 19.2125C110.084 16.7228 104.681 18.2061 102.191 22.3909L101.608 23.3974C96.8406 31.714 89.0005 31.714 84.1799 23.3974L83.5972 22.3909C81.2134 18.2061 75.8101 16.7228 71.6252 19.2125L62.4608 24.4568C57.6402 27.2114 55.998 33.4091 58.7526 38.2296C63.5732 46.4933 59.6532 53.2737 50.065 53.2737C44.5557 53.2737 40 57.7764 40 63.3384V72.6616C40 78.1707 44.5027 82.7263 50.065 82.7263C59.6532 82.7263 63.5732 89.5067 58.7526 97.8234C55.998 102.644 57.6402 108.789 62.4608 111.543L71.6252 116.787C75.8101 119.277 81.2134 117.794 83.7031 113.609L84.2859 112.603C89.0535 104.286 96.8936 104.286 101.714 112.603L102.297 113.609C104.787 117.794 110.19 119.277 114.375 116.787L123.539 111.543C128.36 108.789 130.002 102.591 127.247 97.8234C122.427 89.5067 126.347 82.7263 135.935 82.7263C141.444 82.7263 146 78.2236 146 72.6616V63.3384C145.947 57.8293 141.444 53.2737 135.882 53.2737ZM92.9735 85.216C83.4913 85.216 75.7571 77.482 75.7571 68C75.7571 58.518 83.4913 50.784 92.9735 50.784C102.456 50.784 110.19 58.518 110.19 68C110.19 77.482 102.456 85.216 92.9735 85.216Z" fill="#292D32"/>
<path d="M95 264H51.5H-29" stroke="#537AEF" stroke-width="2" stroke-dasharray="4 4"/>
<path d="M445 264H488.5H569" stroke="#537AEF" stroke-width="2" stroke-dasharray="4 4"/>
<path d="M95.5 176.5H50.5V133.5H-16.5" stroke="#537AEF" stroke-width="2" stroke-dasharray="4 4"/>
<path d="M444.5 176.5H489.5V133.5H556.5" stroke="#537AEF" stroke-width="2" stroke-dasharray="4 4"/>
<path d="M96 350H51V394H-16" stroke="#537AEF" stroke-width="2" stroke-dasharray="4 4"/>
<path d="M444 350H489V394H556" stroke="#537AEF" stroke-width="2" stroke-dasharray="4 4"/>
<g filter="url(#filter0_d_1128_19562)">
<rect x="101" y="143" width="334" height="70" rx="12" fill="#537AEF"/>
<rect x="102" y="144" width="332" height="68" rx="11" stroke="white" stroke-opacity="0.3" stroke-width="2"/>
<rect x="381" y="158" width="41" height="9" rx="4.5" transform="rotate(90 381 158)" fill="white"/>
<rect x="398" y="158" width="41" height="9" rx="4.5" transform="rotate(90 398 158)" fill="white"/>
<rect x="415" y="158" width="41" height="9" rx="4.5" transform="rotate(90 415 158)" fill="white"/>
<rect x="167" y="168" width="164" height="20" rx="10" fill="black" fill-opacity="0.2"/>
<rect x="341" y="168" width="20" height="20" rx="10" fill="white"/>
<rect x="130" y="158" width="41" height="9" rx="4.5" transform="rotate(90 130 158)" fill="white"/>
<rect x="149" y="158" width="41" height="9" rx="4.5" transform="rotate(90 149 158)" fill="white"/>
</g>
<g filter="url(#filter1_d_1128_19562)">
<rect x="101" y="229" width="334" height="70" rx="12" fill="#537AEF"/>
<rect x="102" y="230" width="332" height="68" rx="11" stroke="white" stroke-opacity="0.3" stroke-width="2"/>
<rect x="381" y="244" width="41" height="9" rx="4.5" transform="rotate(90 381 244)" fill="white"/>
<rect x="398" y="244" width="41" height="9" rx="4.5" transform="rotate(90 398 244)" fill="white"/>
<rect x="415" y="244" width="41" height="9" rx="4.5" transform="rotate(90 415 244)" fill="white"/>
<rect x="130" y="244" width="41" height="9" rx="4.5" transform="rotate(90 130 244)" fill="white"/>
<rect x="149" y="244" width="41" height="9" rx="4.5" transform="rotate(90 149 244)" fill="white"/>
<rect x="167" y="254" width="164" height="20" rx="10" fill="black" fill-opacity="0.2"/>
<rect x="341" y="254" width="20" height="20" rx="10" fill="white"/>
</g>
<g filter="url(#filter2_d_1128_19562)">
<rect x="101" y="315" width="334" height="70" rx="12" fill="#537AEF"/>
<rect x="102" y="316" width="332" height="68" rx="11" stroke="white" stroke-opacity="0.3" stroke-width="2"/>
<rect x="381" y="330" width="41" height="9" rx="4.5" transform="rotate(90 381 330)" fill="white"/>
<rect x="398" y="330" width="41" height="9" rx="4.5" transform="rotate(90 398 330)" fill="white"/>
<rect x="415" y="330" width="41" height="9" rx="4.5" transform="rotate(90 415 330)" fill="white"/>
<rect x="130" y="330" width="41" height="9" rx="4.5" transform="rotate(90 130 330)" fill="white"/>
<rect x="149" y="330" width="41" height="9" rx="4.5" transform="rotate(90 149 330)" fill="white"/>
<rect x="167" y="340" width="164" height="20" rx="10" fill="black" fill-opacity="0.2"/>
<rect x="341" y="340" width="20" height="20" rx="10" fill="white"/>
</g>
<circle cx="436" cy="178" r="9" fill="#537AEF" stroke="#EAEEF7" stroke-width="2"/>
<circle cx="100" cy="178" r="9" fill="#537AEF" stroke="#EAEEF7" stroke-width="2"/>
<circle cx="436" cy="264" r="9" fill="#537AEF" stroke="#EAEEF7" stroke-width="2"/>
<circle cx="100" cy="264" r="9" fill="#537AEF" stroke="#EAEEF7" stroke-width="2"/>
<circle cx="436" cy="350" r="9" fill="#537AEF" stroke="#EAEEF7" stroke-width="2"/>
<circle cx="100" cy="350" r="9" fill="#537AEF" stroke="#EAEEF7" stroke-width="2"/>
<rect x="246" y="330" width="250.252" height="157.262" rx="9.57249" fill="white"/>
<path d="M257.624 366.922V472.904" stroke="#D2D4DB" stroke-width="0.683749" stroke-linecap="round" stroke-dasharray="1.37 4.1"/>
<path d="M285.657 366.922V472.904" stroke="#D2D4DB" stroke-width="0.683749" stroke-linecap="round" stroke-dasharray="1.37 4.1"/>
<path d="M313.691 366.922V472.904" stroke="#D2D4DB" stroke-width="0.683749" stroke-linecap="round" stroke-dasharray="1.37 4.1"/>
<path d="M341.725 366.922V472.904" stroke="#D2D4DB" stroke-width="0.683749" stroke-linecap="round" stroke-dasharray="1.37 4.1"/>
<path d="M369.759 366.922V472.904" stroke="#D2D4DB" stroke-width="0.683749" stroke-linecap="round" stroke-dasharray="1.37 4.1"/>
<path d="M397.792 366.922V472.904" stroke="#D2D4DB" stroke-width="0.683749" stroke-linecap="round" stroke-dasharray="1.37 4.1"/>
<path d="M425.826 366.922V472.904" stroke="#D2D4DB" stroke-width="0.683749" stroke-linecap="round" stroke-dasharray="1.37 4.1"/>
<path d="M453.86 366.922V472.904" stroke="#D2D4DB" stroke-width="0.683749" stroke-linecap="round" stroke-dasharray="1.37 4.1"/>
<path d="M481.894 366.922V472.904" stroke="#D2D4DB" stroke-width="0.683749" stroke-linecap="round" stroke-dasharray="1.37 4.1"/>
<path d="M433.689 397.008C444.287 379.572 461.381 386.409 482.577 380.939V473.245H257.624V438.032C264.461 434.956 275.401 453.759 290.786 430.169C306.17 406.58 327.708 409.315 338.306 415.811C348.904 422.306 363.605 433.246 375.912 415.811C388.22 398.375 397.45 389.828 409.074 399.059C420.698 408.289 424.126 412.74 433.689 397.008Z" fill="url(#paint0_linear_1128_19562)"/>
<path d="M482.577 380.939C461.381 386.409 444.287 379.572 433.689 397.008C424.126 412.74 420.698 408.289 409.074 399.059C397.45 389.828 388.22 398.375 375.912 415.811C363.605 433.246 348.904 422.306 338.306 415.811C327.708 409.315 306.17 406.58 290.786 430.169C275.401 453.759 264.461 434.956 257.624 438.032" stroke="#537AEF" stroke-width="2.735" stroke-linecap="round"/>
<path d="M259.198 352.94H257.275L260.776 342.994H263L266.507 352.94H264.584L261.927 345.034H261.85L259.198 352.94ZM259.261 349.04H264.506V350.488H259.261V349.04ZM270.28 353.071C269.694 353.071 269.169 352.921 268.706 352.619C268.243 352.318 267.878 351.881 267.609 351.308C267.34 350.735 267.206 350.039 267.206 349.22C267.206 348.391 267.342 347.692 267.614 347.122C267.889 346.549 268.26 346.117 268.726 345.826C269.192 345.531 269.712 345.384 270.285 345.384C270.722 345.384 271.081 345.458 271.363 345.607C271.644 345.753 271.868 345.929 272.033 346.136C272.198 346.34 272.326 346.533 272.417 346.714H272.489V342.994H274.252V352.94H272.523V351.765H272.417C272.326 351.946 272.195 352.139 272.023 352.343C271.852 352.543 271.625 352.715 271.343 352.857C271.062 353 270.707 353.071 270.28 353.071ZM270.77 351.629C271.143 351.629 271.46 351.528 271.722 351.328C271.984 351.124 272.183 350.84 272.319 350.478C272.455 350.115 272.523 349.693 272.523 349.21C272.523 348.728 272.455 348.309 272.319 347.953C272.187 347.597 271.989 347.32 271.727 347.122C271.468 346.925 271.149 346.826 270.77 346.826C270.379 346.826 270.052 346.928 269.789 347.132C269.527 347.336 269.33 347.618 269.197 347.977C269.064 348.336 268.998 348.747 268.998 349.21C268.998 349.677 269.064 350.093 269.197 350.458C269.333 350.821 269.532 351.108 269.794 351.318C270.06 351.525 270.385 351.629 270.77 351.629ZM278.893 353.071C278.308 353.071 277.783 352.921 277.32 352.619C276.857 352.318 276.491 351.881 276.223 351.308C275.954 350.735 275.82 350.039 275.82 349.22C275.82 348.391 275.956 347.692 276.227 347.122C276.503 346.549 276.873 346.117 277.34 345.826C277.806 345.531 278.325 345.384 278.898 345.384C279.335 345.384 279.695 345.458 279.976 345.607C280.258 345.753 280.481 345.929 280.647 346.136C280.812 346.34 280.94 346.533 281.03 346.714H281.103V342.994H282.866V352.94H281.137V351.765H281.03C280.94 351.946 280.808 352.139 280.637 352.343C280.465 352.543 280.239 352.715 279.957 352.857C279.675 353 279.321 353.071 278.893 353.071ZM279.384 351.629C279.756 351.629 280.074 351.528 280.336 351.328C280.598 351.124 280.797 350.84 280.933 350.478C281.069 350.115 281.137 349.693 281.137 349.21C281.137 348.728 281.069 348.309 280.933 347.953C280.8 347.597 280.603 347.32 280.341 347.122C280.082 346.925 279.763 346.826 279.384 346.826C278.992 346.826 278.665 346.928 278.403 347.132C278.141 347.336 277.943 347.618 277.811 347.977C277.678 348.336 277.611 348.747 277.611 349.21C277.611 349.677 277.678 350.093 277.811 350.458C277.947 350.821 278.146 351.108 278.408 351.318C278.673 351.525 278.999 351.629 279.384 351.629ZM284.739 352.94V345.481H286.497V352.94H284.739ZM285.623 344.422C285.345 344.422 285.105 344.33 284.904 344.145C284.703 343.958 284.603 343.733 284.603 343.47C284.603 343.205 284.703 342.98 284.904 342.795C285.105 342.608 285.345 342.514 285.623 342.514C285.905 342.514 286.144 342.608 286.342 342.795C286.542 342.98 286.643 343.205 286.643 343.47C286.643 343.733 286.542 343.958 286.342 344.145C286.144 344.33 285.905 344.422 285.623 344.422ZM292.029 345.481V346.841H287.741V345.481H292.029ZM288.8 343.694H290.558V350.696C290.558 350.933 290.594 351.114 290.665 351.24C290.739 351.363 290.836 351.447 290.956 351.493C291.076 351.538 291.209 351.561 291.354 351.561C291.464 351.561 291.565 351.553 291.656 351.537C291.749 351.52 291.821 351.506 291.869 351.493L292.165 352.867C292.072 352.899 291.937 352.935 291.762 352.974C291.591 353.013 291.38 353.035 291.131 353.042C290.691 353.055 290.294 352.989 289.941 352.843C289.588 352.694 289.308 352.464 289.101 352.153C288.897 351.842 288.797 351.454 288.8 350.988V343.694ZM293.5 352.94V345.481H295.258V352.94H293.5ZM294.383 344.422C294.105 344.422 293.865 344.33 293.665 344.145C293.464 343.958 293.364 343.733 293.364 343.47C293.364 343.205 293.464 342.98 293.665 342.795C293.865 342.608 294.105 342.514 294.383 342.514C294.665 342.514 294.905 342.608 295.102 342.795C295.303 342.98 295.403 343.205 295.403 343.47C295.403 343.733 295.303 343.958 295.102 344.145C294.905 344.33 294.665 344.422 294.383 344.422ZM300.319 353.086C299.59 353.086 298.959 352.925 298.425 352.605C297.891 352.284 297.476 351.836 297.182 351.26C296.89 350.683 296.745 350.01 296.745 349.24C296.745 348.469 296.89 347.794 297.182 347.215C297.476 346.635 297.891 346.185 298.425 345.864C298.959 345.544 299.59 345.384 300.319 345.384C301.047 345.384 301.679 345.544 302.213 345.864C302.747 346.185 303.16 346.635 303.451 347.215C303.746 347.794 303.893 348.469 303.893 349.24C303.893 350.01 303.746 350.683 303.451 351.26C303.16 351.836 302.747 352.284 302.213 352.605C301.679 352.925 301.047 353.086 300.319 353.086ZM300.329 351.677C300.724 351.677 301.054 351.569 301.319 351.352C301.585 351.132 301.782 350.837 301.912 350.468C302.044 350.099 302.111 349.688 302.111 349.235C302.111 348.778 302.044 348.365 301.912 347.996C301.782 347.624 301.585 347.328 301.319 347.108C301.054 346.888 300.724 346.777 300.329 346.777C299.924 346.777 299.587 346.888 299.319 347.108C299.053 347.328 298.854 347.624 298.721 347.996C298.592 348.365 298.527 348.778 298.527 349.235C298.527 349.688 298.592 350.099 298.721 350.468C298.854 350.837 299.053 351.132 299.319 351.352C299.587 351.569 299.924 351.677 300.329 351.677ZM307.143 348.569V352.94H305.385V345.481H307.065V346.748H307.153C307.324 346.331 307.598 345.999 307.973 345.753C308.352 345.507 308.82 345.384 309.377 345.384C309.892 345.384 310.34 345.494 310.722 345.714C311.107 345.934 311.405 346.253 311.616 346.671C311.829 347.088 311.934 347.595 311.931 348.191V352.94H310.173V348.463C310.173 347.964 310.044 347.574 309.785 347.292C309.529 347.011 309.175 346.87 308.721 346.87C308.414 346.87 308.14 346.938 307.901 347.074C307.664 347.206 307.478 347.399 307.342 347.652C307.209 347.904 307.143 348.21 307.143 348.569ZM315.865 353.09C315.392 353.09 314.966 353.006 314.588 352.838C314.212 352.666 313.914 352.414 313.694 352.08C313.477 351.747 313.369 351.336 313.369 350.847C313.369 350.426 313.446 350.078 313.602 349.803C313.757 349.528 313.969 349.308 314.238 349.142C314.507 348.977 314.809 348.853 315.146 348.768C315.486 348.681 315.837 348.618 316.2 348.579C316.637 348.534 316.991 348.493 317.263 348.458C317.535 348.419 317.733 348.361 317.856 348.283C317.982 348.202 318.045 348.077 318.045 347.909V347.88C318.045 347.514 317.937 347.231 317.72 347.03C317.503 346.829 317.19 346.729 316.783 346.729C316.352 346.729 316.01 346.823 315.758 347.011C315.509 347.198 315.34 347.42 315.253 347.676L313.611 347.443C313.741 346.99 313.955 346.611 314.252 346.306C314.55 345.999 314.915 345.769 315.345 345.617C315.776 345.461 316.252 345.384 316.773 345.384C317.132 345.384 317.49 345.426 317.846 345.51C318.202 345.594 318.528 345.733 318.822 345.928C319.117 346.119 319.353 346.379 319.531 346.709C319.712 347.04 319.803 347.452 319.803 347.948V352.94H318.113V351.915H318.055C317.948 352.122 317.798 352.317 317.603 352.498C317.412 352.676 317.171 352.82 316.88 352.93C316.592 353.037 316.253 353.09 315.865 353.09ZM316.321 351.799C316.674 351.799 316.98 351.729 317.239 351.59C317.498 351.447 317.697 351.26 317.836 351.027C317.979 350.794 318.05 350.539 318.05 350.264V349.385C317.995 349.431 317.901 349.473 317.768 349.511C317.639 349.55 317.493 349.584 317.331 349.613C317.169 349.643 317.009 349.668 316.851 349.691C316.692 349.714 316.554 349.733 316.438 349.749C316.176 349.785 315.941 349.843 315.734 349.924C315.526 350.005 315.363 350.119 315.243 350.264C315.123 350.407 315.063 350.591 315.063 350.818C315.063 351.142 315.182 351.386 315.418 351.551C315.654 351.716 315.955 351.799 316.321 351.799ZM323.329 342.994V352.94H321.571V342.994H323.329ZM328.606 352.94V342.994H332.336C333.1 342.994 333.741 343.127 334.259 343.393C334.78 343.658 335.173 344.03 335.439 344.51C335.707 344.986 335.842 345.541 335.842 346.175C335.842 346.813 335.706 347.367 335.434 347.836C335.165 348.302 334.769 348.663 334.244 348.919C333.72 349.172 333.075 349.298 332.311 349.298H329.655V347.802H332.069C332.515 347.802 332.881 347.741 333.166 347.618C333.451 347.491 333.661 347.308 333.797 347.069C333.937 346.826 334.006 346.528 334.006 346.175C334.006 345.822 333.937 345.521 333.797 345.272C333.658 345.02 333.446 344.829 333.161 344.699C332.876 344.566 332.509 344.5 332.059 344.5H330.408V352.94H328.606ZM333.744 348.433L336.206 352.94H334.196L331.777 348.433H333.744ZM340.618 353.086C339.87 353.086 339.224 352.93 338.68 352.619C338.14 352.305 337.724 351.862 337.432 351.289C337.141 350.713 336.995 350.034 336.995 349.254C336.995 348.487 337.141 347.813 337.432 347.234C337.727 346.651 338.138 346.198 338.666 345.874C339.193 345.547 339.813 345.384 340.526 345.384C340.985 345.384 341.419 345.458 341.827 345.607C342.238 345.753 342.601 345.979 342.915 346.287C343.232 346.595 343.481 346.986 343.663 347.462C343.844 347.935 343.935 348.498 343.935 349.152V349.691H337.821V348.506H342.25C342.246 348.17 342.173 347.87 342.031 347.608C341.889 347.342 341.689 347.134 341.434 346.981C341.181 346.829 340.887 346.753 340.55 346.753C340.191 346.753 339.875 346.841 339.603 347.015C339.331 347.187 339.119 347.414 338.967 347.695C338.818 347.974 338.742 348.28 338.739 348.613V349.647C338.739 350.081 338.818 350.454 338.976 350.764C339.135 351.072 339.357 351.308 339.642 351.473C339.927 351.635 340.26 351.716 340.642 351.716C340.898 351.716 341.129 351.681 341.337 351.609C341.544 351.535 341.723 351.426 341.876 351.284C342.028 351.142 342.143 350.965 342.22 350.755L343.862 350.939C343.758 351.373 343.561 351.752 343.269 352.076C342.981 352.396 342.612 352.645 342.162 352.823C341.712 352.998 341.197 353.086 340.618 353.086ZM351.871 345.481L349.215 352.94H347.272L344.616 345.481H346.49L348.204 351.022H348.282L350.001 345.481H351.871ZM356.136 353.086C355.388 353.086 354.742 352.93 354.198 352.619C353.658 352.305 353.242 351.862 352.95 351.289C352.659 350.713 352.513 350.034 352.513 349.254C352.513 348.487 352.659 347.813 352.95 347.234C353.245 346.651 353.656 346.198 354.184 345.874C354.711 345.547 355.331 345.384 356.044 345.384C356.503 345.384 356.937 345.458 357.345 345.607C357.756 345.753 358.119 345.979 358.433 346.287C358.75 346.595 358.999 346.986 359.181 347.462C359.362 347.935 359.453 348.498 359.453 349.152V349.691H353.339V348.506H357.767C357.764 348.17 357.691 347.87 357.549 347.608C357.406 347.342 357.207 347.134 356.952 346.981C356.699 346.829 356.404 346.753 356.068 346.753C355.708 346.753 355.393 346.841 355.121 347.015C354.849 347.187 354.637 347.414 354.485 347.695C354.336 347.974 354.26 348.28 354.256 348.613V349.647C354.256 350.081 354.336 350.454 354.494 350.764C354.653 351.072 354.875 351.308 355.16 351.473C355.445 351.635 355.778 351.716 356.16 351.716C356.416 351.716 356.647 351.681 356.854 351.609C357.062 351.535 357.241 351.426 357.394 351.284C357.546 351.142 357.661 350.965 357.738 350.755L359.38 350.939C359.276 351.373 359.079 351.752 358.787 352.076C358.499 352.396 358.13 352.645 357.68 352.823C357.23 352.998 356.715 353.086 356.136 353.086ZM362.698 348.569V352.94H360.94V345.481H362.62V346.748H362.707C362.879 346.331 363.153 345.999 363.528 345.753C363.907 345.507 364.375 345.384 364.932 345.384C365.446 345.384 365.895 345.494 366.277 345.714C366.662 345.934 366.96 346.253 367.17 346.671C367.384 347.088 367.489 347.595 367.486 348.191V352.94H365.728V348.463C365.728 347.964 365.598 347.574 365.339 347.292C365.084 347.011 364.729 346.87 364.276 346.87C363.968 346.87 363.695 346.938 363.455 347.074C363.219 347.206 363.033 347.399 362.897 347.652C362.764 347.904 362.698 348.21 362.698 348.569ZM374.027 349.803V345.481H375.785V352.94H374.081V351.614H374.003C373.835 352.032 373.558 352.373 373.172 352.639C372.79 352.904 372.319 353.037 371.759 353.037C371.27 353.037 370.838 352.929 370.463 352.712C370.09 352.492 369.799 352.173 369.589 351.755C369.378 351.334 369.273 350.826 369.273 350.23V345.481H371.031V349.958C371.031 350.431 371.16 350.806 371.419 351.085C371.678 351.363 372.018 351.503 372.439 351.503C372.698 351.503 372.949 351.439 373.192 351.313C373.435 351.187 373.634 350.999 373.789 350.75C373.948 350.497 374.027 350.182 374.027 349.803ZM380.895 353.086C380.147 353.086 379.501 352.93 378.957 352.619C378.417 352.305 378.001 351.862 377.709 351.289C377.418 350.713 377.272 350.034 377.272 349.254C377.272 348.487 377.418 347.813 377.709 347.234C378.004 346.651 378.415 346.198 378.943 345.874C379.47 345.547 380.09 345.384 380.803 345.384C381.262 345.384 381.696 345.458 382.104 345.607C382.515 345.753 382.878 345.979 383.192 346.287C383.509 346.595 383.758 346.986 383.94 347.462C384.121 347.935 384.212 348.498 384.212 349.152V349.691H378.098V348.506H382.527C382.523 348.17 382.451 347.87 382.308 347.608C382.166 347.342 381.967 347.134 381.711 346.981C381.458 346.829 381.164 346.753 380.827 346.753C380.468 346.753 380.152 346.841 379.88 347.015C379.608 347.187 379.396 347.414 379.244 347.695C379.095 347.974 379.019 348.28 379.016 348.613V349.647C379.016 350.081 379.095 350.454 379.254 350.764C379.412 351.072 379.634 351.308 379.919 351.473C380.204 351.635 380.537 351.716 380.919 351.716C381.175 351.716 381.406 351.681 381.614 351.609C381.821 351.535 382.001 351.426 382.153 351.284C382.305 351.142 382.42 350.965 382.498 350.755L384.139 350.939C384.035 351.373 383.838 351.752 383.546 352.076C383.258 352.396 382.889 352.645 382.439 352.823C381.989 352.998 381.474 353.086 380.895 353.086Z" fill="#323D48"/>
<g filter="url(#filter3_b_1128_19562)">
<rect x="256.94" y="362.82" width="59.4862" height="21.1962" rx="10.5981" fill="#537AEF" fill-opacity="0.1"/>
<path d="M274.076 377.862H266.471C265.352 377.862 264.706 376.592 265.367 375.688L269.169 370.485C269.715 369.737 270.831 369.737 271.377 370.485L275.18 375.688C275.84 376.592 275.195 377.862 274.076 377.862Z" fill="#537AEF"/>
<path d="M283.368 375.644V370.267H284.587V375.644H283.368ZM281.289 373.565V372.346H286.666V373.565H281.289ZM290.472 368.853C290.853 368.856 291.223 368.923 291.583 369.055C291.946 369.184 292.272 369.397 292.562 369.692C292.852 369.985 293.083 370.377 293.254 370.869C293.425 371.361 293.51 371.97 293.51 372.695C293.513 373.379 293.44 373.99 293.293 374.529C293.148 375.065 292.939 375.518 292.667 375.889C292.395 376.259 292.068 376.541 291.684 376.735C291.301 376.93 290.87 377.027 290.391 377.027C289.888 377.027 289.443 376.928 289.054 376.732C288.668 376.535 288.356 376.265 288.118 375.924C287.88 375.582 287.733 375.191 287.679 374.75H289.097C289.17 375.066 289.317 375.317 289.54 375.504C289.765 375.688 290.049 375.78 290.391 375.78C290.942 375.78 291.367 375.54 291.665 375.061C291.963 374.582 292.112 373.916 292.112 373.064H292.057C291.93 373.292 291.766 373.489 291.564 373.655C291.362 373.818 291.133 373.944 290.876 374.032C290.622 374.12 290.353 374.164 290.068 374.164C289.602 374.164 289.182 374.052 288.81 373.83C288.439 373.607 288.145 373.301 287.928 372.913C287.713 372.524 287.604 372.08 287.601 371.58C287.601 371.062 287.72 370.597 287.959 370.185C288.2 369.771 288.535 369.445 288.965 369.206C289.395 368.966 289.897 368.848 290.472 368.853ZM290.476 370.018C290.196 370.018 289.944 370.087 289.719 370.224C289.496 370.359 289.32 370.543 289.19 370.776C289.063 371.007 289 371.264 289 371.549C289.002 371.831 289.066 372.088 289.19 372.318C289.317 372.549 289.489 372.731 289.707 372.866C289.927 373.001 290.178 373.068 290.461 373.068C290.67 373.068 290.866 373.028 291.047 372.948C291.229 372.867 291.387 372.756 291.521 372.614C291.658 372.469 291.765 372.304 291.84 372.12C291.917 371.936 291.955 371.742 291.952 371.537C291.952 371.266 291.888 371.014 291.758 370.784C291.631 370.553 291.456 370.368 291.234 370.228C291.014 370.088 290.761 370.018 290.476 370.018ZM296.976 377.027C296.398 377.027 295.885 376.93 295.437 376.735C294.992 376.541 294.642 376.276 294.388 375.939C294.137 375.6 294.013 375.215 294.015 374.785C294.013 374.451 294.085 374.144 294.233 373.865C294.381 373.585 294.58 373.352 294.831 373.165C295.085 372.976 295.367 372.856 295.678 372.804V372.75C295.269 372.659 294.938 372.45 294.684 372.124C294.432 371.795 294.308 371.416 294.311 370.986C294.308 370.577 294.422 370.211 294.653 369.89C294.883 369.569 295.199 369.317 295.601 369.133C296.002 368.946 296.46 368.853 296.976 368.853C297.486 368.853 297.941 368.946 298.339 369.133C298.741 369.317 299.057 369.569 299.287 369.89C299.52 370.211 299.637 370.577 299.637 370.986C299.637 371.416 299.509 371.795 299.252 372.124C298.999 372.45 298.671 372.659 298.269 372.75V372.804C298.58 372.856 298.86 372.976 299.109 373.165C299.36 373.352 299.559 373.585 299.707 373.865C299.857 374.144 299.932 374.451 299.932 374.785C299.932 375.215 299.805 375.6 299.552 375.939C299.298 376.276 298.948 376.541 298.503 376.735C298.06 376.93 297.551 377.027 296.976 377.027ZM296.976 375.916C297.274 375.916 297.533 375.865 297.753 375.764C297.973 375.661 298.144 375.516 298.266 375.329C298.387 375.143 298.449 374.928 298.452 374.684C298.449 374.43 298.383 374.206 298.254 374.012C298.127 373.815 297.952 373.661 297.729 373.55C297.509 373.438 297.258 373.383 296.976 373.383C296.691 373.383 296.437 373.438 296.214 373.55C295.992 373.661 295.816 373.815 295.686 374.012C295.559 374.206 295.497 374.43 295.5 374.684C295.497 374.928 295.557 375.143 295.678 375.329C295.8 375.513 295.971 375.657 296.191 375.76C296.414 375.864 296.675 375.916 296.976 375.916ZM296.976 372.291C297.219 372.291 297.434 372.242 297.621 372.144C297.81 372.045 297.959 371.908 298.067 371.732C298.176 371.556 298.232 371.352 298.235 371.122C298.232 370.894 298.178 370.694 298.071 370.523C297.965 370.35 297.818 370.217 297.628 370.123C297.439 370.028 297.222 369.98 296.976 369.98C296.725 369.98 296.503 370.028 296.311 370.123C296.122 370.217 295.975 370.35 295.869 370.523C295.765 370.694 295.714 370.894 295.717 371.122C295.714 371.352 295.766 371.556 295.872 371.732C295.981 371.905 296.13 372.042 296.319 372.144C296.511 372.242 296.73 372.291 296.976 372.291ZM304.807 375.426V375.007C304.807 374.698 304.872 374.415 305.001 374.156C305.133 373.897 305.325 373.688 305.576 373.53C305.827 373.372 306.132 373.293 306.489 373.293C306.857 373.293 307.165 373.372 307.414 373.53C307.662 373.686 307.85 373.893 307.977 374.152C308.107 374.411 308.171 374.696 308.171 375.007V375.426C308.171 375.734 308.107 376.018 307.977 376.277C307.848 376.536 307.657 376.745 307.406 376.903C307.157 377.061 306.852 377.14 306.489 377.14C306.127 377.14 305.82 377.061 305.568 376.903C305.317 376.745 305.127 376.536 304.997 376.277C304.87 376.018 304.807 375.734 304.807 375.426ZM305.821 375.007V375.426C305.821 375.631 305.87 375.819 305.969 375.99C306.067 376.161 306.241 376.246 306.489 376.246C306.74 376.246 306.913 376.162 307.006 375.993C307.102 375.823 307.15 375.633 307.15 375.426V375.007C307.15 374.8 307.104 374.61 307.014 374.439C306.923 374.266 306.748 374.179 306.489 374.179C306.246 374.179 306.074 374.266 305.973 374.439C305.872 374.61 305.821 374.8 305.821 375.007ZM300.763 370.873V370.454C300.763 370.143 300.829 369.858 300.961 369.599C301.093 369.34 301.285 369.133 301.536 368.977C301.787 368.819 302.091 368.74 302.449 368.74C302.814 368.74 303.121 368.819 303.37 368.977C303.621 369.133 303.81 369.34 303.937 369.599C304.064 369.858 304.127 370.143 304.127 370.454V370.873C304.127 371.184 304.062 371.469 303.933 371.728C303.806 371.984 303.617 372.19 303.366 372.346C303.114 372.501 302.809 372.579 302.449 372.579C302.084 372.579 301.775 372.501 301.524 372.346C301.276 372.19 301.087 371.983 300.957 371.724C300.828 371.465 300.763 371.181 300.763 370.873ZM301.785 370.454V370.873C301.785 371.08 301.832 371.269 301.928 371.44C302.027 371.609 302.2 371.693 302.449 371.693C302.698 371.693 302.868 371.609 302.962 371.44C303.058 371.269 303.105 371.08 303.105 370.873V370.454C303.105 370.246 303.06 370.057 302.969 369.886C302.879 369.713 302.705 369.626 302.449 369.626C302.203 369.626 302.031 369.713 301.932 369.886C301.834 370.06 301.785 370.249 301.785 370.454ZM301.206 376.918L306.676 368.962H307.647L302.177 376.918H301.206Z" fill="#537AEF"/>
</g>
</g>
<rect x="0.5" y="0.5" width="535" height="526" rx="21.5" stroke="#E3E4E8"/>
<defs>
<filter id="filter0_d_1128_19562" x="51" y="93" width="434" height="170" filterUnits="userSpaceOnUse" color-interpolation-filters="sRGB">
<feFlood flood-opacity="0" result="BackgroundImageFix"/>
<feColorMatrix in="SourceAlpha" type="matrix" values="0 0 0 0 0 0 0 0 0 0 0 0 0 0 0 0 0 0 127 0" result="hardAlpha"/>
<feOffset/>
<feGaussianBlur stdDeviation="25"/>
<feComposite in2="hardAlpha" operator="out"/>
<feColorMatrix type="matrix" values="0 0 0 0 0.32549 0 0 0 0 0.478431 0 0 0 0 0.937255 0 0 0 0.3 0"/>
<feBlend mode="normal" in2="BackgroundImageFix" result="effect1_dropShadow_1128_19562"/>
<feBlend mode="normal" in="SourceGraphic" in2="effect1_dropShadow_1128_19562" result="shape"/>
</filter>
<filter id="filter1_d_1128_19562" x="51" y="179" width="434" height="170" filterUnits="userSpaceOnUse" color-interpolation-filters="sRGB">
<feFlood flood-opacity="0" result="BackgroundImageFix"/>
<feColorMatrix in="SourceAlpha" type="matrix" values="0 0 0 0 0 0 0 0 0 0 0 0 0 0 0 0 0 0 127 0" result="hardAlpha"/>
<feOffset/>
<feGaussianBlur stdDeviation="25"/>
<feComposite in2="hardAlpha" operator="out"/>
<feColorMatrix type="matrix" values="0 0 0 0 0.32549 0 0 0 0 0.478431 0 0 0 0 0.937255 0 0 0 0.3 0"/>
<feBlend mode="normal" in2="BackgroundImageFix" result="effect1_dropShadow_1128_19562"/>
<feBlend mode="normal" in="SourceGraphic" in2="effect1_dropShadow_1128_19562" result="shape"/>
</filter>
<filter id="filter2_d_1128_19562" x="51" y="265" width="434" height="170" filterUnits="userSpaceOnUse" color-interpolation-filters="sRGB">
<feFlood flood-opacity="0" result="BackgroundImageFix"/>
<feColorMatrix in="SourceAlpha" type="matrix" values="0 0 0 0 0 0 0 0 0 0 0 0 0 0 0 0 0 0 127 0" result="hardAlpha"/>
<feOffset/>
<feGaussianBlur stdDeviation="25"/>
<feComposite in2="hardAlpha" operator="out"/>
<feColorMatrix type="matrix" values="0 0 0 0 0.32549 0 0 0 0 0.478431 0 0 0 0 0.937255 0 0 0 0.3 0"/>
<feBlend mode="normal" in2="BackgroundImageFix" result="effect1_dropShadow_1128_19562"/>
<feBlend mode="normal" in="SourceGraphic" in2="effect1_dropShadow_1128_19562" result="shape"/>
</filter>
<filter id="filter3_b_1128_19562" x="254.205" y="360.085" width="64.9561" height="26.6662" filterUnits="userSpaceOnUse" color-interpolation-filters="sRGB">
<feFlood flood-opacity="0" result="BackgroundImageFix"/>
<feGaussianBlur in="BackgroundImageFix" stdDeviation="1.3675"/>
<feComposite in2="SourceAlpha" operator="in" result="effect1_backgroundBlur_1128_19562"/>
<feBlend mode="normal" in="SourceGraphic" in2="effect1_backgroundBlur_1128_19562" result="shape"/>
</filter>
<linearGradient id="paint0_linear_1128_19562" x1="370.1" y1="380.939" x2="370.1" y2="473.245" gradientUnits="userSpaceOnUse">
<stop stop-color="#537AEF" stop-opacity="0.6"/>
<stop offset="1" stop-color="#537AEF" stop-opacity="0"/>
</linearGradient>
<clipPath id="clip0_1128_19562">
<rect width="536" height="527" rx="22" fill="white"/>
</clipPath>
</defs>
</svg>
