<svg width="128" height="49" viewBox="0 0 128 49" fill="none" xmlns="http://www.w3.org/2000/svg">
<g clip-path="url(#clip0_1128_18844)">
<path d="M27.9006 12.6338C27.8753 12.4568 27.7236 12.3557 27.5972 12.3557C27.4708 12.3557 24.9681 12.3051 24.9681 12.3051C24.9681 12.3051 22.8699 10.2827 22.6677 10.0552C22.4654 9.85297 22.0609 9.90353 21.9093 9.95409C21.9093 9.95409 21.5048 10.0805 20.8475 10.2827C20.7464 9.92881 20.5694 9.49905 20.3419 9.04401C19.6088 7.62834 18.4965 6.86994 17.1819 6.86994C17.0808 6.86994 17.005 6.86994 16.9038 6.89522C16.8533 6.84466 16.828 6.7941 16.7774 6.76882C16.196 6.16211 15.4629 5.85875 14.5781 5.88403C12.8843 5.93459 11.1906 7.1733 9.80019 9.34737C8.83956 10.8894 8.10644 12.8107 7.87892 14.3022C5.93237 14.9089 4.56726 15.3387 4.5167 15.3387C3.53079 15.6421 3.50551 15.6673 3.37911 16.6027C3.32855 17.3105 0.75 37.2564 0.75 37.2564L22.3896 40.9978L31.7684 38.672C31.7431 38.672 27.9259 12.8107 27.9006 12.6338ZM19.7605 10.6366C19.2549 10.7883 18.6987 10.9653 18.092 11.1675C18.092 10.308 17.9656 9.09457 17.5864 8.08338C18.8757 8.28562 19.5077 9.75185 19.7605 10.6366ZM16.9544 11.4962C15.8168 11.8501 14.5781 12.2293 13.3394 12.6085C13.6933 11.2686 14.3506 9.95409 15.1595 9.06929C15.4629 8.74065 15.8926 8.38674 16.373 8.1845C16.8786 9.17041 16.9797 10.5608 16.9544 11.4962ZM14.6287 7.02162C15.0331 7.02162 15.3618 7.09746 15.6398 7.2997C15.1848 7.52722 14.7298 7.88114 14.3253 8.33618C13.2383 9.49905 12.404 11.2939 12.0754 13.0382C11.0389 13.3669 10.0277 13.6702 9.11764 13.9483C9.72435 11.1928 12.0248 7.09746 14.6287 7.02162Z" fill="#95BF47"/>
<path d="M27.5973 12.3558C27.4709 12.3558 24.9682 12.3053 24.9682 12.3053C24.9682 12.3053 22.87 10.2829 22.6677 10.0554C22.5919 9.97951 22.4908 9.92896 22.3896 9.92896V40.9979L31.7685 38.6722C31.7685 38.6722 27.9512 12.8109 27.9259 12.6339C27.8754 12.4569 27.7237 12.3558 27.5973 12.3558Z" fill="#5E8E3E"/>
<path d="M17.1823 17.1839L16.0953 21.254C16.0953 21.254 14.8819 20.6979 13.4409 20.799C11.3174 20.9254 11.3174 22.2652 11.3174 22.5938C11.4438 24.414 16.2217 24.8185 16.4998 29.0908C16.702 32.453 14.7302 34.7535 11.8483 34.9304C8.41021 35.1074 6.51422 33.085 6.51422 33.085L7.24734 29.9756C7.24734 29.9756 9.16861 31.4165 10.6854 31.3154C11.6713 31.2648 12.0505 30.4306 12 29.8744C11.8483 27.4981 7.95517 27.6498 7.70238 23.7314C7.50014 20.4451 9.64893 17.1334 14.4015 16.83C16.247 16.7036 17.1823 17.1839 17.1823 17.1839Z" fill="white"/>
<path d="M44.4592 25.8553C43.3721 25.2739 42.816 24.7683 42.816 24.0857C42.816 23.2262 43.5996 22.6701 44.8131 22.6701C46.2288 22.6701 47.4927 23.2515 47.4927 23.2515L48.4787 20.2179C48.4787 20.2179 47.5686 19.5101 44.8889 19.5101C41.1475 19.5101 38.5437 21.6589 38.5437 24.6672C38.5437 26.3862 39.7571 27.6755 41.375 28.6108C42.6896 29.344 43.1446 29.8748 43.1446 30.6585C43.1446 31.4675 42.4873 32.1247 41.2739 32.1247C39.479 32.1247 37.76 31.1894 37.76 31.1894L36.6982 34.223C36.6982 34.223 38.2656 35.2847 40.92 35.2847C44.7625 35.2847 47.5433 33.3887 47.5433 29.976C47.518 28.1305 46.1276 26.816 44.4592 25.8553Z" fill="black"/>
<path d="M59.7788 19.4597C57.8829 19.4597 56.3913 20.3698 55.2538 21.7349L55.2032 21.7097L56.8464 13.1145H52.5741L48.4029 35.0069H52.6752L54.0909 27.524C54.647 24.6927 56.1133 22.9484 57.4784 22.9484C58.439 22.9484 58.8182 23.6056 58.8182 24.541C58.8182 25.1224 58.7677 25.8556 58.6413 26.437L57.0233 35.0069H61.2956L62.9641 26.1589C63.1411 25.2236 63.2675 24.1112 63.2675 23.3528C63.2928 20.926 62.0288 19.4597 59.7788 19.4597Z" fill="black"/>
<path d="M72.9746 19.4594C67.8175 19.4594 64.4047 24.1109 64.4047 29.2932C64.4047 32.6049 66.4524 35.2846 70.2949 35.2846C75.3509 35.2846 78.7637 30.7595 78.7637 25.4507C78.789 22.3918 76.9941 19.4594 72.9746 19.4594ZM70.8763 32.0235C69.4101 32.0235 68.8034 30.7848 68.8034 29.2174C68.8034 26.7653 70.0674 22.771 72.3931 22.771C73.9099 22.771 74.4155 24.0856 74.4155 25.3496C74.4155 27.9787 73.1263 32.0235 70.8763 32.0235Z" fill="black"/>
<path d="M89.7357 19.4594C86.8538 19.4594 85.2106 22.0126 85.2106 22.0126H85.1601L85.4129 19.7122H81.6209C81.4439 21.2542 81.09 23.6306 80.7614 25.4001L77.7783 41.0737H82.0506L83.2388 34.7284H83.3399C83.3399 34.7284 84.2247 35.2846 85.8426 35.2846C90.8733 35.2846 94.1597 30.1275 94.1597 24.9198C94.1597 22.0379 92.8704 19.4594 89.7357 19.4594ZM85.6404 32.074C84.5281 32.074 83.8708 31.442 83.8708 31.442L84.5786 27.4478C85.0842 24.7681 86.4746 22.9986 87.9661 22.9986C89.2807 22.9986 89.6852 24.212 89.6852 25.3496C89.6852 28.1304 88.042 32.074 85.6404 32.074Z" fill="black"/>
<path d="M100.277 13.3166C98.9116 13.3166 97.8245 14.4037 97.8245 15.7941C97.8245 17.0581 98.6335 17.9429 99.8469 17.9429H99.8975C101.237 17.9429 102.375 17.0328 102.4 15.4654C102.4 14.2267 101.566 13.3166 100.277 13.3166Z" fill="black"/>
<path d="M94.2856 34.9814H98.5579L101.465 19.8134H97.1675L94.2856 34.9814Z" fill="black"/>
<path d="M112.36 19.7884H109.377L109.529 19.0806C109.782 17.6143 110.641 16.3251 112.082 16.3251C112.841 16.3251 113.448 16.5526 113.448 16.5526L114.282 13.1904C114.282 13.1904 113.549 12.8112 111.956 12.8112C110.439 12.8112 108.922 13.2409 107.76 14.2268C106.293 15.4655 105.611 17.2604 105.282 19.0806L105.156 19.7884H103.159L102.527 23.0242H104.524L102.249 35.0069H106.521L108.796 23.0242H111.754L112.36 19.7884Z" fill="black"/>
<path d="M122.674 19.8134C122.674 19.8134 119.995 26.5632 118.807 30.254H118.756C118.68 29.0659 117.694 19.8134 117.694 19.8134H113.194L115.773 33.7426C115.824 34.046 115.798 34.2482 115.672 34.4505C115.166 35.4111 114.332 36.3465 113.346 37.029C112.537 37.6105 111.627 37.9897 110.919 38.2425L112.107 41.8828C112.967 41.7058 114.787 40.9727 116.304 39.557C118.25 37.7369 120.071 34.9055 121.916 31.063L127.149 19.8134H122.674Z" fill="black"/>
</g>
<defs>
<clipPath id="clip0_1128_18844">
<rect width="127" height="48" fill="white" transform="translate(0.75 0.75)"/>
</clipPath>
</defs>
</svg>
