<svg width="220" height="49" viewBox="0 0 220 49" fill="none" xmlns="http://www.w3.org/2000/svg">
<path fill-rule="evenodd" clip-rule="evenodd" d="M8.14007 26.5818L20.4327 14.1387C21.2679 13.2933 22.3791 12.8284 23.5636 12.8284C24.7473 12.8284 25.8585 13.2928 26.6928 14.1382L27.6506 15.1077L29.5665 13.1683L28.6087 12.1989C27.2633 10.837 25.4717 10.0869 23.5628 10.0869C21.6547 10.0874 19.8627 10.8374 18.5172 12.1998L6.22461 24.6425L8.14007 26.5818Z" fill="black"/>
<path fill-rule="evenodd" clip-rule="evenodd" d="M24.5867 18.2718L22.6618 16.3353L10.3114 28.76C8.5771 30.5048 5.75516 30.5052 4.02125 28.7609C2.2869 27.0162 2.2869 24.1769 4.02125 22.4322L14.6784 11.7117L12.7535 9.77563L2.09673 20.4962C-0.69891 23.3085 -0.69891 27.885 2.09673 30.697C3.44854 32.0569 5.24862 32.8062 7.16569 32.8062C9.0832 32.8062 10.8842 32.0564 12.236 30.6965L24.5867 18.2718Z" fill="black"/>
<path fill-rule="evenodd" clip-rule="evenodd" d="M36.806 20.5988C35.4546 19.2389 33.6546 18.4899 31.7366 18.4899C29.8191 18.4904 28.0181 19.2393 26.6663 20.5997L14.3163 33.0242L16.2404 34.9607L28.5913 22.5358C30.3261 20.791 33.1476 20.7914 34.8815 22.5353C35.7202 23.379 36.182 24.5023 36.182 25.6991C36.182 26.8963 35.7202 28.02 34.8815 28.8637L24.2247 39.5844L26.1497 41.5205L36.806 30.8002C39.6021 27.9878 39.6021 23.4112 36.806 20.5988Z" fill="black"/>
<path fill-rule="evenodd" clip-rule="evenodd" d="M30.7633 24.7144L18.4709 37.1575C16.7444 38.9044 13.9362 38.9052 12.2105 37.1579L11.2528 36.1885L9.33691 38.1278L10.2946 39.0973C11.64 40.4592 13.4316 41.2093 15.3409 41.2093C17.2489 41.2088 19.0405 40.4588 20.3864 39.0964L32.6788 26.6537L30.7633 24.7144Z" fill="black"/>
<path fill-rule="evenodd" clip-rule="evenodd" d="M50.2548 28.8881C50.4134 29.682 50.785 30.3036 51.3687 30.7515C51.952 31.2002 52.7196 31.4242 53.6714 31.4242C54.6079 31.4242 55.3319 31.2038 55.8438 30.7626C56.3556 30.3218 56.6113 29.7411 56.6113 29.0205C56.6113 28.6677 56.5429 28.37 56.4062 28.1274C56.2689 27.8848 56.0781 27.6791 55.8333 27.5098C55.5876 27.3414 55.2853 27.1975 54.9251 27.0802C54.5648 26.9624 54.161 26.8376 53.7141 26.7052L52.547 26.3746C51.8549 26.1836 51.235 25.9521 50.6874 25.6797C50.1394 25.4078 49.6711 25.0879 49.2821 24.7205C48.8931 24.353 48.5973 23.9305 48.3956 23.4524C48.1939 22.9748 48.0929 22.4194 48.0929 21.7876C48.0929 21.126 48.2227 20.516 48.4823 19.957C48.7415 19.399 49.1092 18.9205 49.5849 18.5237C50.0606 18.1269 50.6369 17.8146 51.3147 17.5862C51.9916 17.3592 52.7553 17.245 53.606 17.245C55.206 17.245 56.4741 17.6307 57.4116 18.4024C58.3481 19.1746 58.8957 20.2072 59.0547 21.501L56.4602 21.7214C56.3012 21.0598 55.9845 20.5453 55.5088 20.1779C55.0331 19.8104 54.3701 19.6265 53.5198 19.6265C52.727 19.6265 52.1071 19.814 51.6606 20.189C51.2132 20.564 50.9897 21.0456 50.9897 21.6334C50.9897 21.9715 51.0551 22.2541 51.1849 22.482C51.3147 22.7104 51.5016 22.9086 51.7468 23.0774C51.9916 23.2467 52.2909 23.3973 52.6438 23.5293C52.997 23.6617 53.3969 23.8021 53.8439 23.9487L54.9469 24.3015C55.6382 24.5219 56.262 24.7533 56.8165 24.9959C57.3715 25.2385 57.8437 25.5291 58.2327 25.8672C58.6221 26.2053 58.9214 26.6097 59.1301 27.0802C59.3392 27.5507 59.4437 28.1314 59.4437 28.8223C59.4437 29.5576 59.2995 30.2303 59.0116 30.8399C58.7228 31.4504 58.3198 31.9684 57.8006 32.3945C57.2818 32.8211 56.6658 33.1521 55.9518 33.3867C55.2383 33.6217 54.4494 33.7399 53.5847 33.7399C51.9847 33.7399 50.6512 33.3578 49.5849 32.5931C48.518 31.8285 47.8624 30.6746 47.6172 29.1307L50.2548 28.8881Z" fill="black"/>
<path fill-rule="evenodd" clip-rule="evenodd" d="M70.6045 19.9268C69.8268 19.9268 69.1313 20.0732 68.5191 20.3651C67.9064 20.6574 67.3877 21.0625 66.9632 21.5808C66.5377 22.0996 66.2133 22.7135 65.9899 23.4211C65.7669 24.13 65.6554 24.9004 65.6554 25.7328C65.6554 26.5655 65.7704 27.3395 66.0012 28.0555C66.2311 28.7711 66.5595 29.3916 66.9845 29.9179C67.4091 30.4433 67.9281 30.8559 68.5408 31.1558C69.1526 31.4547 69.8481 31.6042 70.6263 31.6042C71.4044 31.6042 72.0994 31.4622 72.7121 31.1774C73.3239 30.8926 73.843 30.4946 74.268 29.9829C74.693 29.4721 75.0209 28.8547 75.2513 28.132C75.4817 27.4089 75.5971 26.6164 75.5971 25.7549C75.5971 24.9075 75.4817 24.126 75.2513 23.4105C75.0209 22.6953 74.693 22.0815 74.268 21.5702C73.843 21.0594 73.3205 20.6574 72.7008 20.3651C72.0816 20.0732 71.3827 19.9268 70.6045 19.9268ZM70.6263 17.5563C71.7933 17.5563 72.8597 17.7575 73.8252 18.16C74.7901 18.5624 75.6114 19.1254 76.289 19.8498C76.9657 20.5747 77.4913 21.4415 77.8667 22.4512C78.2412 23.4609 78.4284 24.5656 78.4284 25.7655C78.4284 27.01 78.2303 28.1329 77.8345 29.1351C77.4373 30.1377 76.8725 31.0045 76.1375 31.736L78.2124 34.2166V34.9848H75.5757L74.1274 33.1853C73.6231 33.4192 73.0823 33.6019 72.5066 33.7337C71.93 33.8655 71.3104 33.9314 70.648 33.9314C69.4518 33.9314 68.3749 33.7297 67.4169 33.3277C66.4584 32.9252 65.6441 32.3618 64.9744 31.6374C64.3042 30.913 63.7856 30.0501 63.4185 29.0471C63.051 28.0449 62.8672 26.9512 62.8672 25.7655C62.8672 24.5656 63.051 23.4649 63.4185 22.4618C63.7856 21.4601 64.3077 20.5964 64.9853 19.8719C65.662 19.1475 66.4798 18.5805 67.4382 18.1706C68.3967 17.7615 69.4592 17.5563 70.6263 17.5563Z" fill="black"/>
<path fill-rule="evenodd" clip-rule="evenodd" d="M89.0101 31.4689C90.1158 31.4689 90.9772 31.1202 91.5947 30.4218C92.2118 29.7235 92.5208 28.6541 92.5208 27.2134V17.5563H95.2346V27.2796C95.2346 28.4262 95.091 29.4072 94.8037 30.2232C94.516 31.0389 94.1073 31.7079 93.5761 32.2299C93.045 32.7519 92.3914 33.134 91.6164 33.3765C90.841 33.6191 89.9722 33.7399 89.0101 33.7399C88.0333 33.7399 87.1611 33.6191 86.3935 33.3765C85.6249 33.134 84.9753 32.7519 84.4442 32.2299C83.913 31.7079 83.5038 31.0389 83.2161 30.2232C82.9288 29.4072 82.7856 28.4262 82.7856 27.2796V17.5563H85.4995V27.2134C85.4995 28.6541 85.8081 29.7235 86.4256 30.4218C87.0431 31.1202 87.9045 31.4689 89.0101 31.4689Z" fill="black"/>
<path fill-rule="evenodd" clip-rule="evenodd" d="M103.01 26.645H108.203L107.348 24.1743C107.012 23.2066 106.742 22.4189 106.537 21.8123C106.333 21.2053 106.15 20.6709 105.99 20.2084H105.311C105.223 20.4538 105.135 20.6997 105.047 20.9451C104.96 21.1909 104.861 21.4656 104.752 21.7687C104.642 22.0721 104.522 22.4189 104.39 22.8092C104.259 23.1988 104.098 23.6542 103.908 24.1743L103.01 26.645ZM98.0356 32.6702L103.623 17.8674H107.765L113.286 32.6702V33.4287H110.569L108.991 28.9855H102.177L100.6 33.4287H98.0356V32.6702Z" fill="black"/>
<path fill-rule="evenodd" clip-rule="evenodd" d="M119.4 24.9762H121.766C122.807 24.9762 123.628 24.7863 124.228 24.4072C124.829 24.0277 125.13 23.4085 125.13 22.5487C125.13 21.6753 124.825 21.067 124.218 20.7233C123.61 20.3801 122.793 20.2081 121.766 20.2081H119.4V24.9762ZM128.536 33.4287H125.91L121.158 27.3168H119.4V33.4287H116.709V17.8674H121.766C122.561 17.8674 123.317 17.9216 124.033 18.0299C124.749 18.1382 125.397 18.3875 125.976 18.7775C127.205 19.5862 127.82 20.8072 127.82 22.4391C127.82 23.1474 127.715 23.7648 127.505 24.2924C127.295 24.8194 127.017 25.267 126.67 25.6356C126.322 26.0042 125.921 26.3037 125.466 26.5343C125.01 26.7657 124.536 26.9391 124.044 27.0544L128.536 32.6697V33.4287Z" fill="black"/>
<path fill-rule="evenodd" clip-rule="evenodd" d="M131.959 17.8674H142.077V20.2512H134.635V24.3258H141.555V26.6664H134.635V31.0444H142.229V33.4287H131.959V17.8674Z" fill="black"/>
<path fill-rule="evenodd" clip-rule="evenodd" d="M148.291 28.8881C148.449 29.682 148.821 30.3036 149.405 30.7515C149.988 31.2002 150.756 31.4242 151.707 31.4242C152.644 31.4242 153.368 31.2038 153.88 30.7626C154.391 30.3218 154.648 29.7411 154.648 29.0205C154.648 28.6677 154.579 28.37 154.442 28.1274C154.305 27.8848 154.114 27.6791 153.869 27.5098C153.624 27.3414 153.321 27.1975 152.961 27.0802C152.601 26.9624 152.197 26.8376 151.75 26.7052L150.583 26.3746C149.891 26.1836 149.271 25.9521 148.723 25.6797C148.175 25.4078 147.707 25.0879 147.319 24.7205C146.929 24.353 146.633 23.9305 146.432 23.4524C146.23 22.9748 146.129 22.4194 146.129 21.7876C146.129 21.126 146.259 20.516 146.518 19.957C146.778 19.399 147.145 18.9205 147.621 18.5237C148.097 18.1269 148.673 17.8146 149.351 17.5862C150.028 17.3592 150.792 17.245 151.642 17.245C153.242 17.245 154.51 17.6307 155.447 18.4024C156.384 19.1746 156.932 20.2072 157.09 21.501L154.496 21.7214C154.337 21.0598 154.02 20.5453 153.545 20.1779C153.069 19.8104 152.406 19.6265 151.556 19.6265C150.763 19.6265 150.143 19.814 149.697 20.189C149.25 20.564 149.026 21.0456 149.026 21.6334C149.026 21.9715 149.091 22.2541 149.221 22.482C149.351 22.7104 149.538 22.9086 149.783 23.0774C150.028 23.2467 150.327 23.3973 150.68 23.5293C151.033 23.6617 151.433 23.8021 151.88 23.9487L152.983 24.3015C153.674 24.5219 154.298 24.7533 154.853 24.9959C155.407 25.2385 155.88 25.5291 156.268 25.8672C156.658 26.2053 156.957 26.6097 157.166 27.0802C157.375 27.5507 157.48 28.1314 157.48 28.8223C157.48 29.5576 157.336 30.2303 157.047 30.8399C156.759 31.4504 156.356 31.9684 155.836 32.3945C155.318 32.8211 154.702 33.1521 153.988 33.3867C153.274 33.6217 152.485 33.7399 151.621 33.7399C150.021 33.7399 148.687 33.3578 147.621 32.5931C146.554 31.8285 145.899 30.6746 145.653 29.1307L148.291 28.8881Z" fill="black"/>
<path fill-rule="evenodd" clip-rule="evenodd" d="M164.283 25.1061H166.93C167.416 25.1061 167.86 25.0668 168.265 24.9878C168.669 24.9092 169.022 24.7769 169.324 24.5904C169.625 24.4044 169.861 24.1538 170.03 23.8385C170.199 23.5236 170.283 23.1367 170.283 22.6782C170.283 22.2058 170.199 21.8088 170.03 21.4866C169.861 21.1643 169.629 20.9102 169.335 20.7237C169.04 20.5372 168.691 20.4049 168.287 20.3263C167.882 20.2477 167.445 20.208 166.975 20.208H164.283V25.1061ZM161.525 17.8674H167.305C168.379 17.8674 169.28 17.9901 170.008 18.236C170.736 18.4814 171.324 18.8207 171.773 19.2547C172.221 19.6879 172.545 20.1971 172.743 20.7827C172.941 21.3674 173.041 21.9997 173.041 22.6787C173.041 23.4883 172.905 24.1922 172.633 24.7917C172.361 25.3913 171.967 25.886 171.453 26.2764C170.937 26.6664 170.313 26.9589 169.577 27.1541C168.842 27.3493 168.011 27.4467 167.085 27.4467H164.283V33.4287H161.525V17.8674Z" fill="black"/>
<path fill-rule="evenodd" clip-rule="evenodd" d="M178.638 26.645H183.831L182.976 24.1743C182.639 23.2066 182.369 22.4189 182.165 21.8123C181.96 21.2053 181.778 20.6709 181.617 20.2084H180.938C180.851 20.4538 180.763 20.6997 180.675 20.9451C180.588 21.1909 180.489 21.4656 180.379 21.7687C180.27 22.0721 180.15 22.4189 180.018 22.8092C179.886 23.1988 179.726 23.6542 179.536 24.1743L178.638 26.645ZM173.664 32.6702L179.251 17.8674H183.392L188.914 32.6702V33.4287H186.197L184.619 28.9855H177.805L176.227 33.4287H173.664V32.6702Z" fill="black"/>
<path fill-rule="evenodd" clip-rule="evenodd" d="M205.408 29.3144C205.161 29.9219 204.837 30.4937 204.437 31.03C204.036 31.5663 203.552 32.0361 202.985 32.4374C202.417 32.8386 201.759 33.156 201.009 33.3894C200.259 33.6228 199.426 33.7399 198.509 33.7399C197.345 33.7399 196.286 33.5371 195.333 33.1319C194.379 32.7276 193.566 32.1668 192.892 31.4513C192.218 30.7349 191.697 29.8822 191.331 28.8913C190.964 27.9008 190.781 26.8269 190.781 25.6695C190.781 24.513 190.964 23.439 191.331 22.4481C191.697 21.4577 192.221 20.6006 192.902 19.8772C193.584 19.1547 194.401 18.5865 195.355 18.1747C196.308 17.7621 197.374 17.5562 198.553 17.5562C200.27 17.5562 201.708 17.9544 202.865 18.7495C204.022 19.5446 204.841 20.6006 205.321 21.9166L202.549 22.4586C202.17 21.6636 201.642 21.0377 200.965 20.5822C200.288 20.1268 199.47 19.899 198.509 19.899C197.738 19.899 197.05 20.0468 196.446 20.3423C195.842 20.6377 195.333 21.0447 194.918 21.5635C194.503 22.0819 194.186 22.6942 193.968 23.4006C193.75 24.1065 193.641 24.8626 193.641 25.6695C193.641 26.4908 193.753 27.2509 193.979 27.9498C194.204 28.6491 194.532 29.2536 194.961 29.7655C195.391 30.2769 195.911 30.6764 196.523 30.9644C197.134 31.2529 197.833 31.3971 198.618 31.3971C199.637 31.3971 200.478 31.151 201.14 30.6593C201.803 30.1676 202.315 29.5675 202.679 28.8585L205.408 29.3144Z" fill="black"/>
<path fill-rule="evenodd" clip-rule="evenodd" d="M208.969 17.6796H219.144V20.0864H211.66V24.2005H218.619V26.5637H211.66V30.9842H219.298V33.3915H208.969V17.6796Z" fill="black"/>
</svg>
