<svg width="116" height="49" viewBox="0 0 116 49" fill="none" xmlns="http://www.w3.org/2000/svg">
<path d="M37.2464 21.5558C37.2464 19.4942 35.1848 17.2951 31.7488 17.2951C27.9005 17.2951 23.5024 20.1814 22.8152 25.9539C22.128 31.7264 25.7014 34.3378 29.4123 34.3378C33.1232 34.3378 34.91 32.9634 36.8341 31.0392C35.1848 28.9776 32.9858 29.9397 32.5735 30.0771C32.1611 30.352 31.4739 30.6269 30.3744 30.6269C29 30.6269 27.4881 29.9397 27.4881 27.3283C36.5592 26.3662 37.2464 23.6174 37.2464 21.5558ZM32.8483 21.8307C32.8483 22.5179 32.5735 23.6174 28.0379 24.1671C29 20.7311 30.7867 20.4562 31.6114 20.4562C32.436 20.5937 32.8483 21.1435 32.8483 21.8307ZM17.5924 22.3804C17.5924 22.3804 15.6682 28.4278 15.5308 28.9776C15.5308 28.4278 14.019 17.57 14.019 17.57C10.7204 17.57 8.93365 19.9065 8.109 22.3804C8.109 22.3804 5.77251 28.4278 5.63507 28.9776C5.49763 28.5653 5.22275 22.5179 5.22275 22.5179C4.94787 19.4942 2.19905 17.57 0 17.57L2.74882 34.0629C6.18483 34.0629 8.109 31.7264 9.07109 29.2525C9.07109 29.2525 11.1327 23.8923 11.2701 23.6174C11.2701 23.8923 12.782 34.0629 12.782 34.0629C16.218 34.0629 18.1422 31.8638 19.1043 29.5273L23.9147 17.57C20.3412 17.57 18.5545 19.9065 17.5924 22.3804ZM50.0284 17.1577C47.9668 17.1577 46.3175 18.2572 44.9431 20.0439L46.0427 10.1482C43.1564 10.1482 40.9573 12.6221 40.4076 16.1956L38.2085 33.9254C39.8578 33.9254 41.5071 33.5131 42.4692 32.2762C43.2938 33.3757 44.5308 34.2003 46.3175 34.2003C51.128 34.2003 54.4265 28.7027 54.4265 23.4799C54.564 18.6695 52.2275 17.1577 50.0284 17.1577ZM49.4787 25.679C48.9289 28.5653 47.4171 30.4894 45.7678 30.4894C44.2559 30.4894 43.5687 29.8022 43.5687 29.8022C43.8436 27.3283 44.1185 25.679 44.6682 24.3046C45.218 22.9302 46.5924 20.8686 47.9668 20.8686C49.3412 21.006 50.0284 22.7927 49.4787 25.679ZM66.5213 17.57H63.2227V17.4326C63.4976 15.2335 63.91 14.134 65.6967 13.9965C66.7962 13.8591 67.346 13.3093 67.4834 12.6221C67.6208 12.0724 67.8957 10.2856 67.8957 10.2856C61.1611 10.2856 59.0995 13.1719 58.5498 17.57V17.7074H58.4123C57.3128 17.7074 56.0758 18.9444 55.9384 20.4562L55.8009 21.006H58L56.0758 36.3994L55.5261 39.1482C55.6635 39.1482 55.6635 39.1482 55.8009 39.1482C58.9621 39.0108 60.8863 36.5368 61.436 32.9634L62.9479 20.8686H64.0474C65.0095 20.8686 66.2465 19.9065 66.5213 18.1198V17.57ZM83.8389 17.2951C79.9905 17.2951 76.4171 20.1814 75.3175 24.5795C74.218 28.9776 75.8673 34.3378 81.5024 34.3378C87.1374 34.3378 90.436 28.8401 90.436 24.3046C90.2986 19.769 87.2749 17.2951 83.8389 17.2951ZM85.3507 25.5416C85.2133 27.6032 84.2512 30.6269 81.7772 30.6269C79.3033 30.6269 79.7156 27.0534 79.8531 25.4041C80.128 23.6174 81.09 21.006 83.2891 21.006C85.3507 21.006 85.6256 23.3425 85.3507 25.5416ZM109.403 22.3804C109.403 22.3804 107.479 28.4278 107.341 28.9776C107.341 28.4278 105.829 17.57 105.829 17.57C102.531 17.57 100.744 19.9065 99.9194 22.3804C99.9194 22.3804 97.5829 28.4278 97.4455 28.9776C97.4455 28.5653 97.0332 22.5179 97.0332 22.5179C96.8957 19.4942 94.0095 17.7074 91.8104 17.7074L94.5592 34.2003C97.9953 34.2003 99.9194 31.8638 100.882 29.3899C100.882 29.3899 102.943 24.0297 103.081 23.7548C103.081 24.0297 104.592 34.2003 104.592 34.2003C108.028 34.2003 109.953 32.0013 110.915 29.6648L115.45 17.57C112.014 17.57 110.227 19.9065 109.403 22.3804ZM69.6825 10.2856L66.9336 32.8259L66.3839 35.5747C66.5213 35.5747 66.5213 35.5747 66.6588 35.5747C69.6825 35.5747 71.8815 32.8259 72.1564 29.5273L73.8057 16.6079C74.218 12.7596 71.7441 10.2856 69.6825 10.2856Z" fill="#1B1B1B"/>
</svg>
