<svg width="332" height="220" viewBox="0 0 332 220" fill="none" xmlns="http://www.w3.org/2000/svg">
<g clip-path="url(#clip0_1128_19424)">
<rect x="0.666504" width="330.667" height="220" rx="16" fill="#EFF2FF"/>
<rect x="33.0244" y="48" width="265.951" height="188" rx="11.0049" fill="white"/>
<rect x="31.1903" y="46.1659" width="269.62" height="191.668" rx="12.839" stroke="black" stroke-opacity="0.1" stroke-width="3.66829"/>
<rect x="44.0293" y="79.1805" width="243.941" height="31.4763" rx="4.62887" fill="#EFF2FF"/>
<rect x="49.1211" y="84.2722" width="21.2928" height="21.2928" rx="2.77732" fill="#8C57D1"/>
<rect x="76.8943" y="86.1238" width="43.5114" height="7.40619" rx="3.7031" fill="white"/>
<rect x="76.8943" y="86.1238" width="43.5114" height="7.40619" rx="3.7031" fill="white"/>
<rect x="76.8943" y="97.2332" width="84.7083" height="6.48042" rx="3.24021" fill="white"/>
<rect x="241.682" y="88.9011" width="37.031" height="12.0351" rx="6.01753" fill="#537AEF"/>
<rect opacity="0.2" x="250.477" y="93.53" width="19.4413" height="2.77732" rx="1.38866" fill="white"/>
<rect x="44.0293" y="117.137" width="243.941" height="31.4763" rx="4.62887" fill="#EFF2FF"/>
<rect x="49.1211" y="122.229" width="21.2928" height="21.2928" rx="2.77732" fill="#62B7E5"/>
<rect x="76.8943" y="124.081" width="43.5114" height="7.40619" rx="3.7031" fill="white"/>
<rect x="76.8943" y="124.081" width="43.5114" height="7.40619" rx="3.7031" fill="white"/>
<rect x="76.8943" y="135.19" width="84.7083" height="6.48042" rx="3.24021" fill="white"/>
<rect x="241.682" y="126.858" width="37.031" height="12.0351" rx="6.01753" fill="#537AEF"/>
<rect opacity="0.2" x="250.477" y="131.487" width="19.4413" height="2.77732" rx="1.38866" fill="white"/>
<rect x="44.0293" y="155.094" width="243.941" height="31.4763" rx="4.62887" fill="#EFF2FF"/>
<rect x="49.1211" y="160.186" width="21.2928" height="21.2928" rx="2.77732" fill="#EB9D59"/>
<rect x="76.8943" y="162.037" width="43.5114" height="7.40619" rx="3.7031" fill="white"/>
<rect x="76.8943" y="162.037" width="43.5114" height="7.40619" rx="3.7031" fill="white"/>
<rect x="76.8943" y="173.147" width="84.7083" height="6.48042" rx="3.24021" fill="white"/>
<rect x="241.682" y="164.815" width="37.031" height="12.0351" rx="6.01753" fill="#537AEF"/>
<rect opacity="0.2" x="250.477" y="169.443" width="19.4413" height="2.77732" rx="1.38866" fill="white"/>
<rect x="44.0293" y="192.898" width="243.941" height="31.4763" rx="4.62887" fill="#EFF2FF"/>
<rect x="49.1211" y="197.989" width="21.2928" height="21.2928" rx="2.77732" fill="#537AEF"/>
<rect x="76.8943" y="199.841" width="43.5114" height="7.40619" rx="3.7031" fill="white"/>
<rect x="76.8943" y="199.841" width="43.5114" height="7.40619" rx="3.7031" fill="white"/>
<rect x="76.8943" y="210.95" width="84.7083" height="6.48042" rx="3.24021" fill="white"/>
<rect x="241.682" y="202.618" width="37.031" height="12.0351" rx="6.01753" fill="#537AEF"/>
<rect opacity="0.2" x="250.477" y="207.247" width="19.4413" height="2.77732" rx="1.38866" fill="white"/>
<path d="M114.641 70.72C114.028 70.72 113.474 70.5625 112.977 70.2475C112.483 69.929 112.091 69.4618 111.801 68.8458C111.514 68.2263 111.37 67.4668 111.37 66.5673C111.37 65.6433 111.519 64.8751 111.816 64.2626C112.114 63.6466 112.509 63.1864 113.003 62.8819C113.5 62.5739 114.044 62.4199 114.636 62.4199C115.087 62.4199 115.463 62.4969 115.764 62.6509C116.069 62.8014 116.314 62.9904 116.499 63.2179C116.688 63.4419 116.832 63.6624 116.93 63.8794H116.998V59.8369H119.229V70.5888H117.024V69.2973H116.93C116.825 69.5213 116.676 69.7435 116.484 69.964C116.295 70.181 116.048 70.3613 115.743 70.5048C115.442 70.6483 115.075 70.72 114.641 70.72ZM115.35 68.9403C115.71 68.9403 116.015 68.8423 116.263 68.6463C116.515 68.4468 116.708 68.1686 116.841 67.8116C116.977 67.4546 117.045 67.0363 117.045 66.5568C117.045 66.0773 116.979 65.6608 116.846 65.3073C116.713 64.9539 116.52 64.6809 116.268 64.4884C116.016 64.2959 115.71 64.1996 115.35 64.1996C114.982 64.1996 114.672 64.2994 114.42 64.4989C114.168 64.6984 113.978 64.9749 113.848 65.3283C113.719 65.6818 113.654 66.0913 113.654 66.5568C113.654 67.0258 113.719 67.4406 113.848 67.8011C113.981 68.1581 114.172 68.4381 114.42 68.6411C114.672 68.8406 114.982 68.9403 115.35 68.9403Z" fill="#323D48"/>
<path d="M106.291 70.5887V62.5248H108.459V63.9318H108.543C108.69 63.4313 108.937 63.0533 109.284 62.7978C109.63 62.5388 110.029 62.4093 110.481 62.4093C110.593 62.4093 110.713 62.4163 110.843 62.4303C110.972 62.4443 111.086 62.4636 111.184 62.4881V64.4725C111.079 64.441 110.934 64.413 110.748 64.3885C110.563 64.364 110.393 64.3518 110.239 64.3518C109.91 64.3518 109.616 64.4235 109.357 64.567C109.102 64.707 108.899 64.903 108.748 65.155C108.601 65.407 108.528 65.6975 108.528 66.0265V70.5887H106.291Z" fill="#323D48"/>
<path d="M100.311 70.741C99.796 70.741 99.3375 70.6517 98.935 70.4732C98.5325 70.2912 98.214 70.0235 97.9796 69.67C97.7486 69.313 97.6331 68.8685 97.6331 68.3365C97.6331 67.8885 97.7153 67.5122 97.8798 67.2077C98.0443 66.9032 98.2683 66.6582 98.5518 66.4728C98.8353 66.2873 99.1573 66.1473 99.5178 66.0528C99.8818 65.9583 100.263 65.8918 100.662 65.8533C101.131 65.8043 101.509 65.7588 101.796 65.7168C102.083 65.6713 102.292 65.6048 102.421 65.5173C102.55 65.4298 102.615 65.3003 102.615 65.1288V65.0973C102.615 64.7648 102.51 64.5075 102.3 64.3255C102.094 64.1435 101.8 64.0525 101.418 64.0525C101.016 64.0525 100.696 64.1418 100.458 64.3203C100.22 64.4953 100.062 64.7158 99.985 64.9818L97.9166 64.8138C98.0216 64.3238 98.2281 63.9003 98.536 63.5433C98.844 63.1828 99.2413 62.9063 99.7278 62.7138C100.218 62.5178 100.785 62.4198 101.429 62.4198C101.877 62.4198 102.306 62.4723 102.715 62.5773C103.128 62.6823 103.494 62.845 103.812 63.0655C104.134 63.286 104.388 63.5695 104.573 63.916C104.759 64.259 104.852 64.6703 104.852 65.1498V70.5887H102.731V69.4705H102.668C102.538 69.7225 102.365 69.9447 102.148 70.1372C101.931 70.3262 101.67 70.475 101.366 70.5835C101.061 70.6885 100.71 70.741 100.311 70.741ZM100.951 69.1975C101.28 69.1975 101.571 69.1327 101.823 69.0032C102.075 68.8702 102.272 68.6917 102.416 68.4677C102.559 68.2437 102.631 67.99 102.631 67.7065V66.8507C102.561 66.8962 102.465 66.9382 102.342 66.9767C102.223 67.0117 102.089 67.045 101.938 67.0765C101.788 67.1045 101.637 67.1307 101.487 67.1552C101.336 67.1762 101.2 67.1955 101.077 67.213C100.815 67.2515 100.585 67.3127 100.389 67.3967C100.193 67.4807 100.041 67.5945 99.9325 67.738C99.824 67.878 99.7698 68.053 99.7698 68.263C99.7698 68.5675 99.88 68.8002 100.101 68.9612C100.325 69.1187 100.608 69.1975 100.951 69.1975Z" fill="#323D48"/>
<path d="M92.883 70.7462C92.0675 70.7462 91.3623 70.573 90.7673 70.2265C90.1758 69.8765 89.7191 69.39 89.3971 68.767C89.0751 68.1405 88.9141 67.4142 88.9141 66.5883C88.9141 65.7553 89.0751 65.0273 89.3971 64.4043C89.7191 63.7778 90.1758 63.2913 90.7673 62.9448C91.3623 62.5948 92.0675 62.4198 92.883 62.4198C93.6985 62.4198 94.402 62.5948 94.9935 62.9448C95.5885 63.2913 96.047 63.7778 96.369 64.4043C96.691 65.0273 96.852 65.7553 96.852 66.5883C96.852 67.4142 96.691 68.1405 96.369 68.767C96.047 69.39 95.5885 69.8765 94.9935 70.2265C94.402 70.573 93.6985 70.7462 92.883 70.7462ZM92.8935 69.0137C93.2645 69.0137 93.5743 68.9087 93.8228 68.6987C94.0713 68.4852 94.2585 68.1947 94.3845 67.8272C94.514 67.4597 94.5787 67.0415 94.5787 66.5725C94.5787 66.1035 94.514 65.6853 94.3845 65.3178C94.2585 64.9503 94.0713 64.6598 93.8228 64.4463C93.5743 64.2328 93.2645 64.126 92.8935 64.126C92.519 64.126 92.204 64.2328 91.9485 64.4463C91.6965 64.6598 91.5058 64.9503 91.3763 65.3178C91.2503 65.6853 91.1873 66.1035 91.1873 66.5725C91.1873 67.0415 91.2503 67.4597 91.3763 67.8272C91.5058 68.1947 91.6965 68.4852 91.9485 68.6987C92.204 68.9087 92.519 69.0137 92.8935 69.0137Z" fill="#323D48"/>
<path d="M80.179 70.5888V59.8369H82.4154V63.8794H82.4837C82.5817 63.6624 82.7234 63.4419 82.9089 63.2179C83.0979 62.9904 83.3429 62.8014 83.6439 62.6509C83.9484 62.4969 84.3264 62.4199 84.7779 62.4199C85.3659 62.4199 85.9084 62.5739 86.4054 62.8819C86.9024 63.1864 87.2996 63.6466 87.5971 64.2626C87.8946 64.8751 88.0434 65.6433 88.0434 66.5673C88.0434 67.4668 87.8981 68.2263 87.6076 68.8458C87.3206 69.4618 86.9286 69.929 86.4316 70.2475C85.9381 70.5625 85.3851 70.72 84.7727 70.72C84.3387 70.72 83.9694 70.6483 83.6649 70.5048C83.3639 70.3613 83.1172 70.181 82.9247 69.964C82.7322 69.7435 82.5852 69.5213 82.4837 69.2973H82.3839V70.5888H80.179ZM82.3682 66.5568C82.3682 67.0363 82.4347 67.4546 82.5677 67.8116C82.7007 68.1686 82.8932 68.4468 83.1452 68.6463C83.3972 68.8423 83.7034 68.9403 84.0639 68.9403C84.4279 68.9403 84.7359 68.8406 84.9879 68.6411C85.2399 68.4381 85.4306 68.1581 85.5601 67.8011C85.6931 67.4406 85.7596 67.0258 85.7596 66.5568C85.7596 66.0913 85.6949 65.6818 85.5654 65.3283C85.4359 64.9749 85.2451 64.6984 84.9932 64.4989C84.7412 64.2994 84.4314 64.1996 84.0639 64.1996C83.6999 64.1996 83.3919 64.2959 83.1399 64.4884C82.8914 64.6809 82.7007 64.9539 82.5677 65.3073C82.4347 65.6608 82.3682 66.0773 82.3682 66.5568Z" fill="#323D48"/>
<path d="M73.4437 65.9268V70.5888H71.2073V59.8369H73.3807V63.9476H73.4752C73.6572 63.4716 73.9512 63.0989 74.3572 62.8294C74.7632 62.5564 75.2725 62.4199 75.885 62.4199C76.445 62.4199 76.9332 62.5424 77.3497 62.7874C77.7697 63.0289 78.0952 63.3771 78.3262 63.8321C78.5607 64.2836 78.6762 64.8244 78.6727 65.4543V70.5888H76.4362V65.8533C76.4397 65.3563 76.3137 64.9696 76.0582 64.6931C75.8062 64.4166 75.4527 64.2784 74.9977 64.2784C74.6932 64.2784 74.4237 64.3431 74.1892 64.4726C73.9582 64.6021 73.7762 64.7911 73.6432 65.0396C73.5137 65.2846 73.4472 65.5803 73.4437 65.9268Z" fill="#323D48"/>
<path d="M69.9109 64.8243L67.8634 64.9503C67.8284 64.7753 67.7532 64.6178 67.6377 64.4778C67.5222 64.3343 67.3699 64.2205 67.1809 64.1365C66.9954 64.049 66.7732 64.0053 66.5142 64.0053C66.1677 64.0053 65.8754 64.0788 65.6374 64.2258C65.3995 64.3693 65.2805 64.5618 65.2805 64.8033C65.2805 64.9958 65.3575 65.1585 65.5115 65.2915C65.6654 65.4245 65.9297 65.5313 66.3042 65.6118L67.7637 65.9058C68.5477 66.0668 69.1322 66.3258 69.5172 66.6827C69.9021 67.0397 70.0946 67.5087 70.0946 68.0897C70.0946 68.6182 69.9389 69.082 69.6274 69.481C69.3194 69.88 68.8959 70.1915 68.3569 70.4155C67.8214 70.636 67.2037 70.7462 66.5037 70.7462C65.4362 70.7462 64.5857 70.524 63.9522 70.0795C63.3222 69.6315 62.953 69.0225 62.8445 68.2525L65.0442 68.137C65.1107 68.4625 65.2717 68.711 65.5272 68.8825C65.7827 69.0505 66.1099 69.1345 66.5089 69.1345C66.9009 69.1345 67.2159 69.0592 67.4539 68.9087C67.6954 68.7547 67.8179 68.557 67.8214 68.3155C67.8179 68.1125 67.7322 67.9462 67.5642 67.8167C67.3962 67.6837 67.1372 67.5822 66.7872 67.5122L65.3907 67.234C64.6032 67.0765 64.017 66.8035 63.632 66.415C63.2505 66.0265 63.0597 65.5313 63.0597 64.9293C63.0597 64.4113 63.1997 63.965 63.4797 63.5905C63.7632 63.216 64.1605 62.9273 64.6715 62.7243C65.186 62.5213 65.7879 62.4198 66.4774 62.4198C67.4959 62.4198 68.2974 62.635 68.8819 63.0655C69.4699 63.496 69.8129 64.0823 69.9109 64.8243Z" fill="#323D48"/>
<path d="M57.2204 70.741C56.7059 70.741 56.2474 70.6517 55.845 70.4732C55.4425 70.2912 55.124 70.0235 54.8895 69.67C54.6585 69.313 54.543 68.8685 54.543 68.3365C54.543 67.8885 54.6252 67.5122 54.7897 67.2077C54.9542 66.9032 55.1782 66.6582 55.4617 66.4728C55.7452 66.2873 56.0672 66.1473 56.4277 66.0528C56.7917 65.9583 57.1732 65.8918 57.5722 65.8533C58.0412 65.8043 58.4192 65.7588 58.7062 65.7168C58.9932 65.6713 59.2014 65.6048 59.3309 65.5173C59.4604 65.4298 59.5252 65.3003 59.5252 65.1288V65.0973C59.5252 64.7648 59.4202 64.5075 59.2102 64.3255C59.0037 64.1435 58.7097 64.0525 58.3282 64.0525C57.9257 64.0525 57.6054 64.1418 57.3674 64.3203C57.1294 64.4953 56.9719 64.7158 56.8949 64.9818L54.8265 64.8138C54.9315 64.3238 55.138 63.9003 55.446 63.5433C55.754 63.1828 56.1512 62.9063 56.6377 62.7138C57.1277 62.5178 57.6947 62.4198 58.3387 62.4198C58.7867 62.4198 59.2154 62.4723 59.6249 62.5773C60.0379 62.6823 60.4036 62.845 60.7221 63.0655C61.0441 63.286 61.2979 63.5695 61.4834 63.916C61.6689 64.259 61.7616 64.6703 61.7616 65.1498V70.5887H59.6407V69.4705H59.5777C59.4482 69.7225 59.2749 69.9447 59.0579 70.1372C58.8409 70.3262 58.5802 70.475 58.2757 70.5835C57.9712 70.6885 57.6194 70.741 57.2204 70.741ZM57.8609 69.1975C58.1899 69.1975 58.4804 69.1327 58.7324 69.0032C58.9844 68.8702 59.1822 68.6917 59.3257 68.4677C59.4692 68.2437 59.5409 67.99 59.5409 67.7065V66.8507C59.4709 66.8962 59.3747 66.9382 59.2522 66.9767C59.1332 67.0117 58.9984 67.045 58.8479 67.0765C58.6974 67.1045 58.5469 67.1307 58.3964 67.1552C58.2459 67.1762 58.1094 67.1955 57.9869 67.213C57.7244 67.2515 57.4952 67.3127 57.2992 67.3967C57.1032 67.4807 56.9509 67.5945 56.8424 67.738C56.7339 67.878 56.6797 68.053 56.6797 68.263C56.6797 68.5675 56.7899 68.8002 57.0104 68.9612C57.2344 69.1187 57.5179 69.1975 57.8609 69.1975Z" fill="#323D48"/>
<path d="M48.3144 70.5888H44.5029V59.8369H48.3459C49.4274 59.8369 50.3584 60.0522 51.1389 60.4827C51.9193 60.9097 52.5196 61.5239 52.9396 62.3254C53.3631 63.1269 53.5748 64.0859 53.5748 65.2024C53.5748 66.3223 53.3631 67.2848 52.9396 68.0898C52.5196 68.8948 51.9158 69.5125 51.1284 69.943C50.3444 70.3735 49.4064 70.5888 48.3144 70.5888ZM46.7762 68.6411H48.2199C48.8919 68.6411 49.4571 68.5221 49.9156 68.2841C50.3776 68.0426 50.7241 67.6698 50.9551 67.1658C51.1896 66.6583 51.3068 66.0038 51.3068 65.2024C51.3068 64.4079 51.1896 63.7586 50.9551 63.2546C50.7241 62.7506 50.3794 62.3796 49.9209 62.1416C49.4624 61.9036 48.8971 61.7846 48.2251 61.7846H46.7762V68.6411Z" fill="#323D48"/>
<rect x="1" width="330" height="219" fill="black" fill-opacity="0.05"/>
<g filter="url(#filter0_d_1128_19424)">
<rect x="23" y="76" width="285" height="69" rx="12" fill="white"/>
<rect x="29" y="82" width="57" height="57" rx="28.5" fill="#537AEF"/>
<path d="M65.0851 102.463L59.1268 100.232C58.5093 100.004 57.5018 100.004 56.8843 100.232L50.9259 102.463C49.7776 102.897 48.8459 104.24 48.8459 105.464V114.239C48.8459 115.117 49.4201 116.276 50.1243 116.796L56.0826 121.248C57.1334 122.039 58.8559 122.039 59.9068 121.248L65.8651 116.796C66.5693 116.265 67.1434 115.117 67.1434 114.239V105.464C67.1543 104.24 66.2226 102.897 65.0851 102.463ZM61.7701 108.53L57.1118 113.188C56.9493 113.351 56.7434 113.427 56.5376 113.427C56.3318 113.427 56.1259 113.351 55.9634 113.188L54.2301 111.433C53.9159 111.119 53.9159 110.599 54.2301 110.285C54.5443 109.971 55.0643 109.971 55.3784 110.285L56.5484 111.455L60.6326 107.371C60.9468 107.057 61.4668 107.057 61.7809 107.371C62.0951 107.685 62.0951 108.216 61.7701 108.53Z" fill="white"/>
<rect x="98" y="89" width="75" height="10" rx="5" fill="#B8C5FF"/>
<rect x="98" y="109" width="84.7083" height="9.48042" rx="4.74021" fill="#E2E8FF"/>
<rect x="98" y="122.48" width="55" height="9" rx="4.5" fill="#E2E8FF"/>
<rect x="158" y="123.458" width="55" height="9" rx="4.5" fill="#E2E8FF"/>
<rect x="286" y="87.8284" width="4" height="14" rx="2" transform="rotate(-45 286 87.8284)" fill="#B8C5FF"/>
<rect width="4" height="14" rx="2" transform="matrix(-0.707107 -0.707107 -0.707107 0.707107 298.728 87.8284)" fill="#B8C5FF"/>
</g>
</g>
<defs>
<filter id="filter0_d_1128_19424" x="-47" y="6" width="425" height="209" filterUnits="userSpaceOnUse" color-interpolation-filters="sRGB">
<feFlood flood-opacity="0" result="BackgroundImageFix"/>
<feColorMatrix in="SourceAlpha" type="matrix" values="0 0 0 0 0 0 0 0 0 0 0 0 0 0 0 0 0 0 127 0" result="hardAlpha"/>
<feOffset/>
<feGaussianBlur stdDeviation="35"/>
<feComposite in2="hardAlpha" operator="out"/>
<feColorMatrix type="matrix" values="0 0 0 0 0 0 0 0 0 0 0 0 0 0 0 0 0 0 0.1 0"/>
<feBlend mode="normal" in2="BackgroundImageFix" result="effect1_dropShadow_1128_19424"/>
<feBlend mode="normal" in="SourceGraphic" in2="effect1_dropShadow_1128_19424" result="shape"/>
</filter>
<clipPath id="clip0_1128_19424">
<rect x="0.666504" width="330.667" height="220" rx="16" fill="white"/>
</clipPath>
</defs>
</svg>
