<svg width="331" height="220" viewBox="0 0 331 220" fill="none" xmlns="http://www.w3.org/2000/svg">
<g clip-path="url(#clip0_1141_53638)">
<rect width="330.667" height="220" rx="16" fill="white"/>
<circle cx="165" cy="110" r="142" fill="url(#paint0_radial_1141_53638)"/>
<g filter="url(#filter0_d_1141_53638)">
<g clip-path="url(#clip1_1141_53638)">
<rect x="51.3335" y="21" width="226" height="222" rx="6" fill="white"/>
<rect x="51.3335" y="21" width="226" height="58" fill="#EAEEF7"/>
<g filter="url(#filter1_i_1141_53638)">
<rect x="63.3335" y="34" width="36" height="36" rx="8" fill="#29AA85"/>
<rect x="63.3335" y="34" width="36" height="36" rx="8" fill="url(#paint1_linear_1141_53638)"/>
<rect x="63.8335" y="34.5" width="35" height="35" rx="7.5" stroke="white" stroke-opacity="0.2"/>
<g filter="url(#filter2_d_1141_53638)">
<path d="M81.7982 57.5H79.7796L76.6805 52.2097L74.9471 54.2433V57.5H73.0485V46.6492H74.9471V51.9095L79.3144 46.6492H81.438L77.9937 50.8815L81.7982 57.5ZM83.5717 57.5V46.6492H87.4213C88.2017 46.6492 88.8996 46.7843 89.5149 47.0544C90.1352 47.3196 90.623 47.7123 90.9782 48.2326C91.3334 48.7528 91.511 49.3932 91.511 50.1536C91.511 50.869 91.3484 51.4818 91.0232 51.9921C90.703 52.5023 90.2553 52.8925 89.68 53.1627C89.1047 53.4328 88.4318 53.5679 87.6614 53.5679H85.4252V57.5H83.5717ZM85.4102 52.1046H87.6164C88.2517 52.1046 88.7695 51.9145 89.1697 51.5343C89.5749 51.1541 89.7775 50.6589 89.7775 50.0485C89.7775 49.4282 89.5674 48.9479 89.1472 48.6078C88.727 48.2626 88.1992 48.09 87.5639 48.09H85.4102V52.1046Z" fill="white"/>
</g>
</g>
<path d="M112.706 47V36.155H114.378V41.5925L118.991 36.155H120.881L117.341 40.4L121.211 47H119.426L116.178 41.57L114.378 43.6625V47H112.706ZM124.873 47.15C124.373 47.15 123.928 47.06 123.538 46.88C123.153 46.7 122.85 46.44 122.63 46.1C122.41 45.76 122.3 45.35 122.3 44.87C122.3 44.01 122.603 43.3675 123.208 42.9425C123.818 42.5175 124.793 42.2925 126.133 42.2675L127.408 42.23V41.6675C127.408 41.2225 127.275 40.8725 127.01 40.6175C126.745 40.3625 126.335 40.2375 125.78 40.2425C125.37 40.2425 125.003 40.3375 124.678 40.5275C124.353 40.7175 124.14 41.03 124.04 41.465H122.653C122.683 40.95 122.83 40.5175 123.095 40.1675C123.365 39.8125 123.735 39.545 124.205 39.365C124.675 39.185 125.225 39.095 125.855 39.095C126.565 39.095 127.148 39.1925 127.603 39.3875C128.058 39.5775 128.395 39.8575 128.615 40.2275C128.84 40.5975 128.953 41.0475 128.953 41.5775V47H127.588L127.468 45.575C127.178 46.17 126.81 46.5825 126.365 46.8125C125.92 47.0375 125.423 47.15 124.873 47.15ZM125.375 46.0325C125.62 46.0325 125.863 45.99 126.103 45.905C126.343 45.815 126.56 45.695 126.755 45.545C126.95 45.39 127.105 45.2175 127.22 45.0275C127.34 44.8375 127.403 44.6425 127.408 44.4425V43.16L126.358 43.1825C125.823 43.1875 125.368 43.2425 124.993 43.3475C124.623 43.4525 124.338 43.615 124.138 43.835C123.943 44.055 123.845 44.3475 123.845 44.7125C123.845 45.1275 123.988 45.4525 124.273 45.6875C124.563 45.9175 124.93 46.0325 125.375 46.0325ZM131.01 49.415V39.245H132.615L132.63 40.535C132.725 40.365 132.847 40.1975 132.997 40.0325C133.147 39.8625 133.325 39.7075 133.53 39.5675C133.74 39.4225 133.977 39.3075 134.242 39.2225C134.512 39.1375 134.81 39.095 135.135 39.095C135.745 39.095 136.282 39.2375 136.747 39.5225C137.217 39.8025 137.582 40.235 137.842 40.82C138.107 41.4 138.24 42.1375 138.24 43.0325C138.24 43.9325 138.107 44.6875 137.842 45.2975C137.582 45.9075 137.21 46.37 136.725 46.685C136.24 46.995 135.665 47.15 135 47.15C134.68 47.15 134.392 47.105 134.137 47.015C133.882 46.925 133.657 46.8075 133.462 46.6625C133.267 46.5125 133.1 46.3525 132.96 46.1825C132.825 46.0075 132.712 45.835 132.622 45.665V49.415H131.01ZM134.662 45.9275C135.257 45.9275 135.745 45.6975 136.125 45.2375C136.51 44.7725 136.702 44.0475 136.702 43.0625C136.702 42.2175 136.525 41.55 136.17 41.06C135.82 40.565 135.317 40.3175 134.662 40.3175C133.987 40.3175 133.477 40.575 133.132 41.09C132.787 41.6 132.615 42.2575 132.615 43.0625C132.615 43.5875 132.69 44.0675 132.84 44.5025C132.995 44.9325 133.225 45.2775 133.53 45.5375C133.835 45.7975 134.212 45.9275 134.662 45.9275ZM140.027 47V39.245H141.572V47H140.027ZM139.989 37.745V36.1625H141.602V37.745H139.989ZM147.143 47.15C146.408 47.15 145.761 46.9925 145.201 46.6775C144.641 46.3575 144.203 45.9025 143.888 45.3125C143.578 44.7225 143.423 44.02 143.423 43.205C143.423 42.4 143.566 41.69 143.851 41.075C144.136 40.455 144.548 39.97 145.088 39.62C145.628 39.27 146.278 39.095 147.038 39.095C147.783 39.095 148.413 39.255 148.928 39.575C149.443 39.895 149.833 40.345 150.098 40.925C150.363 41.5 150.496 42.18 150.496 42.965V43.4975H145.036C145.031 43.9625 145.106 44.38 145.261 44.75C145.416 45.115 145.646 45.405 145.951 45.62C146.261 45.83 146.646 45.935 147.106 45.935C147.571 45.935 147.971 45.83 148.306 45.62C148.646 45.41 148.868 45.0975 148.973 44.6825H150.458C150.368 45.2125 150.156 45.6625 149.821 46.0325C149.486 46.4025 149.083 46.6825 148.613 46.8725C148.143 47.0575 147.653 47.15 147.143 47.15ZM145.036 42.455H148.966C148.966 42.05 148.896 41.6825 148.756 41.3525C148.616 41.0175 148.401 40.755 148.111 40.565C147.826 40.37 147.466 40.2725 147.031 40.2725C146.586 40.2725 146.216 40.38 145.921 40.595C145.626 40.81 145.403 41.085 145.253 41.42C145.108 41.755 145.036 42.1 145.036 42.455ZM152.323 47V39.245H153.891V40.3625C154.016 40.1525 154.183 39.955 154.393 39.77C154.608 39.585 154.871 39.435 155.181 39.32C155.496 39.205 155.858 39.1475 156.268 39.1475C156.753 39.1475 157.201 39.245 157.611 39.44C158.026 39.63 158.358 39.93 158.608 40.34C158.858 40.745 158.983 41.27 158.983 41.915V47H157.378V42.0875C157.378 41.5325 157.228 41.12 156.928 40.85C156.633 40.58 156.251 40.445 155.781 40.445C155.466 40.445 155.166 40.4975 154.881 40.6025C154.596 40.7075 154.366 40.8675 154.191 41.0825C154.016 41.2925 153.928 41.5575 153.928 41.8775V47H152.323ZM163.694 47.0525C163.119 47.0525 162.674 46.975 162.359 46.82C162.044 46.665 161.824 46.4425 161.699 46.1525C161.574 45.8575 161.512 45.5025 161.512 45.0875V40.4H160.252V39.245H161.564L161.954 36.965H163.124V39.2375H164.864V40.4H163.124L163.132 45.0275C163.132 45.2825 163.157 45.47 163.207 45.59C163.262 45.705 163.352 45.78 163.477 45.815C163.607 45.845 163.782 45.86 164.002 45.86H164.902V46.9025C164.807 46.9425 164.659 46.9775 164.459 47.0075C164.264 47.0375 164.009 47.0525 163.694 47.0525Z" fill="#323D48"/>
<path d="M112.203 68V59.084H113.469V62.702C113.569 62.538 113.703 62.382 113.871 62.234C114.043 62.086 114.251 61.966 114.495 61.874C114.743 61.778 115.031 61.73 115.359 61.73C115.763 61.73 116.127 61.806 116.451 61.958C116.779 62.106 117.039 62.322 117.231 62.606C117.427 62.886 117.525 63.22 117.525 63.608V68H116.241V63.842C116.241 63.494 116.121 63.226 115.881 63.038C115.641 62.85 115.333 62.756 114.957 62.756C114.705 62.756 114.465 62.8 114.237 62.888C114.013 62.972 113.831 63.1 113.691 63.272C113.555 63.44 113.487 63.652 113.487 63.908V68H112.203ZM121.3 68.042C120.84 68.042 120.484 67.98 120.232 67.856C119.98 67.732 119.804 67.554 119.704 67.322C119.604 67.086 119.554 66.802 119.554 66.47V62.72H118.546V61.796H119.596L119.908 59.972H120.844V61.79H122.236V62.72H120.844L120.85 66.422C120.85 66.626 120.87 66.776 120.91 66.872C120.954 66.964 121.026 67.024 121.126 67.052C121.23 67.076 121.37 67.088 121.546 67.088H122.266V67.922C122.19 67.954 122.072 67.982 121.912 68.006C121.756 68.03 121.552 68.042 121.3 68.042ZM125.507 68.042C125.047 68.042 124.691 67.98 124.439 67.856C124.187 67.732 124.011 67.554 123.911 67.322C123.811 67.086 123.761 66.802 123.761 66.47V62.72H122.753V61.796H123.803L124.115 59.972H125.051V61.79H126.443V62.72H125.051L125.057 66.422C125.057 66.626 125.077 66.776 125.117 66.872C125.161 66.964 125.233 67.024 125.333 67.052C125.437 67.076 125.577 67.088 125.753 67.088H126.473V67.922C126.397 67.954 126.279 67.982 126.119 68.006C125.963 68.03 125.759 68.042 125.507 68.042ZM127.883 69.932V61.796H129.167L129.179 62.828C129.255 62.692 129.353 62.558 129.473 62.426C129.593 62.29 129.735 62.166 129.899 62.054C130.067 61.938 130.257 61.846 130.469 61.778C130.685 61.71 130.923 61.676 131.183 61.676C131.671 61.676 132.101 61.79 132.473 62.018C132.849 62.242 133.141 62.588 133.349 63.056C133.561 63.52 133.667 64.11 133.667 64.826C133.667 65.546 133.561 66.15 133.349 66.638C133.141 67.126 132.843 67.496 132.455 67.748C132.067 67.996 131.607 68.12 131.075 68.12C130.819 68.12 130.589 68.084 130.385 68.012C130.181 67.94 130.001 67.846 129.845 67.73C129.689 67.61 129.555 67.482 129.443 67.346C129.335 67.206 129.245 67.068 129.173 66.932V69.932H127.883ZM130.805 67.142C131.281 67.142 131.671 66.958 131.975 66.59C132.283 66.218 132.437 65.638 132.437 64.85C132.437 64.174 132.295 63.64 132.011 63.248C131.731 62.852 131.329 62.654 130.805 62.654C130.265 62.654 129.857 62.86 129.581 63.272C129.305 63.68 129.167 64.206 129.167 64.85C129.167 65.27 129.227 65.654 129.347 66.002C129.471 66.346 129.655 66.622 129.899 66.83C130.143 67.038 130.445 67.142 130.805 67.142ZM137.342 68.12C136.91 68.12 136.504 68.052 136.124 67.916C135.748 67.78 135.432 67.566 135.176 67.274C134.924 66.982 134.766 66.608 134.702 66.152H135.848C135.9 66.388 135.998 66.584 136.142 66.74C136.29 66.892 136.466 67.006 136.67 67.082C136.878 67.154 137.1 67.19 137.336 67.19C137.728 67.19 138.046 67.12 138.29 66.98C138.534 66.836 138.656 66.616 138.656 66.32C138.656 66.108 138.59 65.938 138.458 65.81C138.326 65.682 138.12 65.588 137.84 65.528L136.604 65.234C136.092 65.114 135.682 64.924 135.374 64.664C135.066 64.4 134.91 64.032 134.906 63.56C134.906 63.196 134.996 62.872 135.176 62.588C135.36 62.304 135.632 62.082 135.992 61.922C136.356 61.758 136.804 61.676 137.336 61.676C138.036 61.676 138.598 61.832 139.022 62.144C139.45 62.456 139.67 62.908 139.682 63.5H138.572C138.532 63.216 138.402 62.994 138.182 62.834C137.966 62.67 137.68 62.588 137.324 62.588C136.956 62.588 136.654 62.662 136.418 62.81C136.182 62.954 136.064 63.176 136.064 63.476C136.064 63.68 136.15 63.842 136.322 63.962C136.498 64.078 136.756 64.174 137.096 64.25L138.272 64.544C138.576 64.624 138.826 64.73 139.022 64.862C139.218 64.99 139.372 65.132 139.484 65.288C139.596 65.444 139.674 65.606 139.718 65.774C139.766 65.942 139.79 66.1 139.79 66.248C139.79 66.64 139.69 66.976 139.49 67.256C139.294 67.532 139.014 67.746 138.65 67.898C138.286 68.046 137.85 68.12 137.342 68.12ZM140.944 63.554V62.018H142.432V63.554H140.944ZM140.944 67.964V66.434H142.432V67.964H140.944ZM143.306 68.396L146.318 59.324H147.278L144.266 68.396H143.306ZM147.618 68.396L150.63 59.324H151.59L148.578 68.396H147.618ZM152.645 68V59.084H153.929V64.754L156.671 61.796H158.111L155.867 64.19L158.243 68H156.911L155.045 65.006L153.929 66.164V68H152.645ZM161.048 68.12C160.648 68.12 160.292 68.048 159.98 67.904C159.672 67.76 159.43 67.552 159.254 67.28C159.078 67.008 158.99 66.68 158.99 66.296C158.99 65.608 159.232 65.094 159.716 64.754C160.204 64.414 160.984 64.234 162.056 64.214L163.076 64.184V63.734C163.076 63.378 162.97 63.098 162.758 62.894C162.546 62.69 162.218 62.59 161.774 62.594C161.446 62.594 161.152 62.67 160.892 62.822C160.632 62.974 160.462 63.224 160.382 63.572H159.272C159.296 63.16 159.414 62.814 159.626 62.534C159.842 62.25 160.138 62.036 160.514 61.892C160.89 61.748 161.33 61.676 161.834 61.676C162.402 61.676 162.868 61.754 163.232 61.91C163.596 62.062 163.866 62.286 164.042 62.582C164.222 62.878 164.312 63.238 164.312 63.662V68H163.22L163.124 66.86C162.892 67.336 162.598 67.666 162.242 67.85C161.886 68.03 161.488 68.12 161.048 68.12ZM161.45 67.226C161.646 67.226 161.84 67.192 162.032 67.124C162.224 67.052 162.398 66.956 162.554 66.836C162.71 66.712 162.834 66.574 162.926 66.422C163.022 66.27 163.072 66.114 163.076 65.954V64.928L162.236 64.946C161.808 64.95 161.444 64.994 161.144 65.078C160.848 65.162 160.62 65.292 160.46 65.468C160.304 65.644 160.226 65.878 160.226 66.17C160.226 66.502 160.34 66.762 160.568 66.95C160.8 67.134 161.094 67.226 161.45 67.226ZM165.957 69.932V61.796H167.241L167.253 62.828C167.329 62.692 167.427 62.558 167.547 62.426C167.667 62.29 167.809 62.166 167.973 62.054C168.141 61.938 168.331 61.846 168.543 61.778C168.759 61.71 168.997 61.676 169.257 61.676C169.745 61.676 170.175 61.79 170.547 62.018C170.923 62.242 171.215 62.588 171.423 63.056C171.635 63.52 171.741 64.11 171.741 64.826C171.741 65.546 171.635 66.15 171.423 66.638C171.215 67.126 170.917 67.496 170.529 67.748C170.141 67.996 169.681 68.12 169.149 68.12C168.893 68.12 168.663 68.084 168.459 68.012C168.255 67.94 168.075 67.846 167.919 67.73C167.763 67.61 167.629 67.482 167.517 67.346C167.409 67.206 167.319 67.068 167.247 66.932V69.932H165.957ZM168.879 67.142C169.355 67.142 169.745 66.958 170.049 66.59C170.357 66.218 170.511 65.638 170.511 64.85C170.511 64.174 170.369 63.64 170.085 63.248C169.805 62.852 169.403 62.654 168.879 62.654C168.339 62.654 167.931 62.86 167.655 63.272C167.379 63.68 167.241 64.206 167.241 64.85C167.241 65.27 167.301 65.654 167.421 66.002C167.545 66.346 167.729 66.622 167.973 66.83C168.217 67.038 168.519 67.142 168.879 67.142ZM173.171 68V61.796H174.407V68H173.171ZM173.141 60.596V59.33H174.431V60.596H173.141ZM178.864 68.12C178.276 68.12 177.758 67.994 177.31 67.742C176.862 67.486 176.512 67.122 176.26 66.65C176.012 66.178 175.888 65.616 175.888 64.964C175.888 64.32 176.002 63.752 176.23 63.26C176.458 62.764 176.788 62.376 177.22 62.096C177.652 61.816 178.172 61.676 178.78 61.676C179.376 61.676 179.88 61.804 180.292 62.06C180.704 62.316 181.016 62.676 181.228 63.14C181.44 63.6 181.546 64.144 181.546 64.772V65.198H177.178C177.174 65.57 177.234 65.904 177.358 66.2C177.482 66.492 177.666 66.724 177.91 66.896C178.158 67.064 178.466 67.148 178.834 67.148C179.206 67.148 179.526 67.064 179.794 66.896C180.066 66.728 180.244 66.478 180.328 66.146H181.516C181.444 66.57 181.274 66.93 181.006 67.226C180.738 67.522 180.416 67.746 180.04 67.898C179.664 68.046 179.272 68.12 178.864 68.12ZM177.178 64.364H180.322C180.322 64.04 180.266 63.746 180.154 63.482C180.042 63.214 179.87 63.004 179.638 62.852C179.41 62.696 179.122 62.618 178.774 62.618C178.418 62.618 178.122 62.704 177.886 62.876C177.65 63.048 177.472 63.268 177.352 63.536C177.236 63.804 177.178 64.08 177.178 64.364ZM183.008 68V61.796H184.262V62.69C184.362 62.522 184.496 62.364 184.664 62.216C184.836 62.068 185.046 61.948 185.294 61.856C185.546 61.764 185.836 61.718 186.164 61.718C186.552 61.718 186.91 61.796 187.238 61.952C187.57 62.104 187.836 62.344 188.036 62.672C188.236 62.996 188.336 63.416 188.336 63.932V68H187.052V64.07C187.052 63.626 186.932 63.296 186.692 63.08C186.456 62.864 186.15 62.756 185.774 62.756C185.522 62.756 185.282 62.798 185.054 62.882C184.826 62.966 184.642 63.094 184.502 63.266C184.362 63.434 184.292 63.646 184.292 63.902V68H183.008ZM192.105 68.042C191.645 68.042 191.289 67.98 191.037 67.856C190.785 67.732 190.609 67.554 190.509 67.322C190.409 67.086 190.359 66.802 190.359 66.47V62.72H189.351V61.796H190.401L190.713 59.972H191.649V61.79H193.041V62.72H191.649L191.655 66.422C191.655 66.626 191.675 66.776 191.715 66.872C191.759 66.964 191.831 67.024 191.931 67.052C192.035 67.076 192.175 67.088 192.351 67.088H193.071V67.922C192.995 67.954 192.877 67.982 192.717 68.006C192.561 68.03 192.357 68.042 192.105 68.042ZM194.253 68V66.452H195.735V68H194.253ZM199.878 68.12C199.318 68.12 198.82 67.998 198.384 67.754C197.948 67.506 197.606 67.144 197.358 66.668C197.11 66.188 196.986 65.606 196.986 64.922C196.986 64.278 197.1 63.712 197.328 63.224C197.56 62.736 197.892 62.356 198.324 62.084C198.756 61.812 199.274 61.676 199.878 61.676C200.346 61.676 200.76 61.768 201.12 61.952C201.48 62.132 201.772 62.384 201.996 62.708C202.224 63.032 202.362 63.41 202.41 63.842H201.294C201.262 63.638 201.186 63.448 201.066 63.272C200.946 63.096 200.788 62.956 200.592 62.852C200.396 62.744 200.162 62.69 199.89 62.69C199.39 62.69 198.984 62.872 198.672 63.236C198.36 63.6 198.204 64.158 198.204 64.91C198.204 65.598 198.35 66.146 198.642 66.554C198.934 66.962 199.356 67.166 199.908 67.166C200.18 67.166 200.414 67.11 200.61 66.998C200.806 66.886 200.962 66.742 201.078 66.566C201.198 66.39 201.274 66.208 201.306 66.02H202.398C202.35 66.436 202.212 66.802 201.984 67.118C201.76 67.434 201.468 67.68 201.108 67.856C200.748 68.032 200.338 68.12 199.878 68.12ZM206.376 68.12C205.796 68.12 205.29 67.996 204.858 67.748C204.426 67.496 204.09 67.132 203.85 66.656C203.61 66.18 203.49 65.604 203.49 64.928C203.49 64.276 203.604 63.706 203.832 63.218C204.06 62.73 204.388 62.352 204.816 62.084C205.248 61.812 205.77 61.676 206.382 61.676C206.966 61.676 207.472 61.804 207.9 62.06C208.328 62.312 208.66 62.682 208.896 63.17C209.132 63.654 209.25 64.24 209.25 64.928C209.25 65.556 209.14 66.11 208.92 66.59C208.7 67.07 208.376 67.446 207.948 67.718C207.524 67.986 207 68.12 206.376 68.12ZM206.382 67.13C206.738 67.13 207.034 67.038 207.27 66.854C207.506 66.666 207.684 66.404 207.804 66.068C207.924 65.728 207.984 65.336 207.984 64.892C207.984 64.48 207.93 64.106 207.822 63.77C207.718 63.43 207.548 63.16 207.312 62.96C207.08 62.76 206.77 62.66 206.382 62.66C206.026 62.66 205.726 62.752 205.482 62.936C205.242 63.116 205.062 63.374 204.942 63.71C204.822 64.042 204.762 64.436 204.762 64.892C204.762 65.296 204.816 65.668 204.924 66.008C205.032 66.348 205.204 66.62 205.44 66.824C205.68 67.028 205.994 67.13 206.382 67.13ZM210.653 68V61.796H211.901V62.69C212.077 62.418 212.317 62.182 212.621 61.982C212.925 61.778 213.317 61.676 213.797 61.676C214.021 61.676 214.247 61.714 214.475 61.79C214.707 61.866 214.919 61.98 215.111 62.132C215.307 62.28 215.461 62.464 215.573 62.684C215.769 62.388 216.031 62.146 216.359 61.958C216.687 61.77 217.055 61.676 217.463 61.676C217.683 61.676 217.911 61.712 218.147 61.784C218.383 61.852 218.601 61.97 218.801 62.138C219.005 62.302 219.169 62.53 219.293 62.822C219.421 63.114 219.485 63.484 219.485 63.932V68H218.195V64.07C218.195 63.73 218.137 63.464 218.021 63.272C217.909 63.08 217.761 62.946 217.577 62.87C217.397 62.79 217.205 62.75 217.001 62.75C216.817 62.75 216.625 62.786 216.425 62.858C216.225 62.93 216.055 63.05 215.915 63.218C215.775 63.386 215.705 63.614 215.705 63.902V68H214.421V63.794C214.421 63.566 214.359 63.374 214.235 63.218C214.115 63.062 213.963 62.946 213.779 62.87C213.599 62.79 213.419 62.75 213.239 62.75C213.039 62.75 212.839 62.79 212.639 62.87C212.439 62.95 212.271 63.076 212.135 63.248C212.003 63.416 211.937 63.634 211.937 63.902V68H210.653Z" fill="#537AEF"/>
<g filter="url(#filter3_i_1141_53638)">
<rect x="63.3335" y="88" width="36" height="36" rx="8" fill="#62B7E5"/>
<rect x="63.3335" y="88" width="36" height="36" rx="8" fill="url(#paint2_linear_1141_53638)"/>
<rect x="63.8335" y="88.5" width="35" height="35" rx="7.5" stroke="white" stroke-opacity="0.2"/>
<g filter="url(#filter4_d_1141_53638)">
<path d="M76.912 111.65C75.9415 111.65 75.0985 111.427 74.3832 110.982C73.6678 110.537 73.1175 109.902 72.7323 109.076C72.3471 108.246 72.1545 107.255 72.1545 106.105C72.1545 104.944 72.3546 103.943 72.7548 103.103C73.155 102.263 73.7178 101.62 74.4432 101.174C75.1736 100.724 76.029 100.499 77.0096 100.499C77.6099 100.499 78.1627 100.599 78.6679 100.799C79.1782 100.999 79.6234 101.27 80.0036 101.61C80.3889 101.95 80.6915 102.338 80.9116 102.773C81.1317 103.208 81.2543 103.661 81.2793 104.131H79.3508C79.2808 103.761 79.1382 103.421 78.9231 103.111C78.713 102.795 78.4403 102.543 78.1051 102.353C77.775 102.163 77.3973 102.067 76.972 102.067C76.4267 102.067 75.939 102.205 75.5088 102.48C75.0835 102.755 74.7483 103.188 74.5032 103.778C74.2631 104.364 74.143 105.124 74.143 106.06C74.143 106.8 74.2181 107.425 74.3681 107.936C74.5232 108.441 74.7333 108.849 74.9985 109.159C75.2686 109.464 75.5788 109.687 75.929 109.827C76.2792 109.962 76.6494 110.029 77.0396 110.029C77.4198 110.029 77.7549 109.964 78.0451 109.834C78.3353 109.704 78.5804 109.534 78.7805 109.324C78.9856 109.114 79.1432 108.889 79.2532 108.648C79.3683 108.403 79.4358 108.166 79.4559 107.936L79.5234 107.14H77.0996V105.849L81.4294 105.864V111.5H80.1387V109.977C79.9536 110.252 79.7185 110.517 79.4333 110.772C79.1532 111.027 78.808 111.237 78.3978 111.402C77.9926 111.568 77.4973 111.65 76.912 111.65ZM83.9293 100.649H85.7753V109.924H90.6754V111.5H83.9218L83.9293 100.649Z" fill="white"/>
</g>
</g>
<path d="M116.801 101.15C115.836 101.15 115.003 100.93 114.303 100.49C113.603 100.05 113.063 99.4175 112.683 98.5925C112.308 97.7625 112.121 96.7675 112.121 95.6075C112.121 94.4375 112.313 93.435 112.698 92.6C113.088 91.76 113.641 91.1175 114.356 90.6725C115.071 90.2275 115.911 90.005 116.876 90.005C117.451 90.005 117.983 90.1025 118.473 90.2975C118.968 90.4925 119.403 90.7575 119.778 91.0925C120.158 91.4275 120.458 91.8075 120.678 92.2325C120.898 92.6575 121.023 93.1025 121.053 93.5675H119.343C119.273 93.1825 119.123 92.8275 118.893 92.5025C118.668 92.1725 118.381 91.9075 118.031 91.7075C117.681 91.5075 117.286 91.4075 116.846 91.4075C116.261 91.4075 115.743 91.5525 115.293 91.8425C114.843 92.1325 114.491 92.585 114.236 93.2C113.986 93.81 113.861 94.6 113.861 95.57C113.861 96.325 113.938 96.9675 114.093 97.4975C114.253 98.0275 114.471 98.455 114.746 98.78C115.021 99.105 115.343 99.3425 115.713 99.4925C116.083 99.6375 116.478 99.71 116.898 99.71C117.313 99.71 117.678 99.6375 117.993 99.4925C118.308 99.3475 118.571 99.16 118.781 98.93C118.996 98.7 119.161 98.4525 119.276 98.1875C119.396 97.9175 119.466 97.6575 119.486 97.4075L119.538 96.53H117.003V95.375L121.211 95.39V101H120.048V99.41C119.858 99.705 119.621 99.985 119.336 100.25C119.051 100.515 118.701 100.732 118.286 100.902C117.871 101.068 117.376 101.15 116.801 101.15ZM126.675 101.15C125.95 101.15 125.315 100.995 124.77 100.685C124.23 100.37 123.81 99.915 123.51 99.32C123.215 98.725 123.067 98.005 123.067 97.16C123.067 96.345 123.207 95.6325 123.487 95.0225C123.772 94.4125 124.185 93.94 124.725 93.605C125.265 93.265 125.917 93.095 126.682 93.095C127.412 93.095 128.045 93.255 128.58 93.575C129.115 93.89 129.53 94.3525 129.825 94.9625C130.12 95.5675 130.267 96.3 130.267 97.16C130.267 97.945 130.127 98.6375 129.847 99.2375C129.572 99.8375 129.167 100.307 128.632 100.647C128.102 100.983 127.45 101.15 126.675 101.15ZM126.682 99.9125C127.122 99.9125 127.49 99.7975 127.785 99.5675C128.085 99.3325 128.31 99.005 128.46 98.585C128.61 98.16 128.685 97.67 128.685 97.115C128.685 96.6 128.617 96.1325 128.482 95.7125C128.352 95.2875 128.14 94.95 127.845 94.7C127.55 94.45 127.162 94.325 126.682 94.325C126.232 94.325 125.857 94.44 125.557 94.67C125.257 94.895 125.03 95.2175 124.875 95.6375C124.725 96.0525 124.65 96.545 124.65 97.115C124.65 97.62 124.717 98.085 124.852 98.51C124.987 98.935 125.205 99.275 125.505 99.53C125.805 99.785 126.197 99.9125 126.682 99.9125ZM135.141 101.15C134.416 101.15 133.781 100.995 133.236 100.685C132.696 100.37 132.276 99.915 131.976 99.32C131.681 98.725 131.534 98.005 131.534 97.16C131.534 96.345 131.674 95.6325 131.954 95.0225C132.239 94.4125 132.651 93.94 133.191 93.605C133.731 93.265 134.384 93.095 135.149 93.095C135.879 93.095 136.511 93.255 137.046 93.575C137.581 93.89 137.996 94.3525 138.291 94.9625C138.586 95.5675 138.734 96.3 138.734 97.16C138.734 97.945 138.594 98.6375 138.314 99.2375C138.039 99.8375 137.634 100.307 137.099 100.647C136.569 100.983 135.916 101.15 135.141 101.15ZM135.149 99.9125C135.589 99.9125 135.956 99.7975 136.251 99.5675C136.551 99.3325 136.776 99.005 136.926 98.585C137.076 98.16 137.151 97.67 137.151 97.115C137.151 96.6 137.084 96.1325 136.949 95.7125C136.819 95.2875 136.606 94.95 136.311 94.7C136.016 94.45 135.629 94.325 135.149 94.325C134.699 94.325 134.324 94.44 134.024 94.67C133.724 94.895 133.496 95.2175 133.341 95.6375C133.191 96.0525 133.116 96.545 133.116 97.115C133.116 97.62 133.184 98.085 133.319 98.51C133.454 98.935 133.671 99.275 133.971 99.53C134.271 99.785 134.664 99.9125 135.149 99.9125ZM143.76 103.565C142.5 103.565 141.525 103.388 140.835 103.033C140.145 102.683 139.8 102.193 139.8 101.563C139.8 101.288 139.865 101.055 139.995 100.865C140.13 100.67 140.287 100.51 140.467 100.385C140.652 100.26 140.822 100.162 140.977 100.092C141.132 100.017 141.232 99.965 141.277 99.935C141.192 99.885 141.082 99.8225 140.947 99.7475C140.817 99.6675 140.7 99.5625 140.595 99.4325C140.49 99.2975 140.437 99.1225 140.437 98.9075C140.437 98.6575 140.555 98.4275 140.79 98.2175C141.03 98.0025 141.387 97.845 141.862 97.745C141.392 97.515 141.027 97.205 140.767 96.815C140.512 96.425 140.385 96.01 140.385 95.57C140.385 95.065 140.527 94.63 140.812 94.265C141.097 93.895 141.497 93.6125 142.012 93.4175C142.532 93.2225 143.142 93.125 143.842 93.125C144.352 93.125 144.78 93.1825 145.125 93.2975C145.47 93.4125 145.787 93.5725 146.077 93.7775C146.172 93.7425 146.307 93.69 146.482 93.62C146.657 93.545 146.85 93.465 147.06 93.38C147.275 93.295 147.477 93.2125 147.667 93.1325C147.862 93.0525 148.02 92.9875 148.14 92.9375L148.132 94.3325L146.782 94.58C146.852 94.73 146.907 94.895 146.947 95.075C146.992 95.255 147.015 95.42 147.015 95.57C147.015 96.02 146.892 96.435 146.647 96.815C146.402 97.19 146.035 97.49 145.545 97.715C145.055 97.94 144.442 98.0525 143.707 98.0525C143.637 98.0525 143.547 98.0525 143.437 98.0525C143.327 98.0475 143.235 98.04 143.16 98.03C142.695 98.045 142.375 98.1 142.2 98.195C142.025 98.285 141.937 98.385 141.937 98.495C141.937 98.635 142.05 98.73 142.275 98.78C142.5 98.83 142.87 98.8725 143.385 98.9075C143.57 98.9225 143.805 98.9375 144.09 98.9525C144.38 98.9675 144.7 98.9875 145.05 99.0125C145.9 99.0625 146.547 99.275 146.992 99.65C147.442 100.025 147.667 100.522 147.667 101.143C147.667 101.853 147.345 102.433 146.7 102.883C146.055 103.338 145.075 103.565 143.76 103.565ZM144.037 102.583C144.722 102.583 145.237 102.483 145.582 102.283C145.932 102.088 146.107 101.795 146.107 101.405C146.107 101.115 145.995 100.877 145.77 100.692C145.545 100.507 145.21 100.4 144.765 100.37L142.695 100.235C142.49 100.225 142.285 100.27 142.08 100.37C141.88 100.47 141.712 100.61 141.577 100.79C141.447 100.965 141.382 101.16 141.382 101.375C141.382 101.765 141.597 102.063 142.027 102.268C142.462 102.478 143.132 102.583 144.037 102.583ZM143.752 97.07C144.272 97.07 144.69 96.945 145.005 96.695C145.325 96.44 145.485 96.075 145.485 95.6C145.485 95.11 145.325 94.7325 145.005 94.4675C144.69 94.1975 144.272 94.0625 143.752 94.0625C143.227 94.0625 142.802 94.1975 142.477 94.4675C142.157 94.7375 141.997 95.115 141.997 95.6C141.997 96.06 142.15 96.42 142.455 96.68C142.765 96.94 143.197 97.07 143.752 97.07ZM151.845 101.105C151.385 101.105 151.015 101.045 150.735 100.925C150.46 100.805 150.25 100.645 150.105 100.445C149.96 100.24 149.863 100.01 149.813 99.755C149.768 99.495 149.745 99.2275 149.745 98.9525V89.855H151.328V98.7875C151.328 99.1475 151.398 99.4225 151.538 99.6125C151.683 99.8025 151.903 99.91 152.198 99.935L152.603 99.95V100.97C152.478 101.01 152.348 101.043 152.213 101.068C152.083 101.093 151.96 101.105 151.845 101.105ZM155.413 97.4975C155.413 97.9625 155.488 98.38 155.638 98.75C155.793 99.115 156.026 99.405 156.336 99.62C156.646 99.83 157.031 99.935 157.491 99.935C157.951 99.935 158.348 99.83 158.683 99.62C159.023 99.41 159.246 99.0975 159.351 98.6825H160.836C160.746 99.2125 160.533 99.6625 160.198 100.032C159.868 100.402 159.468 100.682 158.998 100.872C158.528 101.058 158.036 101.15 157.521 101.15C156.786 101.15 156.138 100.993 155.578 100.677C155.018 100.357 154.581 99.9025 154.266 99.3125C153.956 98.7225 153.801 98.02 153.801 97.205C153.801 96.4 153.943 95.69 154.228 95.075C154.513 94.455 154.926 93.97 155.466 93.62C156.006 93.27 156.656 93.095 157.416 93.095C158.166 93.095 158.796 93.255 159.306 93.575C159.821 93.895 160.211 94.345 160.476 94.925C160.741 95.5 160.873 96.18 160.873 96.965V97.4975H155.413ZM155.413 96.455H159.343C159.343 96.05 159.273 95.6825 159.133 95.3525C158.993 95.0175 158.778 94.755 158.488 94.565C158.203 94.37 157.843 94.2725 157.408 94.2725C156.963 94.2725 156.593 94.38 156.298 94.595C156.003 94.81 155.781 95.085 155.631 95.42C155.486 95.755 155.413 96.1 155.413 96.455Z" fill="black"/>
<path opacity="0.4" d="M112.251 122V113.084H113.331V116.708C113.435 116.536 113.575 116.376 113.751 116.228C113.927 116.076 114.141 115.954 114.393 115.862C114.645 115.766 114.937 115.718 115.269 115.718C115.673 115.718 116.039 115.794 116.367 115.946C116.695 116.094 116.955 116.306 117.147 116.582C117.339 116.858 117.435 117.186 117.435 117.566V122H116.325V117.788C116.325 117.416 116.197 117.13 115.941 116.93C115.689 116.726 115.359 116.624 114.951 116.624C114.675 116.624 114.415 116.67 114.171 116.762C113.927 116.85 113.729 116.986 113.577 117.17C113.429 117.35 113.355 117.58 113.355 117.86V122H112.251ZM122.025 116.606H120.627V120.464C120.627 120.684 120.649 120.846 120.693 120.95C120.741 121.05 120.819 121.114 120.927 121.142C121.039 121.17 121.191 121.184 121.383 121.184H122.061V121.928C121.985 121.956 121.869 121.98 121.713 122C121.561 122.02 121.371 122.03 121.143 122.03C120.715 122.03 120.383 121.972 120.147 121.856C119.911 121.74 119.745 121.568 119.649 121.34C119.557 121.112 119.511 120.832 119.511 120.5V116.606H118.503V115.796H119.541L119.811 113.99H120.627V115.79H122.025V116.606ZM126.7 116.606H125.302V120.464C125.302 120.684 125.324 120.846 125.368 120.95C125.416 121.05 125.494 121.114 125.602 121.142C125.714 121.17 125.866 121.184 126.058 121.184H126.736V121.928C126.66 121.956 126.544 121.98 126.388 122C126.236 122.02 126.046 122.03 125.818 122.03C125.39 122.03 125.058 121.972 124.822 121.856C124.586 121.74 124.42 121.568 124.324 121.34C124.232 121.112 124.186 120.832 124.186 120.5V116.606H123.178V115.796H124.216L124.486 113.99H125.302V115.79H126.7V116.606ZM128.294 123.932V115.796H129.398L129.41 116.876C129.482 116.748 129.574 116.614 129.686 116.474C129.802 116.334 129.942 116.204 130.106 116.084C130.274 115.964 130.468 115.866 130.688 115.79C130.912 115.714 131.166 115.676 131.45 115.676C131.946 115.676 132.382 115.79 132.758 116.018C133.138 116.242 133.434 116.586 133.646 117.05C133.858 117.514 133.964 118.102 133.964 118.814C133.964 119.526 133.86 120.128 133.652 120.62C133.448 121.108 133.152 121.48 132.764 121.736C132.376 121.992 131.908 122.12 131.36 122.12C131.084 122.12 130.838 122.08 130.622 122C130.41 121.924 130.224 121.824 130.064 121.7C129.908 121.572 129.776 121.436 129.668 121.292C129.564 121.148 129.478 121.01 129.41 120.878V123.932H128.294ZM131.15 121.256C131.662 121.256 132.08 121.062 132.404 120.674C132.728 120.282 132.89 119.674 132.89 118.85C132.89 118.142 132.742 117.58 132.446 117.164C132.15 116.748 131.718 116.54 131.15 116.54C130.574 116.54 130.138 116.754 129.842 117.182C129.546 117.606 129.398 118.162 129.398 118.85C129.398 119.294 129.464 119.698 129.596 120.062C129.728 120.426 129.924 120.716 130.184 120.932C130.444 121.148 130.766 121.256 131.15 121.256ZM137.586 122.12C137.154 122.12 136.752 122.054 136.38 121.922C136.012 121.786 135.706 121.576 135.462 121.292C135.218 121.004 135.064 120.638 135 120.194H136.008C136.064 120.438 136.164 120.642 136.308 120.806C136.456 120.966 136.64 121.088 136.86 121.172C137.08 121.252 137.32 121.292 137.58 121.292C137.996 121.292 138.332 121.214 138.588 121.058C138.844 120.902 138.972 120.662 138.972 120.338C138.972 120.11 138.904 119.928 138.768 119.792C138.636 119.652 138.43 119.55 138.15 119.486L136.866 119.168C136.366 119.048 135.966 118.86 135.666 118.604C135.366 118.348 135.216 117.99 135.216 117.53C135.212 117.166 135.298 116.846 135.474 116.57C135.65 116.294 135.914 116.076 136.266 115.916C136.618 115.756 137.056 115.676 137.58 115.676C138.252 115.676 138.794 115.828 139.206 116.132C139.622 116.432 139.838 116.874 139.854 117.458H138.876C138.836 117.162 138.702 116.928 138.474 116.756C138.25 116.58 137.948 116.492 137.568 116.492C137.172 116.492 136.85 116.572 136.602 116.732C136.354 116.888 136.23 117.132 136.23 117.464C136.23 117.684 136.318 117.858 136.494 117.986C136.67 118.11 136.93 118.214 137.274 118.298L138.516 118.61C138.804 118.686 139.04 118.786 139.224 118.91C139.412 119.034 139.56 119.172 139.668 119.324C139.78 119.476 139.858 119.636 139.902 119.804C139.95 119.968 139.974 120.126 139.974 120.278C139.974 120.658 139.878 120.986 139.686 121.262C139.498 121.534 139.226 121.746 138.87 121.898C138.518 122.046 138.09 122.12 137.586 122.12ZM142.593 116.042V117.452H141.267V116.042H142.593ZM142.593 120.566V121.964H141.267V120.566H142.593ZM143.476 122.462L146.476 113.324H147.34L144.334 122.462H143.476ZM147.683 122.462L150.683 113.324H151.547L148.541 122.462H147.683ZM155.262 124.052C154.286 124.052 153.526 123.91 152.982 123.626C152.442 123.346 152.172 122.944 152.172 122.42C152.172 122.196 152.224 122.006 152.328 121.85C152.432 121.69 152.556 121.558 152.7 121.454C152.844 121.35 152.978 121.268 153.102 121.208C153.226 121.144 153.306 121.098 153.342 121.07C153.274 121.03 153.188 120.98 153.084 120.92C152.984 120.86 152.896 120.78 152.82 120.68C152.744 120.58 152.706 120.45 152.706 120.29C152.706 120.094 152.798 119.914 152.982 119.75C153.166 119.586 153.438 119.464 153.798 119.384C153.434 119.2 153.15 118.956 152.946 118.652C152.742 118.348 152.64 118.018 152.64 117.662C152.64 117.262 152.748 116.914 152.964 116.618C153.184 116.322 153.496 116.096 153.9 115.94C154.304 115.78 154.784 115.7 155.34 115.7C155.744 115.7 156.084 115.748 156.36 115.844C156.636 115.936 156.892 116.068 157.128 116.24C157.192 116.212 157.292 116.17 157.428 116.114C157.568 116.054 157.722 115.99 157.89 115.922C158.058 115.854 158.214 115.79 158.358 115.73C158.506 115.666 158.624 115.618 158.712 115.586L158.706 116.612L157.62 116.816C157.68 116.944 157.728 117.084 157.764 117.236C157.804 117.388 157.824 117.53 157.824 117.662C157.824 118.026 157.728 118.356 157.536 118.652C157.348 118.948 157.062 119.184 156.678 119.36C156.294 119.536 155.814 119.624 155.238 119.624C155.19 119.624 155.128 119.624 155.052 119.624C154.98 119.62 154.918 119.616 154.866 119.612C154.442 119.624 154.15 119.672 153.99 119.756C153.83 119.836 153.75 119.926 153.75 120.026C153.75 120.142 153.84 120.222 154.02 120.266C154.2 120.31 154.506 120.348 154.938 120.38C155.094 120.388 155.286 120.398 155.514 120.41C155.746 120.422 156.002 120.438 156.282 120.458C156.934 120.498 157.436 120.664 157.788 120.956C158.14 121.248 158.316 121.642 158.316 122.138C158.316 122.702 158.064 123.162 157.56 123.518C157.056 123.874 156.29 124.052 155.262 124.052ZM155.46 123.338C156.032 123.338 156.47 123.252 156.774 123.08C157.078 122.908 157.23 122.648 157.23 122.3C157.23 122.052 157.136 121.85 156.948 121.694C156.764 121.534 156.482 121.442 156.102 121.418L154.362 121.304C154.206 121.296 154.044 121.336 153.876 121.424C153.708 121.508 153.564 121.626 153.444 121.778C153.328 121.93 153.27 122.102 153.27 122.294C153.27 122.622 153.448 122.878 153.804 123.062C154.164 123.246 154.716 123.338 155.46 123.338ZM155.268 118.91C155.716 118.91 156.076 118.806 156.348 118.598C156.624 118.39 156.762 118.082 156.762 117.674C156.762 117.254 156.624 116.934 156.348 116.714C156.076 116.494 155.716 116.384 155.268 116.384C154.816 116.384 154.45 116.496 154.17 116.72C153.894 116.94 153.756 117.258 153.756 117.674C153.756 118.066 153.888 118.37 154.152 118.586C154.416 118.802 154.788 118.91 155.268 118.91ZM162.378 122.12C161.806 122.12 161.306 121.998 160.878 121.754C160.45 121.506 160.118 121.144 159.882 120.668C159.646 120.192 159.528 119.61 159.528 118.922C159.528 118.274 159.638 117.706 159.858 117.218C160.078 116.73 160.4 116.352 160.824 116.084C161.252 115.812 161.77 115.676 162.378 115.676C162.95 115.676 163.446 115.802 163.866 116.054C164.29 116.302 164.618 116.668 164.85 117.152C165.082 117.636 165.198 118.226 165.198 118.922C165.198 119.554 165.09 120.11 164.874 120.59C164.662 121.07 164.346 121.446 163.926 121.718C163.51 121.986 162.994 122.12 162.378 122.12ZM162.378 121.244C162.75 121.244 163.064 121.15 163.32 120.962C163.576 120.774 163.77 120.504 163.902 120.152C164.034 119.8 164.1 119.382 164.1 118.898C164.1 118.454 164.042 118.056 163.926 117.704C163.81 117.348 163.624 117.066 163.368 116.858C163.116 116.65 162.786 116.546 162.378 116.546C162.002 116.546 161.684 116.64 161.424 116.828C161.164 117.012 160.966 117.28 160.83 117.632C160.698 117.984 160.632 118.406 160.632 118.898C160.632 119.334 160.692 119.73 160.812 120.086C160.932 120.442 161.12 120.724 161.376 120.932C161.632 121.14 161.966 121.244 162.378 121.244ZM169.116 122.12C168.544 122.12 168.044 121.998 167.616 121.754C167.188 121.506 166.856 121.144 166.62 120.668C166.384 120.192 166.266 119.61 166.266 118.922C166.266 118.274 166.376 117.706 166.596 117.218C166.816 116.73 167.138 116.352 167.562 116.084C167.99 115.812 168.508 115.676 169.116 115.676C169.688 115.676 170.184 115.802 170.604 116.054C171.028 116.302 171.356 116.668 171.588 117.152C171.82 117.636 171.936 118.226 171.936 118.922C171.936 119.554 171.828 120.11 171.612 120.59C171.4 121.07 171.084 121.446 170.664 121.718C170.248 121.986 169.732 122.12 169.116 122.12ZM169.116 121.244C169.488 121.244 169.802 121.15 170.058 120.962C170.314 120.774 170.508 120.504 170.64 120.152C170.772 119.8 170.838 119.382 170.838 118.898C170.838 118.454 170.78 118.056 170.664 117.704C170.548 117.348 170.362 117.066 170.106 116.858C169.854 116.65 169.524 116.546 169.116 116.546C168.74 116.546 168.422 116.64 168.162 116.828C167.902 117.012 167.704 117.28 167.568 117.632C167.436 117.984 167.37 118.406 167.37 118.898C167.37 119.334 167.43 119.73 167.55 120.086C167.67 120.442 167.858 120.724 168.114 120.932C168.37 121.14 168.704 121.244 169.116 121.244ZM175.957 124.052C174.981 124.052 174.221 123.91 173.677 123.626C173.137 123.346 172.867 122.944 172.867 122.42C172.867 122.196 172.919 122.006 173.023 121.85C173.127 121.69 173.251 121.558 173.395 121.454C173.539 121.35 173.673 121.268 173.797 121.208C173.921 121.144 174.001 121.098 174.037 121.07C173.969 121.03 173.883 120.98 173.779 120.92C173.679 120.86 173.591 120.78 173.515 120.68C173.439 120.58 173.401 120.45 173.401 120.29C173.401 120.094 173.493 119.914 173.677 119.75C173.861 119.586 174.133 119.464 174.493 119.384C174.129 119.2 173.845 118.956 173.641 118.652C173.437 118.348 173.335 118.018 173.335 117.662C173.335 117.262 173.443 116.914 173.659 116.618C173.879 116.322 174.191 116.096 174.595 115.94C174.999 115.78 175.479 115.7 176.035 115.7C176.439 115.7 176.779 115.748 177.055 115.844C177.331 115.936 177.587 116.068 177.823 116.24C177.887 116.212 177.987 116.17 178.123 116.114C178.263 116.054 178.417 115.99 178.585 115.922C178.753 115.854 178.909 115.79 179.053 115.73C179.201 115.666 179.319 115.618 179.407 115.586L179.401 116.612L178.315 116.816C178.375 116.944 178.423 117.084 178.459 117.236C178.499 117.388 178.519 117.53 178.519 117.662C178.519 118.026 178.423 118.356 178.231 118.652C178.043 118.948 177.757 119.184 177.373 119.36C176.989 119.536 176.509 119.624 175.933 119.624C175.885 119.624 175.823 119.624 175.747 119.624C175.675 119.62 175.613 119.616 175.561 119.612C175.137 119.624 174.845 119.672 174.685 119.756C174.525 119.836 174.445 119.926 174.445 120.026C174.445 120.142 174.535 120.222 174.715 120.266C174.895 120.31 175.201 120.348 175.633 120.38C175.789 120.388 175.981 120.398 176.209 120.41C176.441 120.422 176.697 120.438 176.977 120.458C177.629 120.498 178.131 120.664 178.483 120.956C178.835 121.248 179.011 121.642 179.011 122.138C179.011 122.702 178.759 123.162 178.255 123.518C177.751 123.874 176.985 124.052 175.957 124.052ZM176.155 123.338C176.727 123.338 177.165 123.252 177.469 123.08C177.773 122.908 177.925 122.648 177.925 122.3C177.925 122.052 177.831 121.85 177.643 121.694C177.459 121.534 177.177 121.442 176.797 121.418L175.057 121.304C174.901 121.296 174.739 121.336 174.571 121.424C174.403 121.508 174.259 121.626 174.139 121.778C174.023 121.93 173.965 122.102 173.965 122.294C173.965 122.622 174.143 122.878 174.499 123.062C174.859 123.246 175.411 123.338 176.155 123.338ZM175.963 118.91C176.411 118.91 176.771 118.806 177.043 118.598C177.319 118.39 177.457 118.082 177.457 117.674C177.457 117.254 177.319 116.934 177.043 116.714C176.771 116.494 176.411 116.384 175.963 116.384C175.511 116.384 175.145 116.496 174.865 116.72C174.589 116.94 174.451 117.258 174.451 117.674C174.451 118.066 174.583 118.37 174.847 118.586C175.111 118.802 175.483 118.91 175.963 118.91ZM182.36 122.078C182.024 122.078 181.752 122.032 181.544 121.94C181.34 121.848 181.182 121.724 181.07 121.568C180.962 121.412 180.888 121.234 180.848 121.034C180.812 120.83 180.794 120.62 180.794 120.404V113.084H181.886V120.296C181.886 120.608 181.946 120.842 182.066 120.998C182.19 121.154 182.362 121.24 182.582 121.256L182.918 121.262V121.982C182.826 122.01 182.73 122.032 182.63 122.048C182.53 122.068 182.44 122.078 182.36 122.078ZM185.067 119.156C185.067 119.548 185.131 119.904 185.259 120.224C185.391 120.54 185.589 120.792 185.853 120.98C186.121 121.168 186.455 121.262 186.855 121.262C187.251 121.262 187.591 121.17 187.875 120.986C188.163 120.802 188.347 120.536 188.427 120.188H189.477C189.401 120.608 189.233 120.962 188.973 121.25C188.713 121.538 188.399 121.756 188.031 121.904C187.663 122.048 187.279 122.12 186.879 122.12C186.299 122.12 185.789 121.994 185.349 121.742C184.909 121.49 184.565 121.128 184.317 120.656C184.069 120.184 183.945 119.618 183.945 118.958C183.945 118.306 184.057 117.734 184.281 117.242C184.505 116.75 184.829 116.366 185.253 116.09C185.681 115.814 186.195 115.676 186.795 115.676C187.379 115.676 187.873 115.802 188.277 116.054C188.681 116.306 188.987 116.662 189.195 117.122C189.407 117.578 189.513 118.12 189.513 118.748V119.156H185.067ZM185.073 118.406H188.445C188.445 118.05 188.385 117.73 188.265 117.446C188.145 117.158 187.961 116.932 187.713 116.768C187.469 116.6 187.161 116.516 186.789 116.516C186.401 116.516 186.079 116.61 185.823 116.798C185.571 116.982 185.381 117.22 185.253 117.512C185.129 117.8 185.069 118.098 185.073 118.406ZM190.779 122V120.584H192.099V122H190.779ZM196.216 115.676C196.66 115.676 197.06 115.762 197.416 115.934C197.772 116.102 198.062 116.342 198.286 116.654C198.514 116.966 198.656 117.334 198.712 117.758H197.728C197.692 117.542 197.608 117.344 197.476 117.164C197.348 116.984 197.178 116.84 196.966 116.732C196.754 116.624 196.506 116.57 196.222 116.57C195.69 116.57 195.258 116.762 194.926 117.146C194.594 117.53 194.428 118.118 194.428 118.91C194.428 119.626 194.58 120.2 194.884 120.632C195.192 121.06 195.644 121.274 196.24 121.274C196.524 121.274 196.77 121.22 196.978 121.112C197.19 121 197.36 120.854 197.488 120.674C197.616 120.49 197.698 120.294 197.734 120.086H198.7C198.648 120.502 198.508 120.862 198.28 121.166C198.052 121.47 197.76 121.706 197.404 121.874C197.052 122.038 196.656 122.12 196.216 122.12C195.66 122.12 195.166 121.998 194.734 121.754C194.306 121.51 193.97 121.15 193.726 120.674C193.482 120.198 193.36 119.614 193.36 118.922C193.36 118.274 193.47 117.708 193.69 117.224C193.914 116.736 194.238 116.356 194.662 116.084C195.09 115.812 195.608 115.676 196.216 115.676ZM202.678 122.12C202.106 122.12 201.606 121.998 201.178 121.754C200.75 121.506 200.418 121.144 200.182 120.668C199.946 120.192 199.828 119.61 199.828 118.922C199.828 118.274 199.938 117.706 200.158 117.218C200.378 116.73 200.7 116.352 201.124 116.084C201.552 115.812 202.07 115.676 202.678 115.676C203.25 115.676 203.746 115.802 204.166 116.054C204.59 116.302 204.918 116.668 205.15 117.152C205.382 117.636 205.498 118.226 205.498 118.922C205.498 119.554 205.39 120.11 205.174 120.59C204.962 121.07 204.646 121.446 204.226 121.718C203.81 121.986 203.294 122.12 202.678 122.12ZM202.678 121.244C203.05 121.244 203.364 121.15 203.62 120.962C203.876 120.774 204.07 120.504 204.202 120.152C204.334 119.8 204.4 119.382 204.4 118.898C204.4 118.454 204.342 118.056 204.226 117.704C204.11 117.348 203.924 117.066 203.668 116.858C203.416 116.65 203.086 116.546 202.678 116.546C202.302 116.546 201.984 116.64 201.724 116.828C201.464 117.012 201.266 117.28 201.13 117.632C200.998 117.984 200.932 118.406 200.932 118.898C200.932 119.334 200.992 119.73 201.112 120.086C201.232 120.442 201.42 120.724 201.676 120.932C201.932 121.14 202.266 121.244 202.678 121.244ZM206.951 122V115.796H208.019V116.696C208.191 116.424 208.427 116.186 208.727 115.982C209.027 115.778 209.417 115.676 209.897 115.676C210.121 115.676 210.349 115.714 210.581 115.79C210.817 115.866 211.033 115.98 211.229 116.132C211.425 116.284 211.577 116.47 211.685 116.69C211.877 116.386 212.137 116.142 212.465 115.958C212.793 115.77 213.163 115.676 213.575 115.676C213.791 115.676 214.017 115.71 214.253 115.778C214.489 115.842 214.707 115.958 214.907 116.126C215.111 116.29 215.277 116.52 215.405 116.816C215.533 117.108 215.597 117.484 215.597 117.944V122H214.481V118.052C214.481 117.676 214.421 117.386 214.301 117.182C214.181 116.974 214.023 116.828 213.827 116.744C213.635 116.66 213.429 116.618 213.209 116.618C213.017 116.618 212.813 116.656 212.597 116.732C212.381 116.808 212.197 116.936 212.045 117.116C211.893 117.296 211.817 117.542 211.817 117.854V122H210.713V117.728C210.713 117.484 210.647 117.28 210.515 117.116C210.387 116.952 210.225 116.828 210.029 116.744C209.837 116.66 209.645 116.618 209.453 116.618C209.241 116.618 209.027 116.66 208.811 116.744C208.599 116.828 208.419 116.962 208.271 117.146C208.127 117.326 208.055 117.562 208.055 117.854V122H206.951Z" fill="black"/>
<g filter="url(#filter5_i_1141_53638)">
<rect x="63.3335" y="142" width="36" height="36" rx="8" fill="#EB9D59"/>
<rect x="63.3335" y="142" width="36" height="36" rx="8" fill="url(#paint3_linear_1141_53638)"/>
<rect x="63.8335" y="142.5" width="35" height="35" rx="7.5" stroke="white" stroke-opacity="0.2"/>
<g filter="url(#filter6_d_1141_53638)">
<path d="M73.0249 166.5V155.649H80.1237L80.1161 157.195H74.8784V160.317H79.5008V161.84H74.8784V166.5H73.0249ZM82.0971 166.5V155.649H85.8266C87.2023 155.649 88.2304 155.894 88.9107 156.385C89.5961 156.87 89.9388 157.57 89.9388 158.486C89.9388 159.041 89.7962 159.521 89.511 159.926C89.2259 160.332 88.7231 160.674 88.0027 160.955C88.443 161.06 88.8057 161.205 89.0908 161.39C89.381 161.57 89.6061 161.777 89.7662 162.013C89.9263 162.243 90.0388 162.49 90.1039 162.756C90.1689 163.021 90.2014 163.293 90.2014 163.573C90.2014 164.564 89.8562 165.299 89.1659 165.78C88.4805 166.26 87.4174 166.5 85.9767 166.5H82.0971ZM83.9206 165.044H85.9992C86.7696 165.044 87.3524 164.907 87.7476 164.632C88.1478 164.351 88.3479 163.949 88.3479 163.423C88.3479 163.043 88.2504 162.73 88.0553 162.485C87.8602 162.235 87.595 162.05 87.2598 161.93C86.9247 161.81 86.5495 161.75 86.1342 161.75H83.9206V165.044ZM83.9206 160.272H86.1342C86.3894 160.272 86.637 160.244 86.8771 160.189C87.1173 160.134 87.3349 160.047 87.53 159.926C87.7251 159.806 87.8802 159.646 87.9952 159.446C88.1153 159.246 88.1753 159.004 88.1753 158.718C88.1753 158.173 87.9677 157.768 87.5525 157.503C87.1423 157.233 86.6145 157.097 85.9692 157.097H83.9206V160.272Z" fill="white"/>
</g>
</g>
<path d="M112.706 144.155H119.636L119.628 145.535H114.341V148.887H119.043V150.252H114.341V155H112.706V144.155ZM123.429 155.15C122.929 155.15 122.484 155.06 122.094 154.88C121.709 154.7 121.407 154.44 121.187 154.1C120.967 153.76 120.857 153.35 120.857 152.87C120.857 152.01 121.162 151.367 121.772 150.942C122.382 150.517 123.354 150.292 124.689 150.267L125.964 150.23V149.667C125.964 149.222 125.832 148.872 125.567 148.617C125.302 148.362 124.894 148.237 124.344 148.242C123.929 148.242 123.559 148.337 123.234 148.527C122.914 148.717 122.704 149.03 122.604 149.465H121.209C121.239 148.95 121.387 148.517 121.652 148.167C121.922 147.812 122.292 147.545 122.762 147.365C123.232 147.185 123.784 147.095 124.419 147.095C125.124 147.095 125.704 147.192 126.159 147.387C126.614 147.577 126.952 147.857 127.172 148.227C127.397 148.597 127.509 149.047 127.509 149.577V155H126.152L126.024 153.575C125.734 154.17 125.367 154.582 124.922 154.812C124.482 155.038 123.984 155.15 123.429 155.15ZM123.932 154.032C124.177 154.032 124.419 153.99 124.659 153.905C124.899 153.815 125.117 153.695 125.312 153.545C125.507 153.39 125.662 153.217 125.777 153.027C125.897 152.837 125.959 152.642 125.964 152.442V151.16L124.914 151.182C124.379 151.187 123.924 151.242 123.549 151.347C123.179 151.452 122.894 151.615 122.694 151.835C122.499 152.055 122.402 152.347 122.402 152.712C122.402 153.127 122.547 153.452 122.837 153.687C123.127 153.917 123.492 154.032 123.932 154.032ZM132.922 147.095C133.502 147.095 134.017 147.21 134.467 147.44C134.922 147.665 135.29 147.98 135.57 148.385C135.85 148.79 136.02 149.262 136.08 149.802H134.692C134.647 149.547 134.55 149.31 134.4 149.09C134.255 148.87 134.057 148.695 133.807 148.565C133.562 148.43 133.27 148.362 132.93 148.362C132.31 148.362 131.805 148.59 131.415 149.045C131.025 149.5 130.83 150.197 130.83 151.137C130.83 151.997 131.01 152.682 131.37 153.192C131.735 153.702 132.265 153.957 132.96 153.957C133.295 153.957 133.585 153.887 133.83 153.747C134.08 153.607 134.277 153.427 134.422 153.207C134.567 152.987 134.66 152.76 134.7 152.525H136.065C136.01 153.045 135.84 153.502 135.555 153.898C135.275 154.292 134.907 154.6 134.452 154.82C134.002 155.04 133.492 155.15 132.922 155.15C132.217 155.15 131.592 154.998 131.047 154.692C130.502 154.382 130.075 153.93 129.765 153.335C129.46 152.735 129.307 152.007 129.307 151.152C129.307 150.347 129.45 149.64 129.735 149.03C130.02 148.42 130.432 147.945 130.972 147.605C131.517 147.265 132.167 147.095 132.922 147.095ZM139.066 151.497C139.066 151.962 139.141 152.38 139.291 152.75C139.446 153.115 139.678 153.405 139.988 153.62C140.298 153.83 140.683 153.935 141.143 153.935C141.603 153.935 142.001 153.83 142.336 153.62C142.676 153.41 142.898 153.097 143.003 152.682H144.488C144.398 153.212 144.186 153.662 143.851 154.032C143.521 154.402 143.121 154.682 142.651 154.872C142.181 155.058 141.688 155.15 141.173 155.15C140.438 155.15 139.791 154.993 139.231 154.677C138.671 154.357 138.233 153.902 137.918 153.312C137.608 152.722 137.453 152.02 137.453 151.205C137.453 150.4 137.596 149.69 137.881 149.075C138.166 148.455 138.578 147.97 139.118 147.62C139.658 147.27 140.308 147.095 141.068 147.095C141.818 147.095 142.448 147.255 142.958 147.575C143.473 147.895 143.863 148.345 144.128 148.925C144.393 149.5 144.526 150.18 144.526 150.965V151.497H139.066ZM139.066 150.455H142.996C142.996 150.05 142.926 149.682 142.786 149.352C142.646 149.017 142.431 148.755 142.141 148.565C141.856 148.37 141.496 148.272 141.061 148.272C140.616 148.272 140.246 148.38 139.951 148.595C139.656 148.81 139.433 149.085 139.283 149.42C139.138 149.755 139.066 150.1 139.066 150.455ZM150.285 155.15C149.85 155.15 149.48 155.093 149.175 154.977C148.87 154.862 148.617 154.715 148.417 154.535C148.222 154.355 148.067 154.165 147.952 153.965C147.842 153.765 147.757 153.58 147.697 153.41L147.525 155H146.317V143.855H147.937V148.422C148.007 148.287 148.11 148.142 148.245 147.987C148.385 147.832 148.557 147.687 148.762 147.552C148.972 147.417 149.215 147.307 149.49 147.222C149.765 147.137 150.075 147.095 150.42 147.095C151.385 147.095 152.15 147.435 152.715 148.115C153.285 148.795 153.57 149.785 153.57 151.085C153.57 151.905 153.447 152.62 153.202 153.23C152.957 153.835 152.59 154.307 152.1 154.647C151.615 154.983 151.01 155.15 150.285 155.15ZM149.97 153.942C150.56 153.942 151.04 153.712 151.41 153.252C151.785 152.792 151.972 152.052 151.972 151.032C151.972 150.152 151.797 149.48 151.447 149.015C151.102 148.55 150.602 148.317 149.947 148.317C149.477 148.317 149.095 148.422 148.8 148.632C148.505 148.837 148.287 149.142 148.147 149.547C148.012 149.952 147.942 150.447 147.937 151.032C147.937 152.067 148.097 152.812 148.417 153.267C148.737 153.717 149.255 153.942 149.97 153.942ZM158.432 155.15C157.707 155.15 157.072 154.995 156.527 154.685C155.987 154.37 155.567 153.915 155.267 153.32C154.972 152.725 154.825 152.005 154.825 151.16C154.825 150.345 154.965 149.632 155.245 149.022C155.53 148.412 155.942 147.94 156.482 147.605C157.022 147.265 157.675 147.095 158.44 147.095C159.17 147.095 159.802 147.255 160.337 147.575C160.872 147.89 161.287 148.352 161.582 148.962C161.877 149.567 162.025 150.3 162.025 151.16C162.025 151.945 161.885 152.637 161.605 153.237C161.33 153.837 160.925 154.307 160.39 154.647C159.86 154.983 159.207 155.15 158.432 155.15ZM158.44 153.912C158.88 153.912 159.247 153.797 159.542 153.567C159.842 153.332 160.067 153.005 160.217 152.585C160.367 152.16 160.442 151.67 160.442 151.115C160.442 150.6 160.375 150.132 160.24 149.712C160.11 149.287 159.897 148.95 159.602 148.7C159.307 148.45 158.92 148.325 158.44 148.325C157.99 148.325 157.615 148.44 157.315 148.67C157.015 148.895 156.787 149.217 156.632 149.637C156.482 150.052 156.407 150.545 156.407 151.115C156.407 151.62 156.475 152.085 156.61 152.51C156.745 152.935 156.962 153.275 157.262 153.53C157.562 153.785 157.955 153.912 158.44 153.912ZM166.899 155.15C166.174 155.15 165.539 154.995 164.994 154.685C164.454 154.37 164.034 153.915 163.734 153.32C163.439 152.725 163.292 152.005 163.292 151.16C163.292 150.345 163.432 149.632 163.712 149.022C163.997 148.412 164.409 147.94 164.949 147.605C165.489 147.265 166.142 147.095 166.907 147.095C167.637 147.095 168.269 147.255 168.804 147.575C169.339 147.89 169.754 148.352 170.049 148.962C170.344 149.567 170.492 150.3 170.492 151.16C170.492 151.945 170.352 152.637 170.072 153.237C169.797 153.837 169.392 154.307 168.857 154.647C168.327 154.983 167.674 155.15 166.899 155.15ZM166.907 153.912C167.347 153.912 167.714 153.797 168.009 153.567C168.309 153.332 168.534 153.005 168.684 152.585C168.834 152.16 168.909 151.67 168.909 151.115C168.909 150.6 168.842 150.132 168.707 149.712C168.577 149.287 168.364 148.95 168.069 148.7C167.774 148.45 167.387 148.325 166.907 148.325C166.457 148.325 166.082 148.44 165.782 148.67C165.482 148.895 165.254 149.217 165.099 149.637C164.949 150.052 164.874 150.545 164.874 151.115C164.874 151.62 164.942 152.085 165.077 152.51C165.212 152.935 165.429 153.275 165.729 153.53C166.029 153.785 166.422 153.912 166.907 153.912ZM179.213 155H177.548L175.216 151.257L173.821 152.705V155H172.216V143.855H173.821V150.942L177.248 147.245H179.048L176.243 150.237L179.213 155Z" fill="black"/>
<path opacity="0.4" d="M112.251 176V167.084H113.331V170.708C113.435 170.536 113.575 170.376 113.751 170.228C113.927 170.076 114.141 169.954 114.393 169.862C114.645 169.766 114.937 169.718 115.269 169.718C115.673 169.718 116.039 169.794 116.367 169.946C116.695 170.094 116.955 170.306 117.147 170.582C117.339 170.858 117.435 171.186 117.435 171.566V176H116.325V171.788C116.325 171.416 116.197 171.13 115.941 170.93C115.689 170.726 115.359 170.624 114.951 170.624C114.675 170.624 114.415 170.67 114.171 170.762C113.927 170.85 113.729 170.986 113.577 171.17C113.429 171.35 113.355 171.58 113.355 171.86V176H112.251ZM122.025 170.606H120.627V174.464C120.627 174.684 120.649 174.846 120.693 174.95C120.741 175.05 120.819 175.114 120.927 175.142C121.039 175.17 121.191 175.184 121.383 175.184H122.061V175.928C121.985 175.956 121.869 175.98 121.713 176C121.561 176.02 121.371 176.03 121.143 176.03C120.715 176.03 120.383 175.972 120.147 175.856C119.911 175.74 119.745 175.568 119.649 175.34C119.557 175.112 119.511 174.832 119.511 174.5V170.606H118.503V169.796H119.541L119.811 167.99H120.627V169.79H122.025V170.606ZM126.7 170.606H125.302V174.464C125.302 174.684 125.324 174.846 125.368 174.95C125.416 175.05 125.494 175.114 125.602 175.142C125.714 175.17 125.866 175.184 126.058 175.184H126.736V175.928C126.66 175.956 126.544 175.98 126.388 176C126.236 176.02 126.046 176.03 125.818 176.03C125.39 176.03 125.058 175.972 124.822 175.856C124.586 175.74 124.42 175.568 124.324 175.34C124.232 175.112 124.186 174.832 124.186 174.5V170.606H123.178V169.796H124.216L124.486 167.99H125.302V169.79H126.7V170.606ZM128.294 177.932V169.796H129.398L129.41 170.876C129.482 170.748 129.574 170.614 129.686 170.474C129.802 170.334 129.942 170.204 130.106 170.084C130.274 169.964 130.468 169.866 130.688 169.79C130.912 169.714 131.166 169.676 131.45 169.676C131.946 169.676 132.382 169.79 132.758 170.018C133.138 170.242 133.434 170.586 133.646 171.05C133.858 171.514 133.964 172.102 133.964 172.814C133.964 173.526 133.86 174.128 133.652 174.62C133.448 175.108 133.152 175.48 132.764 175.736C132.376 175.992 131.908 176.12 131.36 176.12C131.084 176.12 130.838 176.08 130.622 176C130.41 175.924 130.224 175.824 130.064 175.7C129.908 175.572 129.776 175.436 129.668 175.292C129.564 175.148 129.478 175.01 129.41 174.878V177.932H128.294ZM131.15 175.256C131.662 175.256 132.08 175.062 132.404 174.674C132.728 174.282 132.89 173.674 132.89 172.85C132.89 172.142 132.742 171.58 132.446 171.164C132.15 170.748 131.718 170.54 131.15 170.54C130.574 170.54 130.138 170.754 129.842 171.182C129.546 171.606 129.398 172.162 129.398 172.85C129.398 173.294 129.464 173.698 129.596 174.062C129.728 174.426 129.924 174.716 130.184 174.932C130.444 175.148 130.766 175.256 131.15 175.256ZM137.586 176.12C137.154 176.12 136.752 176.054 136.38 175.922C136.012 175.786 135.706 175.576 135.462 175.292C135.218 175.004 135.064 174.638 135 174.194H136.008C136.064 174.438 136.164 174.642 136.308 174.806C136.456 174.966 136.64 175.088 136.86 175.172C137.08 175.252 137.32 175.292 137.58 175.292C137.996 175.292 138.332 175.214 138.588 175.058C138.844 174.902 138.972 174.662 138.972 174.338C138.972 174.11 138.904 173.928 138.768 173.792C138.636 173.652 138.43 173.55 138.15 173.486L136.866 173.168C136.366 173.048 135.966 172.86 135.666 172.604C135.366 172.348 135.216 171.99 135.216 171.53C135.212 171.166 135.298 170.846 135.474 170.57C135.65 170.294 135.914 170.076 136.266 169.916C136.618 169.756 137.056 169.676 137.58 169.676C138.252 169.676 138.794 169.828 139.206 170.132C139.622 170.432 139.838 170.874 139.854 171.458H138.876C138.836 171.162 138.702 170.928 138.474 170.756C138.25 170.58 137.948 170.492 137.568 170.492C137.172 170.492 136.85 170.572 136.602 170.732C136.354 170.888 136.23 171.132 136.23 171.464C136.23 171.684 136.318 171.858 136.494 171.986C136.67 172.11 136.93 172.214 137.274 172.298L138.516 172.61C138.804 172.686 139.04 172.786 139.224 172.91C139.412 173.034 139.56 173.172 139.668 173.324C139.78 173.476 139.858 173.636 139.902 173.804C139.95 173.968 139.974 174.126 139.974 174.278C139.974 174.658 139.878 174.986 139.686 175.262C139.498 175.534 139.226 175.746 138.87 175.898C138.518 176.046 138.09 176.12 137.586 176.12ZM142.593 170.042V171.452H141.267V170.042H142.593ZM142.593 174.566V175.964H141.267V174.566H142.593ZM143.476 176.462L146.476 167.324H147.34L144.334 176.462H143.476ZM147.683 176.462L150.683 167.324H151.547L148.541 176.462H147.683ZM156.15 169.796V170.606H154.644V176H153.528V170.606H152.22V169.796H153.528V168.836C153.528 168.344 153.654 167.97 153.906 167.714C154.158 167.454 154.534 167.324 155.034 167.324H156.204L156.21 168.11H155.28C155.028 168.11 154.856 168.178 154.764 168.314C154.672 168.45 154.626 168.656 154.626 168.932V169.796H156.15ZM159.284 176.12C158.884 176.12 158.53 176.05 158.222 175.91C157.914 175.766 157.672 175.56 157.496 175.292C157.324 175.024 157.238 174.7 157.238 174.32C157.238 173.632 157.478 173.12 157.958 172.784C158.438 172.448 159.208 172.268 160.268 172.244L161.378 172.214V171.728C161.378 171.348 161.264 171.048 161.036 170.828C160.808 170.604 160.454 170.492 159.974 170.492C159.618 170.496 159.304 170.58 159.032 170.744C158.764 170.908 158.59 171.176 158.51 171.548H157.532C157.556 171.144 157.67 170.804 157.874 170.528C158.078 170.248 158.362 170.036 158.726 169.892C159.094 169.748 159.528 169.676 160.028 169.676C160.568 169.676 161.016 169.752 161.372 169.904C161.732 170.056 162 170.28 162.176 170.576C162.356 170.872 162.446 171.236 162.446 171.668V176H161.498L161.42 174.836C161.18 175.32 160.874 175.656 160.502 175.844C160.134 176.028 159.728 176.12 159.284 176.12ZM159.62 175.322C159.828 175.322 160.034 175.284 160.238 175.208C160.446 175.132 160.636 175.03 160.808 174.902C160.98 174.77 161.116 174.624 161.216 174.464C161.32 174.3 161.374 174.132 161.378 173.96V172.898L160.454 172.916C159.982 172.924 159.586 172.972 159.266 173.06C158.95 173.148 158.712 173.286 158.552 173.474C158.396 173.662 158.318 173.908 158.318 174.212C158.318 174.56 158.438 174.832 158.678 175.028C158.922 175.224 159.236 175.322 159.62 175.322ZM166.813 169.676C167.257 169.676 167.657 169.762 168.013 169.934C168.369 170.102 168.659 170.342 168.883 170.654C169.111 170.966 169.253 171.334 169.309 171.758H168.325C168.289 171.542 168.205 171.344 168.073 171.164C167.945 170.984 167.775 170.84 167.563 170.732C167.351 170.624 167.103 170.57 166.819 170.57C166.287 170.57 165.855 170.762 165.523 171.146C165.191 171.53 165.025 172.118 165.025 172.91C165.025 173.626 165.177 174.2 165.481 174.632C165.789 175.06 166.241 175.274 166.837 175.274C167.121 175.274 167.367 175.22 167.575 175.112C167.787 175 167.957 174.854 168.085 174.674C168.213 174.49 168.295 174.294 168.331 174.086H169.297C169.245 174.502 169.105 174.862 168.877 175.166C168.649 175.47 168.357 175.706 168.001 175.874C167.649 176.038 167.253 176.12 166.813 176.12C166.257 176.12 165.763 175.998 165.331 175.754C164.903 175.51 164.567 175.15 164.323 174.674C164.079 174.198 163.957 173.614 163.957 172.922C163.957 172.274 164.067 171.708 164.287 171.224C164.511 170.736 164.835 170.356 165.259 170.084C165.687 169.812 166.205 169.676 166.813 169.676ZM171.602 173.156C171.602 173.548 171.666 173.904 171.794 174.224C171.926 174.54 172.124 174.792 172.388 174.98C172.656 175.168 172.99 175.262 173.39 175.262C173.786 175.262 174.126 175.17 174.41 174.986C174.698 174.802 174.882 174.536 174.962 174.188H176.012C175.936 174.608 175.768 174.962 175.508 175.25C175.248 175.538 174.934 175.756 174.566 175.904C174.198 176.048 173.814 176.12 173.414 176.12C172.834 176.12 172.324 175.994 171.884 175.742C171.444 175.49 171.1 175.128 170.852 174.656C170.604 174.184 170.48 173.618 170.48 172.958C170.48 172.306 170.592 171.734 170.816 171.242C171.04 170.75 171.364 170.366 171.788 170.09C172.216 169.814 172.73 169.676 173.33 169.676C173.914 169.676 174.408 169.802 174.812 170.054C175.216 170.306 175.522 170.662 175.73 171.122C175.942 171.578 176.048 172.12 176.048 172.748V173.156H171.602ZM171.608 172.406H174.98C174.98 172.05 174.92 171.73 174.8 171.446C174.68 171.158 174.496 170.932 174.248 170.768C174.004 170.6 173.696 170.516 173.324 170.516C172.936 170.516 172.614 170.61 172.358 170.798C172.106 170.982 171.916 171.22 171.788 171.512C171.664 171.8 171.604 172.098 171.608 172.406ZM180.638 176.12C180.274 176.12 179.966 176.072 179.714 175.976C179.466 175.88 179.262 175.758 179.102 175.61C178.942 175.458 178.818 175.304 178.73 175.148C178.642 174.988 178.578 174.848 178.538 174.728L178.418 176H177.572V167.084H178.688V170.78C178.74 170.676 178.818 170.562 178.922 170.438C179.03 170.314 179.168 170.194 179.336 170.078C179.504 169.962 179.702 169.866 179.93 169.79C180.162 169.714 180.426 169.676 180.722 169.676C181.498 169.676 182.114 169.946 182.57 170.486C183.03 171.026 183.26 171.822 183.26 172.874C183.26 173.526 183.162 174.096 182.966 174.584C182.77 175.068 182.478 175.446 182.09 175.718C181.702 175.986 181.218 176.12 180.638 176.12ZM180.44 175.268C180.944 175.268 181.354 175.074 181.67 174.686C181.986 174.294 182.144 173.672 182.144 172.82C182.144 172.096 181.996 171.536 181.7 171.14C181.408 170.74 180.98 170.54 180.416 170.54C180.004 170.54 179.672 170.63 179.42 170.81C179.172 170.986 178.988 171.244 178.868 171.584C178.752 171.924 178.692 172.336 178.688 172.82C178.688 173.688 178.822 174.314 179.09 174.698C179.362 175.078 179.812 175.268 180.44 175.268ZM187.175 176.12C186.603 176.12 186.103 175.998 185.675 175.754C185.247 175.506 184.915 175.144 184.679 174.668C184.443 174.192 184.325 173.61 184.325 172.922C184.325 172.274 184.435 171.706 184.655 171.218C184.875 170.73 185.197 170.352 185.621 170.084C186.049 169.812 186.567 169.676 187.175 169.676C187.747 169.676 188.243 169.802 188.663 170.054C189.087 170.302 189.415 170.668 189.647 171.152C189.879 171.636 189.995 172.226 189.995 172.922C189.995 173.554 189.887 174.11 189.671 174.59C189.459 175.07 189.143 175.446 188.723 175.718C188.307 175.986 187.791 176.12 187.175 176.12ZM187.175 175.244C187.547 175.244 187.861 175.15 188.117 174.962C188.373 174.774 188.567 174.504 188.699 174.152C188.831 173.8 188.897 173.382 188.897 172.898C188.897 172.454 188.839 172.056 188.723 171.704C188.607 171.348 188.421 171.066 188.165 170.858C187.913 170.65 187.583 170.546 187.175 170.546C186.799 170.546 186.481 170.64 186.221 170.828C185.961 171.012 185.763 171.28 185.627 171.632C185.495 171.984 185.429 172.406 185.429 172.898C185.429 173.334 185.489 173.73 185.609 174.086C185.729 174.442 185.917 174.724 186.173 174.932C186.429 175.14 186.763 175.244 187.175 175.244ZM193.913 176.12C193.341 176.12 192.841 175.998 192.413 175.754C191.985 175.506 191.653 175.144 191.417 174.668C191.181 174.192 191.063 173.61 191.063 172.922C191.063 172.274 191.173 171.706 191.393 171.218C191.613 170.73 191.935 170.352 192.359 170.084C192.787 169.812 193.305 169.676 193.913 169.676C194.485 169.676 194.981 169.802 195.401 170.054C195.825 170.302 196.153 170.668 196.385 171.152C196.617 171.636 196.733 172.226 196.733 172.922C196.733 173.554 196.625 174.11 196.409 174.59C196.197 175.07 195.881 175.446 195.461 175.718C195.045 175.986 194.529 176.12 193.913 176.12ZM193.913 175.244C194.285 175.244 194.599 175.15 194.855 174.962C195.111 174.774 195.305 174.504 195.437 174.152C195.569 173.8 195.635 173.382 195.635 172.898C195.635 172.454 195.577 172.056 195.461 171.704C195.345 171.348 195.159 171.066 194.903 170.858C194.651 170.65 194.321 170.546 193.913 170.546C193.537 170.546 193.219 170.64 192.959 170.828C192.699 171.012 192.501 171.28 192.365 171.632C192.233 171.984 192.167 172.406 192.167 172.898C192.167 173.334 192.227 173.73 192.347 174.086C192.467 174.442 192.655 174.724 192.911 174.932C193.167 175.14 193.501 175.244 193.913 175.244ZM203.633 176H202.457L200.513 172.886L199.289 174.152V176H198.185V167.084H199.289V172.898L202.205 169.796H203.477L201.239 172.16L203.633 176ZM204.701 176V174.584H206.021V176H204.701ZM210.138 169.676C210.582 169.676 210.982 169.762 211.338 169.934C211.694 170.102 211.984 170.342 212.208 170.654C212.436 170.966 212.578 171.334 212.634 171.758H211.65C211.614 171.542 211.53 171.344 211.398 171.164C211.27 170.984 211.1 170.84 210.888 170.732C210.676 170.624 210.428 170.57 210.144 170.57C209.612 170.57 209.18 170.762 208.848 171.146C208.516 171.53 208.35 172.118 208.35 172.91C208.35 173.626 208.502 174.2 208.806 174.632C209.114 175.06 209.566 175.274 210.162 175.274C210.446 175.274 210.692 175.22 210.9 175.112C211.112 175 211.282 174.854 211.41 174.674C211.538 174.49 211.62 174.294 211.656 174.086H212.622C212.57 174.502 212.43 174.862 212.202 175.166C211.974 175.47 211.682 175.706 211.326 175.874C210.974 176.038 210.578 176.12 210.138 176.12C209.582 176.12 209.088 175.998 208.656 175.754C208.228 175.51 207.892 175.15 207.648 174.674C207.404 174.198 207.282 173.614 207.282 172.922C207.282 172.274 207.392 171.708 207.612 171.224C207.836 170.736 208.16 170.356 208.584 170.084C209.012 169.812 209.53 169.676 210.138 169.676ZM216.6 176.12C216.028 176.12 215.528 175.998 215.1 175.754C214.672 175.506 214.34 175.144 214.104 174.668C213.868 174.192 213.75 173.61 213.75 172.922C213.75 172.274 213.86 171.706 214.08 171.218C214.3 170.73 214.622 170.352 215.046 170.084C215.474 169.812 215.992 169.676 216.6 169.676C217.172 169.676 217.668 169.802 218.088 170.054C218.512 170.302 218.84 170.668 219.072 171.152C219.304 171.636 219.42 172.226 219.42 172.922C219.42 173.554 219.312 174.11 219.096 174.59C218.884 175.07 218.568 175.446 218.148 175.718C217.732 175.986 217.216 176.12 216.6 176.12ZM216.6 175.244C216.972 175.244 217.286 175.15 217.542 174.962C217.798 174.774 217.992 174.504 218.124 174.152C218.256 173.8 218.322 173.382 218.322 172.898C218.322 172.454 218.264 172.056 218.148 171.704C218.032 171.348 217.846 171.066 217.59 170.858C217.338 170.65 217.008 170.546 216.6 170.546C216.224 170.546 215.906 170.64 215.646 170.828C215.386 171.012 215.188 171.28 215.052 171.632C214.92 171.984 214.854 172.406 214.854 172.898C214.854 173.334 214.914 173.73 215.034 174.086C215.154 174.442 215.342 174.724 215.598 174.932C215.854 175.14 216.188 175.244 216.6 175.244ZM220.873 176V169.796H221.941V170.696C222.113 170.424 222.349 170.186 222.649 169.982C222.949 169.778 223.339 169.676 223.819 169.676C224.043 169.676 224.271 169.714 224.503 169.79C224.739 169.866 224.955 169.98 225.151 170.132C225.347 170.284 225.499 170.47 225.607 170.69C225.799 170.386 226.059 170.142 226.387 169.958C226.715 169.77 227.085 169.676 227.497 169.676C227.713 169.676 227.939 169.71 228.175 169.778C228.411 169.842 228.629 169.958 228.829 170.126C229.033 170.29 229.199 170.52 229.327 170.816C229.455 171.108 229.519 171.484 229.519 171.944V176H228.403V172.052C228.403 171.676 228.343 171.386 228.223 171.182C228.103 170.974 227.945 170.828 227.749 170.744C227.557 170.66 227.351 170.618 227.131 170.618C226.939 170.618 226.735 170.656 226.519 170.732C226.303 170.808 226.119 170.936 225.967 171.116C225.815 171.296 225.739 171.542 225.739 171.854V176H224.635V171.728C224.635 171.484 224.569 171.28 224.437 171.116C224.309 170.952 224.147 170.828 223.951 170.744C223.759 170.66 223.567 170.618 223.375 170.618C223.163 170.618 222.949 170.66 222.733 170.744C222.521 170.828 222.341 170.962 222.193 171.146C222.049 171.326 221.977 171.562 221.977 171.854V176H220.873Z" fill="black"/>
<rect x="63.8335" y="195.5" width="201" height="35" rx="5.5" fill="#EAEEF7"/>
<rect x="63.8335" y="195.5" width="201" height="35" rx="5.5" stroke="#DAE1F1"/>
<path d="M120.738 216.005L120.731 209.803H121.872L121.879 216.005H120.738ZM118.197 213.485V212.344L124.399 212.337V213.478L118.197 213.485ZM129.113 218L132.767 207.878H134.419L138.066 218H136.554L135.602 215.347H131.591L130.632 218H129.113ZM131.962 213.989H135.21L133.586 209.334L131.962 213.989ZM142.087 218.14C141.139 218.14 140.39 217.816 139.84 217.167C139.294 216.514 139.021 215.573 139.021 214.346C139.021 213.595 139.13 212.941 139.35 212.386C139.574 211.826 139.903 211.392 140.337 211.084C140.771 210.776 141.312 210.622 141.961 210.622C142.283 210.622 142.572 210.662 142.829 210.741C143.085 210.82 143.309 210.923 143.501 211.049C143.692 211.175 143.853 211.31 143.984 211.455C144.114 211.6 144.212 211.735 144.278 211.861V207.598H145.79V218H144.663L144.495 216.516C144.443 216.675 144.364 216.847 144.257 217.034C144.154 217.221 144.009 217.398 143.823 217.566C143.641 217.734 143.407 217.872 143.123 217.979C142.838 218.086 142.493 218.14 142.087 218.14ZM142.374 217.013C143.046 217.013 143.531 216.803 143.83 216.383C144.128 215.958 144.278 215.263 144.278 214.297C144.273 213.751 144.205 213.289 144.075 212.911C143.949 212.533 143.748 212.248 143.473 212.057C143.202 211.861 142.845 211.763 142.402 211.763C141.846 211.763 141.391 211.964 141.037 212.365C140.687 212.762 140.512 213.406 140.512 214.297C140.512 215.174 140.67 215.846 140.988 216.313C141.31 216.78 141.772 217.013 142.374 217.013ZM150.481 218.14C149.534 218.14 148.785 217.816 148.234 217.167C147.688 216.514 147.415 215.573 147.415 214.346C147.415 213.595 147.525 212.941 147.744 212.386C147.968 211.826 148.297 211.392 148.731 211.084C149.165 210.776 149.707 210.622 150.355 210.622C150.677 210.622 150.967 210.662 151.223 210.741C151.48 210.82 151.704 210.923 151.895 211.049C152.087 211.175 152.248 211.31 152.378 211.455C152.509 211.6 152.607 211.735 152.672 211.861V207.598H154.184V218H153.057L152.889 216.516C152.838 216.675 152.759 216.847 152.651 217.034C152.549 217.221 152.404 217.398 152.217 217.566C152.035 217.734 151.802 217.872 151.517 217.979C151.233 218.086 150.887 218.14 150.481 218.14ZM150.768 217.013C151.44 217.013 151.926 216.803 152.224 216.383C152.523 215.958 152.672 215.263 152.672 214.297C152.668 213.751 152.6 213.289 152.469 212.911C152.343 212.533 152.143 212.248 151.867 212.057C151.597 211.861 151.24 211.763 150.796 211.763C150.241 211.763 149.786 211.964 149.431 212.365C149.081 212.762 148.906 213.406 148.906 214.297C148.906 215.174 149.065 215.846 149.382 216.313C149.704 216.78 150.166 217.013 150.768 217.013ZM161.47 218L158.537 207.878H160.035L162.177 215.564L164.347 207.878H165.495L167.665 215.564L169.835 207.878H171.326L168.365 218H167.049L164.914 210.489L162.751 218H161.47ZM175.109 218.14C174.423 218.14 173.818 217.993 173.296 217.699C172.773 217.4 172.365 216.976 172.071 216.425C171.781 215.874 171.637 215.219 171.637 214.458C171.637 213.707 171.77 213.044 172.036 212.47C172.302 211.891 172.687 211.439 173.191 211.112C173.695 210.785 174.301 210.622 175.011 210.622C175.706 210.622 176.294 210.771 176.775 211.07C177.255 211.369 177.619 211.789 177.867 212.33C178.114 212.867 178.238 213.501 178.238 214.234V214.731H173.142C173.137 215.165 173.207 215.555 173.352 215.9C173.496 216.241 173.711 216.511 173.996 216.712C174.285 216.908 174.644 217.006 175.074 217.006C175.508 217.006 175.881 216.908 176.194 216.712C176.511 216.516 176.719 216.224 176.817 215.837H178.203C178.119 216.332 177.92 216.752 177.608 217.097C177.295 217.442 176.919 217.704 176.481 217.881C176.042 218.054 175.585 218.14 175.109 218.14ZM173.142 213.758H176.81C176.81 213.38 176.744 213.037 176.614 212.729C176.483 212.416 176.282 212.171 176.012 211.994C175.746 211.812 175.41 211.721 175.004 211.721C174.588 211.721 174.243 211.821 173.968 212.022C173.692 212.223 173.485 212.479 173.345 212.792C173.209 213.105 173.142 213.427 173.142 213.758ZM183.646 218.14C183.24 218.14 182.895 218.086 182.61 217.979C182.326 217.872 182.09 217.734 181.903 217.566C181.721 217.398 181.577 217.221 181.469 217.034C181.367 216.847 181.287 216.675 181.231 216.516L181.07 218H179.943V207.598H181.455V211.861C181.521 211.735 181.616 211.6 181.742 211.455C181.873 211.31 182.034 211.175 182.225 211.049C182.421 210.923 182.648 210.82 182.904 210.741C183.161 210.662 183.45 210.622 183.772 210.622C184.673 210.622 185.387 210.939 185.914 211.574C186.446 212.209 186.712 213.133 186.712 214.346C186.712 215.111 186.598 215.779 186.369 216.348C186.141 216.913 185.798 217.354 185.34 217.671C184.888 217.984 184.323 218.14 183.646 218.14ZM183.352 217.013C183.903 217.013 184.351 216.798 184.696 216.369C185.046 215.94 185.221 215.249 185.221 214.297C185.221 213.476 185.058 212.848 184.731 212.414C184.409 211.98 183.943 211.763 183.331 211.763C182.893 211.763 182.536 211.861 182.26 212.057C181.985 212.248 181.782 212.533 181.651 212.911C181.525 213.289 181.46 213.751 181.455 214.297C181.455 215.263 181.605 215.958 181.903 216.383C182.202 216.803 182.685 217.013 183.352 217.013ZM190.992 218.14C190.488 218.14 190.014 218.061 189.571 217.902C189.132 217.743 188.763 217.494 188.465 217.153C188.171 216.812 187.986 216.376 187.912 215.844H189.249C189.309 216.119 189.424 216.348 189.592 216.53C189.764 216.707 189.97 216.84 190.208 216.929C190.45 217.013 190.709 217.055 190.985 217.055C191.442 217.055 191.813 216.973 192.098 216.81C192.382 216.642 192.525 216.385 192.525 216.04C192.525 215.793 192.448 215.594 192.294 215.445C192.14 215.296 191.899 215.186 191.573 215.116L190.131 214.773C189.533 214.633 189.055 214.411 188.696 214.108C188.336 213.8 188.154 213.371 188.15 212.82C188.15 212.395 188.255 212.017 188.465 211.686C188.679 211.355 188.997 211.096 189.417 210.909C189.841 210.718 190.364 210.622 190.985 210.622C191.801 210.622 192.457 210.804 192.952 211.168C193.451 211.532 193.708 212.059 193.722 212.75H192.427C192.38 212.419 192.228 212.16 191.972 211.973C191.72 211.782 191.386 211.686 190.971 211.686C190.541 211.686 190.189 211.772 189.914 211.945C189.638 212.113 189.501 212.372 189.501 212.722C189.501 212.96 189.601 213.149 189.802 213.289C190.007 213.424 190.308 213.536 190.705 213.625L192.077 213.968C192.431 214.061 192.723 214.185 192.952 214.339C193.18 214.488 193.36 214.654 193.491 214.836C193.621 215.018 193.712 215.207 193.764 215.403C193.82 215.599 193.848 215.783 193.848 215.956C193.848 216.413 193.731 216.805 193.498 217.132C193.269 217.454 192.942 217.704 192.518 217.881C192.093 218.054 191.584 218.14 190.992 218.14ZM195.496 218V210.762H196.938V218H195.496ZM195.461 209.362V207.885H196.966V209.362H195.461ZM201.781 218.049C201.244 218.049 200.829 217.977 200.535 217.832C200.241 217.687 200.035 217.48 199.919 217.209C199.802 216.934 199.744 216.602 199.744 216.215V211.84H198.568V210.762H199.793L200.157 208.634H201.249V210.755H202.873V211.84H201.249L201.256 216.159C201.256 216.397 201.279 216.572 201.326 216.684C201.377 216.791 201.461 216.861 201.578 216.894C201.699 216.922 201.862 216.936 202.068 216.936H202.908V217.909C202.819 217.946 202.681 217.979 202.495 218.007C202.313 218.035 202.075 218.049 201.781 218.049ZM207.497 218.14C206.811 218.14 206.207 217.993 205.684 217.699C205.162 217.4 204.753 216.976 204.459 216.425C204.17 215.874 204.025 215.219 204.025 214.458C204.025 213.707 204.158 213.044 204.424 212.47C204.69 211.891 205.075 211.439 205.579 211.112C206.083 210.785 206.69 210.622 207.399 210.622C208.095 210.622 208.683 210.771 209.163 211.07C209.644 211.369 210.008 211.789 210.255 212.33C210.503 212.867 210.626 213.501 210.626 214.234V214.731H205.53C205.526 215.165 205.596 215.555 205.74 215.9C205.885 216.241 206.1 216.511 206.384 216.712C206.674 216.908 207.033 217.006 207.462 217.006C207.896 217.006 208.27 216.908 208.582 216.712C208.9 216.516 209.107 216.224 209.205 215.837H210.591C210.507 216.332 210.309 216.752 209.996 217.097C209.684 217.442 209.308 217.704 208.869 217.881C208.431 218.054 207.973 218.14 207.497 218.14ZM205.53 213.758H209.198C209.198 213.38 209.133 213.037 209.002 212.729C208.872 212.416 208.671 212.171 208.4 211.994C208.134 211.812 207.798 211.721 207.392 211.721C206.977 211.721 206.632 211.821 206.356 212.022C206.081 212.223 205.873 212.479 205.733 212.792C205.598 213.105 205.53 213.427 205.53 213.758Z" fill="#537AEF"/>
</g>
</g>
</g>
<defs>
<filter id="filter0_d_1141_53638" x="1.3335" y="-25" width="326" height="322" filterUnits="userSpaceOnUse" color-interpolation-filters="sRGB">
<feFlood flood-opacity="0" result="BackgroundImageFix"/>
<feColorMatrix in="SourceAlpha" type="matrix" values="0 0 0 0 0 0 0 0 0 0 0 0 0 0 0 0 0 0 127 0" result="hardAlpha"/>
<feOffset dy="4"/>
<feGaussianBlur stdDeviation="25"/>
<feComposite in2="hardAlpha" operator="out"/>
<feColorMatrix type="matrix" values="0 0 0 0 0.32549 0 0 0 0 0.478431 0 0 0 0 0.937255 0 0 0 0.08 0"/>
<feBlend mode="normal" in2="BackgroundImageFix" result="effect1_dropShadow_1141_53638"/>
<feBlend mode="normal" in="SourceGraphic" in2="effect1_dropShadow_1141_53638" result="shape"/>
</filter>
<filter id="filter1_i_1141_53638" x="63.3335" y="32" width="36" height="38" filterUnits="userSpaceOnUse" color-interpolation-filters="sRGB">
<feFlood flood-opacity="0" result="BackgroundImageFix"/>
<feBlend mode="normal" in="SourceGraphic" in2="BackgroundImageFix" result="shape"/>
<feColorMatrix in="SourceAlpha" type="matrix" values="0 0 0 0 0 0 0 0 0 0 0 0 0 0 0 0 0 0 127 0" result="hardAlpha"/>
<feOffset dy="-2"/>
<feGaussianBlur stdDeviation="3"/>
<feComposite in2="hardAlpha" operator="arithmetic" k2="-1" k3="1"/>
<feColorMatrix type="matrix" values="0 0 0 0 0 0 0 0 0 0 0 0 0 0 0 0 0 0 0.05 0"/>
<feBlend mode="normal" in2="shape" result="effect1_innerShadow_1141_53638"/>
</filter>
<filter id="filter2_d_1141_53638" x="69.0486" y="43.6492" width="26.4624" height="18.8508" filterUnits="userSpaceOnUse" color-interpolation-filters="sRGB">
<feFlood flood-opacity="0" result="BackgroundImageFix"/>
<feColorMatrix in="SourceAlpha" type="matrix" values="0 0 0 0 0 0 0 0 0 0 0 0 0 0 0 0 0 0 127 0" result="hardAlpha"/>
<feOffset dy="1"/>
<feGaussianBlur stdDeviation="2"/>
<feComposite in2="hardAlpha" operator="out"/>
<feColorMatrix type="matrix" values="0 0 0 0 0 0 0 0 0 0 0 0 0 0 0 0 0 0 0.12 0"/>
<feBlend mode="normal" in2="BackgroundImageFix" result="effect1_dropShadow_1141_53638"/>
<feBlend mode="normal" in="SourceGraphic" in2="effect1_dropShadow_1141_53638" result="shape"/>
</filter>
<filter id="filter3_i_1141_53638" x="63.3335" y="86" width="36" height="38" filterUnits="userSpaceOnUse" color-interpolation-filters="sRGB">
<feFlood flood-opacity="0" result="BackgroundImageFix"/>
<feBlend mode="normal" in="SourceGraphic" in2="BackgroundImageFix" result="shape"/>
<feColorMatrix in="SourceAlpha" type="matrix" values="0 0 0 0 0 0 0 0 0 0 0 0 0 0 0 0 0 0 127 0" result="hardAlpha"/>
<feOffset dy="-2"/>
<feGaussianBlur stdDeviation="3"/>
<feComposite in2="hardAlpha" operator="arithmetic" k2="-1" k3="1"/>
<feColorMatrix type="matrix" values="0 0 0 0 0 0 0 0 0 0 0 0 0 0 0 0 0 0 0.05 0"/>
<feBlend mode="normal" in2="shape" result="effect1_innerShadow_1141_53638"/>
</filter>
<filter id="filter4_d_1141_53638" x="68.1545" y="97.4991" width="26.5208" height="19.1509" filterUnits="userSpaceOnUse" color-interpolation-filters="sRGB">
<feFlood flood-opacity="0" result="BackgroundImageFix"/>
<feColorMatrix in="SourceAlpha" type="matrix" values="0 0 0 0 0 0 0 0 0 0 0 0 0 0 0 0 0 0 127 0" result="hardAlpha"/>
<feOffset dy="1"/>
<feGaussianBlur stdDeviation="2"/>
<feComposite in2="hardAlpha" operator="out"/>
<feColorMatrix type="matrix" values="0 0 0 0 0 0 0 0 0 0 0 0 0 0 0 0 0 0 0.12 0"/>
<feBlend mode="normal" in2="BackgroundImageFix" result="effect1_dropShadow_1141_53638"/>
<feBlend mode="normal" in="SourceGraphic" in2="effect1_dropShadow_1141_53638" result="shape"/>
</filter>
<filter id="filter5_i_1141_53638" x="63.3335" y="140" width="36" height="38" filterUnits="userSpaceOnUse" color-interpolation-filters="sRGB">
<feFlood flood-opacity="0" result="BackgroundImageFix"/>
<feBlend mode="normal" in="SourceGraphic" in2="BackgroundImageFix" result="shape"/>
<feColorMatrix in="SourceAlpha" type="matrix" values="0 0 0 0 0 0 0 0 0 0 0 0 0 0 0 0 0 0 127 0" result="hardAlpha"/>
<feOffset dy="-2"/>
<feGaussianBlur stdDeviation="3"/>
<feComposite in2="hardAlpha" operator="arithmetic" k2="-1" k3="1"/>
<feColorMatrix type="matrix" values="0 0 0 0 0 0 0 0 0 0 0 0 0 0 0 0 0 0 0.05 0"/>
<feBlend mode="normal" in2="shape" result="effect1_innerShadow_1141_53638"/>
</filter>
<filter id="filter6_d_1141_53638" x="69.0249" y="152.649" width="25.1765" height="18.8508" filterUnits="userSpaceOnUse" color-interpolation-filters="sRGB">
<feFlood flood-opacity="0" result="BackgroundImageFix"/>
<feColorMatrix in="SourceAlpha" type="matrix" values="0 0 0 0 0 0 0 0 0 0 0 0 0 0 0 0 0 0 127 0" result="hardAlpha"/>
<feOffset dy="1"/>
<feGaussianBlur stdDeviation="2"/>
<feComposite in2="hardAlpha" operator="out"/>
<feColorMatrix type="matrix" values="0 0 0 0 0 0 0 0 0 0 0 0 0 0 0 0 0 0 0.12 0"/>
<feBlend mode="normal" in2="BackgroundImageFix" result="effect1_dropShadow_1141_53638"/>
<feBlend mode="normal" in="SourceGraphic" in2="effect1_dropShadow_1141_53638" result="shape"/>
</filter>
<radialGradient id="paint0_radial_1141_53638" cx="0" cy="0" r="1" gradientUnits="userSpaceOnUse" gradientTransform="translate(165 110) rotate(90) scale(142)">
<stop stop-color="#537AEF" stop-opacity="0.12"/>
<stop offset="1" stop-color="#537AEF" stop-opacity="0"/>
</radialGradient>
<linearGradient id="paint1_linear_1141_53638" x1="81.3335" y1="34" x2="81.3335" y2="70" gradientUnits="userSpaceOnUse">
<stop stop-color="white" stop-opacity="0.24"/>
<stop offset="1" stop-color="white" stop-opacity="0"/>
</linearGradient>
<linearGradient id="paint2_linear_1141_53638" x1="81.3335" y1="88" x2="81.3335" y2="124" gradientUnits="userSpaceOnUse">
<stop stop-color="white" stop-opacity="0.24"/>
<stop offset="1" stop-color="white" stop-opacity="0"/>
</linearGradient>
<linearGradient id="paint3_linear_1141_53638" x1="81.3335" y1="142" x2="81.3335" y2="178" gradientUnits="userSpaceOnUse">
<stop stop-color="white" stop-opacity="0.24"/>
<stop offset="1" stop-color="white" stop-opacity="0"/>
</linearGradient>
<clipPath id="clip0_1141_53638">
<rect width="330.667" height="220" rx="16" fill="white"/>
</clipPath>
<clipPath id="clip1_1141_53638">
<rect x="51.3335" y="21" width="226" height="222" rx="6" fill="white"/>
</clipPath>
</defs>
</svg>
