<svg width="331" height="220" viewBox="0 0 331 220" fill="none" xmlns="http://www.w3.org/2000/svg">
<g clip-path="url(#clip0_1128_19477)">
<rect x="0.333496" width="330.667" height="220" rx="16" fill="#EFF2FF"/>
<g clip-path="url(#clip1_1128_19477)">
<rect x="8.89233" y="149.422" width="310" height="66" rx="14" transform="rotate(-2.85154 8.89233 149.422)" fill="#FDF0F1"/>
<rect x="14.1846" y="155.166" width="54" height="54" rx="12" transform="rotate(-2.85154 14.1846 155.166)" fill="#E76071"/>
<path fill-rule="evenodd" clip-rule="evenodd" d="M44.243 174.396L50.8158 184.594C50.9645 184.901 51.0355 185.153 51.0653 185.417C51.1294 186.034 50.943 186.646 50.5416 187.129C50.1402 187.612 49.5795 187.912 48.9571 187.976L36.7742 188.583C36.5155 188.58 36.2546 188.535 36.0087 188.456C34.7779 188.03 34.1272 186.69 34.559 185.478L40.1234 174.594C40.3129 174.211 40.6131 173.875 40.994 173.649C42.0945 172.965 43.5547 173.306 44.243 174.396ZM43.2478 181.382C43.2676 181.778 42.9595 182.125 42.56 182.145C42.1606 182.165 41.8113 181.85 41.7916 181.455L41.6753 179.121C41.6556 178.725 41.9725 178.387 42.3719 178.367C42.7713 178.348 43.1119 178.652 43.1316 179.049L43.2478 181.382ZM42.7005 184.965C42.3011 184.985 41.9518 184.671 41.9321 184.276C41.9123 183.879 42.2288 183.533 42.6282 183.513C43.0276 183.493 43.3682 183.799 43.3879 184.194C43.408 184.598 43.1 184.945 42.7005 184.965Z" fill="white"/>
<rect opacity="0.4" x="80.4961" y="159.774" width="85.2198" height="9.06593" rx="4.53297" transform="rotate(-2.85154 80.4961 159.774)" fill="black"/>
<rect opacity="0.14" x="81.2954" y="175.82" width="109" height="9.06593" rx="4.53297" transform="rotate(-2.85154 81.2954 175.82)" fill="black"/>
<rect opacity="0.14" x="194.156" y="170.198" width="109" height="9.06593" rx="4.53297" transform="rotate(-2.85154 194.156 170.198)" fill="black"/>
<rect opacity="0.14" x="81.8958" y="187.871" width="81.5" height="9.06593" rx="4.53297" transform="rotate(-2.85154 81.8958 187.871)" fill="black"/>
<rect opacity="0.14" x="167.29" y="183.617" width="81.5" height="9.06593" rx="4.53297" transform="rotate(-2.85154 167.29 183.617)" fill="black"/>
</g>
<rect x="9.41659" y="149.897" width="309" height="65" rx="13.5" transform="rotate(-2.85154 9.41659 149.897)" stroke="#E76071" stroke-opacity="0.1"/>
<g clip-path="url(#clip2_1128_19477)">
<rect x="8.66699" y="23.2644" width="310" height="66" rx="14" transform="rotate(-3.37768 8.66699 23.2644)" fill="#FDF0F1"/>
<rect x="14.0117" y="28.9594" width="54" height="54" rx="12" transform="rotate(-3.37768 14.0117 28.9594)" fill="#E76071"/>
<path fill-rule="evenodd" clip-rule="evenodd" d="M44.2454 47.9127L50.9115 58.0502C51.0631 58.3556 51.1364 58.6069 51.1686 58.8705C51.2384 59.4867 51.0576 60.1004 50.6607 60.5879C50.2637 61.0737 49.7058 61.3796 49.084 61.4494L36.9072 62.1681C36.6485 62.1677 36.3872 62.1243 36.1406 62.0479C34.9059 61.6327 34.2429 60.2987 34.6636 59.0836L40.1278 48.1483C40.3138 47.7643 40.6109 47.425 40.9897 47.1958C42.0838 46.5017 43.5471 46.829 44.2454 47.9127ZM43.3144 54.9078C43.3378 55.3034 43.0329 55.6531 42.6337 55.6767C42.2345 55.7003 41.8822 55.3893 41.8589 54.9937L41.7213 52.6617C41.6979 52.2652 42.0116 51.9249 42.4109 51.9013C42.8101 51.8778 43.1534 52.1793 43.1768 52.5758L43.3144 54.9078ZM42.8001 58.4958C42.4008 58.5194 42.0486 58.2085 42.0253 57.8136C42.0019 57.4172 42.3152 57.0678 42.7144 57.0442C43.1136 57.0207 43.457 57.3238 43.4803 57.7187C43.5042 58.1226 43.1993 58.4723 42.8001 58.4958Z" fill="white"/>
<rect opacity="0.4" x="80.3628" y="32.9583" width="85.2198" height="9.06593" rx="4.53297" transform="rotate(-3.37768 80.3628 32.9583)" fill="black"/>
<rect opacity="0.14" x="81.3093" y="48.9962" width="109" height="9.06593" rx="4.53297" transform="rotate(-3.37768 81.3093 48.9962)" fill="black"/>
<rect opacity="0.14" x="194.113" y="42.3385" width="109" height="9.06593" rx="4.53297" transform="rotate(-3.37768 194.113 42.3385)" fill="black"/>
<rect opacity="0.14" x="82.0203" y="61.0411" width="81.5" height="9.06593" rx="4.53297" transform="rotate(-3.37768 82.0203 61.0411)" fill="black"/>
<rect opacity="0.14" x="167.372" y="56.0037" width="81.5" height="9.06593" rx="4.53297" transform="rotate(-3.37768 167.372 56.0037)" fill="black"/>
</g>
<rect x="9.19558" y="23.7341" width="309" height="65" rx="13.5" transform="rotate(-3.37768 9.19558 23.7341)" stroke="#E76071" stroke-opacity="0.1"/>
<g filter="url(#filter0_d_1128_19477)">
<rect x="10.342" y="79" width="310" height="66" rx="14" fill="#FDF0F1"/>
<rect x="10.842" y="79.5" width="309" height="65" rx="13.5" stroke="#E76071" stroke-opacity="0.1"/>
<rect x="15.342" y="85" width="54" height="54" rx="12" fill="#E76071"/>
<path fill-rule="evenodd" clip-rule="evenodd" d="M44.4065 105.702L50.4638 116.214C50.5971 116.528 50.6554 116.783 50.6721 117.048C50.7054 117.668 50.4888 118.27 50.0639 118.733C49.639 119.194 49.064 119.467 48.4392 119.5H36.2412C35.9829 119.484 35.7246 119.426 35.483 119.335C34.2749 118.848 33.6916 117.477 34.1832 116.289L40.2822 105.694C40.4905 105.322 40.8071 105.001 41.1987 104.794C42.3318 104.166 43.7733 104.579 44.4065 105.702ZM43.0651 112.63C43.0651 113.026 42.7401 113.357 42.3402 113.357C41.9402 113.357 41.607 113.026 41.607 112.63V110.294C41.607 109.897 41.9402 109.575 42.3402 109.575C42.7401 109.575 43.0651 109.897 43.0651 110.294V112.63ZM42.3402 116.181C41.9402 116.181 41.607 115.85 41.607 115.455C41.607 115.057 41.9402 114.727 42.3402 114.727C42.7401 114.727 43.0651 115.05 43.0651 115.446C43.0651 115.85 42.7401 116.181 42.3402 116.181Z" fill="white"/>
<rect opacity="0.4" x="81.342" y="92.9011" width="85.2198" height="9.06593" rx="4.53297" fill="black"/>
<rect opacity="0.14" x="81.342" y="108.967" width="109" height="9.06593" rx="4.53297" fill="black"/>
<rect opacity="0.14" x="194.342" y="108.967" width="109" height="9.06593" rx="4.53297" fill="black"/>
<rect opacity="0.14" x="81.342" y="121.033" width="81.5" height="9.06593" rx="4.53297" fill="black"/>
<rect opacity="0.14" x="166.842" y="121.033" width="81.5" height="9.06593" rx="4.53297" fill="black"/>
</g>
<rect x="0.666992" y="1" width="330" height="219" fill="black" fill-opacity="0.05"/>
<g filter="url(#filter1_d_1128_19477)">
<rect x="22.667" y="76" width="285" height="69" rx="12" fill="white"/>
<rect x="28.667" y="82" width="57" height="57" rx="28.5" fill="#537AEF"/>
<path d="M64.7521 102.463L58.7938 100.232C58.1763 100.004 57.1688 100.004 56.5513 100.232L50.5929 102.463C49.4446 102.897 48.5129 104.24 48.5129 105.464V114.239C48.5129 115.117 49.0871 116.276 49.7913 116.796L55.7496 121.248C56.8004 122.039 58.5229 122.039 59.5738 121.248L65.5321 116.796C66.2363 116.265 66.8104 115.117 66.8104 114.239V105.464C66.8213 104.24 65.8896 102.897 64.7521 102.463ZM61.4371 108.53L56.7788 113.188C56.6163 113.351 56.4104 113.427 56.2046 113.427C55.9988 113.427 55.7929 113.351 55.6304 113.188L53.8971 111.433C53.5829 111.119 53.5829 110.599 53.8971 110.285C54.2113 109.971 54.7313 109.971 55.0454 110.285L56.2154 111.455L60.2996 107.371C60.6138 107.057 61.1338 107.057 61.4479 107.371C61.7621 107.685 61.7621 108.216 61.4371 108.53Z" fill="white"/>
<rect x="97.667" y="89" width="75" height="10" rx="5" fill="#B8C5FF"/>
<rect x="97.667" y="109" width="84.7083" height="9.48042" rx="4.74021" fill="#E2E8FF"/>
<rect x="97.667" y="122.48" width="55" height="9" rx="4.5" fill="#E2E8FF"/>
<rect x="157.667" y="123.458" width="55" height="9" rx="4.5" fill="#E2E8FF"/>
<rect x="285.667" y="87.8284" width="4" height="14" rx="2" transform="rotate(-45 285.667 87.8284)" fill="#B8C5FF"/>
<rect width="4" height="14" rx="2" transform="matrix(-0.707107 -0.707107 -0.707107 0.707107 298.395 87.8284)" fill="#B8C5FF"/>
</g>
</g>
<defs>
<filter id="filter0_d_1128_19477" x="-29.658" y="39" width="390" height="146" filterUnits="userSpaceOnUse" color-interpolation-filters="sRGB">
<feFlood flood-opacity="0" result="BackgroundImageFix"/>
<feColorMatrix in="SourceAlpha" type="matrix" values="0 0 0 0 0 0 0 0 0 0 0 0 0 0 0 0 0 0 127 0" result="hardAlpha"/>
<feOffset/>
<feGaussianBlur stdDeviation="20"/>
<feComposite in2="hardAlpha" operator="out"/>
<feColorMatrix type="matrix" values="0 0 0 0 0.696875 0 0 0 0 0 0 0 0 0 0 0 0 0 0.2 0"/>
<feBlend mode="normal" in2="BackgroundImageFix" result="effect1_dropShadow_1128_19477"/>
<feBlend mode="normal" in="SourceGraphic" in2="effect1_dropShadow_1128_19477" result="shape"/>
</filter>
<filter id="filter1_d_1128_19477" x="-47.333" y="6" width="425" height="209" filterUnits="userSpaceOnUse" color-interpolation-filters="sRGB">
<feFlood flood-opacity="0" result="BackgroundImageFix"/>
<feColorMatrix in="SourceAlpha" type="matrix" values="0 0 0 0 0 0 0 0 0 0 0 0 0 0 0 0 0 0 127 0" result="hardAlpha"/>
<feOffset/>
<feGaussianBlur stdDeviation="35"/>
<feComposite in2="hardAlpha" operator="out"/>
<feColorMatrix type="matrix" values="0 0 0 0 0 0 0 0 0 0 0 0 0 0 0 0 0 0 0.1 0"/>
<feBlend mode="normal" in2="BackgroundImageFix" result="effect1_dropShadow_1128_19477"/>
<feBlend mode="normal" in="SourceGraphic" in2="effect1_dropShadow_1128_19477" result="shape"/>
</filter>
<clipPath id="clip0_1128_19477">
<rect x="0.333496" width="330.667" height="220" rx="16" fill="white"/>
</clipPath>
<clipPath id="clip1_1128_19477">
<rect x="8.89233" y="149.422" width="310" height="66" rx="14" transform="rotate(-2.85154 8.89233 149.422)" fill="white"/>
</clipPath>
<clipPath id="clip2_1128_19477">
<rect x="8.66699" y="23.2644" width="310" height="66" rx="14" transform="rotate(-3.37768 8.66699 23.2644)" fill="white"/>
</clipPath>
</defs>
</svg>
