<svg width="1440" height="900" viewBox="0 0 1440 900" fill="none" xmlns="http://www.w3.org/2000/svg">
<g clip-path="url(#clip0_1133_18833)">
<path d="M0 0H1440V900H0V0Z" fill="#537AEF"/>
<g opacity="0.4" filter="url(#filter0_f_1133_18833)">
<path d="M1596 553.255C1596 670.747 1328.81 912.024 1150.78 861.018C897.001 788.311 975.451 534.308 975.451 416.816C975.451 299.324 1151.05 385.805 1272.49 416.816C1393.76 447.784 1596 435.764 1596 553.255Z" fill="white"/>
</g>
<g opacity="0.4" filter="url(#filter1_f_1133_18833)">
<path d="M573 112.155C573 271.493 210.264 598.704 -31.4284 529.532C-375.958 430.928 -269.454 86.4585 -269.454 -72.8798C-269.454 -232.218 -31.067 -114.936 133.801 -72.8798C298.443 -30.8819 573 -47.1837 573 112.155Z" fill="#63F6FF"/>
</g>
<g opacity="0.4" filter="url(#filter2_f_1133_18833)">
<path d="M867 -105.353C867 41.1098 533.858 341.879 311.884 278.297C-4.53685 187.661 93.2773 -128.972 93.2773 -275.435C93.2773 -421.898 312.216 -314.092 463.633 -275.435C614.843 -236.831 867 -251.815 867 -105.353Z" fill="#A0F9FF"/>
</g>
</g>
<defs>
<filter id="filter0_f_1133_18833" x="664" y="57" width="1232" height="1111" filterUnits="userSpaceOnUse" color-interpolation-filters="sRGB">
<feFlood flood-opacity="0" result="BackgroundImageFix"/>
<feBlend mode="normal" in="SourceGraphic" in2="BackgroundImageFix" result="shape"/>
<feGaussianBlur stdDeviation="150" result="effect1_foregroundBlur_1133_18833"/>
</filter>
<filter id="filter1_f_1133_18833" x="-565" y="-434" width="1418" height="1253" filterUnits="userSpaceOnUse" color-interpolation-filters="sRGB">
<feFlood flood-opacity="0" result="BackgroundImageFix"/>
<feBlend mode="normal" in="SourceGraphic" in2="BackgroundImageFix" result="shape"/>
<feGaussianBlur stdDeviation="140" result="effect1_foregroundBlur_1133_18833"/>
</filter>
<filter id="filter2_f_1133_18833" x="-201" y="-630" width="1348" height="1197" filterUnits="userSpaceOnUse" color-interpolation-filters="sRGB">
<feFlood flood-opacity="0" result="BackgroundImageFix"/>
<feBlend mode="normal" in="SourceGraphic" in2="BackgroundImageFix" result="shape"/>
<feGaussianBlur stdDeviation="140" result="effect1_foregroundBlur_1133_18833"/>
</filter>
<clipPath id="clip0_1133_18833">
<rect width="1440" height="900" fill="white"/>
</clipPath>
</defs>
</svg>
