<svg width="119" height="33" viewBox="0 0 119 33" fill="none" xmlns="http://www.w3.org/2000/svg">
<path d="M112.351 4.01587V9.35987H114.936V14.1919H112.351L112.383 19.0559C112.383 20.5279 112.678 21.0399 113.791 21.0399C114.118 21.0399 114.674 20.9439 115.067 20.8479L116.409 25.4239C115.525 26.0639 113.202 26.3839 111.794 26.3519C107.18 26.3519 106.46 23.4719 106.46 20.4959V14.1919H104.856V9.35987H106.46V6.25587L112.351 4.01587Z" fill="#2A333C"/>
<path d="M94.8293 14.2561C93.5857 14.2561 92.6366 15.0241 92.2438 15.6321V26.0001H86.2875V9.36007H92.2438V11.0881C92.9311 10.3201 94.6657 8.97607 97.022 8.97607C101.669 8.97607 102.913 12.3361 102.913 15.0881V26.0001H96.9566V16.8161C96.9566 14.8961 95.8766 14.2561 94.8293 14.2561Z" fill="#2A333C"/>
<path d="M83.8242 17.6481C83.8242 18.3841 83.7915 18.9281 83.6606 19.5361H72.9915C73.286 20.5921 74.6606 21.2641 75.9042 21.2641C76.526 21.2641 77.7042 21.2321 78.7515 20.3361L82.6133 23.6961C80.9769 25.3921 78.326 26.3841 75.6751 26.3841C70.4715 26.3841 67.0024 22.8961 67.0024 17.6481C67.0024 12.8481 70.6351 8.97607 75.5769 8.97607C80.6169 8.97607 83.8242 12.8481 83.8242 17.6481ZM75.6097 13.8401C74.2351 13.8401 73.2206 14.8321 72.9915 15.9201H78.2279C77.9988 14.8321 76.9842 13.8401 75.6097 13.8401Z" fill="#2A333C"/>
<path d="M58.7211 26.0001V9.36007H64.6775V26.0001H58.7211ZM65.0375 5.04007C65.0375 6.76807 63.5975 8.17607 61.7975 8.17607C60.0302 8.17607 58.5575 6.76807 58.5575 5.04007C58.5575 3.24807 60.0302 1.87207 61.7975 1.87207C63.5975 1.87207 65.0375 3.24807 65.0375 5.04007Z" fill="#2A333C"/>
<path d="M44.8698 9.36004V10.864C45.6225 10 47.0953 9.04004 49.0262 9.04004C52.7244 9.04004 56.3898 12.08 56.3898 17.776C56.3898 22.448 53.2807 26.384 49.3207 26.384C46.6698 26.384 45.5898 25.616 44.8698 24.72V32.08H38.9135V9.36004H44.8698ZM47.2262 14.096C46.5389 14.096 45.6553 14.32 44.8698 14.992V20.336C45.6553 20.912 46.5716 21.136 47.2262 21.136C48.9935 21.136 50.4007 19.888 50.4007 17.744C50.4007 15.568 48.9935 14.096 47.2262 14.096Z" fill="#2A333C"/>
<path d="M30.2067 26V24.816C29.2249 25.968 27.654 26.288 26.214 26.288C23.2031 26.288 20.4867 24.432 20.4867 21.072C20.4867 17.2 23.7594 15.504 26.9667 15.504C28.4394 15.504 29.7158 15.856 30.2067 16.048C30.174 14.704 28.8649 13.904 27.4576 13.904C25.3958 13.904 24.2176 14.288 23.1703 14.64L21.7631 9.87196C22.5485 9.61596 24.9376 8.94396 27.6867 8.97596C33.6758 9.03996 36.0322 11.92 36.0322 16.496V26H30.2067ZM30.2067 21.552V19.728C29.9449 19.536 29.1922 19.408 28.6031 19.408C27.5558 19.408 26.6722 19.728 26.6722 20.752C26.6722 21.648 27.5231 22.16 28.4067 22.16C29.094 22.16 29.7158 21.968 30.2067 21.552Z" fill="#2A333C"/>
<path d="M6.03685 11.664L12.4841 2.80005H19.6187L11.3714 14L20.0441 26.0001H12.9096L6.03685 16.368V26.0001H0.0804901V2.80005H6.03685V11.664Z" fill="#2A333C"/>
<path d="M115.854 0H116.275L117.265 2.36527H117.299L118.29 0H118.711V2.84945H118.381V0.684536H118.352L117.442 2.84945H117.123L116.212 0.684536H116.184V2.84945H115.854V0Z" fill="#2A333C"/>
<path d="M113.364 0.306093V0H115.549V0.306093H114.633V2.84945H114.28V0.306093H113.364Z" fill="#2A333C"/>
</svg>
