<svg width="536" height="527" viewBox="0 0 536 527" fill="none" xmlns="http://www.w3.org/2000/svg">
<rect x="0.5" y="0.5" width="535" height="526" rx="21.5" fill="#EAEEF7"/>
<rect x="0.5" y="0.5" width="535" height="526" rx="21.5" stroke="#E3E4E8"/>
<rect x="32" y="32" width="366" height="100" rx="14" fill="white"/>
<rect x="129.5" y="93.5" width="80" height="22" rx="5.5" fill="#FEF6EE"/>
<rect x="129.5" y="93.5" width="80" height="22" rx="5.5" stroke="#EB9D59"/>
<path d="M143.574 99.7727V108.5H142.258V99.7727H143.574ZM145.39 108.5V101.955H146.613V103.02H146.694C146.83 102.659 147.053 102.378 147.363 102.176C147.672 101.972 148.043 101.869 148.475 101.869C148.912 101.869 149.279 101.972 149.574 102.176C149.873 102.381 150.093 102.662 150.235 103.02H150.303C150.459 102.67 150.708 102.392 151.049 102.185C151.39 101.974 151.796 101.869 152.268 101.869C152.861 101.869 153.346 102.055 153.721 102.428C154.099 102.8 154.287 103.361 154.287 104.111V108.5H153.013V104.23C153.013 103.787 152.893 103.466 152.651 103.267C152.41 103.068 152.121 102.969 151.786 102.969C151.371 102.969 151.049 103.097 150.819 103.352C150.589 103.605 150.474 103.93 150.474 104.328V108.5H149.204V104.149C149.204 103.794 149.093 103.509 148.871 103.293C148.65 103.077 148.361 102.969 148.006 102.969C147.765 102.969 147.542 103.033 147.337 103.161C147.135 103.286 146.972 103.46 146.847 103.685C146.725 103.909 146.664 104.169 146.664 104.464V108.5H145.39ZM155.995 110.955V101.955H157.24V103.016H157.346C157.42 102.879 157.526 102.722 157.666 102.543C157.805 102.364 157.998 102.207 158.245 102.074C158.492 101.938 158.819 101.869 159.225 101.869C159.754 101.869 160.225 102.003 160.64 102.27C161.055 102.537 161.38 102.922 161.616 103.425C161.855 103.928 161.974 104.533 161.974 105.24C161.974 105.947 161.856 106.554 161.62 107.06C161.384 107.562 161.061 107.95 160.649 108.223C160.237 108.493 159.767 108.628 159.238 108.628C158.84 108.628 158.515 108.561 158.262 108.428C158.012 108.294 157.816 108.138 157.674 107.959C157.532 107.78 157.423 107.621 157.346 107.482H157.269V110.955H155.995ZM157.244 105.227C157.244 105.687 157.311 106.091 157.444 106.438C157.578 106.784 157.771 107.055 158.024 107.251C158.276 107.445 158.586 107.541 158.953 107.541C159.333 107.541 159.651 107.44 159.907 107.239C160.163 107.034 160.356 106.757 160.487 106.408C160.62 106.058 160.687 105.665 160.687 105.227C160.687 104.795 160.622 104.408 160.491 104.064C160.363 103.72 160.17 103.449 159.911 103.25C159.656 103.051 159.336 102.952 158.953 102.952C158.583 102.952 158.271 103.047 158.015 103.237C157.762 103.428 157.57 103.693 157.44 104.034C157.309 104.375 157.244 104.773 157.244 105.227ZM166.159 108.632C165.545 108.632 165.009 108.491 164.552 108.21C164.095 107.929 163.74 107.536 163.487 107.03C163.234 106.524 163.107 105.933 163.107 105.257C163.107 104.578 163.234 103.984 163.487 103.476C163.74 102.967 164.095 102.572 164.552 102.291C165.009 102.01 165.545 101.869 166.159 101.869C166.772 101.869 167.308 102.01 167.765 102.291C168.222 102.572 168.578 102.967 168.83 103.476C169.083 103.984 169.21 104.578 169.21 105.257C169.21 105.933 169.083 106.524 168.83 107.03C168.578 107.536 168.222 107.929 167.765 108.21C167.308 108.491 166.772 108.632 166.159 108.632ZM166.163 107.562C166.561 107.562 166.89 107.457 167.151 107.247C167.413 107.037 167.606 106.757 167.731 106.408C167.859 106.058 167.923 105.673 167.923 105.253C167.923 104.835 167.859 104.452 167.731 104.102C167.606 103.75 167.413 103.467 167.151 103.254C166.89 103.041 166.561 102.935 166.163 102.935C165.762 102.935 165.43 103.041 165.166 103.254C164.904 103.467 164.71 103.75 164.582 104.102C164.457 104.452 164.394 104.835 164.394 105.253C164.394 105.673 164.457 106.058 164.582 106.408C164.71 106.757 164.904 107.037 165.166 107.247C165.43 107.457 165.762 107.562 166.163 107.562ZM170.632 108.5V101.955H171.863V102.994H171.932C172.051 102.642 172.261 102.365 172.562 102.163C172.866 101.959 173.21 101.857 173.594 101.857C173.673 101.857 173.767 101.859 173.875 101.865C173.986 101.871 174.072 101.878 174.135 101.886V103.105C174.084 103.091 173.993 103.075 173.862 103.058C173.731 103.038 173.601 103.028 173.47 103.028C173.169 103.028 172.9 103.092 172.665 103.22C172.432 103.345 172.247 103.52 172.111 103.744C171.974 103.966 171.906 104.219 171.906 104.503V108.5H170.632ZM178.68 101.955V102.977H175.104V101.955H178.68ZM176.063 100.386H177.337V106.578C177.337 106.825 177.374 107.011 177.448 107.136C177.522 107.259 177.617 107.342 177.733 107.388C177.853 107.43 177.982 107.452 178.121 107.452C178.224 107.452 178.313 107.445 178.39 107.43C178.466 107.416 178.526 107.405 178.569 107.396L178.799 108.449C178.725 108.477 178.62 108.506 178.483 108.534C178.347 108.565 178.177 108.582 177.972 108.585C177.637 108.591 177.324 108.531 177.035 108.406C176.745 108.281 176.51 108.088 176.331 107.827C176.153 107.565 176.063 107.237 176.063 106.842V100.386ZM181.994 108.645C181.579 108.645 181.204 108.568 180.869 108.415C180.534 108.259 180.268 108.033 180.072 107.737C179.879 107.442 179.782 107.08 179.782 106.651C179.782 106.281 179.853 105.977 179.995 105.739C180.137 105.5 180.329 105.311 180.57 105.172C180.812 105.033 181.082 104.928 181.38 104.857C181.678 104.786 181.982 104.732 182.292 104.695C182.684 104.649 183.002 104.612 183.247 104.584C183.491 104.553 183.669 104.503 183.779 104.435C183.89 104.366 183.945 104.256 183.945 104.102V104.072C183.945 103.7 183.84 103.412 183.63 103.207C183.423 103.003 183.113 102.901 182.701 102.901C182.272 102.901 181.934 102.996 181.687 103.186C181.443 103.374 181.274 103.582 181.18 103.812L179.982 103.54C180.124 103.142 180.332 102.821 180.605 102.577C180.88 102.33 181.197 102.151 181.555 102.04C181.913 101.926 182.289 101.869 182.684 101.869C182.945 101.869 183.222 101.901 183.515 101.963C183.811 102.023 184.086 102.134 184.342 102.295C184.6 102.457 184.812 102.689 184.977 102.99C185.142 103.288 185.224 103.676 185.224 104.153V108.5H183.98V107.605H183.928C183.846 107.77 183.722 107.932 183.558 108.091C183.393 108.25 183.181 108.382 182.923 108.487C182.664 108.592 182.355 108.645 181.994 108.645ZM182.271 107.622C182.623 107.622 182.924 107.553 183.174 107.413C183.427 107.274 183.619 107.092 183.749 106.868C183.883 106.641 183.95 106.398 183.95 106.139V105.295C183.904 105.341 183.816 105.384 183.686 105.423C183.558 105.46 183.411 105.493 183.247 105.521C183.082 105.547 182.921 105.571 182.765 105.594C182.609 105.614 182.478 105.631 182.373 105.645C182.126 105.676 181.9 105.729 181.695 105.803C181.494 105.876 181.332 105.983 181.21 106.122C181.09 106.259 181.031 106.44 181.031 106.668C181.031 106.983 181.147 107.222 181.38 107.384C181.613 107.543 181.91 107.622 182.271 107.622ZM188.195 104.614V108.5H186.921V101.955H188.144V103.02H188.225C188.376 102.673 188.611 102.395 188.932 102.185C189.256 101.974 189.664 101.869 190.155 101.869C190.601 101.869 190.992 101.963 191.327 102.151C191.662 102.335 191.922 102.611 192.107 102.977C192.292 103.344 192.384 103.797 192.384 104.337V108.5H191.11V104.49C191.11 104.016 190.986 103.645 190.739 103.378C190.492 103.108 190.153 102.973 189.721 102.973C189.425 102.973 189.162 103.037 188.932 103.165C188.705 103.293 188.525 103.48 188.391 103.727C188.26 103.972 188.195 104.267 188.195 104.614ZM197.148 101.955V102.977H193.573V101.955H197.148ZM194.532 100.386H195.806V106.578C195.806 106.825 195.843 107.011 195.917 107.136C195.991 107.259 196.086 107.342 196.202 107.388C196.322 107.43 196.451 107.452 196.59 107.452C196.692 107.452 196.782 107.445 196.858 107.43C196.935 107.416 196.995 107.405 197.037 107.396L197.268 108.449C197.194 108.477 197.089 108.506 196.952 108.534C196.816 108.565 196.645 108.582 196.441 108.585C196.106 108.591 195.793 108.531 195.503 108.406C195.214 108.281 194.979 108.088 194.8 107.827C194.621 107.565 194.532 107.237 194.532 106.842V100.386Z" fill="#EB9D59"/>
<path d="M139.744 52.3636V64H137.619L132.557 56.6761H132.472V64H130.011V52.3636H132.17L137.193 59.6818H137.295V52.3636H139.744ZM144.084 52.3636L146.43 56.3295H146.521L148.879 52.3636H151.658L148.107 58.1818L151.737 64H148.908L146.521 60.0284H146.43L144.044 64H141.226L144.868 58.1818L141.294 52.3636H144.084ZM157.339 64H153.214V52.3636H157.374C158.544 52.3636 159.552 52.5966 160.396 53.0625C161.241 53.5246 161.891 54.1894 162.345 55.0568C162.804 55.9242 163.033 56.9621 163.033 58.1705C163.033 59.3826 162.804 60.4242 162.345 61.2955C161.891 62.1667 161.237 62.8352 160.385 63.3011C159.536 63.767 158.521 64 157.339 64ZM155.675 61.892H157.237C157.964 61.892 158.576 61.7633 159.072 61.5057C159.572 61.2443 159.947 60.8409 160.197 60.2955C160.451 59.7462 160.578 59.0379 160.578 58.1705C160.578 57.3106 160.451 56.608 160.197 56.0625C159.947 55.517 159.574 55.1155 159.078 54.858C158.582 54.6004 157.97 54.4716 157.243 54.4716H155.675V61.892ZM175.548 58.1818C175.548 59.4508 175.308 60.5303 174.827 61.4205C174.349 62.3106 173.698 62.9905 172.872 63.4602C172.05 63.9261 171.126 64.1591 170.099 64.1591C169.065 64.1591 168.137 63.9242 167.315 63.4545C166.493 62.9848 165.844 62.3049 165.366 61.4148C164.889 60.5246 164.651 59.447 164.651 58.1818C164.651 56.9129 164.889 55.8333 165.366 54.9432C165.844 54.053 166.493 53.375 167.315 52.9091C168.137 52.4394 169.065 52.2045 170.099 52.2045C171.126 52.2045 172.05 52.4394 172.872 52.9091C173.698 53.375 174.349 54.053 174.827 54.9432C175.308 55.8333 175.548 56.9129 175.548 58.1818ZM173.054 58.1818C173.054 57.3598 172.931 56.6667 172.685 56.1023C172.442 55.5379 172.099 55.1098 171.656 54.8182C171.213 54.5265 170.694 54.3807 170.099 54.3807C169.505 54.3807 168.986 54.5265 168.543 54.8182C168.099 55.1098 167.755 55.5379 167.509 56.1023C167.266 56.6667 167.145 57.3598 167.145 58.1818C167.145 59.0038 167.266 59.697 167.509 60.2614C167.755 60.8258 168.099 61.2538 168.543 61.5455C168.986 61.8371 169.505 61.983 170.099 61.983C170.694 61.983 171.213 61.8371 171.656 61.5455C172.099 61.2538 172.442 60.8258 172.685 60.2614C172.931 59.697 173.054 59.0038 173.054 58.1818ZM177.371 52.3636H180.405L183.609 60.1818H183.746L186.95 52.3636H189.984V64H187.598V56.4261H187.501L184.49 63.9432H182.865L179.854 56.3977H179.757V64H177.371V52.3636ZM194.017 64H191.381L195.398 52.3636H198.568L202.58 64H199.943L197.028 55.0227H196.938L194.017 64ZM193.852 59.4261H200.08V61.3466H193.852V59.4261ZM206.44 52.3636V64H203.98V52.3636H206.44ZM218.197 52.3636V64H216.072L211.01 56.6761H210.925V64H208.464V52.3636H210.624L215.646 59.6818H215.749V52.3636H218.197ZM224.422 58.1818C224.422 56.7727 224.609 55.4754 224.984 54.2898C225.363 53.1042 225.941 52.0057 226.717 50.9943H229.03C228.734 51.3693 228.46 51.8277 228.206 52.3693C227.952 52.9072 227.731 53.4981 227.541 54.142C227.352 54.786 227.204 55.4527 227.098 56.142C226.992 56.8277 226.939 57.5076 226.939 58.1818C226.939 59.0795 227.03 59.9867 227.212 60.9034C227.397 61.8163 227.647 62.6648 227.962 63.4489C228.28 64.233 228.636 64.875 229.03 65.375H226.717C225.941 64.3636 225.363 63.2652 224.984 62.0795C224.609 60.8939 224.422 59.5947 224.422 58.1818ZM240.213 52.3636V64H238.088L233.026 56.6761H232.94V64H230.48V52.3636H232.639L237.662 59.6818H237.764V52.3636H240.213ZM246.143 64.1705C245.261 64.1705 244.498 63.983 243.854 63.608C243.214 63.2292 242.719 62.7027 242.371 62.0284C242.022 61.3504 241.848 60.5644 241.848 59.6705C241.848 58.7689 242.022 57.9811 242.371 57.3068C242.719 56.6288 243.214 56.1023 243.854 55.7273C244.498 55.3485 245.261 55.1591 246.143 55.1591C247.026 55.1591 247.787 55.3485 248.428 55.7273C249.071 56.1023 249.568 56.6288 249.916 57.3068C250.265 57.9811 250.439 58.7689 250.439 59.6705C250.439 60.5644 250.265 61.3504 249.916 62.0284C249.568 62.7027 249.071 63.2292 248.428 63.608C247.787 63.983 247.026 64.1705 246.143 64.1705ZM246.155 62.2955C246.556 62.2955 246.892 62.1818 247.161 61.9545C247.429 61.7235 247.632 61.4091 247.768 61.0114C247.909 60.6136 247.979 60.161 247.979 59.6534C247.979 59.1458 247.909 58.6932 247.768 58.2955C247.632 57.8977 247.429 57.5833 247.161 57.3523C246.892 57.1212 246.556 57.0057 246.155 57.0057C245.75 57.0057 245.409 57.1212 245.132 57.3523C244.859 57.5833 244.653 57.8977 244.513 58.2955C244.376 58.6932 244.308 59.1458 244.308 59.6534C244.308 60.161 244.376 60.6136 244.513 61.0114C244.653 61.4091 244.859 61.7235 245.132 61.9545C245.409 62.1818 245.75 62.2955 246.155 62.2955ZM254.433 58.9545V64H252.013V55.2727H254.32V56.8125H254.422C254.615 56.3049 254.939 55.9034 255.393 55.608C255.848 55.3087 256.399 55.1591 257.047 55.1591C257.653 55.1591 258.181 55.2917 258.632 55.5568C259.083 55.822 259.433 56.2008 259.683 56.6932C259.933 57.1818 260.058 57.7652 260.058 58.4432V64H257.638V58.875C257.642 58.3409 257.505 57.9242 257.229 57.625C256.952 57.322 256.571 57.1705 256.087 57.1705C255.761 57.1705 255.473 57.2405 255.223 57.3807C254.977 57.5208 254.784 57.7254 254.643 57.9943C254.507 58.2595 254.437 58.5795 254.433 58.9545ZM267.403 58.2614V60.1818H262.097V58.2614H267.403ZM130.011 82V70.3636H137.852V72.392H132.472V75.1648H137.449V77.1932H132.472V79.9716H137.875V82H130.011ZM141.786 73.2727L143.388 76.3239L145.03 73.2727H147.513L144.984 77.6364L147.581 82H145.109L143.388 78.983L141.695 82H139.195L141.786 77.6364L139.286 73.2727H141.786ZM148.95 82V73.2727H151.371V82H148.95ZM150.166 72.1477C149.806 72.1477 149.498 72.0284 149.24 71.7898C148.986 71.5473 148.859 71.2576 148.859 70.9205C148.859 70.5871 148.986 70.3011 149.24 70.0625C149.498 69.8201 149.806 69.6989 150.166 69.6989C150.526 69.6989 150.833 69.8201 151.087 70.0625C151.344 70.3011 151.473 70.5871 151.473 70.9205C151.473 71.2576 151.344 71.5473 151.087 71.7898C150.833 72.0284 150.526 72.1477 150.166 72.1477ZM160.571 75.7614L158.355 75.8977C158.317 75.7083 158.236 75.5379 158.111 75.3864C157.986 75.2311 157.821 75.108 157.616 75.017C157.416 74.9223 157.175 74.875 156.895 74.875C156.52 74.875 156.204 74.9545 155.946 75.1136C155.688 75.2689 155.56 75.4773 155.56 75.7386C155.56 75.947 155.643 76.1231 155.81 76.267C155.976 76.411 156.262 76.5265 156.668 76.6136L158.247 76.9318C159.096 77.1061 159.728 77.3864 160.145 77.7727C160.562 78.1591 160.77 78.6667 160.77 79.2955C160.77 79.8674 160.601 80.3693 160.264 80.8011C159.931 81.233 159.473 81.5701 158.889 81.8125C158.31 82.0511 157.641 82.1705 156.884 82.1705C155.728 82.1705 154.808 81.9299 154.122 81.4489C153.44 80.964 153.041 80.3049 152.923 79.4716L155.304 79.3466C155.376 79.6989 155.55 79.9678 155.827 80.1534C156.103 80.3352 156.457 80.4261 156.889 80.4261C157.313 80.4261 157.654 80.3447 157.912 80.1818C158.173 80.0152 158.306 79.8011 158.31 79.5398C158.306 79.3201 158.213 79.1402 158.031 79C157.849 78.8561 157.569 78.7462 157.19 78.6705L155.679 78.3693C154.827 78.1989 154.192 77.9034 153.776 77.483C153.363 77.0625 153.156 76.5265 153.156 75.875C153.156 75.3144 153.308 74.8314 153.611 74.4261C153.918 74.0208 154.348 73.7083 154.901 73.4886C155.457 73.2689 156.109 73.1591 156.855 73.1591C157.957 73.1591 158.825 73.392 159.457 73.858C160.094 74.3239 160.465 74.9583 160.571 75.7614ZM166.936 73.2727V75.0909H161.68V73.2727H166.936ZM162.874 71.1818H165.294V79.3182C165.294 79.5417 165.328 79.7159 165.396 79.8409C165.464 79.9621 165.559 80.0473 165.68 80.0966C165.805 80.1458 165.949 80.1705 166.112 80.1705C166.226 80.1705 166.339 80.161 166.453 80.142C166.567 80.1193 166.654 80.1023 166.714 80.0909L167.095 81.892C166.974 81.9299 166.804 81.9735 166.584 82.0227C166.364 82.0758 166.097 82.108 165.783 82.1193C165.199 82.142 164.688 82.0644 164.249 81.8864C163.813 81.7083 163.474 81.4318 163.232 81.0568C162.989 80.6818 162.87 80.2083 162.874 79.6364V71.1818ZM172.396 82.1705C171.499 82.1705 170.726 81.9886 170.078 81.625C169.434 81.2576 168.938 80.7386 168.589 80.0682C168.241 79.3939 168.067 78.5966 168.067 77.6761C168.067 76.7784 168.241 75.9905 168.589 75.3125C168.938 74.6345 169.429 74.1061 170.061 73.7273C170.697 73.3485 171.444 73.1591 172.3 73.1591C172.875 73.1591 173.411 73.2519 173.908 73.4375C174.408 73.6193 174.843 73.8939 175.214 74.2614C175.589 74.6288 175.881 75.0909 176.089 75.6477C176.298 76.2008 176.402 76.8485 176.402 77.5909V78.2557H169.033V76.7557H174.124C174.124 76.4072 174.048 76.0985 173.896 75.8295C173.745 75.5606 173.535 75.3504 173.266 75.1989C173 75.0436 172.692 74.9659 172.339 74.9659C171.972 74.9659 171.646 75.0511 171.362 75.2216C171.082 75.3883 170.862 75.6136 170.703 75.8977C170.544 76.178 170.463 76.4905 170.459 76.8352V78.2614C170.459 78.6932 170.538 79.0663 170.697 79.3807C170.86 79.6951 171.089 79.9375 171.385 80.108C171.68 80.2784 172.031 80.3636 172.436 80.3636C172.705 80.3636 172.951 80.3258 173.175 80.25C173.398 80.1742 173.589 80.0606 173.749 79.9091C173.908 79.7576 174.029 79.572 174.112 79.3523L176.351 79.5C176.237 80.0379 176.004 80.5076 175.652 80.9091C175.304 81.3068 174.853 81.6174 174.3 81.8409C173.75 82.0606 173.116 82.1705 172.396 82.1705ZM180.402 76.9545V82H177.982V73.2727H180.288V74.8125H180.391C180.584 74.3049 180.908 73.9034 181.362 73.608C181.817 73.3087 182.368 73.1591 183.016 73.1591C183.622 73.1591 184.15 73.2917 184.601 73.5568C185.052 73.822 185.402 74.2008 185.652 74.6932C185.902 75.1818 186.027 75.7652 186.027 76.4432V82H183.607V76.875C183.61 76.3409 183.474 75.9242 183.197 75.625C182.921 75.322 182.54 75.1705 182.055 75.1705C181.73 75.1705 181.442 75.2405 181.192 75.3807C180.946 75.5208 180.752 75.7254 180.612 75.9943C180.476 76.2595 180.406 76.5795 180.402 76.9545ZM192.577 73.2727V75.0909H187.321V73.2727H192.577ZM188.514 71.1818H190.935V79.3182C190.935 79.5417 190.969 79.7159 191.037 79.8409C191.105 79.9621 191.2 80.0473 191.321 80.0966C191.446 80.1458 191.59 80.1705 191.753 80.1705C191.866 80.1705 191.98 80.161 192.094 80.142C192.207 80.1193 192.295 80.1023 192.355 80.0909L192.736 81.892C192.615 81.9299 192.444 81.9735 192.224 82.0227C192.005 82.0758 191.738 82.108 191.423 82.1193C190.84 82.142 190.329 82.0644 189.889 81.8864C189.454 81.7083 189.115 81.4318 188.872 81.0568C188.63 80.6818 188.51 80.2083 188.514 79.6364V71.1818ZM202.027 82H197.902V70.3636H202.061C203.232 70.3636 204.239 70.5966 205.084 71.0625C205.929 71.5246 206.578 72.1894 207.033 73.0568C207.491 73.9242 207.72 74.9621 207.72 76.1705C207.72 77.3826 207.491 78.4242 207.033 79.2955C206.578 80.1667 205.925 80.8352 205.072 81.3011C204.224 81.767 203.209 82 202.027 82ZM200.362 79.892H201.925C202.652 79.892 203.264 79.7633 203.76 79.5057C204.26 79.2443 204.635 78.8409 204.885 78.2955C205.139 77.7462 205.266 77.0379 205.266 76.1705C205.266 75.3106 205.139 74.608 204.885 74.0625C204.635 73.517 204.262 73.1155 203.766 72.858C203.269 72.6004 202.658 72.4716 201.93 72.4716H200.362V79.892ZM213.44 82.1705C212.558 82.1705 211.795 81.983 211.151 81.608C210.51 81.2292 210.016 80.7027 209.668 80.0284C209.319 79.3504 209.145 78.5644 209.145 77.6705C209.145 76.7689 209.319 75.9811 209.668 75.3068C210.016 74.6288 210.51 74.1023 211.151 73.7273C211.795 73.3485 212.558 73.1591 213.44 73.1591C214.323 73.1591 215.084 73.3485 215.724 73.7273C216.368 74.1023 216.865 74.6288 217.213 75.3068C217.562 75.9811 217.736 76.7689 217.736 77.6705C217.736 78.5644 217.562 79.3504 217.213 80.0284C216.865 80.7027 216.368 81.2292 215.724 81.608C215.084 81.983 214.323 82.1705 213.44 82.1705ZM213.452 80.2955C213.853 80.2955 214.188 80.1818 214.457 79.9545C214.726 79.7235 214.929 79.4091 215.065 79.0114C215.205 78.6136 215.276 78.161 215.276 77.6534C215.276 77.1458 215.205 76.6932 215.065 76.2955C214.929 75.8977 214.726 75.5833 214.457 75.3523C214.188 75.1212 213.853 75.0057 213.452 75.0057C213.046 75.0057 212.705 75.1212 212.429 75.3523C212.156 75.5833 211.95 75.8977 211.81 76.2955C211.673 76.6932 211.605 77.1458 211.605 77.6534C211.605 78.161 211.673 78.6136 211.81 79.0114C211.95 79.4091 212.156 79.7235 212.429 79.9545C212.705 80.1818 213.046 80.2955 213.452 80.2955ZM219.31 82V73.2727H221.616V74.8125H221.719C221.901 74.3011 222.204 73.8977 222.628 73.6023C223.052 73.3068 223.56 73.1591 224.151 73.1591C224.749 73.1591 225.259 73.3087 225.679 73.608C226.099 73.9034 226.38 74.3049 226.52 74.8125H226.611C226.789 74.3125 227.111 73.9129 227.577 73.6136C228.046 73.3106 228.601 73.1591 229.241 73.1591C230.056 73.1591 230.717 73.4186 231.224 73.9375C231.736 74.4527 231.991 75.1837 231.991 76.1307V82H229.577V76.608C229.577 76.1231 229.448 75.7595 229.19 75.517C228.933 75.2746 228.611 75.1534 228.224 75.1534C227.785 75.1534 227.442 75.2936 227.196 75.5739C226.95 75.8504 226.827 76.2159 226.827 76.6705V82H224.48V76.5568C224.48 76.1288 224.357 75.7879 224.111 75.5341C223.868 75.2803 223.548 75.1534 223.151 75.1534C222.882 75.1534 222.639 75.2216 222.423 75.358C222.211 75.4905 222.043 75.678 221.918 75.9205C221.793 76.1591 221.73 76.4394 221.73 76.7614V82H219.31ZM236.392 82.1648C235.835 82.1648 235.339 82.0682 234.903 81.875C234.468 81.678 234.123 81.3883 233.869 81.0057C233.619 80.6193 233.494 80.1383 233.494 79.5625C233.494 79.0777 233.583 78.6705 233.761 78.3409C233.939 78.0114 234.182 77.7462 234.489 77.5455C234.795 77.3447 235.144 77.1932 235.534 77.0909C235.928 76.9886 236.341 76.9167 236.773 76.875C237.28 76.822 237.689 76.7727 238 76.7273C238.311 76.678 238.536 76.6061 238.676 76.5114C238.816 76.4167 238.886 76.2765 238.886 76.0909V76.0568C238.886 75.697 238.773 75.4186 238.545 75.2216C238.322 75.0246 238.004 74.9261 237.591 74.9261C237.155 74.9261 236.809 75.0227 236.551 75.2159C236.294 75.4053 236.123 75.6439 236.04 75.9318L233.801 75.75C233.915 75.2197 234.138 74.7614 234.472 74.375C234.805 73.9848 235.235 73.6856 235.761 73.4773C236.292 73.2652 236.905 73.1591 237.602 73.1591C238.087 73.1591 238.551 73.2159 238.994 73.3295C239.441 73.4432 239.837 73.6193 240.182 73.858C240.53 74.0966 240.805 74.4034 241.006 74.7784C241.206 75.1496 241.307 75.5947 241.307 76.1136V82H239.011V80.7898H238.943C238.803 81.0625 238.616 81.303 238.381 81.5114C238.146 81.7159 237.864 81.8769 237.534 81.9943C237.205 82.108 236.824 82.1648 236.392 82.1648ZM237.085 80.4943C237.441 80.4943 237.756 80.4242 238.028 80.2841C238.301 80.1402 238.515 79.947 238.67 79.7045C238.826 79.4621 238.903 79.1875 238.903 78.8807V77.9545C238.828 78.0038 238.723 78.0492 238.591 78.0909C238.462 78.1288 238.316 78.1648 238.153 78.1989C237.991 78.2292 237.828 78.2576 237.665 78.2841C237.502 78.3068 237.354 78.3277 237.222 78.3466C236.938 78.3883 236.689 78.4545 236.477 78.5455C236.265 78.6364 236.1 78.7595 235.983 78.9148C235.866 79.0663 235.807 79.2557 235.807 79.483C235.807 79.8125 235.926 80.0644 236.165 80.2386C236.407 80.4091 236.714 80.4943 237.085 80.4943ZM243.185 82V73.2727H245.605V82H243.185ZM244.401 72.1477C244.041 72.1477 243.732 72.0284 243.474 71.7898C243.221 71.5473 243.094 71.2576 243.094 70.9205C243.094 70.5871 243.221 70.3011 243.474 70.0625C243.732 69.8201 244.041 69.6989 244.401 69.6989C244.76 69.6989 245.067 69.8201 245.321 70.0625C245.579 70.3011 245.707 70.5871 245.707 70.9205C245.707 71.2576 245.579 71.5473 245.321 71.7898C245.067 72.0284 244.76 72.1477 244.401 72.1477ZM249.964 76.9545V82H247.544V73.2727H249.851V74.8125H249.953C250.146 74.3049 250.47 73.9034 250.925 73.608C251.379 73.3087 251.93 73.1591 252.578 73.1591C253.184 73.1591 253.713 73.2917 254.163 73.5568C254.614 73.822 254.964 74.2008 255.214 74.6932C255.464 75.1818 255.589 75.7652 255.589 76.4432V82H253.169V76.875C253.173 76.3409 253.036 75.9242 252.76 75.625C252.483 75.322 252.103 75.1705 251.618 75.1705C251.292 75.1705 251.004 75.2405 250.754 75.3807C250.508 75.5208 250.315 75.7254 250.175 75.9943C250.038 76.2595 249.968 76.5795 249.964 76.9545ZM261.577 77.3352C261.577 78.7481 261.387 80.0473 261.009 81.233C260.634 82.4186 260.058 83.517 259.281 84.5284H256.969C257.264 84.1534 257.539 83.6951 257.793 83.1534C258.046 82.6117 258.268 82.0208 258.457 81.3807C258.647 80.7367 258.795 80.0701 258.901 79.3807C259.007 78.6913 259.06 78.0095 259.06 77.3352C259.06 76.4375 258.967 75.5322 258.781 74.6193C258.599 73.7027 258.349 72.8542 258.031 72.0739C257.717 71.2898 257.363 70.6477 256.969 70.1477H259.281C260.058 71.1591 260.634 72.2576 261.009 73.4432C261.387 74.6288 261.577 75.9261 261.577 77.3352Z" fill="#323D48"/>
<rect x="48" y="49" width="67" height="67" rx="10" fill="#EC8290"/>
<path fill-rule="evenodd" clip-rule="evenodd" d="M85.0966 73.5526L94.1825 89.3215C94.3825 89.7922 94.47 90.1749 94.495 90.5725C94.545 91.5015 94.22 92.4045 93.5826 93.0993C92.9452 93.7917 92.0829 94.2005 91.1455 94.25H72.8486C72.4612 94.2265 72.0738 94.1385 71.7113 94.0023C69.8991 93.2715 69.0243 91.2154 69.7617 89.433L78.9101 73.5415C79.2226 72.9828 79.6975 72.501 80.2849 72.1914C81.9846 71.2488 84.1467 71.8681 85.0966 73.5526ZM83.0844 83.9447C83.0844 84.5392 82.597 85.0359 81.9971 85.0359C81.3972 85.0359 80.8973 84.5392 80.8973 83.9447V80.4406C80.8973 79.8448 81.3972 79.363 81.9971 79.363C82.597 79.363 83.0844 79.8448 83.0844 80.4406V83.9447ZM81.9971 89.272C81.3972 89.272 80.8973 88.7753 80.8973 88.182C80.8973 87.5862 81.3972 87.0908 81.9971 87.0908C82.597 87.0908 83.0844 87.5751 83.0844 88.1684C83.0844 88.7753 82.597 89.272 81.9971 89.272Z" fill="white"/>
<rect x="296" y="64" width="78" height="36" rx="8" fill="#537AEF"/>
<path d="M313.012 88V77.8182H316.83C317.612 77.8182 318.268 77.9541 318.799 78.2259C319.332 78.4976 319.735 78.8788 320.007 79.3693C320.282 79.8565 320.419 80.425 320.419 81.0746C320.419 81.7275 320.28 82.2943 320.002 82.7749C319.727 83.2521 319.321 83.6217 318.784 83.8835C318.247 84.142 317.587 84.2713 316.805 84.2713H314.086V82.7401H316.556C317.014 82.7401 317.388 82.6771 317.68 82.5511C317.972 82.4219 318.187 82.2346 318.326 81.9893C318.469 81.7408 318.54 81.4358 318.54 81.0746C318.54 80.7133 318.469 80.4051 318.326 80.1499C318.184 79.8913 317.967 79.6958 317.675 79.5632C317.383 79.4273 317.007 79.3594 316.546 79.3594H314.856V88H313.012ZM318.272 83.3864L320.792 88H318.734L316.258 83.3864H318.272ZM325.449 88.1491C324.683 88.1491 324.022 87.9901 323.465 87.6719C322.912 87.3504 322.486 86.8963 322.188 86.3097C321.889 85.7197 321.74 85.0253 321.74 84.2266C321.74 83.4411 321.889 82.7517 322.188 82.1584C322.489 81.5618 322.91 81.0978 323.45 80.7663C323.991 80.4316 324.625 80.2642 325.354 80.2642C325.825 80.2642 326.269 80.3404 326.687 80.4929C327.108 80.642 327.479 80.8741 327.8 81.1889C328.125 81.5038 328.38 81.9048 328.566 82.392C328.752 82.8759 328.845 83.4527 328.845 84.1222V84.674H322.585V83.4609H327.119C327.116 83.1162 327.041 82.8097 326.896 82.5412C326.75 82.2694 326.546 82.0556 326.284 81.8999C326.026 81.7441 325.724 81.6662 325.379 81.6662C325.011 81.6662 324.688 81.7557 324.41 81.9347C324.131 82.1103 323.914 82.3423 323.759 82.6307C323.606 82.9157 323.528 83.2289 323.525 83.5703V84.6293C323.525 85.0734 323.606 85.4545 323.769 85.7727C323.931 86.0876 324.158 86.3295 324.45 86.4986C324.741 86.6643 325.083 86.7472 325.474 86.7472C325.736 86.7472 325.973 86.7107 326.185 86.6378C326.397 86.5616 326.581 86.4505 326.737 86.3047C326.892 86.1589 327.01 85.9782 327.09 85.7628L328.77 85.9517C328.664 86.3958 328.462 86.7836 328.163 87.1151C327.868 87.4432 327.491 87.6984 327.03 87.8807C326.569 88.0597 326.042 88.1491 325.449 88.1491ZM330.507 90.8636V80.3636H332.277V81.6264H332.381C332.474 81.4408 332.605 81.2436 332.774 81.0348C332.943 80.8227 333.172 80.642 333.46 80.4929C333.749 80.3404 334.116 80.2642 334.564 80.2642C335.154 80.2642 335.686 80.415 336.16 80.7166C336.637 81.0149 337.015 81.4574 337.293 82.044C337.575 82.6274 337.716 83.3433 337.716 84.1918C337.716 85.0303 337.578 85.7429 337.303 86.3295C337.028 86.9162 336.654 87.3636 336.18 87.6719C335.706 87.9801 335.169 88.1342 334.569 88.1342C334.131 88.1342 333.768 88.0613 333.48 87.9155C333.192 87.7696 332.96 87.594 332.784 87.3885C332.612 87.1797 332.477 86.9825 332.381 86.7969H332.307V90.8636H330.507ZM332.272 84.1818C332.272 84.6757 332.342 85.1082 332.481 85.4794C332.623 85.8506 332.827 86.1406 333.092 86.3494C333.361 86.5549 333.686 86.6577 334.067 86.6577C334.464 86.6577 334.798 86.5516 335.066 86.3395C335.334 86.1241 335.537 85.8307 335.673 85.4595C335.812 85.085 335.881 84.6591 335.881 84.1818C335.881 83.7079 335.813 83.2869 335.678 82.919C335.542 82.5511 335.339 82.2628 335.071 82.054C334.803 81.8452 334.468 81.7408 334.067 81.7408C333.682 81.7408 333.356 81.8419 333.087 82.044C332.819 82.2462 332.615 82.5296 332.476 82.8942C332.34 83.2588 332.272 83.688 332.272 84.1818ZM341.595 88.1541C341.111 88.1541 340.675 88.0679 340.287 87.8956C339.903 87.7199 339.598 87.4614 339.372 87.12C339.15 86.7786 339.039 86.3577 339.039 85.8572C339.039 85.4264 339.119 85.0701 339.278 84.7884C339.437 84.5066 339.654 84.2812 339.929 84.1122C340.204 83.9432 340.514 83.8156 340.859 83.7294C341.207 83.6399 341.566 83.5753 341.938 83.5355C342.385 83.4891 342.748 83.4477 343.026 83.4112C343.305 83.3714 343.507 83.3118 343.633 83.2322C343.762 83.1494 343.827 83.0218 343.827 82.8494V82.8196C343.827 82.4451 343.716 82.1551 343.494 81.9496C343.272 81.7441 342.952 81.6413 342.534 81.6413C342.093 81.6413 341.744 81.7375 341.485 81.9297C341.23 82.1219 341.058 82.349 340.968 82.6108L339.288 82.3722C339.42 81.9081 339.639 81.5204 339.944 81.2088C340.249 80.8939 340.622 80.6586 341.063 80.5028C341.503 80.3438 341.991 80.2642 342.524 80.2642C342.892 80.2642 343.258 80.3073 343.623 80.3935C343.987 80.4796 344.321 80.6222 344.622 80.821C344.924 81.0166 345.166 81.2834 345.348 81.6214C345.534 81.9595 345.626 82.3821 345.626 82.8892V88H343.896V86.951H343.837C343.727 87.1631 343.573 87.362 343.374 87.5476C343.179 87.7299 342.932 87.8774 342.634 87.9901C342.339 88.0994 341.992 88.1541 341.595 88.1541ZM342.062 86.8317C342.423 86.8317 342.736 86.7604 343.001 86.6179C343.267 86.4721 343.47 86.2798 343.613 86.0412C343.759 85.8026 343.832 85.5424 343.832 85.2607V84.3608C343.775 84.4072 343.679 84.4503 343.543 84.4901C343.411 84.5298 343.262 84.5646 343.096 84.5945C342.93 84.6243 342.766 84.6508 342.604 84.674C342.441 84.6972 342.3 84.7171 342.181 84.7337C341.913 84.7701 341.672 84.8298 341.46 84.9126C341.248 84.9955 341.081 85.1115 340.958 85.2607C340.836 85.4065 340.774 85.5954 340.774 85.8274C340.774 86.1589 340.895 86.4091 341.137 86.5781C341.379 86.7472 341.687 86.8317 342.062 86.8317ZM347.576 88V80.3636H349.376V88H347.576ZM348.481 79.2798C348.196 79.2798 347.951 79.1854 347.745 78.9964C347.54 78.8042 347.437 78.5739 347.437 78.3054C347.437 78.0336 347.54 77.8033 347.745 77.6143C347.951 77.4221 348.196 77.326 348.481 77.326C348.769 77.326 349.015 77.4221 349.217 77.6143C349.422 77.8033 349.525 78.0336 349.525 78.3054C349.525 78.5739 349.422 78.8042 349.217 78.9964C349.015 79.1854 348.769 79.2798 348.481 79.2798ZM351.367 88V80.3636H353.112V81.6364H353.191C353.33 81.1955 353.569 80.8558 353.907 80.6172C354.248 80.3752 354.638 80.2543 355.075 80.2543C355.175 80.2543 355.286 80.2592 355.408 80.2692C355.534 80.2758 355.639 80.2874 355.722 80.304V81.9595C355.645 81.933 355.524 81.9098 355.359 81.8899C355.196 81.8667 355.039 81.8551 354.886 81.8551C354.558 81.8551 354.263 81.9264 354.001 82.0689C353.743 82.2081 353.539 82.402 353.39 82.6506C353.241 82.8991 353.166 83.1858 353.166 83.5107V88H351.367Z" fill="white"/>
<rect x="32" y="399" width="264" height="99" rx="14" fill="white"/>
<path d="M141.438 469.048C142.239 470.049 143.761 470.049 144.562 469.048L156.4 454.249C157.448 452.94 156.516 451 154.839 451H131.161C129.484 451 128.552 452.94 129.6 454.249L141.438 469.048Z" fill="#EB9D59"/>
<path d="M172.619 470.239C171.483 470.239 170.466 470.026 169.568 469.599C168.67 469.168 167.957 468.577 167.429 467.827C166.906 467.077 166.628 466.219 166.594 465.253H169.662C169.719 465.969 170.028 466.554 170.591 467.009C171.153 467.457 171.83 467.682 172.619 467.682C173.239 467.682 173.79 467.54 174.273 467.256C174.756 466.972 175.136 466.577 175.415 466.071C175.693 465.565 175.83 464.989 175.824 464.341C175.83 463.682 175.69 463.097 175.406 462.585C175.122 462.074 174.733 461.673 174.239 461.384C173.744 461.088 173.176 460.94 172.534 460.94C172.011 460.935 171.497 461.031 170.991 461.23C170.486 461.429 170.085 461.69 169.79 462.014L166.935 461.545L167.847 452.545H177.972V455.188H170.463L169.96 459.815H170.062C170.386 459.435 170.844 459.119 171.435 458.869C172.026 458.614 172.673 458.486 173.378 458.486C174.435 458.486 175.378 458.736 176.207 459.236C177.037 459.73 177.69 460.412 178.168 461.281C178.645 462.151 178.884 463.145 178.884 464.264C178.884 465.418 178.616 466.446 178.082 467.349C177.554 468.247 176.818 468.955 175.875 469.472C174.938 469.983 173.852 470.239 172.619 470.239ZM181.423 466.761V464.247L188.83 452.545H190.926V456.125H189.648L184.662 464.026V464.162H195V466.761H181.423ZM189.75 470V465.994L189.784 464.869V452.545H192.767V470H189.75ZM207.055 466.727V465.807C207.055 465.131 207.197 464.509 207.482 463.94C207.771 463.372 208.192 462.915 208.743 462.568C209.294 462.222 209.962 462.048 210.746 462.048C211.553 462.048 212.229 462.222 212.774 462.568C213.32 462.909 213.732 463.364 214.01 463.932C214.294 464.5 214.436 465.125 214.436 465.807V466.727C214.436 467.403 214.294 468.026 214.01 468.594C213.726 469.162 213.308 469.619 212.757 469.966C212.212 470.313 211.541 470.486 210.746 470.486C209.95 470.486 209.277 470.313 208.726 469.966C208.175 469.619 207.757 469.162 207.473 468.594C207.195 468.026 207.055 467.403 207.055 466.727ZM209.28 465.807V466.727C209.28 467.176 209.388 467.588 209.604 467.963C209.82 468.338 210.2 468.526 210.746 468.526C211.297 468.526 211.675 468.341 211.879 467.972C212.089 467.597 212.195 467.182 212.195 466.727V465.807C212.195 465.352 212.095 464.938 211.896 464.562C211.697 464.182 211.314 463.991 210.746 463.991C210.212 463.991 209.834 464.182 209.612 464.562C209.391 464.938 209.28 465.352 209.28 465.807ZM198.183 456.739V455.818C198.183 455.136 198.328 454.511 198.618 453.943C198.908 453.375 199.328 452.92 199.879 452.58C200.43 452.233 201.098 452.06 201.882 452.06C202.683 452.06 203.357 452.233 203.902 452.58C204.453 452.92 204.868 453.375 205.146 453.943C205.425 454.511 205.564 455.136 205.564 455.818V456.739C205.564 457.42 205.422 458.045 205.138 458.614C204.859 459.176 204.445 459.628 203.893 459.969C203.342 460.31 202.672 460.48 201.882 460.48C201.081 460.48 200.405 460.31 199.854 459.969C199.308 459.628 198.893 459.173 198.609 458.605C198.325 458.037 198.183 457.415 198.183 456.739ZM200.425 455.818V456.739C200.425 457.193 200.53 457.608 200.74 457.983C200.956 458.352 201.337 458.537 201.882 458.537C202.428 458.537 202.803 458.352 203.007 457.983C203.217 457.608 203.322 457.193 203.322 456.739V455.818C203.322 455.364 203.223 454.949 203.024 454.574C202.825 454.193 202.445 454.003 201.882 454.003C201.342 454.003 200.964 454.193 200.749 454.574C200.533 454.955 200.425 455.369 200.425 455.818ZM199.155 470L211.155 452.545H213.286L201.286 470H199.155Z" fill="#323D48"/>
<rect x="48" y="415" width="67" height="67" rx="10" fill="#EAEEF7"/>
<path fill-rule="evenodd" clip-rule="evenodd" d="M88.6175 443.114C88.6175 446.785 85.6739 449.729 82 449.729C78.3274 449.729 75.3825 446.785 75.3825 443.114C75.3825 439.443 78.3274 436.5 82 436.5C85.6739 436.5 88.6175 439.443 88.6175 443.114ZM82 461.5C76.578 461.5 72 460.619 72 457.219C72 453.817 76.6067 452.967 82 452.967C87.4233 452.967 92 453.849 92 457.249C92 460.65 87.3933 461.5 82 461.5Z" fill="#537AEF"/>
<path d="M135.483 425.364H137.591V432.966C137.591 433.799 137.394 434.532 137 435.165C136.61 435.797 136.061 436.292 135.352 436.648C134.644 437 133.816 437.176 132.869 437.176C131.919 437.176 131.089 437 130.381 436.648C129.672 436.292 129.123 435.797 128.733 435.165C128.343 434.532 128.148 433.799 128.148 432.966V425.364H130.256V432.79C130.256 433.275 130.362 433.706 130.574 434.085C130.79 434.464 131.093 434.761 131.483 434.977C131.873 435.189 132.335 435.295 132.869 435.295C133.403 435.295 133.866 435.189 134.256 434.977C134.65 434.761 134.953 434.464 135.165 434.085C135.377 433.706 135.483 433.275 135.483 432.79V425.364ZM146.689 430.58L144.814 430.784C144.761 430.595 144.668 430.417 144.536 430.25C144.407 430.083 144.232 429.949 144.013 429.847C143.793 429.744 143.524 429.693 143.206 429.693C142.778 429.693 142.418 429.786 142.126 429.972C141.839 430.157 141.696 430.398 141.7 430.693C141.696 430.947 141.789 431.153 141.979 431.312C142.172 431.472 142.49 431.602 142.933 431.705L144.422 432.023C145.248 432.201 145.861 432.483 146.263 432.869C146.668 433.256 146.873 433.761 146.876 434.386C146.873 434.936 146.712 435.42 146.393 435.841C146.079 436.258 145.642 436.583 145.081 436.818C144.52 437.053 143.876 437.17 143.149 437.17C142.081 437.17 141.221 436.947 140.57 436.5C139.918 436.049 139.53 435.422 139.405 434.619L141.411 434.426C141.501 434.82 141.695 435.117 141.99 435.318C142.286 435.519 142.67 435.619 143.143 435.619C143.632 435.619 144.024 435.519 144.32 435.318C144.619 435.117 144.768 434.869 144.768 434.574C144.768 434.324 144.672 434.117 144.479 433.955C144.289 433.792 143.994 433.667 143.592 433.58L142.104 433.267C141.267 433.093 140.647 432.799 140.246 432.386C139.844 431.97 139.645 431.443 139.649 430.807C139.645 430.269 139.791 429.803 140.087 429.409C140.386 429.011 140.801 428.705 141.331 428.489C141.865 428.269 142.481 428.159 143.178 428.159C144.2 428.159 145.005 428.377 145.592 428.812C146.183 429.248 146.549 429.837 146.689 430.58ZM152.436 437.17C151.561 437.17 150.805 436.989 150.169 436.625C149.536 436.258 149.05 435.739 148.709 435.068C148.368 434.394 148.197 433.6 148.197 432.688C148.197 431.79 148.368 431.002 148.709 430.324C149.054 429.642 149.535 429.112 150.152 428.733C150.769 428.35 151.495 428.159 152.328 428.159C152.866 428.159 153.374 428.246 153.851 428.42C154.332 428.591 154.756 428.856 155.124 429.216C155.495 429.576 155.786 430.034 155.999 430.591C156.211 431.144 156.317 431.803 156.317 432.568V433.199H149.163V431.812H154.345C154.341 431.419 154.256 431.068 154.089 430.761C153.923 430.451 153.69 430.206 153.391 430.028C153.095 429.85 152.75 429.761 152.357 429.761C151.936 429.761 151.567 429.864 151.249 430.068C150.93 430.269 150.682 430.534 150.504 430.864C150.33 431.189 150.241 431.547 150.237 431.938V433.148C150.237 433.655 150.33 434.091 150.516 434.455C150.701 434.814 150.961 435.091 151.294 435.284C151.627 435.473 152.018 435.568 152.464 435.568C152.764 435.568 153.035 435.527 153.277 435.443C153.519 435.356 153.73 435.229 153.908 435.062C154.086 434.896 154.22 434.689 154.311 434.443L156.232 434.659C156.11 435.167 155.879 435.61 155.538 435.989C155.201 436.364 154.769 436.655 154.243 436.864C153.716 437.068 153.114 437.17 152.436 437.17ZM158.057 437V428.273H160.051V429.727H160.142C160.301 429.223 160.574 428.835 160.96 428.562C161.35 428.286 161.795 428.148 162.295 428.148C162.409 428.148 162.536 428.153 162.676 428.165C162.82 428.172 162.939 428.186 163.034 428.205V430.097C162.947 430.066 162.809 430.04 162.619 430.017C162.434 429.991 162.254 429.977 162.08 429.977C161.705 429.977 161.367 430.059 161.068 430.222C160.773 430.381 160.54 430.602 160.369 430.886C160.199 431.17 160.114 431.498 160.114 431.869V437H158.057ZM171.298 430.58L169.423 430.784C169.37 430.595 169.277 430.417 169.145 430.25C169.016 430.083 168.842 429.949 168.622 429.847C168.402 429.744 168.134 429.693 167.815 429.693C167.387 429.693 167.027 429.786 166.736 429.972C166.448 430.157 166.306 430.398 166.31 430.693C166.306 430.947 166.399 431.153 166.588 431.312C166.781 431.472 167.099 431.602 167.543 431.705L169.031 432.023C169.857 432.201 170.471 432.483 170.872 432.869C171.277 433.256 171.482 433.761 171.486 434.386C171.482 434.936 171.321 435.42 171.003 435.841C170.688 436.258 170.251 436.583 169.69 436.818C169.13 437.053 168.486 437.17 167.759 437.17C166.69 437.17 165.83 436.947 165.179 436.5C164.527 436.049 164.139 435.422 164.014 434.619L166.02 434.426C166.111 434.82 166.304 435.117 166.599 435.318C166.895 435.519 167.279 435.619 167.753 435.619C168.241 435.619 168.634 435.519 168.929 435.318C169.228 435.117 169.378 434.869 169.378 434.574C169.378 434.324 169.281 434.117 169.088 433.955C168.899 433.792 168.603 433.667 168.202 433.58L166.713 433.267C165.876 433.093 165.257 432.799 164.855 432.386C164.454 431.97 164.255 431.443 164.259 430.807C164.255 430.269 164.401 429.803 164.696 429.409C164.995 429.011 165.41 428.705 165.94 428.489C166.474 428.269 167.09 428.159 167.787 428.159C168.81 428.159 169.615 428.377 170.202 428.812C170.793 429.248 171.158 429.837 171.298 430.58ZM181.509 428.273V429.864H176.491V428.273H181.509ZM177.73 426.182H179.787V434.375C179.787 434.652 179.829 434.864 179.912 435.011C179.999 435.155 180.113 435.254 180.253 435.307C180.393 435.36 180.548 435.386 180.719 435.386C180.848 435.386 180.965 435.377 181.071 435.358C181.181 435.339 181.264 435.322 181.321 435.307L181.668 436.915C181.558 436.953 181.401 436.994 181.196 437.04C180.995 437.085 180.749 437.112 180.457 437.119C179.942 437.134 179.478 437.057 179.065 436.886C178.652 436.712 178.325 436.443 178.082 436.08C177.844 435.716 177.726 435.261 177.73 434.716V426.182ZM183.229 437V428.273H185.223V429.727H185.314C185.473 429.223 185.746 428.835 186.132 428.562C186.522 428.286 186.967 428.148 187.467 428.148C187.581 428.148 187.708 428.153 187.848 428.165C187.992 428.172 188.111 428.186 188.206 428.205V430.097C188.119 430.066 187.981 430.04 187.791 430.017C187.606 429.991 187.426 429.977 187.251 429.977C186.876 429.977 186.539 430.059 186.24 430.222C185.945 430.381 185.712 430.602 185.541 430.886C185.371 431.17 185.286 431.498 185.286 431.869V437H183.229ZM191.928 437.176C191.375 437.176 190.876 437.078 190.433 436.881C189.994 436.68 189.645 436.384 189.388 435.994C189.134 435.604 189.007 435.123 189.007 434.551C189.007 434.059 189.098 433.652 189.28 433.33C189.462 433.008 189.71 432.75 190.024 432.557C190.339 432.364 190.693 432.218 191.087 432.119C191.484 432.017 191.895 431.943 192.32 431.898C192.831 431.845 193.246 431.797 193.564 431.756C193.882 431.71 194.113 431.642 194.257 431.551C194.405 431.456 194.479 431.311 194.479 431.114V431.08C194.479 430.652 194.352 430.32 194.098 430.085C193.844 429.85 193.479 429.733 193.001 429.733C192.498 429.733 192.098 429.843 191.803 430.062C191.511 430.282 191.314 430.542 191.212 430.841L189.291 430.568C189.443 430.038 189.693 429.595 190.041 429.239C190.39 428.879 190.816 428.61 191.32 428.432C191.823 428.25 192.38 428.159 192.99 428.159C193.411 428.159 193.829 428.208 194.246 428.307C194.662 428.405 195.043 428.568 195.388 428.795C195.732 429.019 196.009 429.324 196.217 429.71C196.429 430.097 196.536 430.58 196.536 431.159V437H194.558V435.801H194.49C194.365 436.044 194.189 436.271 193.962 436.483C193.738 436.691 193.456 436.86 193.115 436.989C192.778 437.114 192.382 437.176 191.928 437.176ZM192.462 435.665C192.875 435.665 193.232 435.583 193.536 435.42C193.839 435.254 194.071 435.034 194.234 434.761C194.401 434.489 194.484 434.191 194.484 433.869V432.841C194.42 432.894 194.31 432.943 194.155 432.989C194.003 433.034 193.833 433.074 193.643 433.108C193.454 433.142 193.267 433.172 193.081 433.199C192.895 433.225 192.734 433.248 192.598 433.267C192.291 433.309 192.017 433.377 191.774 433.472C191.532 433.566 191.34 433.699 191.2 433.869C191.06 434.036 190.99 434.252 190.99 434.517C190.99 434.896 191.128 435.182 191.405 435.375C191.681 435.568 192.034 435.665 192.462 435.665ZM203.024 428.273V429.864H197.865V428.273H203.024ZM199.155 437V427.449C199.155 426.862 199.276 426.373 199.518 425.983C199.765 425.593 200.094 425.301 200.507 425.108C200.92 424.915 201.378 424.818 201.882 424.818C202.238 424.818 202.554 424.847 202.831 424.903C203.107 424.96 203.312 425.011 203.445 425.057L203.036 426.648C202.948 426.621 202.839 426.595 202.706 426.568C202.573 426.538 202.426 426.523 202.263 426.523C201.88 426.523 201.609 426.616 201.45 426.801C201.295 426.983 201.217 427.244 201.217 427.585V437H199.155ZM209.055 428.273V429.864H203.896V428.273H209.055ZM205.186 437V427.449C205.186 426.862 205.307 426.373 205.55 425.983C205.796 425.593 206.125 425.301 206.538 425.108C206.951 424.915 207.41 424.818 207.913 424.818C208.269 424.818 208.586 424.847 208.862 424.903C209.139 424.96 209.343 425.011 209.476 425.057L209.067 426.648C208.98 426.621 208.87 426.595 208.737 426.568C208.605 426.538 208.457 426.523 208.294 426.523C207.911 426.523 207.641 426.616 207.482 426.801C207.326 426.983 207.249 427.244 207.249 427.585V437H205.186ZM210.666 437V428.273H212.723V437H210.666ZM211.7 427.034C211.375 427.034 211.094 426.926 210.859 426.71C210.625 426.491 210.507 426.227 210.507 425.92C210.507 425.61 210.625 425.347 210.859 425.131C211.094 424.911 211.375 424.801 211.7 424.801C212.03 424.801 212.31 424.911 212.541 425.131C212.776 425.347 212.893 425.61 212.893 425.92C212.893 426.227 212.776 426.491 212.541 426.71C212.31 426.926 212.03 427.034 211.7 427.034ZM218.645 437.17C217.774 437.17 217.026 436.979 216.401 436.597C215.779 436.214 215.3 435.686 214.963 435.011C214.63 434.333 214.463 433.553 214.463 432.67C214.463 431.784 214.634 431.002 214.974 430.324C215.315 429.642 215.796 429.112 216.418 428.733C217.043 428.35 217.781 428.159 218.634 428.159C219.342 428.159 219.969 428.29 220.514 428.551C221.063 428.809 221.501 429.174 221.827 429.648C222.152 430.117 222.338 430.667 222.384 431.295H220.418C220.338 430.875 220.149 430.525 219.849 430.244C219.554 429.96 219.158 429.818 218.662 429.818C218.241 429.818 217.872 429.932 217.554 430.159C217.236 430.383 216.988 430.705 216.81 431.125C216.635 431.545 216.548 432.049 216.548 432.636C216.548 433.231 216.635 433.742 216.81 434.17C216.984 434.595 217.228 434.922 217.543 435.153C217.861 435.381 218.234 435.494 218.662 435.494C218.965 435.494 219.236 435.437 219.474 435.324C219.717 435.206 219.92 435.038 220.082 434.818C220.245 434.598 220.357 434.331 220.418 434.017H222.384C222.334 434.634 222.152 435.182 221.838 435.659C221.524 436.133 221.096 436.504 220.554 436.773C220.012 437.038 219.376 437.17 218.645 437.17Z" fill="#323D48"/>
<rect x="137" y="150" width="366" height="230" rx="14" fill="white"/>
<path d="M154 204V359" stroke="#D2D4DB" stroke-linecap="round" stroke-dasharray="2 6"/>
<path d="M195 204V359" stroke="#D2D4DB" stroke-linecap="round" stroke-dasharray="2 6"/>
<path d="M236 204V359" stroke="#D2D4DB" stroke-linecap="round" stroke-dasharray="2 6"/>
<path d="M277 204V359" stroke="#D2D4DB" stroke-linecap="round" stroke-dasharray="2 6"/>
<path d="M318 204V359" stroke="#D2D4DB" stroke-linecap="round" stroke-dasharray="2 6"/>
<path d="M359 204V359" stroke="#D2D4DB" stroke-linecap="round" stroke-dasharray="2 6"/>
<path d="M400 204V359" stroke="#D2D4DB" stroke-linecap="round" stroke-dasharray="2 6"/>
<path d="M441 204V359" stroke="#D2D4DB" stroke-linecap="round" stroke-dasharray="2 6"/>
<path d="M482 204V359" stroke="#D2D4DB" stroke-linecap="round" stroke-dasharray="2 6"/>
<path d="M225.5 248C210 222.5 185 232.5 154 224.5V359.5H483V308C473 303.5 457 331 434.5 296.5C412 262 380.5 266 365 275.5C349.5 285 328 301 310 275.5C292 250 278.5 237.5 261.5 251C244.5 264.5 239.486 271.009 225.5 248Z" fill="url(#paint0_linear_1128_19009)"/>
<path d="M154 224.5C185 232.5 210 222.5 225.5 248C239.486 271.009 244.5 264.5 261.5 251C278.5 237.5 292 250 310 275.5C328 301 349.5 285 365 275.5C380.5 266 412 262 434.5 296.5C457 331 473 303.5 483 308" stroke="#EB9D59" stroke-width="4" stroke-linecap="round"/>
<path d="M156.597 181L153.312 169.364H155.58L157.676 177.915H157.784L160.023 169.364H162.085L164.33 177.92H164.432L166.528 169.364H168.795L165.511 181H163.432L161.102 172.835H161.011L158.676 181H156.597ZM173.139 181.17C172.264 181.17 171.509 180.989 170.872 180.625C170.24 180.258 169.753 179.739 169.412 179.068C169.071 178.394 168.901 177.6 168.901 176.688C168.901 175.79 169.071 175.002 169.412 174.324C169.757 173.642 170.238 173.112 170.855 172.733C171.473 172.35 172.198 172.159 173.031 172.159C173.569 172.159 174.077 172.246 174.554 172.42C175.035 172.591 175.459 172.856 175.827 173.216C176.198 173.576 176.49 174.034 176.702 174.591C176.914 175.144 177.02 175.803 177.02 176.568V177.199H169.866V175.812H175.048C175.045 175.419 174.959 175.068 174.793 174.761C174.626 174.451 174.393 174.206 174.094 174.028C173.798 173.85 173.454 173.761 173.06 173.761C172.639 173.761 172.27 173.864 171.952 174.068C171.634 174.269 171.385 174.534 171.207 174.864C171.033 175.189 170.944 175.547 170.94 175.938V177.148C170.94 177.655 171.033 178.091 171.219 178.455C171.404 178.814 171.664 179.091 171.997 179.284C172.33 179.473 172.721 179.568 173.168 179.568C173.467 179.568 173.738 179.527 173.98 179.443C174.223 179.356 174.433 179.229 174.611 179.062C174.789 178.896 174.923 178.689 175.014 178.443L176.935 178.659C176.813 179.167 176.582 179.61 176.241 179.989C175.904 180.364 175.473 180.655 174.946 180.864C174.42 181.068 173.817 181.17 173.139 181.17ZM178.851 181V169.364H180.908V173.716H180.993C181.099 173.504 181.249 173.278 181.442 173.04C181.635 172.797 181.896 172.591 182.226 172.42C182.555 172.246 182.976 172.159 183.487 172.159C184.161 172.159 184.769 172.331 185.311 172.676C185.857 173.017 186.288 173.523 186.607 174.193C186.929 174.86 187.089 175.678 187.089 176.648C187.089 177.606 186.932 178.42 186.618 179.091C186.304 179.761 185.875 180.273 185.334 180.625C184.792 180.977 184.179 181.153 183.493 181.153C182.993 181.153 182.578 181.07 182.249 180.903C181.919 180.737 181.654 180.536 181.453 180.301C181.256 180.062 181.103 179.837 180.993 179.625H180.874V181H178.851ZM180.868 176.636C180.868 177.201 180.947 177.695 181.107 178.119C181.269 178.544 181.502 178.875 181.805 179.114C182.112 179.348 182.483 179.466 182.919 179.466C183.374 179.466 183.754 179.345 184.061 179.102C184.368 178.856 184.599 178.521 184.754 178.097C184.913 177.669 184.993 177.182 184.993 176.636C184.993 176.095 184.915 175.614 184.76 175.193C184.605 174.773 184.374 174.443 184.067 174.205C183.76 173.966 183.377 173.847 182.919 173.847C182.48 173.847 182.107 173.962 181.8 174.193C181.493 174.424 181.26 174.748 181.101 175.165C180.946 175.581 180.868 176.072 180.868 176.636ZM195.736 174.58L193.861 174.784C193.808 174.595 193.715 174.417 193.582 174.25C193.454 174.083 193.279 173.949 193.06 173.847C192.84 173.744 192.571 173.693 192.253 173.693C191.825 173.693 191.465 173.786 191.173 173.972C190.885 174.157 190.743 174.398 190.747 174.693C190.743 174.947 190.836 175.153 191.026 175.312C191.219 175.472 191.537 175.602 191.98 175.705L193.469 176.023C194.295 176.201 194.908 176.483 195.31 176.869C195.715 177.256 195.92 177.761 195.923 178.386C195.92 178.936 195.759 179.42 195.44 179.841C195.126 180.258 194.688 180.583 194.128 180.818C193.567 181.053 192.923 181.17 192.196 181.17C191.128 181.17 190.268 180.947 189.616 180.5C188.965 180.049 188.577 179.422 188.452 178.619L190.457 178.426C190.548 178.82 190.741 179.117 191.037 179.318C191.332 179.519 191.717 179.619 192.19 179.619C192.679 179.619 193.071 179.519 193.366 179.318C193.666 179.117 193.815 178.869 193.815 178.574C193.815 178.324 193.719 178.117 193.526 177.955C193.336 177.792 193.041 177.667 192.639 177.58L191.151 177.267C190.313 177.093 189.694 176.799 189.293 176.386C188.891 175.97 188.692 175.443 188.696 174.807C188.692 174.269 188.838 173.803 189.134 173.409C189.433 173.011 189.848 172.705 190.378 172.489C190.912 172.269 191.527 172.159 192.224 172.159C193.247 172.159 194.052 172.377 194.639 172.812C195.23 173.248 195.596 173.837 195.736 174.58ZM197.619 181V172.273H199.676V181H197.619ZM198.653 171.034C198.328 171.034 198.047 170.926 197.812 170.71C197.578 170.491 197.46 170.227 197.46 169.92C197.46 169.61 197.578 169.347 197.812 169.131C198.047 168.911 198.328 168.801 198.653 168.801C198.983 168.801 199.263 168.911 199.494 169.131C199.729 169.347 199.847 169.61 199.847 169.92C199.847 170.227 199.729 170.491 199.494 170.71C199.263 170.926 198.983 171.034 198.653 171.034ZM206.149 172.273V173.864H201.132V172.273H206.149ZM202.371 170.182H204.428V178.375C204.428 178.652 204.469 178.864 204.553 179.011C204.64 179.155 204.753 179.254 204.893 179.307C205.034 179.36 205.189 179.386 205.359 179.386C205.488 179.386 205.606 179.377 205.712 179.358C205.821 179.339 205.905 179.322 205.962 179.307L206.308 180.915C206.198 180.953 206.041 180.994 205.837 181.04C205.636 181.085 205.39 181.112 205.098 181.119C204.583 181.134 204.119 181.057 203.706 180.886C203.293 180.712 202.965 180.443 202.723 180.08C202.484 179.716 202.367 179.261 202.371 178.716V170.182ZM211.639 181.17C210.764 181.17 210.009 180.989 209.372 180.625C208.74 180.258 208.253 179.739 207.912 179.068C207.571 178.394 207.401 177.6 207.401 176.688C207.401 175.79 207.571 175.002 207.912 174.324C208.257 173.642 208.738 173.112 209.355 172.733C209.973 172.35 210.698 172.159 211.531 172.159C212.069 172.159 212.577 172.246 213.054 172.42C213.535 172.591 213.959 172.856 214.327 173.216C214.698 173.576 214.99 174.034 215.202 174.591C215.414 175.144 215.52 175.803 215.52 176.568V177.199H208.366V175.812H213.548C213.545 175.419 213.459 175.068 213.293 174.761C213.126 174.451 212.893 174.206 212.594 174.028C212.298 173.85 211.954 173.761 211.56 173.761C211.139 173.761 210.77 173.864 210.452 174.068C210.134 174.269 209.885 174.534 209.707 174.864C209.533 175.189 209.444 175.547 209.44 175.938V177.148C209.44 177.655 209.533 178.091 209.719 178.455C209.904 178.814 210.164 179.091 210.497 179.284C210.83 179.473 211.221 179.568 211.668 179.568C211.967 179.568 212.238 179.527 212.48 179.443C212.723 179.356 212.933 179.229 213.111 179.062C213.289 178.896 213.423 178.689 213.514 178.443L215.435 178.659C215.313 179.167 215.082 179.61 214.741 179.989C214.404 180.364 213.973 180.655 213.446 180.864C212.92 181.068 212.317 181.17 211.639 181.17ZM221.32 181V169.364H225.683C226.577 169.364 227.327 169.53 227.933 169.864C228.543 170.197 229.003 170.655 229.314 171.239C229.628 171.818 229.786 172.477 229.786 173.216C229.786 173.962 229.628 174.625 229.314 175.205C229 175.784 228.536 176.241 227.922 176.574C227.308 176.903 226.553 177.068 225.655 177.068H222.763V175.335H225.371C225.893 175.335 226.321 175.244 226.655 175.062C226.988 174.881 227.234 174.631 227.393 174.312C227.556 173.994 227.638 173.629 227.638 173.216C227.638 172.803 227.556 172.439 227.393 172.125C227.234 171.811 226.986 171.566 226.649 171.392C226.316 171.214 225.886 171.125 225.359 171.125H223.428V181H221.32ZM235.264 181.17C234.389 181.17 233.634 180.989 232.997 180.625C232.365 180.258 231.878 179.739 231.537 179.068C231.196 178.394 231.026 177.6 231.026 176.688C231.026 175.79 231.196 175.002 231.537 174.324C231.882 173.642 232.363 173.112 232.98 172.733C233.598 172.35 234.323 172.159 235.156 172.159C235.694 172.159 236.202 172.246 236.679 172.42C237.16 172.591 237.584 172.856 237.952 173.216C238.323 173.576 238.615 174.034 238.827 174.591C239.039 175.144 239.145 175.803 239.145 176.568V177.199H231.991V175.812H237.173C237.17 175.419 237.084 175.068 236.918 174.761C236.751 174.451 236.518 174.206 236.219 174.028C235.923 173.85 235.579 173.761 235.185 173.761C234.764 173.761 234.395 173.864 234.077 174.068C233.759 174.269 233.51 174.534 233.332 174.864C233.158 175.189 233.069 175.547 233.065 175.938V177.148C233.065 177.655 233.158 178.091 233.344 178.455C233.529 178.814 233.789 179.091 234.122 179.284C234.455 179.473 234.846 179.568 235.293 179.568C235.592 179.568 235.863 179.527 236.105 179.443C236.348 179.356 236.558 179.229 236.736 179.062C236.914 178.896 237.048 178.689 237.139 178.443L239.06 178.659C238.938 179.167 238.707 179.61 238.366 179.989C238.029 180.364 237.598 180.655 237.071 180.864C236.545 181.068 235.942 181.17 235.264 181.17ZM240.885 181V172.273H242.879V173.727H242.97C243.129 173.223 243.402 172.835 243.788 172.562C244.179 172.286 244.624 172.148 245.124 172.148C245.237 172.148 245.364 172.153 245.504 172.165C245.648 172.172 245.768 172.186 245.862 172.205V174.097C245.775 174.066 245.637 174.04 245.447 174.017C245.262 173.991 245.082 173.977 244.908 173.977C244.533 173.977 244.196 174.059 243.896 174.222C243.601 174.381 243.368 174.602 243.197 174.886C243.027 175.17 242.942 175.498 242.942 175.869V181H240.885ZM252.118 172.273V173.864H246.959V172.273H252.118ZM248.249 181V171.449C248.249 170.862 248.37 170.373 248.612 169.983C248.858 169.593 249.188 169.301 249.601 169.108C250.014 168.915 250.472 168.818 250.976 168.818C251.332 168.818 251.648 168.847 251.925 168.903C252.201 168.96 252.406 169.011 252.538 169.057L252.129 170.648C252.042 170.621 251.932 170.595 251.8 170.568C251.667 170.538 251.519 170.523 251.357 170.523C250.974 170.523 250.703 170.616 250.544 170.801C250.389 170.983 250.311 171.244 250.311 171.585V181H248.249ZM257.207 181.17C256.355 181.17 255.616 180.983 254.991 180.608C254.366 180.233 253.882 179.708 253.537 179.034C253.196 178.36 253.026 177.572 253.026 176.67C253.026 175.769 253.196 174.979 253.537 174.301C253.882 173.623 254.366 173.097 254.991 172.722C255.616 172.347 256.355 172.159 257.207 172.159C258.06 172.159 258.798 172.347 259.423 172.722C260.048 173.097 260.531 173.623 260.872 174.301C261.217 174.979 261.389 175.769 261.389 176.67C261.389 177.572 261.217 178.36 260.872 179.034C260.531 179.708 260.048 180.233 259.423 180.608C258.798 180.983 258.06 181.17 257.207 181.17ZM257.219 179.523C257.681 179.523 258.067 179.396 258.378 179.142C258.688 178.884 258.92 178.54 259.071 178.108C259.226 177.676 259.304 177.195 259.304 176.665C259.304 176.131 259.226 175.648 259.071 175.216C258.92 174.78 258.688 174.434 258.378 174.176C258.067 173.919 257.681 173.79 257.219 173.79C256.745 173.79 256.351 173.919 256.037 174.176C255.726 174.434 255.493 174.78 255.338 175.216C255.187 175.648 255.111 176.131 255.111 176.665C255.111 177.195 255.187 177.676 255.338 178.108C255.493 178.54 255.726 178.884 256.037 179.142C256.351 179.396 256.745 179.523 257.219 179.523ZM263.135 181V172.273H265.129V173.727H265.22C265.379 173.223 265.652 172.835 266.038 172.562C266.429 172.286 266.874 172.148 267.374 172.148C267.487 172.148 267.614 172.153 267.754 172.165C267.898 172.172 268.018 172.186 268.112 172.205V174.097C268.025 174.066 267.887 174.04 267.697 174.017C267.512 173.991 267.332 173.977 267.158 173.977C266.783 173.977 266.446 174.059 266.146 174.222C265.851 174.381 265.618 174.602 265.447 174.886C265.277 175.17 265.192 175.498 265.192 175.869V181H263.135ZM269.479 181V172.273H271.445V173.756H271.547C271.729 173.256 272.03 172.866 272.45 172.585C272.871 172.301 273.373 172.159 273.956 172.159C274.547 172.159 275.045 172.303 275.45 172.591C275.859 172.875 276.147 173.263 276.314 173.756H276.405C276.598 173.271 276.924 172.884 277.382 172.597C277.844 172.305 278.392 172.159 279.024 172.159C279.827 172.159 280.482 172.413 280.99 172.92C281.498 173.428 281.751 174.169 281.751 175.142V181H279.689V175.46C279.689 174.919 279.545 174.523 279.257 174.273C278.969 174.019 278.617 173.892 278.2 173.892C277.704 173.892 277.316 174.047 277.036 174.358C276.759 174.665 276.621 175.064 276.621 175.557V181H274.604V175.375C274.604 174.924 274.467 174.564 274.195 174.295C273.926 174.027 273.573 173.892 273.138 173.892C272.842 173.892 272.573 173.968 272.331 174.119C272.089 174.267 271.895 174.477 271.751 174.75C271.607 175.019 271.536 175.333 271.536 175.693V181H269.479ZM286.349 181.176C285.796 181.176 285.298 181.078 284.855 180.881C284.416 180.68 284.067 180.384 283.81 179.994C283.556 179.604 283.429 179.123 283.429 178.551C283.429 178.059 283.52 177.652 283.702 177.33C283.884 177.008 284.132 176.75 284.446 176.557C284.76 176.364 285.115 176.218 285.509 176.119C285.906 176.017 286.317 175.943 286.741 175.898C287.253 175.845 287.668 175.797 287.986 175.756C288.304 175.71 288.535 175.642 288.679 175.551C288.827 175.456 288.901 175.311 288.901 175.114V175.08C288.901 174.652 288.774 174.32 288.52 174.085C288.266 173.85 287.901 173.733 287.423 173.733C286.92 173.733 286.52 173.843 286.224 174.062C285.933 174.282 285.736 174.542 285.634 174.841L283.713 174.568C283.865 174.038 284.115 173.595 284.463 173.239C284.812 172.879 285.238 172.61 285.741 172.432C286.245 172.25 286.802 172.159 287.412 172.159C287.832 172.159 288.251 172.208 288.668 172.307C289.084 172.405 289.465 172.568 289.81 172.795C290.154 173.019 290.431 173.324 290.639 173.71C290.851 174.097 290.957 174.58 290.957 175.159V181H288.98V179.801H288.912C288.787 180.044 288.611 180.271 288.384 180.483C288.16 180.691 287.878 180.86 287.537 180.989C287.2 181.114 286.804 181.176 286.349 181.176ZM286.884 179.665C287.296 179.665 287.654 179.583 287.957 179.42C288.26 179.254 288.493 179.034 288.656 178.761C288.823 178.489 288.906 178.191 288.906 177.869V176.841C288.842 176.894 288.732 176.943 288.577 176.989C288.425 177.034 288.255 177.074 288.065 177.108C287.876 177.142 287.688 177.172 287.503 177.199C287.317 177.225 287.156 177.248 287.02 177.267C286.713 177.309 286.438 177.377 286.196 177.472C285.954 177.566 285.762 177.699 285.622 177.869C285.482 178.036 285.412 178.252 285.412 178.517C285.412 178.896 285.55 179.182 285.827 179.375C286.103 179.568 286.455 179.665 286.884 179.665ZM295.082 175.886V181H293.026V172.273H294.991V173.756H295.094C295.295 173.267 295.615 172.879 296.054 172.591C296.497 172.303 297.045 172.159 297.696 172.159C298.298 172.159 298.823 172.288 299.27 172.545C299.721 172.803 300.069 173.176 300.315 173.665C300.565 174.153 300.688 174.746 300.685 175.443V181H298.628V175.761C298.628 175.178 298.476 174.722 298.173 174.392C297.874 174.062 297.459 173.898 296.929 173.898C296.569 173.898 296.249 173.977 295.969 174.136C295.692 174.292 295.474 174.517 295.315 174.812C295.16 175.108 295.082 175.466 295.082 175.886ZM306.582 181.17C305.711 181.17 304.963 180.979 304.338 180.597C303.717 180.214 303.238 179.686 302.901 179.011C302.567 178.333 302.401 177.553 302.401 176.67C302.401 175.784 302.571 175.002 302.912 174.324C303.253 173.642 303.734 173.112 304.355 172.733C304.98 172.35 305.719 172.159 306.571 172.159C307.279 172.159 307.906 172.29 308.452 172.551C309.001 172.809 309.438 173.174 309.764 173.648C310.09 174.117 310.276 174.667 310.321 175.295H308.355C308.276 174.875 308.086 174.525 307.787 174.244C307.491 173.96 307.096 173.818 306.599 173.818C306.179 173.818 305.81 173.932 305.491 174.159C305.173 174.383 304.925 174.705 304.747 175.125C304.573 175.545 304.486 176.049 304.486 176.636C304.486 177.231 304.573 177.742 304.747 178.17C304.921 178.595 305.166 178.922 305.48 179.153C305.798 179.381 306.171 179.494 306.599 179.494C306.902 179.494 307.173 179.437 307.412 179.324C307.654 179.206 307.857 179.038 308.02 178.818C308.183 178.598 308.295 178.331 308.355 178.017H310.321C310.272 178.634 310.09 179.182 309.776 179.659C309.461 180.133 309.033 180.504 308.491 180.773C307.95 181.038 307.313 181.17 306.582 181.17ZM315.874 181.17C314.999 181.17 314.243 180.989 313.607 180.625C312.974 180.258 312.487 179.739 312.146 179.068C311.805 178.394 311.635 177.6 311.635 176.688C311.635 175.79 311.805 175.002 312.146 174.324C312.491 173.642 312.972 173.112 313.589 172.733C314.207 172.35 314.932 172.159 315.766 172.159C316.304 172.159 316.811 172.246 317.288 172.42C317.769 172.591 318.194 172.856 318.561 173.216C318.932 173.576 319.224 174.034 319.436 174.591C319.648 175.144 319.754 175.803 319.754 176.568V177.199H312.601V175.812H317.783C317.779 175.419 317.694 175.068 317.527 174.761C317.36 174.451 317.127 174.206 316.828 174.028C316.533 173.85 316.188 173.761 315.794 173.761C315.374 173.761 315.004 173.864 314.686 174.068C314.368 174.269 314.12 174.534 313.942 174.864C313.768 175.189 313.679 175.547 313.675 175.938V177.148C313.675 177.655 313.768 178.091 313.953 178.455C314.139 178.814 314.398 179.091 314.732 179.284C315.065 179.473 315.455 179.568 315.902 179.568C316.201 179.568 316.472 179.527 316.714 179.443C316.957 179.356 317.167 179.229 317.345 179.062C317.523 178.896 317.658 178.689 317.749 178.443L319.669 178.659C319.548 179.167 319.317 179.61 318.976 179.989C318.639 180.364 318.207 180.655 317.68 180.864C317.154 181.068 316.552 181.17 315.874 181.17Z" fill="#323D48"/>
<path d="M178.438 355.048C179.239 356.049 180.761 356.049 181.562 355.048L193.4 340.249C194.448 338.94 193.516 337 191.839 337H168.161C166.484 337 165.552 338.94 166.6 340.249L178.438 355.048Z" fill="#E76071"/>
<path d="M209.756 356.239C208.489 356.239 207.364 356.026 206.381 355.599C205.403 355.173 204.636 354.591 204.08 353.852C203.528 353.108 203.256 352.264 203.261 351.321C203.256 350.588 203.415 349.915 203.739 349.301C204.063 348.688 204.5 348.176 205.051 347.767C205.608 347.352 206.227 347.088 206.909 346.974V346.855C206.011 346.656 205.284 346.199 204.727 345.483C204.176 344.761 203.903 343.929 203.909 342.986C203.903 342.088 204.153 341.287 204.659 340.582C205.165 339.878 205.858 339.324 206.739 338.92C207.619 338.511 208.625 338.307 209.756 338.307C210.875 338.307 211.872 338.511 212.747 338.92C213.628 339.324 214.321 339.878 214.827 340.582C215.338 341.287 215.594 342.088 215.594 342.986C215.594 343.929 215.312 344.761 214.75 345.483C214.193 346.199 213.474 346.656 212.594 346.855V346.974C213.276 347.088 213.889 347.352 214.435 347.767C214.986 348.176 215.423 348.688 215.747 349.301C216.077 349.915 216.241 350.588 216.241 351.321C216.241 352.264 215.963 353.108 215.406 353.852C214.849 354.591 214.082 355.173 213.105 355.599C212.134 356.026 211.017 356.239 209.756 356.239ZM209.756 353.801C210.409 353.801 210.977 353.69 211.46 353.469C211.943 353.241 212.318 352.923 212.585 352.514C212.852 352.105 212.989 351.634 212.994 351.099C212.989 350.543 212.844 350.051 212.56 349.625C212.281 349.193 211.898 348.855 211.409 348.611C210.926 348.366 210.375 348.244 209.756 348.244C209.131 348.244 208.574 348.366 208.085 348.611C207.597 348.855 207.21 349.193 206.926 349.625C206.648 350.051 206.511 350.543 206.517 351.099C206.511 351.634 206.642 352.105 206.909 352.514C207.176 352.918 207.551 353.233 208.034 353.46C208.523 353.687 209.097 353.801 209.756 353.801ZM209.756 345.849C210.29 345.849 210.761 345.741 211.17 345.526C211.585 345.31 211.912 345.009 212.151 344.622C212.389 344.236 212.511 343.79 212.517 343.284C212.511 342.784 212.392 342.347 212.159 341.972C211.926 341.591 211.602 341.298 211.188 341.094C210.773 340.884 210.295 340.778 209.756 340.778C209.205 340.778 208.719 340.884 208.298 341.094C207.884 341.298 207.56 341.591 207.327 341.972C207.099 342.347 206.989 342.784 206.994 343.284C206.989 343.79 207.102 344.236 207.335 344.622C207.574 345.003 207.901 345.304 208.315 345.526C208.736 345.741 209.216 345.849 209.756 345.849ZM225.435 356.239C224.6 356.233 223.785 356.088 222.989 355.804C222.194 355.514 221.478 355.045 220.842 354.398C220.205 353.744 219.7 352.878 219.325 351.798C218.95 350.713 218.765 349.369 218.771 347.767C218.771 346.273 218.93 344.94 219.248 343.77C219.566 342.599 220.023 341.611 220.62 340.804C221.217 339.991 221.935 339.372 222.776 338.946C223.623 338.52 224.569 338.307 225.614 338.307C226.711 338.307 227.683 338.523 228.529 338.955C229.381 339.386 230.069 339.977 230.592 340.727C231.114 341.472 231.438 342.312 231.563 343.25H228.452C228.293 342.58 227.967 342.045 227.472 341.648C226.984 341.244 226.364 341.043 225.614 341.043C224.404 341.043 223.472 341.568 222.819 342.619C222.171 343.67 221.844 345.114 221.839 346.949H221.958C222.237 346.449 222.597 346.02 223.04 345.662C223.484 345.304 223.984 345.028 224.54 344.835C225.103 344.636 225.697 344.537 226.322 344.537C227.344 344.537 228.262 344.781 229.075 345.27C229.893 345.759 230.54 346.432 231.018 347.29C231.495 348.142 231.731 349.119 231.725 350.222C231.731 351.369 231.469 352.401 230.941 353.315C230.413 354.224 229.677 354.94 228.734 355.463C227.79 355.986 226.691 356.244 225.435 356.239ZM225.418 353.682C226.038 353.682 226.592 353.531 227.08 353.23C227.569 352.929 227.955 352.523 228.239 352.011C228.523 351.5 228.663 350.926 228.657 350.29C228.663 349.665 228.526 349.099 228.248 348.594C227.975 348.088 227.597 347.687 227.114 347.392C226.631 347.097 226.08 346.949 225.461 346.949C225.001 346.949 224.572 347.037 224.174 347.213C223.776 347.389 223.43 347.634 223.134 347.946C222.839 348.253 222.606 348.611 222.435 349.02C222.271 349.423 222.185 349.855 222.18 350.315C222.185 350.923 222.327 351.483 222.606 351.994C222.884 352.506 223.268 352.915 223.756 353.222C224.245 353.528 224.799 353.682 225.418 353.682ZM243.938 352.727V351.807C243.938 351.131 244.08 350.509 244.364 349.94C244.654 349.372 245.075 348.915 245.626 348.568C246.177 348.222 246.844 348.048 247.629 348.048C248.435 348.048 249.112 348.222 249.657 348.568C250.202 348.909 250.614 349.364 250.893 349.932C251.177 350.5 251.319 351.125 251.319 351.807V352.727C251.319 353.403 251.177 354.026 250.893 354.594C250.609 355.162 250.191 355.619 249.64 355.966C249.094 356.313 248.424 356.486 247.629 356.486C246.833 356.486 246.16 356.313 245.609 355.966C245.058 355.619 244.64 355.162 244.356 354.594C244.077 354.026 243.938 353.403 243.938 352.727ZM246.163 351.807V352.727C246.163 353.176 246.271 353.588 246.487 353.963C246.702 354.338 247.083 354.526 247.629 354.526C248.18 354.526 248.558 354.341 248.762 353.972C248.972 353.597 249.077 353.182 249.077 352.727V351.807C249.077 351.352 248.978 350.938 248.779 350.562C248.58 350.182 248.197 349.991 247.629 349.991C247.094 349.991 246.717 350.182 246.495 350.562C246.273 350.938 246.163 351.352 246.163 351.807ZM235.066 342.739V341.818C235.066 341.136 235.211 340.511 235.501 339.943C235.79 339.375 236.211 338.92 236.762 338.58C237.313 338.233 237.981 338.06 238.765 338.06C239.566 338.06 240.239 338.233 240.785 338.58C241.336 338.92 241.751 339.375 242.029 339.943C242.308 340.511 242.447 341.136 242.447 341.818V342.739C242.447 343.42 242.305 344.045 242.021 344.614C241.742 345.176 241.327 345.628 240.776 345.969C240.225 346.31 239.555 346.48 238.765 346.48C237.964 346.48 237.288 346.31 236.737 345.969C236.191 345.628 235.776 345.173 235.492 344.605C235.208 344.037 235.066 343.415 235.066 342.739ZM237.308 341.818V342.739C237.308 343.193 237.413 343.608 237.623 343.983C237.839 344.352 238.219 344.537 238.765 344.537C239.31 344.537 239.685 344.352 239.89 343.983C240.1 343.608 240.205 343.193 240.205 342.739V341.818C240.205 341.364 240.106 340.949 239.907 340.574C239.708 340.193 239.327 340.003 238.765 340.003C238.225 340.003 237.847 340.193 237.631 340.574C237.415 340.955 237.308 341.369 237.308 341.818ZM236.038 356L248.038 338.545H250.168L238.168 356H236.038Z" fill="#323D48"/>
<defs>
<linearGradient id="paint0_linear_1128_19009" x1="318.5" y1="224.5" x2="318.5" y2="359.5" gradientUnits="userSpaceOnUse">
<stop stop-color="#EB9D59" stop-opacity="0.4"/>
<stop offset="1" stop-color="#EB9D59" stop-opacity="0"/>
</linearGradient>
</defs>
</svg>
