<svg width="330" height="220" viewBox="0 0 330 220" fill="none" xmlns="http://www.w3.org/2000/svg">
<g clip-path="url(#clip0_1141_53532)">
<rect width="330" height="220" rx="16" fill="white"/>
<g opacity="0.4" filter="url(#filter0_d_1141_53532)">
<rect x="14.7322" y="23.7742" width="300.536" height="54.2903" rx="13.5726" fill="#FDF0F1"/>
<rect x="15.2169" y="24.2589" width="299.566" height="53.3209" rx="13.0878" stroke="#E76071" stroke-opacity="0.1" stroke-width="0.96947"/>
<rect x="19.5793" y="28.6216" width="44.5956" height="44.5956" rx="11.6336" fill="#E76071"/>
<path fill-rule="evenodd" clip-rule="evenodd" d="M43.8781 44.8133L49.7505 55.005C49.8797 55.3092 49.9363 55.5565 49.9524 55.8135C49.9848 56.4139 49.7747 56.9975 49.3628 57.4466C48.9508 57.8941 48.3935 58.1583 47.7877 58.1903H35.9621C35.7117 58.1751 35.4613 58.1183 35.2271 58.0302C34.0558 57.5579 33.4904 56.229 33.967 55.077L39.8797 44.8061C40.0817 44.4451 40.3886 44.1337 40.7683 43.9335C41.8668 43.3243 43.2642 43.7246 43.8781 44.8133ZM42.5775 51.5298C42.5775 51.9141 42.2625 52.2351 41.8747 52.2351C41.487 52.2351 41.1639 51.9141 41.1639 51.5298V49.2651C41.1639 48.8801 41.487 48.5687 41.8747 48.5687C42.2625 48.5687 42.5775 48.8801 42.5775 49.2651V51.5298ZM41.8747 54.973C41.487 54.973 41.1639 54.6519 41.1639 54.2685C41.1639 53.8834 41.487 53.5632 41.8747 53.5632C42.2625 53.5632 42.5775 53.8762 42.5775 54.2597C42.5775 54.6519 42.2625 54.973 41.8747 54.973Z" fill="white"/>
<rect opacity="0.4" x="73.8699" y="33.4689" width="82.618" height="8.78915" rx="4.39458" fill="black"/>
<rect opacity="0.14" x="73.8699" y="48.9804" width="110.035" height="8.78915" rx="4.39458" fill="black"/>
<rect opacity="0.14" x="187.783" y="48.9804" width="110.035" height="8.78915" rx="4.39458" fill="black"/>
<rect opacity="0.14" x="73.8699" y="60.6141" width="79.0118" height="8.78915" rx="4.39458" fill="black"/>
<rect opacity="0.14" x="156.76" y="60.6141" width="79.0118" height="8.78915" rx="4.39458" fill="black"/>
</g>
<g opacity="0.4" filter="url(#filter1_d_1141_53532)">
<rect x="14.7322" y="141.935" width="300.536" height="54.2903" rx="13.5726" fill="#FDF0F1"/>
<rect x="15.2169" y="142.42" width="299.566" height="53.3209" rx="13.0878" stroke="#E76071" stroke-opacity="0.1" stroke-width="0.96947"/>
<rect x="19.5793" y="146.783" width="44.5956" height="44.5956" rx="11.6336" fill="#E76071"/>
<path fill-rule="evenodd" clip-rule="evenodd" d="M43.8781 162.975L49.7505 173.166C49.8797 173.47 49.9363 173.718 49.9524 173.975C49.9848 174.575 49.7747 175.159 49.3628 175.608C48.9508 176.055 48.3935 176.32 47.7877 176.352H35.9621C35.7117 176.336 35.4613 176.28 35.2271 176.192C34.0558 175.719 33.4904 174.39 33.967 173.238L39.8797 162.967C40.0817 162.606 40.3886 162.295 40.7683 162.095C41.8668 161.486 43.2642 161.886 43.8781 162.975ZM42.5775 169.691C42.5775 170.075 42.2625 170.396 41.8747 170.396C41.487 170.396 41.1639 170.075 41.1639 169.691V167.426C41.1639 167.041 41.487 166.73 41.8747 166.73C42.2625 166.73 42.5775 167.041 42.5775 167.426V169.691ZM41.8747 173.134C41.487 173.134 41.1639 172.813 41.1639 172.43C41.1639 172.045 41.487 171.725 41.8747 171.725C42.2625 171.725 42.5775 172.038 42.5775 172.421C42.5775 172.813 42.2625 173.134 41.8747 173.134Z" fill="white"/>
<rect opacity="0.4" x="73.8699" y="151.63" width="82.618" height="8.78915" rx="4.39458" fill="black"/>
<rect opacity="0.14" x="73.8699" y="167.142" width="110.035" height="8.78915" rx="4.39458" fill="black"/>
<rect opacity="0.14" x="187.783" y="167.142" width="110.035" height="8.78915" rx="4.39458" fill="black"/>
<rect opacity="0.14" x="73.8699" y="178.775" width="79.0118" height="8.78915" rx="4.39458" fill="black"/>
<rect opacity="0.14" x="156.76" y="178.775" width="79.0118" height="8.78915" rx="4.39458" fill="black"/>
</g>
<g filter="url(#filter2_d_1141_53532)">
<rect y="74.871" width="330" height="70.2581" rx="14.9032" fill="#FDF0F1"/>
<rect x="0.532258" y="75.4032" width="328.935" height="69.1936" rx="14.371" stroke="#E76071" stroke-opacity="0.1" stroke-width="1.06452"/>
<rect x="5.32251" y="81.2581" width="57.4839" height="57.4839" rx="12.7742" fill="#E76071"/>
<path fill-rule="evenodd" clip-rule="evenodd" d="M36.2621 103.295L42.7102 114.486C42.8522 114.82 42.9142 115.092 42.932 115.374C42.9675 116.033 42.7369 116.674 42.2845 117.167C41.8322 117.659 41.2202 117.949 40.555 117.984H27.5701C27.2951 117.967 27.0201 117.905 26.7629 117.808C25.4769 117.289 24.856 115.83 25.3793 114.565L31.8717 103.288C32.0935 102.891 32.4305 102.549 32.8474 102.329C34.0536 101.66 35.5881 102.1 36.2621 103.295ZM34.8342 110.67C34.8342 111.092 34.4883 111.445 34.0626 111.445C33.6368 111.445 33.2821 111.092 33.2821 110.67V108.184C33.2821 107.761 33.6368 107.419 34.0626 107.419C34.4883 107.419 34.8342 107.761 34.8342 108.184V110.67ZM34.0626 114.451C33.6368 114.451 33.2821 114.099 33.2821 113.678C33.2821 113.255 33.6368 112.903 34.0626 112.903C34.4883 112.903 34.8342 113.247 34.8342 113.668C34.8342 114.099 34.4883 114.451 34.0626 114.451Z" fill="white"/>
<rect opacity="0.4" x="75.5806" y="89.6689" width="90.7178" height="9.65083" rx="4.82542" fill="black"/>
<rect opacity="0.14" x="75.5806" y="106.771" width="116.032" height="9.65083" rx="4.82542" fill="black"/>
<rect opacity="0.14" x="195.871" y="106.771" width="116.032" height="9.65083" rx="4.82542" fill="black"/>
<rect opacity="0.14" x="75.5806" y="119.616" width="86.7581" height="9.65083" rx="4.82542" fill="black"/>
<rect opacity="0.14" x="166.597" y="119.616" width="86.7581" height="9.65083" rx="4.82542" fill="black"/>
</g>
</g>
<defs>
<filter id="filter0_d_1141_53532" x="-4.65722" y="4.38479" width="339.314" height="93.0691" filterUnits="userSpaceOnUse" color-interpolation-filters="sRGB">
<feFlood flood-opacity="0" result="BackgroundImageFix"/>
<feColorMatrix in="SourceAlpha" type="matrix" values="0 0 0 0 0 0 0 0 0 0 0 0 0 0 0 0 0 0 127 0" result="hardAlpha"/>
<feOffset/>
<feGaussianBlur stdDeviation="9.6947"/>
<feComposite in2="hardAlpha" operator="out"/>
<feColorMatrix type="matrix" values="0 0 0 0 0 0 0 0 0 0 0 0 0 0 0 0 0 0 0.04 0"/>
<feBlend mode="normal" in2="BackgroundImageFix" result="effect1_dropShadow_1141_53532"/>
<feBlend mode="normal" in="SourceGraphic" in2="effect1_dropShadow_1141_53532" result="shape"/>
</filter>
<filter id="filter1_d_1141_53532" x="-4.65722" y="122.546" width="339.314" height="93.0691" filterUnits="userSpaceOnUse" color-interpolation-filters="sRGB">
<feFlood flood-opacity="0" result="BackgroundImageFix"/>
<feColorMatrix in="SourceAlpha" type="matrix" values="0 0 0 0 0 0 0 0 0 0 0 0 0 0 0 0 0 0 127 0" result="hardAlpha"/>
<feOffset/>
<feGaussianBlur stdDeviation="9.6947"/>
<feComposite in2="hardAlpha" operator="out"/>
<feColorMatrix type="matrix" values="0 0 0 0 0 0 0 0 0 0 0 0 0 0 0 0 0 0 0.04 0"/>
<feBlend mode="normal" in2="BackgroundImageFix" result="effect1_dropShadow_1141_53532"/>
<feBlend mode="normal" in="SourceGraphic" in2="effect1_dropShadow_1141_53532" result="shape"/>
</filter>
<filter id="filter2_d_1141_53532" x="-42.5806" y="32.2903" width="415.161" height="155.419" filterUnits="userSpaceOnUse" color-interpolation-filters="sRGB">
<feFlood flood-opacity="0" result="BackgroundImageFix"/>
<feColorMatrix in="SourceAlpha" type="matrix" values="0 0 0 0 0 0 0 0 0 0 0 0 0 0 0 0 0 0 127 0" result="hardAlpha"/>
<feOffset/>
<feGaussianBlur stdDeviation="21.2903"/>
<feComposite in2="hardAlpha" operator="out"/>
<feColorMatrix type="matrix" values="0 0 0 0 0 0 0 0 0 0 0 0 0 0 0 0 0 0 0.12 0"/>
<feBlend mode="normal" in2="BackgroundImageFix" result="effect1_dropShadow_1141_53532"/>
<feBlend mode="normal" in="SourceGraphic" in2="effect1_dropShadow_1141_53532" result="shape"/>
</filter>
<clipPath id="clip0_1141_53532">
<rect width="330" height="220" rx="16" fill="white"/>
</clipPath>
</defs>
</svg>
