<svg width="330" height="220" viewBox="0 0 330 220" fill="none" xmlns="http://www.w3.org/2000/svg">
<g clip-path="url(#clip0_1141_53586)">
<rect width="330" height="220" rx="16" fill="white"/>
<circle cx="165.667" cy="110" r="142" fill="url(#paint0_radial_1141_53586)"/>
<rect y="18.5155" width="330" height="61.4907" rx="14.3478" fill="#537AEF" fill-opacity="0.1"/>
<rect x="0.512422" y="19.0279" width="328.975" height="60.4658" rx="13.8354" stroke="#537AEF" stroke-opacity="0.1" stroke-width="1.02484"/>
<rect x="10.2485" y="28.764" width="31.7702" height="31.7702" rx="8.19876" fill="#537AEF"/>
<path d="M29.5088 38.3292H23.7833C21.2963 38.3292 19.8137 39.8118 19.8137 42.2988V48.0174C19.8137 50.5112 21.2963 51.9938 23.7833 51.9938H29.5019C31.9889 51.9938 33.4715 50.5112 33.4715 48.0242V42.2988C33.4783 39.8118 31.9957 38.3292 29.5088 38.3292ZM23.6603 49.3634C23.6603 49.6435 23.428 49.8758 23.1479 49.8758C22.8678 49.8758 22.6355 49.6435 22.6355 49.3634V47.9491C22.6355 47.6689 22.8678 47.4366 23.1479 47.4366C23.428 47.4366 23.6603 47.6689 23.6603 47.9491V49.3634ZM27.1584 49.3634C27.1584 49.6435 26.9261 49.8758 26.646 49.8758C26.3659 49.8758 26.1336 49.6435 26.1336 49.3634V46.528C26.1336 46.2478 26.3659 46.0155 26.646 46.0155C26.9261 46.0155 27.1584 46.2478 27.1584 46.528V49.3634ZM30.6566 49.3634C30.6566 49.6435 30.4243 49.8758 30.1442 49.8758C29.864 49.8758 29.6317 49.6435 29.6317 49.3634V45.1137C29.6317 44.8335 29.864 44.6012 30.1442 44.6012C30.4243 44.6012 30.6566 44.8335 30.6566 45.1137V49.3634ZM30.6566 42.9547C30.6566 43.2348 30.4243 43.4671 30.1442 43.4671C29.864 43.4671 29.6317 43.2348 29.6317 42.9547V42.2919C27.8895 44.082 25.71 45.346 23.2709 45.954C23.2299 45.9677 23.1889 45.9677 23.1479 45.9677C22.9156 45.9677 22.7106 45.8106 22.6491 45.5783C22.5808 45.305 22.7448 45.0248 23.0249 44.9565C25.3274 44.3826 27.3771 43.1733 29.0032 41.4652H28.1491C27.869 41.4652 27.6367 41.2329 27.6367 40.9528C27.6367 40.6727 27.869 40.4404 28.1491 40.4404H30.151C30.1783 40.4404 30.1988 40.454 30.2261 40.454C30.2603 40.4609 30.2945 40.4609 30.3286 40.4745C30.3628 40.4882 30.3901 40.5087 30.4243 40.5292C30.4448 40.5429 30.4653 40.5497 30.4858 40.5634C30.4926 40.5702 30.4926 40.577 30.4994 40.577C30.5268 40.6043 30.5473 40.6317 30.5678 40.659C30.5883 40.6863 30.6088 40.7068 30.6156 40.7342C30.6292 40.7615 30.6292 40.7888 30.6361 40.823C30.6429 40.8571 30.6566 40.8913 30.6566 40.9323C30.6566 40.9391 30.6634 40.946 30.6634 40.9528V42.9547H30.6566Z" fill="white"/>
<rect opacity="0.3" x="52.2671" y="30.8137" width="87.337" height="7.24565" rx="3.62283" fill="black"/>
<rect opacity="0.14" x="52.2671" y="44.2042" width="54.3168" height="5.12422" rx="2.56211" fill="black"/>
<rect opacity="0.14" x="109.658" y="44.2042" width="54.3168" height="5.12422" rx="2.56211" fill="black"/>
<rect opacity="0.14" x="52.2671" y="54.4527" width="38.9441" height="5.12422" rx="2.56211" fill="black"/>
<rect opacity="0.14" x="94.2856" y="54.4527" width="35.8696" height="5.12422" rx="2.56211" fill="black"/>
<rect opacity="0.14" x="52.2671" y="64.7011" width="42.0186" height="5.12422" rx="2.56211" fill="black"/>
<rect opacity="0.14" x="101.46" y="64.7011" width="56.3665" height="5.12422" rx="2.56211" fill="black"/>
<path d="M229.053 46.7619C217.984 47.9917 222.391 58.206 210.605 65.2091H318.214C318.214 61.2806 317.292 52.2961 313.602 47.7868C308.991 42.1501 306.941 31.9017 303.866 31.9017C300.792 31.9017 300.279 42.6625 294.13 42.6625C287.981 42.6625 284.394 30.8768 277.22 31.9017C270.046 32.9265 274.146 42.6625 265.947 42.6625C257.748 42.6625 255.186 56.4979 253.137 59.0601C251.087 61.6222 247.5 60.0849 245.963 56.4979C244.425 52.911 242.888 45.2247 229.053 46.7619Z" fill="url(#paint1_linear_1141_53586)" fill-opacity="0.5"/>
<path d="M210.605 65.2091C222.391 58.206 217.984 47.9917 229.053 46.7619C242.888 45.2247 244.425 52.911 245.963 56.4979C247.5 60.0849 251.087 61.6222 253.137 59.0601C255.186 56.4979 257.748 42.6625 265.947 42.6625C274.146 42.6625 270.046 32.9265 277.22 31.9017C284.394 30.8768 287.981 42.6625 294.13 42.6625C300.279 42.6625 300.792 31.9017 303.866 31.9017C306.941 31.9017 308.991 42.1501 313.602 47.7868C317.292 52.2961 318.214 61.2806 318.214 65.2091" stroke="#537AEF" stroke-width="1.02484" stroke-linecap="round"/>
<rect y="90.2547" width="330" height="61.4907" rx="14.3478" fill="#537AEF" fill-opacity="0.1"/>
<rect x="0.512422" y="90.7671" width="328.975" height="60.4658" rx="13.8354" stroke="#537AEF" stroke-opacity="0.1" stroke-width="1.02484"/>
<rect x="10.2485" y="100.503" width="31.7702" height="31.7702" rx="8.19876" fill="#537AEF"/>
<path d="M33.4781 114.038V117.242H30.6905C30.6085 117.235 30.4309 117.133 30.3899 117.058L29.6793 115.712C29.3992 115.179 28.9141 114.878 28.3948 114.906C27.8756 114.933 27.4315 115.281 27.206 115.848L26.2632 118.212L26.1265 117.857C25.7917 116.989 24.8352 116.334 23.8924 116.334L19.8135 116.354V114.038C19.8135 111.551 21.2961 110.068 23.783 110.068H29.5085C31.9955 110.068 33.4781 111.551 33.4781 114.038Z" fill="white"/>
<path d="M33.4781 119.763V118.267H30.6905C30.2327 118.267 29.693 117.939 29.4812 117.536L28.7706 116.19C28.5793 115.828 28.306 115.848 28.1557 116.224L26.5843 120.194C26.4135 120.638 26.1265 120.638 25.9489 120.194L25.17 118.226C24.9855 117.748 24.4116 117.358 23.8992 117.358L19.8135 117.379V119.763C19.8135 122.209 21.2483 123.685 23.6601 123.726C23.7352 123.733 23.8172 123.733 23.8924 123.733H29.3582C29.4607 123.733 29.5632 123.733 29.6588 123.726C32.057 123.671 33.4781 122.202 33.4781 119.763Z" fill="white"/>
<path d="M19.8135 117.379V119.64C19.7998 119.422 19.793 119.189 19.793 118.95V117.379H19.8135Z" fill="white"/>
<rect opacity="0.3" x="52.2671" y="102.553" width="87.337" height="7.24565" rx="3.62283" fill="black"/>
<rect opacity="0.14" x="52.2671" y="115.943" width="54.3168" height="5.12422" rx="2.56211" fill="black"/>
<rect opacity="0.14" x="109.658" y="115.943" width="54.3168" height="5.12422" rx="2.56211" fill="black"/>
<rect opacity="0.14" x="52.2671" y="126.192" width="38.9441" height="5.12422" rx="2.56211" fill="black"/>
<rect opacity="0.14" x="94.2856" y="126.192" width="35.8696" height="5.12422" rx="2.56211" fill="black"/>
<rect opacity="0.14" x="52.2671" y="136.44" width="42.0186" height="5.12422" rx="2.56211" fill="black"/>
<rect opacity="0.14" x="101.46" y="136.44" width="56.3665" height="5.12422" rx="2.56211" fill="black"/>
<path d="M299.767 118.501C310.835 119.731 306.429 109.448 318.214 116.451V136.948H210.606C210.606 133.02 211.528 124.035 215.217 119.526C219.829 113.889 221.879 103.641 224.953 103.641C228.028 103.641 228.54 114.402 234.69 114.402C240.839 114.402 244.426 102.616 251.599 103.641C258.773 104.666 254.674 114.402 262.873 114.402C271.071 114.402 273.634 117.989 275.683 120.551C277.733 123.113 281.32 121.576 282.857 117.989C284.394 114.402 285.932 116.964 299.767 118.501Z" fill="url(#paint2_linear_1141_53586)" fill-opacity="0.5"/>
<path d="M318.214 116.451C306.429 109.448 310.835 119.731 299.767 118.501C285.932 116.964 284.394 114.402 282.857 117.989C281.32 121.576 277.733 123.113 275.683 120.551C273.634 117.989 271.071 114.402 262.873 114.402C254.674 114.402 258.773 104.666 251.599 103.641C244.426 102.616 240.839 114.402 234.69 114.402C228.54 114.402 228.028 103.641 224.953 103.641C221.879 103.641 219.829 113.889 215.217 119.526C211.528 124.035 210.606 133.02 210.606 136.948" stroke="#537AEF" stroke-width="1.02484" stroke-linecap="round"/>
<rect y="161.994" width="330" height="61.4907" rx="14.3478" fill="#537AEF" fill-opacity="0.1"/>
<rect x="0.512422" y="162.506" width="328.975" height="60.4658" rx="13.8354" stroke="#537AEF" stroke-opacity="0.1" stroke-width="1.02484"/>
<rect x="10.2485" y="172.242" width="31.7702" height="31.7702" rx="8.19876" fill="#537AEF"/>
<path d="M33.4783 195.472H19.8137C19.5336 195.472 19.3013 195.24 19.3013 194.96C19.3013 194.68 19.5336 194.447 19.8137 194.447H33.4783C33.7584 194.447 33.9907 194.68 33.9907 194.96C33.9907 195.24 33.7584 195.472 33.4783 195.472Z" fill="white"/>
<path d="M25.1086 183.174V195.472H28.1832V183.174C28.1832 182.422 27.8757 181.807 26.9534 181.807H26.3385C25.4161 181.807 25.1086 182.422 25.1086 183.174Z" fill="white"/>
<path d="M20.4968 187.273V195.472H23.2297V187.273C23.2297 186.522 22.9565 185.907 22.1366 185.907H21.59C20.7701 185.907 20.4968 186.522 20.4968 187.273Z" fill="white"/>
<path d="M30.062 190.689V195.472H32.7949V190.689C32.7949 189.938 32.5216 189.323 31.7018 189.323H31.1552C30.3353 189.323 30.062 189.938 30.062 190.689Z" fill="white"/>
<rect opacity="0.3" x="52.2671" y="174.292" width="87.337" height="7.24565" rx="3.62283" fill="black"/>
<rect opacity="0.14" x="52.2671" y="187.682" width="54.3168" height="5.12422" rx="2.56211" fill="black"/>
<rect opacity="0.14" x="109.658" y="187.682" width="54.3168" height="5.12422" rx="2.56211" fill="black"/>
<rect opacity="0.14" x="52.2671" y="197.931" width="38.9441" height="5.12422" rx="2.56211" fill="black"/>
<rect opacity="0.14" x="94.2856" y="197.931" width="35.8696" height="5.12422" rx="2.56211" fill="black"/>
<rect opacity="0.14" x="52.2671" y="208.179" width="42.0186" height="5.12422" rx="2.56211" fill="black"/>
<rect opacity="0.14" x="101.46" y="208.179" width="56.3665" height="5.12422" rx="2.56211" fill="black"/>
<path d="M229.053 200.489C217.984 201.718 222.391 181.187 210.605 188.19V208.687H318.214C318.214 204.759 317.292 195.774 313.602 191.265C308.991 185.628 306.941 175.38 303.866 175.38C300.792 175.38 300.279 186.141 294.13 186.141C287.981 186.141 284.394 205.1 277.22 206.125C270.046 207.15 274.146 186.141 265.947 186.141C257.748 186.141 255.186 189.728 253.137 192.29C251.087 194.852 247.5 203.563 245.963 199.976C244.425 196.389 242.888 198.951 229.053 200.489Z" fill="url(#paint3_linear_1141_53586)" fill-opacity="0.5"/>
<path d="M210.605 188.19C222.391 181.187 217.984 201.718 229.053 200.489C242.888 198.951 244.425 196.389 245.963 199.976C247.5 203.563 251.087 194.852 253.137 192.29C255.186 189.728 257.748 186.141 265.947 186.141C274.146 186.141 270.046 207.15 277.22 206.125C284.394 205.1 287.981 186.141 294.13 186.141C300.279 186.141 300.792 175.38 303.866 175.38C306.941 175.38 308.991 185.628 313.602 191.265C317.292 195.774 318.214 204.759 318.214 208.687" stroke="#537AEF" stroke-width="1.02484" stroke-linecap="round"/>
</g>
<defs>
<radialGradient id="paint0_radial_1141_53586" cx="0" cy="0" r="1" gradientUnits="userSpaceOnUse" gradientTransform="translate(165.667 110) rotate(90) scale(142)">
<stop stop-color="#537AEF" stop-opacity="0.12"/>
<stop offset="1" stop-color="#537AEF" stop-opacity="0"/>
</radialGradient>
<linearGradient id="paint1_linear_1141_53586" x1="264.41" y1="31.8385" x2="264.41" y2="65.2091" gradientUnits="userSpaceOnUse">
<stop stop-color="#537AEF"/>
<stop offset="1" stop-color="#537AEF" stop-opacity="0"/>
</linearGradient>
<linearGradient id="paint2_linear_1141_53586" x1="264.41" y1="103.578" x2="264.41" y2="136.948" gradientUnits="userSpaceOnUse">
<stop stop-color="#537AEF"/>
<stop offset="1" stop-color="#537AEF" stop-opacity="0"/>
</linearGradient>
<linearGradient id="paint3_linear_1141_53586" x1="264.41" y1="175.317" x2="264.41" y2="208.687" gradientUnits="userSpaceOnUse">
<stop stop-color="#537AEF"/>
<stop offset="1" stop-color="#537AEF" stop-opacity="0"/>
</linearGradient>
<clipPath id="clip0_1141_53586">
<rect width="330" height="220" rx="16" fill="white"/>
</clipPath>
</defs>
</svg>
