<svg width="331" height="220" viewBox="0 0 331 220" fill="none" xmlns="http://www.w3.org/2000/svg">
<g clip-path="url(#clip0_1141_53584)">
<rect width="330.667" height="220" rx="16" fill="white"/>
<circle cx="165" cy="99" r="142" fill="url(#paint0_radial_1141_53584)"/>
<ellipse cx="165.5" cy="99" rx="102.5" ry="103" fill="url(#paint1_radial_1141_53584)"/>
<ellipse cx="165" cy="98.5" rx="60" ry="59.5" fill="url(#paint2_radial_1141_53584)"/>
<rect x="141" y="76" width="47" height="46" rx="23" fill="#537AEF"/>
<circle cx="164.5" cy="93.0741" r="4.07407" fill="white"/>
<path d="M171.537 105.31C171.537 110.23 157.463 110.23 157.463 105.31C157.463 101.621 160.613 98.6296 164.5 98.6296C168.386 98.6296 171.537 101.621 171.537 105.31Z" fill="white"/>
<g filter="url(#filter0_b_1141_53584)">
<rect x="231.667" y="40" width="30" height="30" rx="15" fill="#537AEF" fill-opacity="0.16"/>
<circle cx="246.667" cy="52.037" r="2.03704" fill="#537AEF"/>
<path d="M250.185 58.155C250.185 60.615 243.148 60.615 243.148 58.155C243.148 56.3103 244.723 54.8148 246.667 54.8148C248.61 54.8148 250.185 56.3103 250.185 58.155Z" fill="#537AEF"/>
</g>
<g filter="url(#filter1_b_1141_53584)">
<rect x="273.667" y="137" width="30" height="30" rx="15" fill="#537AEF" fill-opacity="0.16"/>
<circle cx="288.667" cy="149.037" r="2.03704" fill="#537AEF"/>
<path d="M292.185 155.155C292.185 157.615 285.148 157.615 285.148 155.155C285.148 153.31 286.723 151.815 288.667 151.815C290.61 151.815 292.185 153.31 292.185 155.155Z" fill="#537AEF"/>
</g>
<g filter="url(#filter2_b_1141_53584)">
<rect x="90.6667" y="24" width="30" height="30" rx="15" fill="#537AEF" fill-opacity="0.16"/>
<circle cx="105.667" cy="36.037" r="2.03704" fill="#537AEF"/>
<path d="M109.185 42.155C109.185 44.615 102.148 44.615 102.148 42.155C102.148 40.3103 103.723 38.8148 105.667 38.8148C107.61 38.8148 109.185 40.3103 109.185 42.155Z" fill="#537AEF"/>
</g>
<g filter="url(#filter3_b_1141_53584)">
<rect x="63" y="130" width="30" height="30" rx="15" fill="#537AEF" fill-opacity="0.16"/>
<circle cx="77.9999" cy="142.037" r="2.03704" fill="#537AEF"/>
<path d="M81.5185 148.155C81.5185 150.615 74.4814 150.615 74.4814 148.155C74.4814 146.31 76.0567 144.815 78 144.815C79.9432 144.815 81.5185 146.31 81.5185 148.155Z" fill="#537AEF"/>
</g>
<rect x="-16.3333" y="168" width="363" height="97" fill="url(#paint3_linear_1141_53584)"/>
<rect x="-16" y="-16" width="363" height="60" fill="url(#paint4_linear_1141_53584)"/>
<rect x="147.112" y="189" width="171.556" height="35" rx="12" transform="rotate(1.82023 147.112 189)" fill="white"/>
<rect x="147.596" y="189.516" width="170.556" height="34" rx="11.5" transform="rotate(1.82023 147.596 189.516)" stroke="#537AEF" stroke-opacity="0.1"/>
<circle cx="165.965" cy="202.661" r="3.05555" transform="rotate(1.82023 165.965 202.661)" fill="#537AEF"/>
<path d="M170.949 212.001C170.831 215.689 160.281 215.354 160.398 211.666C160.486 208.9 162.919 206.733 165.833 206.826C168.746 206.918 171.037 209.236 170.949 212.001Z" fill="#537AEF"/>
<path d="M184.972 203.363C185.361 203.378 185.742 203.462 186.115 203.613C186.488 203.764 186.822 204.002 187.115 204.327C187.412 204.652 187.643 205.085 187.807 205.628C187.975 206.167 188.048 206.835 188.025 207.63C188.001 208.394 187.903 209.071 187.73 209.663C187.558 210.251 187.322 210.746 187.022 211.145C186.725 211.545 186.371 211.845 185.958 212.045C185.545 212.245 185.084 212.337 184.576 212.321C184.057 212.305 183.598 212.188 183.202 211.97C182.805 211.753 182.486 211.46 182.245 211.092C182.004 210.72 181.859 210.298 181.812 209.824L183.111 209.866C183.184 210.243 183.348 210.552 183.601 210.794C183.858 211.032 184.195 211.158 184.613 211.171C185.252 211.191 185.759 210.929 186.134 210.384C186.51 209.836 186.715 209.061 186.75 208.058L186.681 208.056C186.526 208.296 186.335 208.5 186.108 208.669C185.883 208.838 185.634 208.967 185.358 209.055C185.082 209.142 184.79 209.181 184.48 209.172C183.978 209.156 183.524 209.018 183.12 208.757C182.717 208.497 182.399 208.148 182.169 207.708C181.938 207.269 181.832 206.772 181.85 206.219C181.867 205.668 182.008 205.172 182.272 204.731C182.539 204.291 182.902 203.947 183.362 203.7C183.825 203.45 184.361 203.338 184.972 203.363ZM184.941 204.471C184.609 204.46 184.306 204.533 184.034 204.689C183.765 204.843 183.549 205.056 183.387 205.33C183.225 205.6 183.139 205.904 183.128 206.242C183.117 206.58 183.181 206.889 183.32 207.169C183.462 207.447 183.659 207.67 183.913 207.84C184.169 208.008 184.465 208.097 184.8 208.107C185.049 208.115 185.284 208.074 185.503 207.985C185.722 207.895 185.915 207.768 186.082 207.602C186.249 207.434 186.382 207.242 186.48 207.027C186.577 206.811 186.63 206.582 186.638 206.341C186.648 206.02 186.581 205.72 186.436 205.439C186.295 205.159 186.094 204.931 185.836 204.755C185.577 204.576 185.279 204.482 184.941 204.471ZM191.811 212.551C191.277 212.534 190.8 212.417 190.381 212.199C189.965 211.978 189.636 211.683 189.394 211.315C189.153 210.946 189.031 210.53 189.029 210.067L190.307 210.107C190.326 210.483 190.482 210.796 190.776 211.047C191.069 211.298 191.426 211.43 191.846 211.444C192.181 211.454 192.48 211.387 192.744 211.242C193.01 211.094 193.221 210.886 193.377 210.618C193.536 210.35 193.622 210.042 193.633 209.693C193.644 209.338 193.577 209.019 193.433 208.736C193.288 208.452 193.084 208.227 192.819 208.059C192.557 207.892 192.253 207.801 191.907 207.787C191.643 207.779 191.376 207.816 191.106 207.898C190.836 207.981 190.617 208.093 190.447 208.236L189.248 208.018L189.877 203.639L194.673 203.791L194.637 204.92L190.936 204.802L190.581 207.234L190.633 207.235C190.808 207.076 191.038 206.946 191.323 206.844C191.61 206.742 191.916 206.696 192.24 206.707C192.771 206.723 193.239 206.865 193.646 207.131C194.055 207.397 194.372 207.752 194.597 208.197C194.824 208.639 194.928 209.143 194.907 209.708C194.892 210.273 194.748 210.773 194.476 211.207C194.206 211.642 193.84 211.98 193.378 212.221C192.918 212.46 192.396 212.57 191.811 212.551ZM200.498 211.071L200.513 210.611C200.524 210.281 200.601 209.982 200.746 209.714C200.894 209.443 201.103 209.229 201.372 209.073C201.644 208.914 201.969 208.841 202.347 208.853C202.733 208.865 203.054 208.957 203.31 209.13C203.566 209.303 203.756 209.53 203.881 209.809C204.009 210.089 204.067 210.394 204.057 210.723L204.042 211.183C204.032 211.513 203.954 211.813 203.809 212.084C203.664 212.352 203.457 212.566 203.187 212.725C202.921 212.881 202.597 212.953 202.217 212.941C201.834 212.929 201.512 212.837 201.254 212.664C200.995 212.488 200.802 212.261 200.674 211.984C200.546 211.704 200.488 211.4 200.498 211.071ZM201.505 210.642L201.491 211.102C201.483 211.346 201.534 211.57 201.644 211.772C201.754 211.975 201.954 212.08 202.244 212.09C202.531 212.099 202.734 212.006 202.854 211.811C202.974 211.615 203.038 211.396 203.045 211.151L203.06 210.691C203.068 210.447 203.019 210.224 202.915 210.022C202.813 209.82 202.615 209.714 202.32 209.704C202.036 209.695 201.831 209.788 201.705 209.983C201.58 210.178 201.513 210.398 201.505 210.642ZM196.27 205.939L196.285 205.479C196.295 205.15 196.373 204.85 196.518 204.579C196.666 204.308 196.874 204.094 197.144 203.938C197.416 203.781 197.741 203.709 198.118 203.721C198.505 203.734 198.826 203.826 199.082 203.999C199.338 204.172 199.528 204.399 199.653 204.678C199.777 204.958 199.835 205.262 199.824 205.592L199.809 206.052C199.799 206.381 199.721 206.681 199.576 206.953C199.434 207.221 199.228 207.435 198.959 207.594C198.692 207.75 198.369 207.822 197.988 207.81C197.602 207.798 197.28 207.705 197.021 207.532C196.765 207.356 196.573 207.13 196.446 206.853C196.318 206.573 196.26 206.269 196.27 205.939ZM197.281 205.511L197.267 205.971C197.259 206.215 197.309 206.438 197.416 206.641C197.526 206.843 197.726 206.949 198.016 206.958C198.3 206.967 198.501 206.874 198.621 206.679C198.744 206.484 198.809 206.264 198.817 206.02L198.832 205.56C198.839 205.316 198.791 205.093 198.687 204.891C198.582 204.688 198.384 204.582 198.091 204.573C197.807 204.564 197.603 204.657 197.477 204.852C197.354 205.047 197.289 205.267 197.281 205.511ZM196.464 212.58L202.738 204.047L203.756 204.08L197.482 212.612L196.464 212.58Z" fill="#537AEF"/>
<path d="M219.855 206.885C219.822 206.48 219.645 206.162 219.322 205.93C219 205.695 218.589 205.57 218.089 205.554C217.732 205.543 217.42 205.59 217.155 205.695C216.891 205.797 216.683 205.944 216.532 206.136C216.384 206.324 216.306 206.542 216.298 206.789C216.291 206.996 216.334 207.177 216.426 207.33C216.52 207.484 216.645 207.614 216.801 207.722C216.96 207.826 217.13 207.915 217.313 207.989C217.495 208.061 217.671 208.12 217.84 208.168L218.685 208.417C218.961 208.494 219.243 208.595 219.532 208.721C219.821 208.847 220.087 209.008 220.331 209.207C220.575 209.405 220.769 209.647 220.913 209.933C221.061 210.219 221.128 210.558 221.115 210.95C221.1 211.444 220.958 211.878 220.69 212.254C220.425 212.629 220.048 212.92 219.558 213.126C219.071 213.332 218.487 213.424 217.806 213.403C217.153 213.382 216.591 213.26 216.12 213.038C215.65 212.815 215.286 212.51 215.028 212.121C214.771 211.729 214.636 211.27 214.624 210.743L215.945 210.785C215.96 211.101 216.054 211.367 216.226 211.583C216.402 211.796 216.628 211.958 216.906 212.069C217.187 212.178 217.496 212.237 217.834 212.248C218.206 212.26 218.539 212.212 218.832 212.105C219.128 211.995 219.363 211.838 219.538 211.633C219.712 211.425 219.804 211.18 219.813 210.896C219.821 210.637 219.754 210.423 219.611 210.254C219.472 210.085 219.279 209.942 219.032 209.826C218.789 209.71 218.512 209.606 218.202 209.514L217.18 209.2C216.488 208.988 215.943 208.691 215.546 208.308C215.152 207.926 214.964 207.432 214.983 206.824C214.999 206.321 215.15 205.887 215.434 205.521C215.719 205.155 216.097 204.875 216.569 204.683C217.042 204.488 217.57 204.399 218.155 204.418C218.746 204.437 219.264 204.557 219.709 204.778C220.156 205 220.505 205.297 220.755 205.669C221.004 206.038 221.128 206.456 221.124 206.925L219.855 206.885ZM226.26 210.811L226.382 206.982L227.659 207.022L227.452 213.564L226.199 213.524L226.235 212.392L226.167 212.389C226.006 212.734 225.755 213.017 225.415 213.239C225.079 213.459 224.665 213.561 224.174 213.545C223.753 213.532 223.384 213.428 223.066 213.233C222.752 213.035 222.508 212.751 222.335 212.378C222.165 212.006 222.088 211.551 222.105 211.011L222.237 206.85L223.511 206.89L223.384 210.898C223.369 211.344 223.482 211.703 223.72 211.975C223.959 212.247 224.276 212.389 224.67 212.401C224.909 212.409 225.148 212.357 225.387 212.245C225.63 212.134 225.833 211.959 225.997 211.723C226.163 211.487 226.251 211.183 226.26 210.811ZM231.434 213.823C230.801 213.803 230.261 213.642 229.813 213.341C229.367 213.037 229.031 212.627 228.803 212.111C228.575 211.595 228.471 211.009 228.492 210.353C228.513 209.688 228.657 209.106 228.923 208.606C229.189 208.102 229.554 207.715 230.017 207.442C230.481 207.17 231.02 207.044 231.636 207.063C232.133 207.079 232.573 207.185 232.957 207.382C233.34 207.576 233.645 207.842 233.873 208.179C234.104 208.516 234.236 208.905 234.267 209.347L233.028 209.307C232.969 208.999 232.821 208.73 232.584 208.5C232.35 208.271 232.03 208.15 231.624 208.137C231.269 208.126 230.955 208.21 230.682 208.389C230.412 208.565 230.198 208.822 230.039 209.161C229.881 209.497 229.794 209.898 229.779 210.364C229.764 210.841 229.823 211.255 229.957 211.606C230.091 211.957 230.287 212.232 230.545 212.43C230.806 212.629 231.117 212.734 231.477 212.746C231.719 212.753 231.939 212.716 232.137 212.635C232.339 212.55 232.509 212.426 232.648 212.263C232.79 212.1 232.891 211.901 232.953 211.667L234.192 211.706C234.133 212.128 233.983 212.501 233.743 212.826C233.502 213.151 233.186 213.403 232.794 213.581C232.404 213.759 231.951 213.839 231.434 213.823ZM237.76 214.024C237.127 214.004 236.586 213.843 236.138 213.542C235.693 213.238 235.356 212.828 235.128 212.312C234.9 211.796 234.797 211.21 234.817 210.554C234.839 209.889 234.982 209.307 235.248 208.807C235.514 208.304 235.879 207.916 236.342 207.643C236.806 207.371 237.346 207.245 237.962 207.264C238.459 207.28 238.899 207.386 239.282 207.583C239.665 207.777 239.971 208.043 240.199 208.38C240.43 208.717 240.561 209.106 240.592 209.548L239.353 209.508C239.295 209.2 239.147 208.931 238.91 208.701C238.675 208.472 238.355 208.351 237.949 208.338C237.594 208.327 237.28 208.411 237.007 208.59C236.737 208.766 236.523 209.023 236.365 209.362C236.206 209.698 236.119 210.099 236.105 210.565C236.09 211.042 236.149 211.456 236.283 211.807C236.416 212.158 236.612 212.433 236.87 212.631C237.131 212.83 237.442 212.935 237.803 212.947C238.044 212.954 238.264 212.917 238.463 212.836C238.664 212.751 238.835 212.627 238.973 212.464C239.115 212.301 239.217 212.102 239.278 211.868L240.517 211.907C240.459 212.329 240.309 212.702 240.068 213.027C239.828 213.352 239.511 213.604 239.119 213.782C238.73 213.96 238.277 214.04 237.76 214.024ZM244.149 214.227C243.505 214.207 242.954 214.051 242.497 213.761C242.043 213.468 241.698 213.066 241.461 212.556C241.227 212.042 241.121 211.446 241.142 210.768C241.164 210.098 241.307 209.511 241.574 209.008C241.843 208.505 242.207 208.117 242.668 207.844C243.131 207.572 243.667 207.446 244.275 207.465C244.644 207.477 244.999 207.549 245.342 207.682C245.685 207.815 245.989 208.017 246.257 208.287C246.524 208.557 246.73 208.903 246.876 209.325C247.022 209.745 247.085 210.252 247.066 210.845L247.052 211.297L241.851 211.131L241.882 210.177L245.834 210.303C245.845 209.968 245.786 209.669 245.658 209.406C245.53 209.141 245.345 208.929 245.103 208.77C244.863 208.612 244.579 208.528 244.25 208.517C243.892 208.506 243.577 208.584 243.304 208.751C243.035 208.916 242.823 209.137 242.669 209.413C242.518 209.687 242.438 209.987 242.427 210.314L242.404 211.059C242.39 211.497 242.455 211.871 242.598 212.182C242.745 212.494 242.954 212.735 243.228 212.906C243.501 213.074 243.823 213.164 244.195 213.175C244.437 213.183 244.658 213.156 244.859 213.094C245.06 213.03 245.235 212.93 245.384 212.795C245.533 212.661 245.65 212.493 245.733 212.291L246.931 212.546C246.823 212.898 246.64 213.203 246.382 213.462C246.127 213.719 245.809 213.915 245.43 214.05C245.053 214.183 244.626 214.242 244.149 214.227ZM252.953 209.425L251.792 209.593C251.749 209.443 251.676 209.3 251.576 209.164C251.478 209.027 251.342 208.913 251.169 208.822C250.995 208.732 250.777 208.682 250.512 208.674C250.152 208.662 249.848 208.733 249.602 208.888C249.355 209.039 249.228 209.241 249.22 209.494C249.213 209.712 249.289 209.891 249.446 210.03C249.604 210.168 249.861 210.286 250.219 210.382L251.251 210.654C251.849 210.812 252.29 211.041 252.577 211.34C252.863 211.639 252.998 212.02 252.984 212.483C252.971 212.875 252.846 213.22 252.61 213.52C252.376 213.816 252.054 214.045 251.646 214.205C251.24 214.366 250.773 214.438 250.245 214.421C249.512 214.398 248.919 214.222 248.466 213.895C248.013 213.565 247.744 213.109 247.657 212.527L248.894 212.378C248.96 212.702 249.11 212.949 249.344 213.122C249.577 213.291 249.885 213.382 250.269 213.394C250.686 213.407 251.022 213.331 251.278 213.166C251.533 212.998 251.665 212.788 251.673 212.535C251.68 212.33 251.608 212.156 251.459 212.012C251.313 211.868 251.085 211.756 250.775 211.675L249.676 211.397C249.069 211.238 248.625 211.003 248.342 210.689C248.062 210.376 247.93 209.987 247.944 209.521C247.957 209.135 248.075 208.801 248.3 208.518C248.525 208.235 248.831 208.019 249.216 207.869C249.602 207.717 250.041 207.648 250.532 207.664C251.239 207.686 251.79 207.857 252.187 208.177C252.583 208.494 252.839 208.91 252.953 209.425ZM258.903 209.614L257.743 209.782C257.699 209.632 257.627 209.489 257.526 209.353C257.428 209.216 257.293 209.102 257.119 209.011C256.946 208.921 256.727 208.871 256.463 208.863C256.102 208.851 255.799 208.923 255.552 209.077C255.306 209.228 255.179 209.43 255.171 209.683C255.164 209.901 255.239 210.08 255.397 210.219C255.554 210.357 255.812 210.475 256.17 210.572L257.202 210.843C257.799 211.001 258.241 211.23 258.527 211.529C258.813 211.828 258.949 212.209 258.934 212.672C258.922 213.064 258.797 213.409 258.56 213.709C258.326 214.005 258.005 214.234 257.596 214.394C257.19 214.555 256.723 214.627 256.195 214.61C255.463 214.587 254.87 214.411 254.417 214.084C253.964 213.755 253.694 213.298 253.608 212.716L254.845 212.567C254.911 212.891 255.061 213.138 255.294 213.311C255.528 213.48 255.836 213.571 256.219 213.583C256.637 213.596 256.973 213.52 257.228 213.355C257.484 213.187 257.616 212.977 257.624 212.724C257.63 212.519 257.559 212.345 257.41 212.201C257.264 212.057 257.036 211.945 256.726 211.864L255.626 211.586C255.02 211.428 254.576 211.192 254.293 210.879C254.013 210.566 253.88 210.176 253.895 209.711C253.907 209.324 254.026 208.99 254.251 208.707C254.476 208.424 254.781 208.208 255.167 208.058C255.553 207.906 255.991 207.837 256.482 207.853C257.189 207.875 257.741 208.046 258.137 208.366C258.534 208.683 258.789 209.099 258.903 209.614ZM263.116 208.149L263.083 209.171L259.386 209.054L259.419 208.031L263.116 208.149ZM260.225 214.606L260.457 207.306C260.47 206.897 260.57 206.56 260.757 206.296C260.945 206.029 261.189 205.834 261.488 205.71C261.788 205.583 262.111 205.525 262.457 205.536C262.713 205.544 262.931 205.572 263.111 205.621C263.292 205.666 263.425 205.707 263.512 205.744L263.181 206.765C263.122 206.746 263.046 206.724 262.953 206.698C262.86 206.67 262.747 206.653 262.614 206.649C262.304 206.639 262.08 206.709 261.942 206.858C261.806 207.007 261.734 207.227 261.725 207.516L261.498 214.646L260.225 214.606ZM267.973 212.136L268.094 208.307L269.372 208.348L269.164 214.89L267.912 214.85L267.948 213.717L267.88 213.715C267.718 214.059 267.468 214.343 267.128 214.565C266.791 214.785 266.377 214.887 265.886 214.871C265.466 214.858 265.097 214.754 264.779 214.559C264.464 214.361 264.22 214.076 264.047 213.704C263.877 213.332 263.801 212.876 263.818 212.337L263.95 208.175L265.224 208.216L265.096 212.224C265.082 212.67 265.194 213.028 265.433 213.3C265.672 213.572 265.988 213.715 266.383 213.727C266.622 213.735 266.861 213.683 267.1 213.571C267.342 213.459 267.545 213.285 267.709 213.049C267.876 212.812 267.964 212.508 267.973 212.136ZM271.946 206.247L271.669 214.969L270.396 214.929L270.673 206.206L271.946 206.247ZM278.349 215.314C277.715 215.294 277.175 215.133 276.727 214.832C276.282 214.528 275.945 214.118 275.717 213.602C275.489 213.086 275.385 212.5 275.406 211.844C275.427 211.179 275.571 210.597 275.837 210.097C276.103 209.593 276.468 209.206 276.931 208.933C277.395 208.661 277.934 208.535 278.551 208.554C279.048 208.57 279.488 208.676 279.871 208.873C280.254 209.067 280.56 209.333 280.788 209.67C281.019 210.007 281.15 210.396 281.181 210.838L279.942 210.798C279.883 210.49 279.736 210.22 279.498 209.991C279.264 209.762 278.944 209.641 278.538 209.628C278.183 209.617 277.869 209.701 277.596 209.88C277.326 210.056 277.112 210.313 276.953 210.652C276.795 210.988 276.708 211.389 276.693 211.855C276.678 212.332 276.738 212.746 276.871 213.097C277.005 213.448 277.201 213.723 277.459 213.921C277.72 214.12 278.031 214.225 278.391 214.237C278.633 214.244 278.853 214.207 279.051 214.125C279.253 214.041 279.423 213.917 279.562 213.754C279.704 213.59 279.805 213.392 279.867 213.158L281.106 213.197C281.047 213.619 280.898 213.992 280.657 214.317C280.416 214.642 280.1 214.894 279.708 215.071C279.318 215.25 278.865 215.33 278.349 215.314ZM283.473 206.613L283.196 215.336L281.922 215.295L282.2 206.572L283.473 206.613ZM284.429 215.375L284.637 208.833L285.911 208.873L285.703 215.415L284.429 215.375ZM285.313 207.844C285.091 207.837 284.903 207.757 284.749 207.604C284.598 207.449 284.525 207.267 284.532 207.06C284.538 206.85 284.622 206.674 284.783 206.531C284.947 206.385 285.139 206.316 285.361 206.323C285.582 206.33 285.769 206.412 285.92 206.567C286.075 206.72 286.148 206.901 286.142 207.111C286.135 207.319 286.05 207.495 285.886 207.64C285.725 207.783 285.534 207.851 285.313 207.844ZM289.752 215.676C289.107 215.656 288.557 215.5 288.1 215.21C287.646 214.917 287.3 214.515 287.064 214.005C286.83 213.492 286.724 212.896 286.745 212.217C286.767 211.547 286.91 210.96 287.176 210.457C287.445 209.954 287.81 209.566 288.271 209.294C288.734 209.021 289.27 208.895 289.877 208.914C290.246 208.926 290.602 208.998 290.945 209.131C291.287 209.264 291.592 209.466 291.859 209.736C292.126 210.006 292.333 210.352 292.479 210.775C292.624 211.194 292.688 211.701 292.669 212.294L292.655 212.746L287.454 212.58L287.485 211.626L291.437 211.752C291.448 211.417 291.389 211.118 291.261 210.855C291.133 210.59 290.948 210.378 290.706 210.219C290.466 210.061 290.182 209.977 289.852 209.966C289.495 209.955 289.179 210.033 288.907 210.201C288.637 210.366 288.426 210.586 288.272 210.863C288.121 211.136 288.041 211.437 288.03 211.763L288.006 212.508C287.993 212.946 288.057 213.32 288.201 213.632C288.347 213.943 288.557 214.185 288.83 214.355C289.104 214.523 289.426 214.613 289.798 214.625C290.039 214.632 290.261 214.605 290.462 214.543C290.663 214.479 290.838 214.379 290.987 214.245C291.136 214.11 291.252 213.942 291.336 213.74L292.534 213.995C292.426 214.347 292.243 214.653 291.985 214.912C291.729 215.168 291.412 215.364 291.032 215.5C290.656 215.633 290.229 215.691 289.752 215.676ZM294.893 211.819L294.77 215.704L293.496 215.663L293.704 209.121L294.926 209.16L294.893 210.225L294.974 210.227C295.135 209.886 295.38 209.615 295.707 209.415C296.037 209.215 296.448 209.123 296.94 209.139C297.385 209.153 297.773 209.259 298.102 209.457C298.431 209.652 298.682 209.936 298.855 210.308C299.028 210.68 299.106 211.136 299.089 211.675L298.956 215.837L297.683 215.796L297.81 211.788C297.825 211.314 297.714 210.94 297.475 210.665C297.237 210.387 296.902 210.242 296.47 210.228C296.175 210.218 295.91 210.274 295.676 210.395C295.445 210.515 295.258 210.697 295.117 210.94C294.979 211.18 294.904 211.473 294.893 211.819ZM303.446 209.431L303.414 210.453L299.84 210.339L299.873 209.317L303.446 209.431ZM300.881 207.78L302.155 207.821L301.958 214.009C301.95 214.256 301.981 214.443 302.051 214.571C302.121 214.695 302.213 214.782 302.328 214.831C302.446 214.877 302.575 214.903 302.714 214.907C302.816 214.911 302.906 214.906 302.983 214.894C303.06 214.883 303.12 214.873 303.163 214.866L303.359 215.925C303.285 215.951 303.179 215.977 303.042 216.001C302.904 216.028 302.733 216.039 302.529 216.035C302.194 216.031 301.883 215.961 301.597 215.827C301.312 215.693 301.084 215.492 300.913 215.225C300.742 214.958 300.663 214.628 300.676 214.233L300.881 207.78Z" fill="#537AEF"/>
</g>
<defs>
<filter id="filter0_b_1141_53584" x="191.667" y="0" width="110" height="110" filterUnits="userSpaceOnUse" color-interpolation-filters="sRGB">
<feFlood flood-opacity="0" result="BackgroundImageFix"/>
<feGaussianBlur in="BackgroundImageFix" stdDeviation="20"/>
<feComposite in2="SourceAlpha" operator="in" result="effect1_backgroundBlur_1141_53584"/>
<feBlend mode="normal" in="SourceGraphic" in2="effect1_backgroundBlur_1141_53584" result="shape"/>
</filter>
<filter id="filter1_b_1141_53584" x="233.667" y="97" width="110" height="110" filterUnits="userSpaceOnUse" color-interpolation-filters="sRGB">
<feFlood flood-opacity="0" result="BackgroundImageFix"/>
<feGaussianBlur in="BackgroundImageFix" stdDeviation="20"/>
<feComposite in2="SourceAlpha" operator="in" result="effect1_backgroundBlur_1141_53584"/>
<feBlend mode="normal" in="SourceGraphic" in2="effect1_backgroundBlur_1141_53584" result="shape"/>
</filter>
<filter id="filter2_b_1141_53584" x="50.6667" y="-16" width="110" height="110" filterUnits="userSpaceOnUse" color-interpolation-filters="sRGB">
<feFlood flood-opacity="0" result="BackgroundImageFix"/>
<feGaussianBlur in="BackgroundImageFix" stdDeviation="20"/>
<feComposite in2="SourceAlpha" operator="in" result="effect1_backgroundBlur_1141_53584"/>
<feBlend mode="normal" in="SourceGraphic" in2="effect1_backgroundBlur_1141_53584" result="shape"/>
</filter>
<filter id="filter3_b_1141_53584" x="23" y="90" width="110" height="110" filterUnits="userSpaceOnUse" color-interpolation-filters="sRGB">
<feFlood flood-opacity="0" result="BackgroundImageFix"/>
<feGaussianBlur in="BackgroundImageFix" stdDeviation="20"/>
<feComposite in2="SourceAlpha" operator="in" result="effect1_backgroundBlur_1141_53584"/>
<feBlend mode="normal" in="SourceGraphic" in2="effect1_backgroundBlur_1141_53584" result="shape"/>
</filter>
<radialGradient id="paint0_radial_1141_53584" cx="0" cy="0" r="1" gradientUnits="userSpaceOnUse" gradientTransform="translate(165 99) rotate(90) scale(142)">
<stop stop-color="#537AEF" stop-opacity="0"/>
<stop offset="1" stop-color="#537AEF" stop-opacity="0.12"/>
</radialGradient>
<radialGradient id="paint1_radial_1141_53584" cx="0" cy="0" r="1" gradientUnits="userSpaceOnUse" gradientTransform="translate(165.5 99) rotate(90) scale(103 102.5)">
<stop stop-color="#537AEF" stop-opacity="0"/>
<stop offset="1" stop-color="#537AEF" stop-opacity="0.1"/>
</radialGradient>
<radialGradient id="paint2_radial_1141_53584" cx="0" cy="0" r="1" gradientUnits="userSpaceOnUse" gradientTransform="translate(165 98.5) rotate(90) scale(59.5 60)">
<stop stop-color="#537AEF" stop-opacity="0"/>
<stop offset="1" stop-color="#537AEF" stop-opacity="0.08"/>
</radialGradient>
<linearGradient id="paint3_linear_1141_53584" x1="165.167" y1="168" x2="165.167" y2="265" gradientUnits="userSpaceOnUse">
<stop stop-color="white" stop-opacity="0"/>
<stop offset="1" stop-color="white"/>
</linearGradient>
<linearGradient id="paint4_linear_1141_53584" x1="165.5" y1="-16" x2="165.5" y2="44" gradientUnits="userSpaceOnUse">
<stop stop-color="white"/>
<stop offset="1" stop-color="white" stop-opacity="0"/>
</linearGradient>
<clipPath id="clip0_1141_53584">
<rect width="330.667" height="220" rx="16" fill="white"/>
</clipPath>
</defs>
</svg>
