<svg width="330" height="220" viewBox="0 0 330 220" fill="none" xmlns="http://www.w3.org/2000/svg">
<g clip-path="url(#clip0_1141_53449)">
<rect width="330" height="220" rx="16" fill="white"/>
<g clip-path="url(#clip1_1141_53449)">
<rect y="2.91443" width="250.503" height="166.665" rx="12.1211" fill="#FEF3F4"/>
<path d="M213.635 137.755C213.635 134.408 210.921 131.695 207.574 131.695H189.393C186.045 131.695 183.332 134.408 183.332 137.755V183.21H213.635V137.755Z" fill="#EC8290" fill-opacity="0.22"/>
<path d="M259.089 150.634C259.089 147.287 256.375 144.574 253.028 144.574H234.847C231.499 144.574 228.786 147.287 228.786 150.634V183.21H259.089V150.634Z" fill="#EC8290" fill-opacity="0.22"/>
<path d="M122.726 110.483C122.726 107.136 120.013 104.422 116.666 104.422H98.4838C95.1367 104.422 92.4233 107.136 92.4233 110.483V183.21H122.726V110.483Z" fill="#EC8290" fill-opacity="0.22"/>
<path d="M77.272 84.7256C77.272 81.3784 74.5586 78.665 71.2114 78.665H53.0297C49.6826 78.665 46.9692 81.3784 46.9692 84.7256V183.21H77.272V84.7256Z" fill="#EC8290" fill-opacity="0.22"/>
<path d="M31.8179 99.877C31.8179 96.5298 29.1045 93.8164 25.7573 93.8164H7.57563C4.22847 93.8164 1.51506 96.5298 1.51506 99.877V183.21H31.8179V99.877Z" fill="#EC8290" fill-opacity="0.22"/>
<path opacity="0.6" d="M168.18 86.2407C168.18 82.8936 165.467 80.1802 162.12 80.1802H143.938C140.591 80.1802 137.878 82.8936 137.878 86.2407V183.21H168.18V86.2407Z" fill="#EC8290"/>
<path d="M234.216 149.119L258.458 143.058V184.346H-3.78772L-5.8078 108.21L27.1465 97.2254L39.2676 89.2709L66.5401 86.9982L75.2522 97.2254H108.459H131.944L152.398 108.21L178.913 115.786L192.171 128.665L220.958 130.559L234.216 149.119Z" fill="url(#paint0_linear_1141_53449)"/>
<path d="M258.458 143.058L234.216 149.119L220.958 130.559L192.171 128.665L178.913 115.786L152.398 108.21L131.944 97.2254H108.459L75.1261 96.8466L66.0352 86.9982L39.5203 89.6497L26.5151 97.6042L-0.75745 106.316" stroke="#EC8290" stroke-width="2.27271" stroke-linecap="round"/>
<circle cx="6.06056" cy="6.06056" r="4.92421" transform="matrix(-1 0 0 1 158.837 101.392)" fill="#EC8290" stroke="white" stroke-width="2.27271"/>
<rect x="10.9531" y="13.514" width="38.1584" height="38.1584" rx="9.53961" fill="#EC8290"/>
<path d="M33.3631 24.6436H26.7013C23.8076 24.6436 22.0825 26.3686 22.0825 29.2623V35.9162C22.0825 38.8178 23.8076 40.5429 26.7013 40.5429H33.3552C36.2488 40.5429 37.9739 38.8178 37.9739 35.9241V29.2623C37.9819 26.3686 36.2568 24.6436 33.3631 24.6436ZM33.9116 34.4455C33.9116 34.517 33.8957 34.5886 33.8719 34.6601C33.8162 34.7953 33.7049 34.9066 33.5698 34.9622C33.4983 34.994 33.4267 35.002 33.3552 35.002H31.8765C31.5665 35.002 31.32 34.7555 31.32 34.4455C31.32 34.1355 31.5665 33.889 31.8765 33.889H32.0196L30.3422 32.2116L29.5314 33.42C29.436 33.5551 29.2929 33.6505 29.1259 33.6664C28.959 33.6823 28.8 33.6267 28.6807 33.5074L26.3117 31.1384C26.0971 30.9238 26.0971 30.574 26.3117 30.3514C26.5264 30.1288 26.8762 30.1368 27.0988 30.3514L28.9908 32.2434L29.8017 31.0351C29.897 30.8999 30.0401 30.8045 30.2071 30.7887C30.382 30.7728 30.533 30.8284 30.6523 30.9476L32.8146 33.11V32.9669C32.8146 32.6568 33.061 32.4104 33.3711 32.4104C33.6811 32.4104 33.9275 32.6568 33.9275 32.9669V34.4455H33.9116Z" fill="white"/>
</g>
<rect x="0.529978" y="3.44441" width="249.443" height="165.605" rx="11.5911" stroke="#EC8290" stroke-opacity="0.1" stroke-width="1.05996"/>
<g filter="url(#filter0_d_1141_53449)">
<rect x="114.829" y="65.4518" width="215.171" height="152.634" rx="14.8394" fill="#FDEFF1"/>
<rect x="115.359" y="65.9818" width="214.111" height="151.574" rx="14.3094" stroke="#FF1E1E" stroke-opacity="0.11" stroke-width="1.05996"/>
<rect x="125.428" y="76.0514" width="48.758" height="48.758" rx="10.5996" fill="#EC8290"/>
<path fill-rule="evenodd" clip-rule="evenodd" d="M152.652 91.7518L160.999 106.238C161.182 106.67 161.263 107.022 161.286 107.387C161.331 108.24 161.033 109.07 160.447 109.708C159.862 110.344 159.07 110.72 158.209 110.765H141.401C141.045 110.743 140.689 110.663 140.356 110.537C138.691 109.866 137.887 107.977 138.565 106.34L146.969 91.7416C147.256 91.2284 147.692 90.7858 148.232 90.5013C149.793 89.6354 151.779 90.2044 152.652 91.7518ZM150.804 101.298C150.804 101.844 150.356 102.301 149.805 102.301C149.254 102.301 148.794 101.844 148.794 101.298V98.0793C148.794 97.532 149.254 97.0893 149.805 97.0893C150.356 97.0893 150.804 97.532 150.804 98.0793V101.298ZM149.805 106.192C149.254 106.192 148.794 105.736 148.794 105.191C148.794 104.643 149.254 104.188 149.805 104.188C150.356 104.188 150.804 104.633 150.804 105.178C150.804 105.736 150.356 106.192 149.805 106.192Z" fill="white"/>
<rect x="305.621" y="81.8435" width="4.23983" height="14.8394" rx="2.11991" transform="rotate(-45 305.621 81.8435)" fill="#E5DBDC"/>
<rect width="4.23983" height="14.8394" rx="2.11991" transform="matrix(-0.707107 -0.707107 -0.707107 0.707107 319.112 81.8435)" fill="#E5DBDC"/>
<rect opacity="0.1" x="125.428" y="139.649" width="193.972" height="12.7195" rx="6.35974" fill="black"/>
<rect opacity="0.1" x="125.428" y="158.728" width="193.972" height="12.7195" rx="6.35974" fill="black"/>
<rect opacity="0.3" x="125.428" y="189.467" width="68.8972" height="12.7195" rx="6.35974" fill="#EB9D59"/>
<rect x="236.724" y="183.107" width="82.6766" height="24.379" rx="8.47965" fill="#537AEF"/>
<rect opacity="0.1" x="244.144" y="189.467" width="67.8372" height="10.5996" rx="5.29978" fill="white"/>
</g>
</g>
<defs>
<filter id="filter0_d_1141_53449" x="93.6297" y="44.2527" width="257.569" height="195.032" filterUnits="userSpaceOnUse" color-interpolation-filters="sRGB">
<feFlood flood-opacity="0" result="BackgroundImageFix"/>
<feColorMatrix in="SourceAlpha" type="matrix" values="0 0 0 0 0 0 0 0 0 0 0 0 0 0 0 0 0 0 127 0" result="hardAlpha"/>
<feOffset/>
<feGaussianBlur stdDeviation="10.5996"/>
<feComposite in2="hardAlpha" operator="out"/>
<feColorMatrix type="matrix" values="0 0 0 0 0 0 0 0 0 0 0 0 0 0 0 0 0 0 0.04 0"/>
<feBlend mode="normal" in2="BackgroundImageFix" result="effect1_dropShadow_1141_53449"/>
<feBlend mode="normal" in="SourceGraphic" in2="effect1_dropShadow_1141_53449" result="shape"/>
</filter>
<linearGradient id="paint0_linear_1141_53449" x1="148.989" y1="74.4983" x2="148.989" y2="175.634" gradientUnits="userSpaceOnUse">
<stop stop-color="#EC8290" stop-opacity="0.7"/>
<stop offset="0.813634" stop-color="#EC8290" stop-opacity="0"/>
</linearGradient>
<clipPath id="clip0_1141_53449">
<rect width="330" height="220" rx="16" fill="white"/>
</clipPath>
<clipPath id="clip1_1141_53449">
<rect y="2.91443" width="250.503" height="166.665" rx="12.1211" fill="white"/>
</clipPath>
</defs>
</svg>
