<svg width="330" height="220" viewBox="0 0 330 220" fill="none" xmlns="http://www.w3.org/2000/svg">
<g clip-path="url(#clip0_1141_53421)">
<rect width="330" height="220" rx="16" fill="white"/>
<g filter="url(#filter0_d_1141_53421)">
<rect y="18.8495" width="216.796" height="153.786" rx="14.9515" fill="#EC8290" fill-opacity="0.13" shape-rendering="crispEdges"/>
<rect x="0.533981" y="19.3835" width="215.728" height="152.718" rx="14.4175" stroke="#FF1E1E" stroke-opacity="0.11" stroke-width="1.06796" shape-rendering="crispEdges"/>
<rect x="10.6797" y="29.5292" width="49.1262" height="49.1262" rx="10.6796" fill="#EC8290"/>
<path fill-rule="evenodd" clip-rule="evenodd" d="M38.1088 45.3481L46.5184 59.9432C46.7035 60.3789 46.7845 60.7331 46.8076 61.1011C46.8539 61.9609 46.5531 62.7967 45.9632 63.4398C45.3732 64.0807 44.5751 64.459 43.7075 64.5049H26.7725C26.4139 64.4831 26.0553 64.4017 25.7198 64.2756C24.0425 63.5992 23.2328 61.6961 23.9153 60.0464L32.3828 45.3377C32.672 44.8207 33.1115 44.3747 33.6552 44.0881C35.2284 43.2157 37.2296 43.7889 38.1088 45.3481ZM36.2465 54.9665C36.2465 55.5168 35.7953 55.9766 35.2401 55.9766C34.6848 55.9766 34.2221 55.5168 34.2221 54.9665V51.7233C34.2221 51.1719 34.6848 50.7259 35.2401 50.7259C35.7953 50.7259 36.2465 51.1719 36.2465 51.7233V54.9665ZM35.2401 59.8974C34.6848 59.8974 34.2221 59.4377 34.2221 58.8885C34.2221 58.3371 34.6848 57.8785 35.2401 57.8785C35.7953 57.8785 36.2465 58.3268 36.2465 58.8759C36.2465 59.4377 35.7953 59.8974 35.2401 59.8974Z" fill="white"/>
<rect x="192.233" y="35.3649" width="4.27184" height="14.9515" rx="2.13592" transform="rotate(-45 192.233 35.3649)" fill="#E5DBDC"/>
<rect width="4.27184" height="14.9515" rx="2.13592" transform="matrix(-0.707107 -0.707107 -0.707107 0.707107 205.826 35.3649)" fill="#E5DBDC"/>
<rect opacity="0.1" x="10.6797" y="93.6068" width="195.437" height="12.8155" rx="6.40777" fill="black"/>
<rect opacity="0.1" x="10.6797" y="112.83" width="195.437" height="12.8155" rx="6.40777" fill="black"/>
<rect opacity="0.3" x="10.6797" y="143.801" width="69.4175" height="12.8155" rx="6.40777" fill="#EB9D59"/>
<rect x="122.815" y="137.393" width="83.301" height="24.5631" rx="8.54369" fill="#537AEF"/>
<rect opacity="0.1" x="130.291" y="143.801" width="68.3495" height="10.6796" rx="5.33981" fill="white"/>
</g>
<g filter="url(#filter1_d_1141_53421)">
<rect x="138.835" y="114.966" width="191.165" height="97.1845" rx="14.9515" fill="#FDEFF1"/>
<rect x="139.369" y="115.5" width="190.097" height="96.1165" rx="14.4175" stroke="#FF1E1E" stroke-opacity="0.11" stroke-width="1.06796"/>
<path d="M185.778 140.051C177.685 126.737 164.632 131.958 148.447 127.782V208.947H320.222V171.378C315.001 169.029 306.647 183.387 294.9 165.374C283.152 147.361 266.706 149.449 258.613 154.409C250.52 159.37 239.295 167.723 229.897 154.409C220.499 141.096 213.45 134.569 204.574 141.618C195.698 148.666 193.08 152.065 185.778 140.051Z" fill="url(#paint0_linear_1141_53421)"/>
<path d="M150.048 127.782C166.234 131.958 177.685 126.737 185.778 140.051C193.08 152.065 195.698 148.666 204.574 141.618C213.45 134.569 220.498 141.096 229.896 154.409C239.294 167.723 250.52 159.37 258.613 154.409C266.705 149.449 283.152 147.361 294.899 165.374C306.647 183.387 315.001 169.029 320.222 171.378" stroke="#EB9D59" stroke-width="3.20388" stroke-linecap="round"/>
<path d="M155.997 198.324C156.853 199.412 158.501 199.412 159.357 198.324L164.192 192.169C165.293 190.768 164.295 188.714 162.513 188.714H152.841C151.059 188.714 150.061 190.768 151.162 192.169L155.997 198.324Z" fill="#E76071"/>
<path d="M177.456 199.715C176.78 199.715 176.179 199.601 175.654 199.374C175.132 199.146 174.723 198.835 174.425 198.441C174.131 198.043 173.985 197.593 173.988 197.089C173.985 196.698 174.07 196.338 174.243 196.01C174.416 195.683 174.65 195.41 174.944 195.191C175.242 194.97 175.572 194.829 175.936 194.768V194.704C175.457 194.598 175.069 194.354 174.771 193.972C174.477 193.586 174.331 193.142 174.334 192.638C174.331 192.159 174.465 191.731 174.735 191.355C175.005 190.978 175.375 190.683 175.845 190.467C176.316 190.249 176.853 190.14 177.456 190.14C178.054 190.14 178.586 190.249 179.054 190.467C179.524 190.683 179.894 190.978 180.164 191.355C180.437 191.731 180.574 192.159 180.574 192.638C180.574 193.142 180.424 193.586 180.123 193.972C179.826 194.354 179.442 194.598 178.972 194.704V194.768C179.336 194.829 179.664 194.97 179.955 195.191C180.249 195.41 180.483 195.683 180.656 196.01C180.832 196.338 180.92 196.698 180.92 197.089C180.92 197.593 180.771 198.043 180.474 198.441C180.176 198.835 179.767 199.146 179.245 199.374C178.726 199.601 178.13 199.715 177.456 199.715ZM177.456 198.413C177.805 198.413 178.109 198.354 178.367 198.236C178.624 198.114 178.825 197.945 178.967 197.726C179.11 197.508 179.183 197.256 179.186 196.971C179.183 196.673 179.105 196.411 178.954 196.183C178.805 195.953 178.6 195.772 178.339 195.642C178.081 195.511 177.787 195.446 177.456 195.446C177.123 195.446 176.825 195.511 176.564 195.642C176.303 195.772 176.097 195.953 175.945 196.183C175.797 196.411 175.724 196.673 175.727 196.971C175.724 197.256 175.794 197.508 175.936 197.726C176.079 197.941 176.279 198.11 176.537 198.231C176.798 198.353 177.104 198.413 177.456 198.413ZM177.456 194.167C177.742 194.167 177.993 194.11 178.212 193.994C178.433 193.879 178.608 193.718 178.735 193.512C178.863 193.306 178.928 193.067 178.931 192.797C178.928 192.53 178.864 192.297 178.74 192.097C178.615 191.893 178.442 191.737 178.221 191.628C177.999 191.515 177.745 191.459 177.456 191.459C177.162 191.459 176.903 191.515 176.678 191.628C176.457 191.737 176.284 191.893 176.159 192.097C176.038 192.297 175.979 192.53 175.982 192.797C175.979 193.067 176.039 193.306 176.164 193.512C176.291 193.715 176.466 193.876 176.687 193.994C176.912 194.11 177.168 194.167 177.456 194.167ZM185.829 199.715C185.383 199.712 184.948 199.634 184.523 199.483C184.098 199.328 183.716 199.078 183.376 198.732C183.036 198.383 182.766 197.92 182.566 197.344C182.366 196.764 182.267 196.047 182.27 195.191C182.27 194.393 182.355 193.682 182.525 193.057C182.695 192.432 182.939 191.904 183.258 191.473C183.576 191.039 183.96 190.708 184.409 190.481C184.861 190.253 185.366 190.14 185.925 190.14C186.51 190.14 187.029 190.255 187.481 190.485C187.936 190.716 188.303 191.032 188.582 191.432C188.861 191.83 189.034 192.279 189.101 192.779H187.44C187.355 192.421 187.181 192.136 186.917 191.924C186.656 191.708 186.325 191.6 185.925 191.6C185.278 191.6 184.781 191.881 184.432 192.442C184.086 193.004 183.911 193.774 183.908 194.754H183.972C184.121 194.487 184.313 194.258 184.55 194.067C184.787 193.876 185.054 193.729 185.351 193.626C185.651 193.519 185.969 193.466 186.302 193.466C186.848 193.466 187.338 193.597 187.772 193.858C188.209 194.119 188.555 194.478 188.81 194.936C189.065 195.391 189.191 195.913 189.188 196.502C189.191 197.115 189.051 197.665 188.769 198.154C188.487 198.639 188.094 199.022 187.59 199.301C187.087 199.58 186.499 199.718 185.829 199.715ZM185.82 198.35C186.151 198.35 186.446 198.269 186.707 198.108C186.968 197.948 187.175 197.731 187.326 197.458C187.478 197.184 187.552 196.878 187.549 196.538C187.552 196.205 187.479 195.903 187.331 195.633C187.185 195.363 186.983 195.149 186.726 194.991C186.468 194.833 186.173 194.754 185.843 194.754C185.597 194.754 185.368 194.801 185.155 194.895C184.943 194.989 184.758 195.12 184.6 195.287C184.442 195.451 184.318 195.642 184.227 195.86C184.139 196.076 184.094 196.306 184.091 196.552C184.094 196.877 184.169 197.175 184.318 197.448C184.467 197.722 184.672 197.94 184.932 198.104C185.193 198.268 185.489 198.35 185.82 198.35ZM195.709 197.84V197.348C195.709 196.987 195.785 196.655 195.937 196.352C196.091 196.048 196.316 195.804 196.61 195.619C196.905 195.434 197.261 195.341 197.68 195.341C198.111 195.341 198.472 195.434 198.763 195.619C199.054 195.801 199.274 196.044 199.423 196.347C199.574 196.651 199.65 196.984 199.65 197.348V197.84C199.65 198.201 199.574 198.533 199.423 198.836C199.271 199.14 199.048 199.384 198.754 199.569C198.462 199.754 198.104 199.847 197.68 199.847C197.255 199.847 196.895 199.754 196.601 199.569C196.307 199.384 196.084 199.14 195.932 198.836C195.783 198.533 195.709 198.201 195.709 197.84ZM196.897 197.348V197.84C196.897 198.08 196.955 198.299 197.07 198.5C197.185 198.7 197.388 198.8 197.68 198.8C197.974 198.8 198.176 198.701 198.285 198.504C198.397 198.304 198.453 198.083 198.453 197.84V197.348C198.453 197.106 198.4 196.884 198.294 196.684C198.188 196.481 197.983 196.379 197.68 196.379C197.395 196.379 197.193 196.481 197.074 196.684C196.956 196.884 196.897 197.106 196.897 197.348ZM190.972 192.506V192.015C190.972 191.651 191.049 191.317 191.204 191.013C191.358 190.71 191.583 190.467 191.877 190.285C192.172 190.1 192.528 190.008 192.947 190.008C193.374 190.008 193.734 190.1 194.025 190.285C194.32 190.467 194.541 190.71 194.69 191.013C194.838 191.317 194.913 191.651 194.913 192.015V192.506C194.913 192.87 194.837 193.204 194.685 193.507C194.536 193.808 194.315 194.049 194.021 194.231C193.726 194.413 193.368 194.504 192.947 194.504C192.519 194.504 192.158 194.413 191.864 194.231C191.572 194.049 191.351 193.806 191.199 193.503C191.047 193.199 190.972 192.867 190.972 192.506ZM192.168 192.015V192.506C192.168 192.749 192.225 192.97 192.337 193.171C192.452 193.368 192.655 193.466 192.947 193.466C193.238 193.466 193.438 193.368 193.547 193.171C193.66 192.97 193.716 192.749 193.716 192.506V192.015C193.716 191.772 193.663 191.55 193.557 191.35C193.45 191.147 193.247 191.045 192.947 191.045C192.658 191.045 192.457 191.147 192.341 191.35C192.226 191.553 192.168 191.775 192.168 192.015ZM191.49 199.587L197.898 190.267H199.036L192.628 199.587H191.49Z" fill="#323D48"/>
</g>
</g>
<defs>
<filter id="filter0_d_1141_53421" x="-21.3592" y="-2.50974" width="259.515" height="196.505" filterUnits="userSpaceOnUse" color-interpolation-filters="sRGB">
<feFlood flood-opacity="0" result="BackgroundImageFix"/>
<feColorMatrix in="SourceAlpha" type="matrix" values="0 0 0 0 0 0 0 0 0 0 0 0 0 0 0 0 0 0 127 0" result="hardAlpha"/>
<feOffset/>
<feGaussianBlur stdDeviation="10.6796"/>
<feComposite in2="hardAlpha" operator="out"/>
<feColorMatrix type="matrix" values="0 0 0 0 0 0 0 0 0 0 0 0 0 0 0 0 0 0 0.04 0"/>
<feBlend mode="normal" in2="BackgroundImageFix" result="effect1_dropShadow_1141_53421"/>
<feBlend mode="normal" in="SourceGraphic" in2="effect1_dropShadow_1141_53421" result="shape"/>
</filter>
<filter id="filter1_d_1141_53421" x="117.476" y="93.6068" width="233.883" height="139.903" filterUnits="userSpaceOnUse" color-interpolation-filters="sRGB">
<feFlood flood-opacity="0" result="BackgroundImageFix"/>
<feColorMatrix in="SourceAlpha" type="matrix" values="0 0 0 0 0 0 0 0 0 0 0 0 0 0 0 0 0 0 127 0" result="hardAlpha"/>
<feOffset/>
<feGaussianBlur stdDeviation="10.6796"/>
<feComposite in2="hardAlpha" operator="out"/>
<feColorMatrix type="matrix" values="0 0 0 0 0 0 0 0 0 0 0 0 0 0 0 0 0 0 0.04 0"/>
<feBlend mode="normal" in2="BackgroundImageFix" result="effect1_dropShadow_1141_53421"/>
<feBlend mode="normal" in="SourceGraphic" in2="effect1_dropShadow_1141_53421" result="shape"/>
</filter>
<linearGradient id="paint0_linear_1141_53421" x1="234.335" y1="127.782" x2="234.335" y2="198.267" gradientUnits="userSpaceOnUse">
<stop stop-color="#EB9D59" stop-opacity="0.5"/>
<stop offset="1" stop-color="#EB9D59" stop-opacity="0"/>
</linearGradient>
<clipPath id="clip0_1141_53421">
<rect width="330" height="220" rx="16" fill="white"/>
</clipPath>
</defs>
</svg>
