<svg width="330" height="220" viewBox="0 0 330 220" fill="none" xmlns="http://www.w3.org/2000/svg">
<rect width="330" height="220" rx="16.7619" fill="#EFF2FF"/>
<rect x="0.52381" y="0.52381" width="328.952" height="218.952" rx="16.2381" stroke="#537AEF" stroke-opacity="0.2" stroke-width="1.04762"/>
<rect x="147.493" y="16.762" width="48.1905" height="48.1905" rx="10.4762" fill="#537AEF"/>
<path fill-rule="evenodd" clip-rule="evenodd" d="M174.399 32.2794L182.649 46.5966C182.831 47.0239 182.91 47.3714 182.933 47.7324C182.978 48.5759 182.683 49.3957 182.104 50.0266C181.526 50.6552 180.743 51.0263 179.892 51.0713H163.279C162.927 51.05 162.576 50.9701 162.247 50.8464C160.601 50.1829 159.807 48.3161 160.476 46.6978L168.783 32.2693C169.066 31.7621 169.497 31.3246 170.031 31.0435C171.574 30.1877 173.537 30.75 174.399 32.2794ZM172.573 41.7147C172.573 42.2545 172.13 42.7055 171.585 42.7055C171.041 42.7055 170.587 42.2545 170.587 41.7147V38.5332C170.587 37.9923 171.041 37.5548 171.585 37.5548C172.13 37.5548 172.573 37.9923 172.573 38.5332V41.7147ZM171.585 46.5516C171.041 46.5516 170.587 46.1006 170.587 45.562C170.587 45.021 171.041 44.5712 171.585 44.5712C172.13 44.5712 172.573 45.0109 172.573 45.5496C172.573 46.1006 172.13 46.5516 171.585 46.5516Z" fill="white"/>
<rect opacity="0.3" x="44.8257" y="81.7142" width="253.524" height="12.5714" rx="6.28571" fill="black"/>
<rect opacity="0.1" x="33.3018" y="107.905" width="154" height="12.5714" rx="6.28571" fill="black"/>
<rect opacity="0.1" x="195.683" y="107.905" width="113.143" height="12.5714" rx="6.28571" fill="black"/>
<rect opacity="0.1" x="33.3018" y="129.905" width="110" height="12.5714" rx="6.28571" fill="black"/>
<rect opacity="0.1" x="151.683" y="129.905" width="157.143" height="12.5714" rx="6.28571" fill="black"/>
<rect x="33.3018" y="187.524" width="61.8095" height="12.5714" rx="6.28571" fill="#EB9D59"/>
<rect x="105.587" y="187.524" width="61.8095" height="12.5714" rx="6.28571" fill="#537AEF"/>
<rect x="200.921" y="181.238" width="107.905" height="24.0952" rx="8.38095" fill="#537AEF"/>
<rect opacity="0.1" x="210.605" y="187.524" width="88.5372" height="10.4762" rx="5.2381" fill="white"/>
</svg>
