<?xml version="1.0" standalone="no"?>
<!DOCTYPE svg PUBLIC "-//W3C//DTD SVG 20010904//EN"
 "http://www.w3.org/TR/2001/REC-SVG-20010904/DTD/svg10.dtd">
<svg version="1.0" xmlns="http://www.w3.org/2000/svg"
 width="662.000000pt" height="440.000000pt" viewBox="0 0 662.000000 440.000000"
 preserveAspectRatio="xMidYMid meet">
<metadata>
Created by potrace 1.16, written by Peter Selinger 2001-2019
</metadata>
<g transform="translate(0.000000,440.000000) scale(0.100000,-0.100000)"
fill="#000000" stroke="none">
<path d="M2823 3337 c-494 -166 -497 -168 -543 -262 -19 -39 -20 -62 -20 -491
0 -494 5 -548 65 -699 61 -154 169 -307 281 -397 72 -58 338 -280 379 -317 22
-20 60 -52 85 -71 24 -19 84 -70 134 -112 50 -43 94 -78 98 -78 4 0 9 213 10
472 l3 473 65 8 c91 11 193 61 263 130 66 64 123 173 132 252 l5 50 -15 -55
c-34 -122 -118 -239 -216 -302 -53 -34 -152 -59 -234 -60 -183 -1 -332 97
-419 275 -124 254 20 559 299 632 33 8 74 15 92 15 l33 0 0 150 c0 93 4 150
10 150 6 0 11 24 12 53 l1 52 7 -50 c4 -27 8 -42 8 -32 2 13 11 17 42 17 22 0
40 -4 40 -10 0 -5 18 -10 40 -10 22 0 40 5 40 10 0 6 47 10 120 10 73 0 120
-4 120 -10 0 -6 33 -10 80 -10 47 0 80 4 80 10 0 6 14 10 30 10 17 0 30 -5 30
-12 0 -9 4 -8 10 2 6 10 10 11 10 3 0 -8 15 -13 40 -13 22 0 40 5 40 10 0 6
24 10 53 10 37 0 48 -3 37 -10 -13 -8 -13 -10 1 -10 9 0 19 6 22 14 3 7 14 16
25 18 16 5 20 1 17 -13 -2 -10 0 -21 4 -24 5 -2 11 6 13 20 5 24 -1 30 -31 25
-9 -1 -12 4 -8 14 8 21 -1 20 -27 -1 -20 -17 -20 -17 -6 1 14 18 13 19 -3 13
-10 -4 -16 -3 -12 2 7 13 -28 23 -50 15 -12 -5 -16 -4 -11 4 7 11 -31 28 -41
18 -4 -3 2 -6 13 -6 14 0 16 -2 6 -9 -9 -5 -23 2 -43 22 -17 16 -33 26 -37 22
-4 -3 1 -12 11 -20 16 -11 15 -12 -9 -12 -16 0 -21 2 -14 7 9 6 7 13 -9 29
-12 12 -27 19 -32 15 -6 -4 -15 -1 -19 6 -4 6 -19 13 -34 13 -14 1 -26 5 -26
9 0 4 -7 5 -15 2 -8 -4 -15 -2 -15 4 0 9 -46 25 -75 27 -5 0 -15 4 -22 8 -24
15 -428 147 -448 146 -11 0 -223 -69 -472 -152z"/>
<path d="M2905 2500 c-3 -5 3 -29 13 -52 11 -24 22 -54 25 -68 10 -38 43 -87
74 -107 19 -13 46 -18 93 -18 88 0 130 27 168 107 15 32 30 58 33 58 3 0 16
-23 29 -51 44 -94 113 -130 217 -114 57 8 93 42 117 110 10 28 24 65 32 83 26
62 26 62 -104 62 -87 0 -140 -6 -201 -21 -85 -22 -94 -21 -196 5 -67 18 -290
22 -300 6z"/>
<path d="M3090 2185 c0 -26 50 -72 102 -96 110 -48 247 -23 318 57 39 45 30
60 -17 28 -104 -70 -262 -70 -367 1 -26 17 -36 20 -36 10z"/>
</g>
</svg>
