<svg width="331" height="220" viewBox="0 0 331 220" fill="none" xmlns="http://www.w3.org/2000/svg">
<rect x="0.333374" width="330.667" height="220" rx="16" fill="#8C57D1" fill-opacity="0.1"/>
<path d="M80.3337 110C80.3337 111.473 81.5276 112.667 83.0004 112.667C84.4731 112.667 85.667 111.473 85.667 110C85.667 108.527 84.4731 107.333 83.0004 107.333C81.5276 107.333 80.3337 108.527 80.3337 110ZM245.834 110C245.834 111.473 247.028 112.667 248.5 112.667C249.973 112.667 251.167 111.473 251.167 110C251.167 108.527 249.973 107.333 248.5 107.333C247.028 107.333 245.834 108.527 245.834 110ZM83.0004 110.5H248.5V109.5H83.0004V110.5Z" fill="#8C57D1" fill-opacity="0.2"/>
<path d="M94.3337 172C94.3337 173.473 95.5276 174.667 97.0004 174.667C98.4731 174.667 99.667 173.473 99.667 172C99.667 170.527 98.4731 169.333 97.0004 169.333C95.5276 169.333 94.3337 170.527 94.3337 172ZM94.3337 50C94.3337 51.4728 95.5276 52.6667 97.0004 52.6667C98.4731 52.6667 99.667 51.4728 99.667 50C99.667 48.5272 98.4731 47.3333 97.0004 47.3333C95.5276 47.3333 94.3337 48.5272 94.3337 50ZM97.0004 172.5H117V171.5H97.0004V172.5ZM131.5 158V64H130.5V158H131.5ZM117 49.5H97.0004V50.5H117V49.5ZM131.5 64C131.5 55.9919 125.008 49.5 117 49.5V50.5C124.456 50.5 130.5 56.5442 130.5 64H131.5ZM117 172.5C125.008 172.5 131.5 166.008 131.5 158H130.5C130.5 165.456 124.456 171.5 117 171.5V172.5Z" fill="#8C57D1" fill-opacity="0.2"/>
<path d="M234.667 172C234.667 173.473 233.473 174.667 232 174.667C230.528 174.667 229.334 173.473 229.334 172C229.334 170.527 230.528 169.333 232 169.333C233.473 169.333 234.667 170.527 234.667 172ZM234.667 50C234.667 51.4728 233.473 52.6667 232 52.6667C230.528 52.6667 229.334 51.4728 229.334 50C229.334 48.5272 230.528 47.3333 232 47.3333C233.473 47.3333 234.667 48.5272 234.667 50ZM232 172.5H212V171.5H232V172.5ZM197.5 158V64H198.5V158H197.5ZM212 49.5H232V50.5H212V49.5ZM197.5 64C197.5 55.9919 203.992 49.5 212 49.5V50.5C204.545 50.5 198.5 56.5442 198.5 64H197.5ZM212 172.5C203.992 172.5 197.5 166.008 197.5 158H198.5C198.5 165.456 204.545 171.5 212 171.5V172.5Z" fill="#8C57D1" fill-opacity="0.2"/>
<path d="M113 71.2061C113 66.0461 116.299 61.4637 121.192 59.8263L165.5 45L209.808 59.8263C214.702 61.4637 218 66.0461 218 71.2061V107.72C218 122.526 211.439 136.57 200.082 146.07L165.5 175L130.918 146.07C119.562 136.57 113 122.526 113 107.72V71.2061Z" fill="#8C57D1"/>
<mask id="mask0_1128_18921" style="mask-type:alpha" maskUnits="userSpaceOnUse" x="113" y="45" width="106" height="130">
<path d="M113 71.2061C113 66.0461 116.299 61.4637 121.192 59.8263L165.5 45L209.808 59.8263C214.702 61.4637 218 66.0461 218 71.2061V107.72C218 122.526 211.439 136.57 200.082 146.07L165.5 175L130.918 146.07C119.562 136.57 113 122.526 113 107.72V71.2061Z" fill="#8C57D1"/>
</mask>
<g mask="url(#mask0_1128_18921)">
<rect x="166" y="29" width="82" height="153" fill="url(#paint0_linear_1128_18921)"/>
</g>
<path d="M140 129.64H192V77.64H140V129.64Z" fill="white"/>
<circle cx="74.0004" cy="175" r="20" fill="#8C57D1" fill-opacity="0.2"/>
<circle cx="20" cy="20" r="20" transform="matrix(-1 0 0 1 277 155)" fill="#8C57D1" fill-opacity="0.2"/>
<circle cx="74.0004" cy="45" r="20" fill="#8C57D1" fill-opacity="0.2"/>
<circle cx="20" cy="20" r="20" transform="matrix(-1 0 0 1 277 25)" fill="#8C57D1" fill-opacity="0.2"/>
<circle cx="52.0004" cy="110" r="20" fill="#8C57D1" fill-opacity="0.2"/>
<circle cx="20" cy="20" r="20" transform="matrix(-1 0 0 1 299 90)" fill="#8C57D1" fill-opacity="0.2"/>
<defs>
<linearGradient id="paint0_linear_1128_18921" x1="207" y1="29" x2="207" y2="182" gradientUnits="userSpaceOnUse">
<stop stop-color="white" stop-opacity="0.06"/>
<stop offset="1" stop-color="white" stop-opacity="0.4"/>
</linearGradient>
</defs>
</svg>
