<svg width="332" height="220" viewBox="0 0 332 220" fill="none" xmlns="http://www.w3.org/2000/svg">
<g clip-path="url(#clip0_1128_18901)">
<rect x="0.666626" width="330.667" height="220" rx="16" fill="#EFF2FF"/>
<path d="M55.6666 164C55.6666 159.582 59.2483 156 63.6666 156H87.6666C92.0849 156 95.6666 159.582 95.6666 164V224H55.6666V164Z" fill="#537AEF" fill-opacity="0.3"/>
<path d="M-4.33337 181C-4.33337 176.582 -0.751652 173 3.66663 173H27.6666C32.0849 173 35.6666 176.582 35.6666 181V224H-4.33337V181Z" fill="#537AEF" fill-opacity="0.3"/>
<path d="M175.667 128C175.667 123.582 179.248 120 183.667 120H207.667C212.085 120 215.667 123.582 215.667 128V224H175.667V128Z" fill="#537AEF" fill-opacity="0.3"/>
<path d="M235.667 84C235.667 79.5817 239.248 76 243.667 76H267.667C272.085 76 275.667 79.5817 275.667 84V224H235.667V84Z" fill="#537AEF" fill-opacity="0.3"/>
<path d="M295.667 84C295.667 79.5817 299.248 76 303.667 76H327.667C332.085 76 335.667 79.5817 335.667 84V224H295.667V84Z" fill="#537AEF" fill-opacity="0.3"/>
<path d="M115.667 96C115.667 91.5817 119.248 88 123.667 88H147.667C152.085 88 155.667 91.5817 155.667 96V224H115.667V96Z" fill="#62B7E5"/>
<path d="M28.4996 179L-3.50037 171V225.5H342.667L333.667 66.5L303.167 90.5L285.5 80.5L250.5 87L238.5 100L194.5 110.5H163.5L136.5 125L101.5 135L83.9996 152L45.9996 154.5L28.4996 179Z" fill="url(#paint0_linear_1128_18901)"/>
<path d="M-3.50037 171L28.4996 179L45.9996 154.5L83.9996 152L101.5 135L136.5 125L163.5 110.5H194.5L238.5 100L250.5 87L285.5 80.5L302.667 91L338.667 62.5" stroke="#537AEF" stroke-width="3" stroke-linecap="round"/>
<circle cx="136" cy="124" r="6.5" fill="#537AEF" stroke="white" stroke-width="3"/>
<path d="M27.4166 50L31.2348 26.7273H34.8712L31.053 50H27.4166ZM16.9962 44.2273L17.5984 40.5909H35.7803L35.178 44.2273H16.9962ZM19.2348 50L23.053 26.7273H26.6894L22.8712 50H19.2348ZM18.3257 36.1364L18.9394 32.5H37.1212L36.5075 36.1364H18.3257ZM48.8192 26.7273V50H43.8988V31.3977H43.7624L38.4329 34.7386V30.375L44.1942 26.7273H48.8192Z" fill="#537AEF"/>
<rect x="64.6666" y="26" width="73" height="25" rx="12.5" fill="#537AEF" fill-opacity="0.1"/>
<path d="M85.6666 42H74.6666L80.1666 35L85.6666 42Z" fill="#537AEF"/>
<path d="M94.6804 42.3693V35.4886H96.2414V42.3693H94.6804ZM92.0206 39.7095V38.1484H98.9012V39.7095H92.0206ZM103.772 33.679C104.26 33.6823 104.734 33.7685 105.194 33.9375C105.658 34.1032 106.076 34.375 106.447 34.7528C106.818 35.1274 107.113 35.6295 107.332 36.2592C107.551 36.889 107.66 37.6679 107.66 38.5959C107.663 39.4709 107.571 40.2531 107.382 40.9425C107.196 41.6286 106.929 42.2086 106.581 42.6825C106.233 43.1565 105.814 43.5178 105.323 43.7663C104.833 44.0149 104.281 44.1392 103.668 44.1392C103.025 44.1392 102.455 44.0133 101.958 43.7614C101.464 43.5095 101.064 43.1648 100.76 42.7273C100.455 42.2898 100.267 41.7893 100.198 41.2259H102.012C102.105 41.6302 102.294 41.9517 102.579 42.1903C102.868 42.4257 103.23 42.5433 103.668 42.5433C104.374 42.5433 104.917 42.2367 105.299 41.6236C105.68 41.0104 105.87 40.1586 105.87 39.0682H105.801C105.638 39.3598 105.428 39.6117 105.169 39.8239C104.911 40.0327 104.618 40.1934 104.289 40.3061C103.965 40.4188 103.62 40.4751 103.255 40.4751C102.659 40.4751 102.122 40.3326 101.645 40.0476C101.171 39.7625 100.794 39.3714 100.516 38.8743C100.241 38.3771 100.102 37.8087 100.098 37.169C100.098 36.5062 100.251 35.9112 100.556 35.3842C100.864 34.8539 101.293 34.4363 101.843 34.1314C102.394 33.8232 103.037 33.6723 103.772 33.679ZM103.777 35.1705C103.419 35.1705 103.096 35.2583 102.808 35.4339C102.523 35.6063 102.297 35.8416 102.132 36.1399C101.969 36.4349 101.888 36.7647 101.888 37.1293C101.891 37.4905 101.973 37.8187 102.132 38.1136C102.294 38.4086 102.515 38.6423 102.793 38.8146C103.075 38.987 103.396 39.0732 103.757 39.0732C104.026 39.0732 104.276 39.0218 104.508 38.919C104.74 38.8163 104.942 38.6738 105.115 38.4915C105.29 38.3059 105.426 38.0954 105.522 37.8601C105.622 37.6248 105.67 37.3762 105.667 37.1143C105.667 36.7663 105.584 36.4448 105.418 36.1499C105.256 35.8549 105.032 35.6179 104.747 35.4389C104.465 35.2599 104.142 35.1705 103.777 35.1705ZM112.095 44.1392C111.356 44.1392 110.7 44.0149 110.126 43.7663C109.556 43.5178 109.109 43.178 108.784 42.7472C108.462 42.313 108.303 41.8208 108.307 41.2706C108.303 40.843 108.396 40.4503 108.585 40.0923C108.774 39.7344 109.029 39.4361 109.351 39.1974C109.675 38.9555 110.037 38.8014 110.434 38.7351V38.6655C109.911 38.5495 109.487 38.2827 109.162 37.8651C108.84 37.4441 108.681 36.9586 108.684 36.4084C108.681 35.8847 108.827 35.4174 109.122 35.0064C109.417 34.5954 109.821 34.2723 110.335 34.0369C110.849 33.7983 111.435 33.679 112.095 33.679C112.748 33.679 113.33 33.7983 113.84 34.0369C114.354 34.2723 114.758 34.5954 115.053 35.0064C115.351 35.4174 115.501 35.8847 115.501 36.4084C115.501 36.9586 115.336 37.4441 115.008 37.8651C114.684 38.2827 114.264 38.5495 113.751 38.6655V38.7351C114.148 38.8014 114.506 38.9555 114.824 39.1974C115.146 39.4361 115.401 39.7344 115.59 40.0923C115.782 40.4503 115.878 40.843 115.878 41.2706C115.878 41.8208 115.716 42.313 115.391 42.7472C115.066 43.178 114.619 43.5178 114.049 43.7663C113.482 44.0149 112.831 44.1392 112.095 44.1392ZM112.095 42.7173C112.476 42.7173 112.808 42.6527 113.089 42.5234C113.371 42.3909 113.59 42.2053 113.746 41.9666C113.901 41.728 113.981 41.4529 113.984 41.1413C113.981 40.8165 113.896 40.5298 113.731 40.2812C113.568 40.0294 113.345 39.8321 113.059 39.6896C112.778 39.5471 112.456 39.4759 112.095 39.4759C111.73 39.4759 111.406 39.5471 111.121 39.6896C110.836 39.8321 110.61 40.0294 110.444 40.2812C110.282 40.5298 110.202 40.8165 110.206 41.1413C110.202 41.4529 110.279 41.728 110.434 41.9666C110.59 42.2019 110.809 42.3859 111.091 42.5185C111.376 42.651 111.711 42.7173 112.095 42.7173ZM112.095 38.0788C112.407 38.0788 112.682 38.0159 112.92 37.8899C113.162 37.764 113.353 37.5883 113.492 37.3629C113.631 37.1375 113.702 36.8774 113.706 36.5824C113.702 36.2907 113.633 36.0355 113.497 35.8168C113.361 35.5947 113.172 35.424 112.93 35.3047C112.688 35.1821 112.41 35.1207 112.095 35.1207C111.773 35.1207 111.49 35.1821 111.245 35.3047C111.003 35.424 110.814 35.5947 110.678 35.8168C110.546 36.0355 110.481 36.2907 110.484 36.5824C110.481 36.8774 110.547 37.1375 110.683 37.3629C110.822 37.585 111.013 37.7607 111.255 37.8899C111.5 38.0159 111.78 38.0788 112.095 38.0788ZM122.117 42.0909V41.554C122.117 41.1596 122.2 40.7966 122.365 40.4652C122.534 40.1338 122.78 39.867 123.101 39.6648C123.423 39.4626 123.812 39.3615 124.269 39.3615C124.74 39.3615 125.134 39.4626 125.453 39.6648C125.771 39.8636 126.011 40.1288 126.173 40.4602C126.339 40.7917 126.422 41.1562 126.422 41.554V42.0909C126.422 42.4853 126.339 42.8482 126.173 43.1797C126.008 43.5111 125.764 43.7779 125.443 43.9801C125.124 44.1823 124.733 44.2834 124.269 44.2834C123.805 44.2834 123.413 44.1823 123.091 43.9801C122.77 43.7779 122.526 43.5111 122.36 43.1797C122.198 42.8482 122.117 42.4853 122.117 42.0909ZM123.414 41.554V42.0909C123.414 42.3527 123.477 42.593 123.603 42.8118C123.729 43.0305 123.951 43.1399 124.269 43.1399C124.591 43.1399 124.811 43.0322 124.931 42.8168C125.053 42.598 125.115 42.3561 125.115 42.0909V41.554C125.115 41.2888 125.057 41.0469 124.941 40.8281C124.825 40.6061 124.601 40.495 124.269 40.495C123.958 40.495 123.737 40.6061 123.608 40.8281C123.479 41.0469 123.414 41.2888 123.414 41.554ZM116.941 36.2642V35.7273C116.941 35.3295 117.026 34.965 117.195 34.6335C117.364 34.3021 117.609 34.0369 117.931 33.8381C118.252 33.6359 118.642 33.5348 119.099 33.5348C119.566 33.5348 119.959 33.6359 120.277 33.8381C120.599 34.0369 120.841 34.3021 121.003 34.6335C121.165 34.965 121.247 35.3295 121.247 35.7273V36.2642C121.247 36.6619 121.164 37.0265 120.998 37.358C120.836 37.6861 120.594 37.9496 120.272 38.1484C119.951 38.3473 119.56 38.4467 119.099 38.4467C118.632 38.4467 118.237 38.3473 117.916 38.1484C117.597 37.9496 117.356 37.6844 117.19 37.353C117.024 37.0215 116.941 36.6586 116.941 36.2642ZM118.249 35.7273V36.2642C118.249 36.5294 118.31 36.7713 118.433 36.9901C118.559 37.2055 118.781 37.3132 119.099 37.3132C119.417 37.3132 119.636 37.2055 119.755 36.9901C119.878 36.7713 119.939 36.5294 119.939 36.2642V35.7273C119.939 35.4621 119.881 35.2202 119.765 35.0014C119.649 34.7794 119.427 34.6683 119.099 34.6683C118.784 34.6683 118.564 34.7794 118.438 35.0014C118.312 35.2235 118.249 35.4654 118.249 35.7273ZM117.508 44L124.508 33.8182H125.751L118.751 44H117.508Z" fill="#537AEF"/>
</g>
<defs>
<linearGradient id="paint0_linear_1128_18901" x1="141" y1="80.5" x2="141" y2="214" gradientUnits="userSpaceOnUse">
<stop stop-color="#537AEF" stop-opacity="0.4"/>
<stop offset="0.813634" stop-color="#537AEF" stop-opacity="0"/>
</linearGradient>
<clipPath id="clip0_1128_18901">
<rect x="0.666626" width="330.667" height="220" rx="16" fill="white"/>
</clipPath>
</defs>
</svg>
