<svg width="363" height="284" viewBox="0 0 363 284" fill="none" xmlns="http://www.w3.org/2000/svg">
<g filter="url(#filter0_d_1128_18921)">
<rect x="16.3334" y="16" width="330.667" height="220" rx="16" fill="#8C57D1" fill-opacity="0.1" shape-rendering="crispEdges"/>
<path d="M96.3337 126C96.3337 127.473 97.5276 128.667 99.0004 128.667C100.473 128.667 101.667 127.473 101.667 126C101.667 124.527 100.473 123.333 99.0004 123.333C97.5276 123.333 96.3337 124.527 96.3337 126ZM261.834 126C261.834 127.473 263.028 128.667 264.5 128.667C265.973 128.667 267.167 127.473 267.167 126C267.167 124.527 265.973 123.333 264.5 123.333C263.028 123.333 261.834 124.527 261.834 126ZM99.0004 126.5H264.5V125.5H99.0004V126.5Z" fill="#8C57D1" fill-opacity="0.2"/>
<path d="M110.334 188C110.334 189.473 111.528 190.667 113 190.667C114.473 190.667 115.667 189.473 115.667 188C115.667 186.527 114.473 185.333 113 185.333C111.528 185.333 110.334 186.527 110.334 188ZM110.334 66C110.334 67.4728 111.528 68.6667 113 68.6667C114.473 68.6667 115.667 67.4728 115.667 66C115.667 64.5272 114.473 63.3333 113 63.3333C111.528 63.3333 110.334 64.5272 110.334 66ZM113 188.5H133V187.5H113V188.5ZM147.5 174V80H146.5V174H147.5ZM133 65.5H113V66.5H133V65.5ZM147.5 80C147.5 71.9919 141.008 65.5 133 65.5V66.5C140.456 66.5 146.5 72.5442 146.5 80H147.5ZM133 188.5C141.008 188.5 147.5 182.008 147.5 174H146.5C146.5 181.456 140.456 187.5 133 187.5V188.5Z" fill="#8C57D1" fill-opacity="0.2"/>
<path d="M250.667 188C250.667 189.473 249.473 190.667 248 190.667C246.528 190.667 245.334 189.473 245.334 188C245.334 186.527 246.528 185.333 248 185.333C249.473 185.333 250.667 186.527 250.667 188ZM250.667 66C250.667 67.4728 249.473 68.6667 248 68.6667C246.528 68.6667 245.334 67.4728 245.334 66C245.334 64.5272 246.528 63.3333 248 63.3333C249.473 63.3333 250.667 64.5272 250.667 66ZM248 188.5H228V187.5H248V188.5ZM213.5 174V80H214.5V174H213.5ZM228 65.5H248V66.5H228V65.5ZM213.5 80C213.5 71.9919 219.992 65.5 228 65.5V66.5C220.545 66.5 214.5 72.5442 214.5 80H213.5ZM228 188.5C219.992 188.5 213.5 182.008 213.5 174H214.5C214.5 181.456 220.545 187.5 228 187.5V188.5Z" fill="#8C57D1" fill-opacity="0.2"/>
<path d="M129 87.2061C129 82.0461 132.299 77.4637 137.192 75.8263L181.5 61L225.808 75.8263C230.702 77.4637 234 82.0461 234 87.2061V123.72C234 138.526 227.439 152.57 216.082 162.07L181.5 191L146.918 162.07C135.562 152.57 129 138.526 129 123.72V87.2061Z" fill="#8C57D1"/>
<mask id="mask0_1128_18921" style="mask-type:alpha" maskUnits="userSpaceOnUse" x="129" y="61" width="106" height="130">
<path d="M129 87.2061C129 82.0461 132.299 77.4637 137.192 75.8263L181.5 61L225.808 75.8263C230.702 77.4637 234 82.0461 234 87.2061V123.72C234 138.526 227.439 152.57 216.082 162.07L181.5 191L146.918 162.07C135.562 152.57 129 138.526 129 123.72V87.2061Z" fill="#8C57D1"/>
</mask>
<g mask="url(#mask0_1128_18921)">
<rect x="182" y="45" width="82" height="153" fill="url(#paint0_linear_1128_18921)"/>
</g>
<path d="M156 145.64H208V93.64H156V145.64Z" fill="white"/>
<circle cx="90.0004" cy="191" r="20" fill="#8C57D1" fill-opacity="0.2"/>
<circle cx="20" cy="20" r="20" transform="matrix(-1 0 0 1 293 171)" fill="#8C57D1" fill-opacity="0.2"/>
<circle cx="90.0004" cy="61" r="20" fill="#8C57D1" fill-opacity="0.2"/>
<circle cx="20" cy="20" r="20" transform="matrix(-1 0 0 1 293 41)" fill="#8C57D1" fill-opacity="0.2"/>
<circle cx="68.0004" cy="126" r="20" fill="#8C57D1" fill-opacity="0.2"/>
<circle cx="20" cy="20" r="20" transform="matrix(-1 0 0 1 315 106)" fill="#8C57D1" fill-opacity="0.2"/>
</g>
<defs>
<filter id="filter0_d_1128_18921" x="-19.6666" y="-8" width="402.667" height="292" filterUnits="userSpaceOnUse" color-interpolation-filters="sRGB">
<feFlood flood-opacity="0" result="BackgroundImageFix"/>
<feColorMatrix in="SourceAlpha" type="matrix" values="0 0 0 0 0 0 0 0 0 0 0 0 0 0 0 0 0 0 127 0" result="hardAlpha"/>
<feOffset dy="12"/>
<feGaussianBlur stdDeviation="18"/>
<feComposite in2="hardAlpha" operator="out"/>
<feColorMatrix type="matrix" values="0 0 0 0 0.647683 0 0 0 0 0.693705 0 0 0 0 0.785748 0 0 0 0.1 0"/>
<feBlend mode="normal" in2="BackgroundImageFix" result="effect1_dropShadow_1128_18921"/>
<feBlend mode="normal" in="SourceGraphic" in2="effect1_dropShadow_1128_18921" result="shape"/>
</filter>
<linearGradient id="paint0_linear_1128_18921" x1="223" y1="45" x2="223" y2="198" gradientUnits="userSpaceOnUse">
<stop stop-color="white" stop-opacity="0.06"/>
<stop offset="1" stop-color="white" stop-opacity="0.4"/>
</linearGradient>
</defs>
</svg>
