<svg width="332" height="220" viewBox="0 0 332 220" fill="none" xmlns="http://www.w3.org/2000/svg">
<g clip-path="url(#clip0_1139_18905)">
<rect x="0.666626" width="330.667" height="220" rx="16" fill="#EFF2FF"/>
<circle cx="166" cy="108" r="153" fill="url(#paint0_radial_1139_18905)"/>
<path d="M111.5 80L147 98" stroke="#537AEF" stroke-opacity="0.1"/>
<path d="M45 42L82 61" stroke="#537AEF" stroke-opacity="0.1"/>
<path d="M221.5 80L186 98" stroke="#537AEF" stroke-opacity="0.1"/>
<path d="M111 137L147 120" stroke="#537AEF" stroke-opacity="0.1"/>
<path d="M44 173L81 155" stroke="#537AEF" stroke-opacity="0.1"/>
<path d="M30 166L30 126" stroke="#537AEF" stroke-opacity="0.1"/>
<path d="M30 90L30 50" stroke="#537AEF" stroke-opacity="0.1"/>
<path d="M303 166L303 126" stroke="#537AEF" stroke-opacity="0.1"/>
<path d="M237 129L237 89" stroke="#537AEF" stroke-opacity="0.1"/>
<path d="M303 90L303 50" stroke="#537AEF" stroke-opacity="0.1"/>
<path d="M30 90L30 50" stroke="#537AEF" stroke-opacity="0.1"/>
<path d="M289 42L252 61" stroke="#537AEF" stroke-opacity="0.1"/>
<path d="M290 173L253 155" stroke="#537AEF" stroke-opacity="0.1"/>
<path d="M221 138.6L184 121.6" stroke="#537AEF" stroke-opacity="0.1"/>
<path d="M48 108H144" stroke="#537AEF" stroke-opacity="0.1"/>
<path d="M189 108H285" stroke="#537AEF" stroke-opacity="0.1"/>
<g filter="url(#filter0_d_1139_18905)">
<rect x="141" y="83" width="50" height="50" rx="25" fill="#537AEF" shape-rendering="crispEdges"/>
<rect x="141.5" y="83.5" width="49" height="49" rx="24.5" stroke="white" stroke-opacity="0.3" shape-rendering="crispEdges"/>
<g filter="url(#filter1_d_1139_18905)">
<path d="M170.925 106.933H168.35V100.933C168.35 99.5333 167.592 99.25 166.667 100.3L166 101.058L160.358 107.475C159.583 108.35 159.908 109.067 161.075 109.067H163.65V115.067C163.65 116.467 164.408 116.75 165.333 115.7L166 114.942L171.642 108.525C172.417 107.65 172.092 106.933 170.925 106.933Z" fill="white"/>
</g>
</g>
<rect x="12" y="13" width="38" height="38" rx="19" fill="#DDE4FC"/>
<path d="M33.2167 26.2891C32.9775 26.05 32.5633 26.2133 32.5633 26.5458V28.5816C32.5633 29.4333 33.2867 30.1391 34.1675 30.1391C34.7217 30.145 35.4917 30.145 36.1508 30.145C36.4833 30.145 36.6583 29.7541 36.425 29.5208C35.585 28.675 34.08 27.1525 33.2167 26.2891Z" fill="#537AEF" fill-opacity="0.8"/>
<path d="M35.9583 30.9442H34.2725C32.89 30.9442 31.7642 29.8184 31.7642 28.4359V26.75C31.7642 26.4292 31.5017 26.1667 31.1808 26.1667H28.7075C26.9108 26.1667 25.4583 27.3334 25.4583 29.4159V34.5842C25.4583 36.6667 26.9108 37.8334 28.7075 37.8334H33.2925C35.0892 37.8334 36.5417 36.6667 36.5417 34.5842V31.5275C36.5417 31.2067 36.2792 30.9442 35.9583 30.9442ZM30.7083 35.3542H28.375C28.1358 35.3542 27.9375 35.1559 27.9375 34.9167C27.9375 34.6775 28.1358 34.4792 28.375 34.4792H30.7083C30.9475 34.4792 31.1458 34.6775 31.1458 34.9167C31.1458 35.1559 30.9475 35.3542 30.7083 35.3542ZM31.875 33.0209H28.375C28.1358 33.0209 27.9375 32.8225 27.9375 32.5834C27.9375 32.3442 28.1358 32.1459 28.375 32.1459H31.875C32.1142 32.1459 32.3125 32.3442 32.3125 32.5834C32.3125 32.8225 32.1142 33.0209 31.875 33.0209Z" fill="#537AEF" fill-opacity="0.8"/>
<rect x="12" y="89" width="38" height="38" rx="19" fill="#DDE4FC"/>
<path d="M33.2167 102.289C32.9775 102.05 32.5633 102.213 32.5633 102.546V104.582C32.5633 105.433 33.2867 106.139 34.1675 106.139C34.7217 106.145 35.4917 106.145 36.1508 106.145C36.4833 106.145 36.6583 105.754 36.425 105.521C35.585 104.675 34.08 103.152 33.2167 102.289Z" fill="#537AEF" fill-opacity="0.8"/>
<path d="M35.9583 106.944H34.2725C32.89 106.944 31.7642 105.818 31.7642 104.436V102.75C31.7642 102.429 31.5017 102.167 31.1808 102.167H28.7075C26.9108 102.167 25.4583 103.333 25.4583 105.416V110.584C25.4583 112.667 26.9108 113.833 28.7075 113.833H33.2925C35.0892 113.833 36.5417 112.667 36.5417 110.584V107.528C36.5417 107.207 36.2792 106.944 35.9583 106.944ZM30.7083 111.354H28.375C28.1358 111.354 27.9375 111.156 27.9375 110.917C27.9375 110.678 28.1358 110.479 28.375 110.479H30.7083C30.9475 110.479 31.1458 110.678 31.1458 110.917C31.1458 111.156 30.9475 111.354 30.7083 111.354ZM31.875 109.021H28.375C28.1358 109.021 27.9375 108.823 27.9375 108.583C27.9375 108.344 28.1358 108.146 28.375 108.146H31.875C32.1142 108.146 32.3125 108.344 32.3125 108.583C32.3125 108.823 32.1142 109.021 31.875 109.021Z" fill="#537AEF" fill-opacity="0.8"/>
<rect x="12" y="165" width="38" height="38" rx="19" fill="#DDE4FC"/>
<path d="M33.2167 178.289C32.9775 178.05 32.5633 178.213 32.5633 178.546V180.582C32.5633 181.433 33.2867 182.139 34.1675 182.139C34.7217 182.145 35.4917 182.145 36.1508 182.145C36.4833 182.145 36.6583 181.754 36.425 181.521C35.585 180.675 34.08 179.153 33.2167 178.289Z" fill="#537AEF" fill-opacity="0.8"/>
<path d="M35.9583 182.944H34.2725C32.89 182.944 31.7642 181.818 31.7642 180.436V178.75C31.7642 178.429 31.5017 178.167 31.1808 178.167H28.7075C26.9108 178.167 25.4583 179.333 25.4583 181.416V186.584C25.4583 188.667 26.9108 189.833 28.7075 189.833H33.2925C35.0892 189.833 36.5417 188.667 36.5417 186.584V183.527C36.5417 183.207 36.2792 182.944 35.9583 182.944ZM30.7083 187.354H28.375C28.1358 187.354 27.9375 187.156 27.9375 186.917C27.9375 186.677 28.1358 186.479 28.375 186.479H30.7083C30.9475 186.479 31.1458 186.677 31.1458 186.917C31.1458 187.156 30.9475 187.354 30.7083 187.354ZM31.875 185.021H28.375C28.1358 185.021 27.9375 184.822 27.9375 184.583C27.9375 184.344 28.1358 184.146 28.375 184.146H31.875C32.1142 184.146 32.3125 184.344 32.3125 184.583C32.3125 184.822 32.1142 185.021 31.875 185.021Z" fill="#537AEF" fill-opacity="0.8"/>
<rect x="285" y="14" width="38" height="38" rx="19" fill="#DDE4FC"/>
<path d="M306.217 27.2891C305.977 27.05 305.563 27.2133 305.563 27.5458V29.5816C305.563 30.4333 306.287 31.1391 307.167 31.1391C307.722 31.145 308.492 31.145 309.151 31.145C309.483 31.145 309.658 30.7541 309.425 30.5208C308.585 29.675 307.08 28.1525 306.217 27.2891Z" fill="#537AEF" fill-opacity="0.8"/>
<path d="M308.958 31.9442H307.273C305.89 31.9442 304.764 30.8184 304.764 29.4359V27.75C304.764 27.4292 304.502 27.1667 304.181 27.1667H301.708C299.911 27.1667 298.458 28.3334 298.458 30.4159V35.5842C298.458 37.6667 299.911 38.8334 301.708 38.8334H306.293C308.089 38.8334 309.542 37.6667 309.542 35.5842V32.5275C309.542 32.2067 309.279 31.9442 308.958 31.9442ZM303.708 36.3542H301.375C301.136 36.3542 300.938 36.1559 300.938 35.9167C300.938 35.6775 301.136 35.4792 301.375 35.4792H303.708C303.948 35.4792 304.146 35.6775 304.146 35.9167C304.146 36.1559 303.948 36.3542 303.708 36.3542ZM304.875 34.0209H301.375C301.136 34.0209 300.938 33.8225 300.938 33.5834C300.938 33.3442 301.136 33.1459 301.375 33.1459H304.875C305.114 33.1459 305.313 33.3442 305.313 33.5834C305.313 33.8225 305.114 34.0209 304.875 34.0209Z" fill="#537AEF" fill-opacity="0.8"/>
<rect x="285" y="89" width="38" height="38" rx="19" fill="#DDE4FC"/>
<path d="M306.217 102.289C305.977 102.05 305.563 102.213 305.563 102.546V104.582C305.563 105.433 306.287 106.139 307.167 106.139C307.722 106.145 308.492 106.145 309.151 106.145C309.483 106.145 309.658 105.754 309.425 105.521C308.585 104.675 307.08 103.152 306.217 102.289Z" fill="#537AEF" fill-opacity="0.8"/>
<path d="M308.958 106.944H307.273C305.89 106.944 304.764 105.818 304.764 104.436V102.75C304.764 102.429 304.502 102.167 304.181 102.167H301.708C299.911 102.167 298.458 103.333 298.458 105.416V110.584C298.458 112.667 299.911 113.833 301.708 113.833H306.293C308.089 113.833 309.542 112.667 309.542 110.584V107.528C309.542 107.207 309.279 106.944 308.958 106.944ZM303.708 111.354H301.375C301.136 111.354 300.938 111.156 300.938 110.917C300.938 110.678 301.136 110.479 301.375 110.479H303.708C303.948 110.479 304.146 110.678 304.146 110.917C304.146 111.156 303.948 111.354 303.708 111.354ZM304.875 109.021H301.375C301.136 109.021 300.938 108.823 300.938 108.583C300.938 108.344 301.136 108.146 301.375 108.146H304.875C305.114 108.146 305.313 108.344 305.313 108.583C305.313 108.823 305.114 109.021 304.875 109.021Z" fill="#537AEF" fill-opacity="0.8"/>
<rect x="285" y="165" width="38" height="38" rx="19" fill="#DDE4FC"/>
<path d="M306.217 178.289C305.977 178.05 305.563 178.213 305.563 178.546V180.582C305.563 181.433 306.287 182.139 307.167 182.139C307.722 182.145 308.492 182.145 309.151 182.145C309.483 182.145 309.658 181.754 309.425 181.521C308.585 180.675 307.08 179.153 306.217 178.289Z" fill="#537AEF" fill-opacity="0.8"/>
<path d="M308.958 182.944H307.273C305.89 182.944 304.764 181.818 304.764 180.436V178.75C304.764 178.429 304.502 178.167 304.181 178.167H301.708C299.911 178.167 298.458 179.333 298.458 181.416V186.584C298.458 188.667 299.911 189.833 301.708 189.833H306.293C308.089 189.833 309.542 188.667 309.542 186.584V183.527C309.542 183.207 309.279 182.944 308.958 182.944ZM303.708 187.354H301.375C301.136 187.354 300.938 187.156 300.938 186.917C300.938 186.677 301.136 186.479 301.375 186.479H303.708C303.948 186.479 304.146 186.677 304.146 186.917C304.146 187.156 303.948 187.354 303.708 187.354ZM304.875 185.021H301.375C301.136 185.021 300.938 184.822 300.938 184.583C300.938 184.344 301.136 184.146 301.375 184.146H304.875C305.114 184.146 305.313 184.344 305.313 184.583C305.313 184.822 305.114 185.021 304.875 185.021Z" fill="#537AEF" fill-opacity="0.8"/>
<rect x="219" y="53" width="38" height="38" rx="19" fill="#DDE4FC"/>
<path d="M240.217 66.2891C239.977 66.05 239.563 66.2133 239.563 66.5458V68.5816C239.563 69.4333 240.287 70.1391 241.167 70.1391C241.722 70.145 242.492 70.145 243.151 70.145C243.483 70.145 243.658 69.7541 243.425 69.5208C242.585 68.675 241.08 67.1525 240.217 66.2891Z" fill="#537AEF" fill-opacity="0.8"/>
<path d="M242.958 70.9442H241.273C239.89 70.9442 238.764 69.8184 238.764 68.4359V66.75C238.764 66.4292 238.502 66.1667 238.181 66.1667H235.708C233.911 66.1667 232.458 67.3334 232.458 69.4159V74.5842C232.458 76.6667 233.911 77.8334 235.708 77.8334H240.293C242.089 77.8334 243.542 76.6667 243.542 74.5842V71.5275C243.542 71.2067 243.279 70.9442 242.958 70.9442ZM237.708 75.3542H235.375C235.136 75.3542 234.938 75.1559 234.938 74.9167C234.938 74.6775 235.136 74.4792 235.375 74.4792H237.708C237.948 74.4792 238.146 74.6775 238.146 74.9167C238.146 75.1559 237.948 75.3542 237.708 75.3542ZM238.875 73.0209H235.375C235.136 73.0209 234.938 72.8225 234.938 72.5834C234.938 72.3442 235.136 72.1459 235.375 72.1459H238.875C239.114 72.1459 239.313 72.3442 239.313 72.5834C239.313 72.8225 239.114 73.0209 238.875 73.0209Z" fill="#537AEF" fill-opacity="0.8"/>
<rect x="219" y="129" width="38" height="38" rx="19" fill="#DDE4FC"/>
<path d="M240.217 142.289C239.977 142.05 239.563 142.213 239.563 142.546V144.582C239.563 145.433 240.287 146.139 241.167 146.139C241.722 146.145 242.492 146.145 243.151 146.145C243.483 146.145 243.658 145.754 243.425 145.521C242.585 144.675 241.08 143.152 240.217 142.289Z" fill="#537AEF" fill-opacity="0.8"/>
<path d="M242.958 146.944H241.273C239.89 146.944 238.764 145.818 238.764 144.436V142.75C238.764 142.429 238.502 142.167 238.181 142.167H235.708C233.911 142.167 232.458 143.333 232.458 145.416V150.584C232.458 152.667 233.911 153.833 235.708 153.833H240.293C242.089 153.833 243.542 152.667 243.542 150.584V147.528C243.542 147.207 243.279 146.944 242.958 146.944ZM237.708 151.354H235.375C235.136 151.354 234.938 151.156 234.938 150.917C234.938 150.678 235.136 150.479 235.375 150.479H237.708C237.948 150.479 238.146 150.678 238.146 150.917C238.146 151.156 237.948 151.354 237.708 151.354ZM238.875 149.021H235.375C235.136 149.021 234.938 148.823 234.938 148.583C234.938 148.344 235.136 148.146 235.375 148.146H238.875C239.114 148.146 239.313 148.344 239.313 148.583C239.313 148.823 239.114 149.021 238.875 149.021Z" fill="#537AEF" fill-opacity="0.8"/>
<path d="M96 129L96 89" stroke="#537AEF" stroke-opacity="0.1"/>
<rect x="78" y="53" width="38" height="38" rx="19" fill="#DDE4FC"/>
<path d="M99.2167 66.2891C98.9775 66.05 98.5633 66.2133 98.5633 66.5458V68.5816C98.5633 69.4333 99.2867 70.1391 100.168 70.1391C100.722 70.145 101.492 70.145 102.151 70.145C102.483 70.145 102.658 69.7541 102.425 69.5208C101.585 68.675 100.08 67.1525 99.2167 66.2891Z" fill="#537AEF" fill-opacity="0.8"/>
<path d="M101.958 70.9442H100.272C98.89 70.9442 97.7642 69.8184 97.7642 68.4359V66.75C97.7642 66.4292 97.5017 66.1667 97.1808 66.1667H94.7075C92.9108 66.1667 91.4583 67.3334 91.4583 69.4159V74.5842C91.4583 76.6667 92.9108 77.8334 94.7075 77.8334H99.2925C101.089 77.8334 102.542 76.6667 102.542 74.5842V71.5275C102.542 71.2067 102.279 70.9442 101.958 70.9442ZM96.7083 75.3542H94.375C94.1358 75.3542 93.9375 75.1559 93.9375 74.9167C93.9375 74.6775 94.1358 74.4792 94.375 74.4792H96.7083C96.9475 74.4792 97.1458 74.6775 97.1458 74.9167C97.1458 75.1559 96.9475 75.3542 96.7083 75.3542ZM97.875 73.0209H94.375C94.1358 73.0209 93.9375 72.8225 93.9375 72.5834C93.9375 72.3442 94.1358 72.1459 94.375 72.1459H97.875C98.1142 72.1459 98.3125 72.3442 98.3125 72.5834C98.3125 72.8225 98.1142 73.0209 97.875 73.0209Z" fill="#537AEF" fill-opacity="0.8"/>
<rect x="78" y="129" width="38" height="38" rx="19" fill="#DDE4FC"/>
<path d="M99.2167 142.289C98.9775 142.05 98.5633 142.213 98.5633 142.546V144.582C98.5633 145.433 99.2867 146.139 100.168 146.139C100.722 146.145 101.492 146.145 102.151 146.145C102.483 146.145 102.658 145.754 102.425 145.521C101.585 144.675 100.08 143.152 99.2167 142.289Z" fill="#537AEF" fill-opacity="0.8"/>
<path d="M101.958 146.944H100.272C98.89 146.944 97.7642 145.818 97.7642 144.436V142.75C97.7642 142.429 97.5017 142.167 97.1808 142.167H94.7075C92.9108 142.167 91.4583 143.333 91.4583 145.416V150.584C91.4583 152.667 92.9108 153.833 94.7075 153.833H99.2925C101.089 153.833 102.542 152.667 102.542 150.584V147.528C102.542 147.207 102.279 146.944 101.958 146.944ZM96.7083 151.354H94.375C94.1358 151.354 93.9375 151.156 93.9375 150.917C93.9375 150.678 94.1358 150.479 94.375 150.479H96.7083C96.9475 150.479 97.1458 150.678 97.1458 150.917C97.1458 151.156 96.9475 151.354 96.7083 151.354ZM97.875 149.021H94.375C94.1358 149.021 93.9375 148.823 93.9375 148.583C93.9375 148.344 94.1358 148.146 94.375 148.146H97.875C98.1142 148.146 98.3125 148.344 98.3125 148.583C98.3125 148.823 98.1142 149.021 97.875 149.021Z" fill="#537AEF" fill-opacity="0.8"/>
</g>
<defs>
<filter id="filter0_d_1139_18905" x="111" y="53" width="110" height="110" filterUnits="userSpaceOnUse" color-interpolation-filters="sRGB">
<feFlood flood-opacity="0" result="BackgroundImageFix"/>
<feColorMatrix in="SourceAlpha" type="matrix" values="0 0 0 0 0 0 0 0 0 0 0 0 0 0 0 0 0 0 127 0" result="hardAlpha"/>
<feOffset/>
<feGaussianBlur stdDeviation="15"/>
<feComposite in2="hardAlpha" operator="out"/>
<feColorMatrix type="matrix" values="0 0 0 0 0.32549 0 0 0 0 0.478431 0 0 0 0 0.937255 0 0 0 0.5 0"/>
<feBlend mode="normal" in2="BackgroundImageFix" result="effect1_dropShadow_1139_18905"/>
<feBlend mode="normal" in="SourceGraphic" in2="effect1_dropShadow_1139_18905" result="shape"/>
</filter>
<filter id="filter1_d_1139_18905" x="146" y="88" width="40" height="40" filterUnits="userSpaceOnUse" color-interpolation-filters="sRGB">
<feFlood flood-opacity="0" result="BackgroundImageFix"/>
<feColorMatrix in="SourceAlpha" type="matrix" values="0 0 0 0 0 0 0 0 0 0 0 0 0 0 0 0 0 0 127 0" result="hardAlpha"/>
<feOffset/>
<feGaussianBlur stdDeviation="5"/>
<feComposite in2="hardAlpha" operator="out"/>
<feColorMatrix type="matrix" values="0 0 0 0 0 0 0 0 0 0 0 0 0 0 0 0 0 0 0.1 0"/>
<feBlend mode="normal" in2="BackgroundImageFix" result="effect1_dropShadow_1139_18905"/>
<feBlend mode="normal" in="SourceGraphic" in2="effect1_dropShadow_1139_18905" result="shape"/>
</filter>
<radialGradient id="paint0_radial_1139_18905" cx="0" cy="0" r="1" gradientUnits="userSpaceOnUse" gradientTransform="translate(166 108) rotate(90) scale(153)">
<stop stop-color="#537AEF" stop-opacity="0.1"/>
<stop offset="1" stop-color="#537AEF" stop-opacity="0"/>
</radialGradient>
<clipPath id="clip0_1139_18905">
<rect x="0.666626" width="330.667" height="220" rx="16" fill="white"/>
</clipPath>
</defs>
</svg>
