<?xml version="1.0" standalone="no"?>
<!DOCTYPE svg PUBLIC "-//W3C//DTD SVG 20010904//EN"
 "http://www.w3.org/TR/2001/REC-SVG-20010904/DTD/svg10.dtd">
<svg version="1.0" xmlns="http://www.w3.org/2000/svg"
 width="331.000000pt" height="220.000000pt" viewBox="0 0 331.000000 220.000000"
 preserveAspectRatio="xMidYMid meet">
<metadata>
Created by potrace 1.16, written by Peter Selinger 2001-2019
</metadata>
<g transform="translate(0.000000,220.000000) scale(0.100000,-0.100000)"
fill="#000000" stroke="none">
<path d="M227 1923 c-4 -3 -7 -15 -7 -25 0 -25 -26 -53 -33 -35 -3 7 -6 5 -6
-5 -1 -11 6 -18 18 -18 11 0 18 -6 17 -14 -3 -21 -27 -47 -37 -40 -5 3 -9 -2
-9 -10 0 -9 8 -16 18 -16 10 0 24 -6 31 -12 11 -11 13 -10 9 3 -5 12 0 14 24
11 27 -4 29 -7 24 -33 -4 -21 -2 -29 9 -29 8 0 17 14 21 34 4 22 11 33 19 30
7 -3 15 2 18 10 4 10 1 16 -8 16 -9 0 -15 10 -15 25 0 18 5 25 20 25 11 0 20
7 20 15 0 8 -7 15 -16 15 -13 0 -15 7 -10 30 4 23 2 30 -9 30 -9 0 -18 -13
-21 -30 -5 -24 -12 -30 -31 -30 -22 0 -25 4 -21 30 4 28 -9 40 -25 23z"/>
<path d="M3238 1477 c-31 -24 -64 -51 -73 -60 -9 -9 -19 -17 -23 -17 -4 0 -27
-18 -51 -40 -24 -22 -52 -42 -62 -45 -10 -4 -43 10 -82 34 -36 22 -67 38 -70
35 -2 -2 -9 2 -15 9 -12 14 -72 12 -72 -2 0 -4 -13 -6 -30 -3 -18 2 -30 0 -30
-7 0 -6 -6 -8 -13 -5 -7 2 -46 -3 -87 -11 -41 -9 -88 -18 -105 -20 -21 -3 -48
-23 -92 -70 -61 -64 -62 -65 -155 -87 -51 -13 -95 -26 -96 -30 -2 -5 -7 -6
-12 -3 -4 3 -55 -6 -112 -20 -87 -21 -133 -26 -275 -28 -167 -2 -170 -2 -205
-29 -20 -15 -38 -24 -42 -21 -3 4 -6 2 -6 -4 0 -5 -6 -10 -14 -10 -18 0 -86
-42 -86 -54 0 -5 2 -9 5 -9 10 0 141 75 147 84 4 6 8 7 8 1 0 -5 5 -4 12 3 8
8 60 12 167 12 105 0 176 5 216 15 78 20 82 21 198 47 53 12 97 25 97 30 0 5
4 6 10 3 5 -3 29 -1 52 5 41 11 62 29 132 111 23 27 46 37 108 45 20 3 70 11
110 20 132 27 152 27 191 4 20 -12 41 -19 47 -15 6 4 9 1 8 -5 -2 -6 15 -22
37 -35 l41 -25 52 35 c29 20 52 40 52 45 0 6 5 10 11 10 6 0 45 28 87 62 42
34 79 63 81 64 1 2 1 8 -1 14 -2 6 -29 -9 -60 -33z"/>
<path d="M1122 895 c-109 -33 -115 -36 -193 -106 -44 -40 -83 -78 -87 -85 -7
-12 -65 -19 -267 -30 -123 -7 -162 -20 -150 -51 2 -8 1 -12 -4 -9 -8 5 -109
-129 -112 -149 -1 -5 -9 -15 -18 -21 -18 -13 -72 -24 -66 -15 5 9 -216 64
-223 56 -12 -12 18 -23 141 -53 70 -18 131 -32 135 -32 4 0 46 54 92 120 47
66 92 122 100 124 8 3 65 8 125 11 61 2 141 8 179 11 l70 6 85 84 c47 47 97
87 111 91 14 3 30 8 35 12 6 3 16 6 23 7 8 2 21 6 30 10 9 4 24 8 32 10 8 1
22 4 30 7 8 2 32 7 53 12 40 8 51 26 15 24 -13 -1 -74 -16 -136 -34z"/>
</g>
</svg>
