<svg width="363" height="284" viewBox="0 0 363 284" fill="none" xmlns="http://www.w3.org/2000/svg">
<g filter="url(#filter0_di_1139_18905)">
<g clip-path="url(#clip0_1139_18905)">
<rect x="15.6666" y="16" width="330.667" height="220" rx="16" fill="#EFF2FF"/>
<circle cx="181" cy="124" r="153" fill="url(#paint0_radial_1139_18905)"/>
<path d="M126.5 96L162 114" stroke="#537AEF" stroke-opacity="0.1"/>
<path d="M60 58L97 77" stroke="#537AEF" stroke-opacity="0.1"/>
<path d="M236.5 96L201 114" stroke="#537AEF" stroke-opacity="0.1"/>
<path d="M126 153L162 136" stroke="#537AEF" stroke-opacity="0.1"/>
<path d="M59 189L96 171" stroke="#537AEF" stroke-opacity="0.1"/>
<path d="M45 182L45 142" stroke="#537AEF" stroke-opacity="0.1"/>
<path d="M45 106L45 66" stroke="#537AEF" stroke-opacity="0.1"/>
<path d="M318 182L318 142" stroke="#537AEF" stroke-opacity="0.1"/>
<path d="M252 145L252 105" stroke="#537AEF" stroke-opacity="0.1"/>
<path d="M318 106L318 66" stroke="#537AEF" stroke-opacity="0.1"/>
<path d="M45 106L45 66" stroke="#537AEF" stroke-opacity="0.1"/>
<path d="M304 58L267 77" stroke="#537AEF" stroke-opacity="0.1"/>
<path d="M305 189L268 171" stroke="#537AEF" stroke-opacity="0.1"/>
<path d="M236 154.6L199 137.6" stroke="#537AEF" stroke-opacity="0.1"/>
<path d="M63 124H159" stroke="#537AEF" stroke-opacity="0.1"/>
<path d="M204 124H300" stroke="#537AEF" stroke-opacity="0.1"/>
<g filter="url(#filter1_d_1139_18905)">
<rect x="156" y="99" width="50" height="50" rx="25" fill="#537AEF" shape-rendering="crispEdges"/>
<rect x="156.5" y="99.5" width="49" height="49" rx="24.5" stroke="white" stroke-opacity="0.3" shape-rendering="crispEdges"/>
<g filter="url(#filter2_d_1139_18905)">
<path d="M185.925 122.933H183.35V116.933C183.35 115.533 182.592 115.25 181.667 116.3L181 117.058L175.358 123.475C174.583 124.35 174.908 125.067 176.075 125.067H178.65V131.067C178.65 132.467 179.408 132.75 180.333 131.7L181 130.942L186.642 124.525C187.417 123.65 187.092 122.933 185.925 122.933Z" fill="white"/>
</g>
</g>
<rect x="27" y="29" width="38" height="38" rx="19" fill="#DDE4FC"/>
<path d="M48.2167 42.2891C47.9775 42.05 47.5633 42.2133 47.5633 42.5458V44.5816C47.5633 45.4333 48.2867 46.1391 49.1675 46.1391C49.7217 46.145 50.4917 46.145 51.1508 46.145C51.4833 46.145 51.6583 45.7541 51.425 45.5208C50.585 44.675 49.08 43.1525 48.2167 42.2891Z" fill="#537AEF" fill-opacity="0.8"/>
<path d="M50.9583 46.9442H49.2725C47.89 46.9442 46.7642 45.8184 46.7642 44.4359V42.75C46.7642 42.4292 46.5017 42.1667 46.1808 42.1667H43.7075C41.9108 42.1667 40.4583 43.3334 40.4583 45.4159V50.5842C40.4583 52.6667 41.9108 53.8334 43.7075 53.8334H48.2925C50.0892 53.8334 51.5417 52.6667 51.5417 50.5842V47.5275C51.5417 47.2067 51.2792 46.9442 50.9583 46.9442ZM45.7083 51.3542H43.375C43.1358 51.3542 42.9375 51.1559 42.9375 50.9167C42.9375 50.6775 43.1358 50.4792 43.375 50.4792H45.7083C45.9475 50.4792 46.1458 50.6775 46.1458 50.9167C46.1458 51.1559 45.9475 51.3542 45.7083 51.3542ZM46.875 49.0209H43.375C43.1358 49.0209 42.9375 48.8225 42.9375 48.5834C42.9375 48.3442 43.1358 48.1459 43.375 48.1459H46.875C47.1142 48.1459 47.3125 48.3442 47.3125 48.5834C47.3125 48.8225 47.1142 49.0209 46.875 49.0209Z" fill="#537AEF" fill-opacity="0.8"/>
<rect x="27" y="105" width="38" height="38" rx="19" fill="#DDE4FC"/>
<path d="M48.2167 118.289C47.9775 118.05 47.5633 118.213 47.5633 118.546V120.582C47.5633 121.433 48.2867 122.139 49.1675 122.139C49.7217 122.145 50.4917 122.145 51.1508 122.145C51.4833 122.145 51.6583 121.754 51.425 121.521C50.585 120.675 49.08 119.152 48.2167 118.289Z" fill="#537AEF" fill-opacity="0.8"/>
<path d="M50.9583 122.944H49.2725C47.89 122.944 46.7642 121.818 46.7642 120.436V118.75C46.7642 118.429 46.5017 118.167 46.1808 118.167H43.7075C41.9108 118.167 40.4583 119.333 40.4583 121.416V126.584C40.4583 128.667 41.9108 129.833 43.7075 129.833H48.2925C50.0892 129.833 51.5417 128.667 51.5417 126.584V123.528C51.5417 123.207 51.2792 122.944 50.9583 122.944ZM45.7083 127.354H43.375C43.1358 127.354 42.9375 127.156 42.9375 126.917C42.9375 126.678 43.1358 126.479 43.375 126.479H45.7083C45.9475 126.479 46.1458 126.678 46.1458 126.917C46.1458 127.156 45.9475 127.354 45.7083 127.354ZM46.875 125.021H43.375C43.1358 125.021 42.9375 124.823 42.9375 124.583C42.9375 124.344 43.1358 124.146 43.375 124.146H46.875C47.1142 124.146 47.3125 124.344 47.3125 124.583C47.3125 124.823 47.1142 125.021 46.875 125.021Z" fill="#537AEF" fill-opacity="0.8"/>
<rect x="27" y="181" width="38" height="38" rx="19" fill="#DDE4FC"/>
<path d="M48.2167 194.289C47.9775 194.05 47.5633 194.213 47.5633 194.546V196.582C47.5633 197.433 48.2867 198.139 49.1675 198.139C49.7217 198.145 50.4917 198.145 51.1508 198.145C51.4833 198.145 51.6583 197.754 51.425 197.521C50.585 196.675 49.08 195.153 48.2167 194.289Z" fill="#537AEF" fill-opacity="0.8"/>
<path d="M50.9583 198.944H49.2725C47.89 198.944 46.7642 197.818 46.7642 196.436V194.75C46.7642 194.429 46.5017 194.167 46.1808 194.167H43.7075C41.9108 194.167 40.4583 195.333 40.4583 197.416V202.584C40.4583 204.667 41.9108 205.833 43.7075 205.833H48.2925C50.0892 205.833 51.5417 204.667 51.5417 202.584V199.527C51.5417 199.207 51.2792 198.944 50.9583 198.944ZM45.7083 203.354H43.375C43.1358 203.354 42.9375 203.156 42.9375 202.917C42.9375 202.677 43.1358 202.479 43.375 202.479H45.7083C45.9475 202.479 46.1458 202.677 46.1458 202.917C46.1458 203.156 45.9475 203.354 45.7083 203.354ZM46.875 201.021H43.375C43.1358 201.021 42.9375 200.822 42.9375 200.583C42.9375 200.344 43.1358 200.146 43.375 200.146H46.875C47.1142 200.146 47.3125 200.344 47.3125 200.583C47.3125 200.822 47.1142 201.021 46.875 201.021Z" fill="#537AEF" fill-opacity="0.8"/>
<rect x="300" y="30" width="38" height="38" rx="19" fill="#DDE4FC"/>
<path d="M321.217 43.2891C320.977 43.05 320.563 43.2133 320.563 43.5458V45.5816C320.563 46.4333 321.287 47.1391 322.167 47.1391C322.722 47.145 323.492 47.145 324.151 47.145C324.483 47.145 324.658 46.7541 324.425 46.5208C323.585 45.675 322.08 44.1525 321.217 43.2891Z" fill="#537AEF" fill-opacity="0.8"/>
<path d="M323.958 47.9442H322.273C320.89 47.9442 319.764 46.8184 319.764 45.4359V43.75C319.764 43.4292 319.502 43.1667 319.181 43.1667H316.708C314.911 43.1667 313.458 44.3334 313.458 46.4159V51.5842C313.458 53.6667 314.911 54.8334 316.708 54.8334H321.293C323.089 54.8334 324.542 53.6667 324.542 51.5842V48.5275C324.542 48.2067 324.279 47.9442 323.958 47.9442ZM318.708 52.3542H316.375C316.136 52.3542 315.938 52.1559 315.938 51.9167C315.938 51.6775 316.136 51.4792 316.375 51.4792H318.708C318.948 51.4792 319.146 51.6775 319.146 51.9167C319.146 52.1559 318.948 52.3542 318.708 52.3542ZM319.875 50.0209H316.375C316.136 50.0209 315.938 49.8225 315.938 49.5834C315.938 49.3442 316.136 49.1459 316.375 49.1459H319.875C320.114 49.1459 320.313 49.3442 320.313 49.5834C320.313 49.8225 320.114 50.0209 319.875 50.0209Z" fill="#537AEF" fill-opacity="0.8"/>
<rect x="300" y="105" width="38" height="38" rx="19" fill="#DDE4FC"/>
<path d="M321.217 118.289C320.977 118.05 320.563 118.213 320.563 118.546V120.582C320.563 121.433 321.287 122.139 322.167 122.139C322.722 122.145 323.492 122.145 324.151 122.145C324.483 122.145 324.658 121.754 324.425 121.521C323.585 120.675 322.08 119.152 321.217 118.289Z" fill="#537AEF" fill-opacity="0.8"/>
<path d="M323.958 122.944H322.273C320.89 122.944 319.764 121.818 319.764 120.436V118.75C319.764 118.429 319.502 118.167 319.181 118.167H316.708C314.911 118.167 313.458 119.333 313.458 121.416V126.584C313.458 128.667 314.911 129.833 316.708 129.833H321.293C323.089 129.833 324.542 128.667 324.542 126.584V123.528C324.542 123.207 324.279 122.944 323.958 122.944ZM318.708 127.354H316.375C316.136 127.354 315.938 127.156 315.938 126.917C315.938 126.678 316.136 126.479 316.375 126.479H318.708C318.948 126.479 319.146 126.678 319.146 126.917C319.146 127.156 318.948 127.354 318.708 127.354ZM319.875 125.021H316.375C316.136 125.021 315.938 124.823 315.938 124.583C315.938 124.344 316.136 124.146 316.375 124.146H319.875C320.114 124.146 320.313 124.344 320.313 124.583C320.313 124.823 320.114 125.021 319.875 125.021Z" fill="#537AEF" fill-opacity="0.8"/>
<rect x="300" y="181" width="38" height="38" rx="19" fill="#DDE4FC"/>
<path d="M321.217 194.289C320.977 194.05 320.563 194.213 320.563 194.546V196.582C320.563 197.433 321.287 198.139 322.167 198.139C322.722 198.145 323.492 198.145 324.151 198.145C324.483 198.145 324.658 197.754 324.425 197.521C323.585 196.675 322.08 195.153 321.217 194.289Z" fill="#537AEF" fill-opacity="0.8"/>
<path d="M323.958 198.944H322.273C320.89 198.944 319.764 197.818 319.764 196.436V194.75C319.764 194.429 319.502 194.167 319.181 194.167H316.708C314.911 194.167 313.458 195.333 313.458 197.416V202.584C313.458 204.667 314.911 205.833 316.708 205.833H321.293C323.089 205.833 324.542 204.667 324.542 202.584V199.527C324.542 199.207 324.279 198.944 323.958 198.944ZM318.708 203.354H316.375C316.136 203.354 315.938 203.156 315.938 202.917C315.938 202.677 316.136 202.479 316.375 202.479H318.708C318.948 202.479 319.146 202.677 319.146 202.917C319.146 203.156 318.948 203.354 318.708 203.354ZM319.875 201.021H316.375C316.136 201.021 315.938 200.822 315.938 200.583C315.938 200.344 316.136 200.146 316.375 200.146H319.875C320.114 200.146 320.313 200.344 320.313 200.583C320.313 200.822 320.114 201.021 319.875 201.021Z" fill="#537AEF" fill-opacity="0.8"/>
<rect x="234" y="69" width="38" height="38" rx="19" fill="#DDE4FC"/>
<path d="M255.217 82.2891C254.977 82.05 254.563 82.2133 254.563 82.5458V84.5816C254.563 85.4333 255.287 86.1391 256.167 86.1391C256.722 86.145 257.492 86.145 258.151 86.145C258.483 86.145 258.658 85.7541 258.425 85.5208C257.585 84.675 256.08 83.1525 255.217 82.2891Z" fill="#537AEF" fill-opacity="0.8"/>
<path d="M257.958 86.9442H256.273C254.89 86.9442 253.764 85.8184 253.764 84.4359V82.75C253.764 82.4292 253.502 82.1667 253.181 82.1667H250.708C248.911 82.1667 247.458 83.3334 247.458 85.4159V90.5842C247.458 92.6667 248.911 93.8334 250.708 93.8334H255.293C257.089 93.8334 258.542 92.6667 258.542 90.5842V87.5275C258.542 87.2067 258.279 86.9442 257.958 86.9442ZM252.708 91.3542H250.375C250.136 91.3542 249.938 91.1559 249.938 90.9167C249.938 90.6775 250.136 90.4792 250.375 90.4792H252.708C252.948 90.4792 253.146 90.6775 253.146 90.9167C253.146 91.1559 252.948 91.3542 252.708 91.3542ZM253.875 89.0209H250.375C250.136 89.0209 249.938 88.8225 249.938 88.5834C249.938 88.3442 250.136 88.1459 250.375 88.1459H253.875C254.114 88.1459 254.313 88.3442 254.313 88.5834C254.313 88.8225 254.114 89.0209 253.875 89.0209Z" fill="#537AEF" fill-opacity="0.8"/>
<rect x="234" y="145" width="38" height="38" rx="19" fill="#DDE4FC"/>
<path d="M255.217 158.289C254.977 158.05 254.563 158.213 254.563 158.546V160.582C254.563 161.433 255.287 162.139 256.167 162.139C256.722 162.145 257.492 162.145 258.151 162.145C258.483 162.145 258.658 161.754 258.425 161.521C257.585 160.675 256.08 159.152 255.217 158.289Z" fill="#537AEF" fill-opacity="0.8"/>
<path d="M257.958 162.944H256.273C254.89 162.944 253.764 161.818 253.764 160.436V158.75C253.764 158.429 253.502 158.167 253.181 158.167H250.708C248.911 158.167 247.458 159.333 247.458 161.416V166.584C247.458 168.667 248.911 169.833 250.708 169.833H255.293C257.089 169.833 258.542 168.667 258.542 166.584V163.528C258.542 163.207 258.279 162.944 257.958 162.944ZM252.708 167.354H250.375C250.136 167.354 249.938 167.156 249.938 166.917C249.938 166.678 250.136 166.479 250.375 166.479H252.708C252.948 166.479 253.146 166.678 253.146 166.917C253.146 167.156 252.948 167.354 252.708 167.354ZM253.875 165.021H250.375C250.136 165.021 249.938 164.823 249.938 164.583C249.938 164.344 250.136 164.146 250.375 164.146H253.875C254.114 164.146 254.313 164.344 254.313 164.583C254.313 164.823 254.114 165.021 253.875 165.021Z" fill="#537AEF" fill-opacity="0.8"/>
<path d="M111 145L111 105" stroke="#537AEF" stroke-opacity="0.1"/>
<rect x="93" y="69" width="38" height="38" rx="19" fill="#DDE4FC"/>
<path d="M114.217 82.2891C113.978 82.05 113.563 82.2133 113.563 82.5458V84.5816C113.563 85.4333 114.287 86.1391 115.168 86.1391C115.722 86.145 116.492 86.145 117.151 86.145C117.483 86.145 117.658 85.7541 117.425 85.5208C116.585 84.675 115.08 83.1525 114.217 82.2891Z" fill="#537AEF" fill-opacity="0.8"/>
<path d="M116.958 86.9442H115.272C113.89 86.9442 112.764 85.8184 112.764 84.4359V82.75C112.764 82.4292 112.502 82.1667 112.181 82.1667H109.707C107.911 82.1667 106.458 83.3334 106.458 85.4159V90.5842C106.458 92.6667 107.911 93.8334 109.707 93.8334H114.292C116.089 93.8334 117.542 92.6667 117.542 90.5842V87.5275C117.542 87.2067 117.279 86.9442 116.958 86.9442ZM111.708 91.3542H109.375C109.136 91.3542 108.937 91.1559 108.937 90.9167C108.937 90.6775 109.136 90.4792 109.375 90.4792H111.708C111.947 90.4792 112.146 90.6775 112.146 90.9167C112.146 91.1559 111.947 91.3542 111.708 91.3542ZM112.875 89.0209H109.375C109.136 89.0209 108.937 88.8225 108.937 88.5834C108.937 88.3442 109.136 88.1459 109.375 88.1459H112.875C113.114 88.1459 113.312 88.3442 113.312 88.5834C113.312 88.8225 113.114 89.0209 112.875 89.0209Z" fill="#537AEF" fill-opacity="0.8"/>
<rect x="93" y="145" width="38" height="38" rx="19" fill="#DDE4FC"/>
<path d="M114.217 158.289C113.978 158.05 113.563 158.213 113.563 158.546V160.582C113.563 161.433 114.287 162.139 115.168 162.139C115.722 162.145 116.492 162.145 117.151 162.145C117.483 162.145 117.658 161.754 117.425 161.521C116.585 160.675 115.08 159.152 114.217 158.289Z" fill="#537AEF" fill-opacity="0.8"/>
<path d="M116.958 162.944H115.272C113.89 162.944 112.764 161.818 112.764 160.436V158.75C112.764 158.429 112.502 158.167 112.181 158.167H109.707C107.911 158.167 106.458 159.333 106.458 161.416V166.584C106.458 168.667 107.911 169.833 109.707 169.833H114.292C116.089 169.833 117.542 168.667 117.542 166.584V163.528C117.542 163.207 117.279 162.944 116.958 162.944ZM111.708 167.354H109.375C109.136 167.354 108.937 167.156 108.937 166.917C108.937 166.678 109.136 166.479 109.375 166.479H111.708C111.947 166.479 112.146 166.678 112.146 166.917C112.146 167.156 111.947 167.354 111.708 167.354ZM112.875 165.021H109.375C109.136 165.021 108.937 164.823 108.937 164.583C108.937 164.344 109.136 164.146 109.375 164.146H112.875C113.114 164.146 113.312 164.344 113.312 164.583C113.312 164.823 113.114 165.021 112.875 165.021Z" fill="#537AEF" fill-opacity="0.8"/>
</g>
</g>
<defs>
<filter id="filter0_di_1139_18905" x="-20.3334" y="-8" width="402.667" height="292" filterUnits="userSpaceOnUse" color-interpolation-filters="sRGB">
<feFlood flood-opacity="0" result="BackgroundImageFix"/>
<feColorMatrix in="SourceAlpha" type="matrix" values="0 0 0 0 0 0 0 0 0 0 0 0 0 0 0 0 0 0 127 0" result="hardAlpha"/>
<feOffset dy="12"/>
<feGaussianBlur stdDeviation="18"/>
<feComposite in2="hardAlpha" operator="out"/>
<feColorMatrix type="matrix" values="0 0 0 0 0.647683 0 0 0 0 0.693705 0 0 0 0 0.785748 0 0 0 0.1 0"/>
<feBlend mode="normal" in2="BackgroundImageFix" result="effect1_dropShadow_1139_18905"/>
<feBlend mode="normal" in="SourceGraphic" in2="effect1_dropShadow_1139_18905" result="shape"/>
<feColorMatrix in="SourceAlpha" type="matrix" values="0 0 0 0 0 0 0 0 0 0 0 0 0 0 0 0 0 0 127 0" result="hardAlpha"/>
<feOffset dy="-10"/>
<feGaussianBlur stdDeviation="10"/>
<feComposite in2="hardAlpha" operator="arithmetic" k2="-1" k3="1"/>
<feColorMatrix type="matrix" values="0 0 0 0 0 0 0 0 0 0 0 0 0 0 0 0 0 0 0.04 0"/>
<feBlend mode="normal" in2="shape" result="effect2_innerShadow_1139_18905"/>
</filter>
<filter id="filter1_d_1139_18905" x="126" y="69" width="110" height="110" filterUnits="userSpaceOnUse" color-interpolation-filters="sRGB">
<feFlood flood-opacity="0" result="BackgroundImageFix"/>
<feColorMatrix in="SourceAlpha" type="matrix" values="0 0 0 0 0 0 0 0 0 0 0 0 0 0 0 0 0 0 127 0" result="hardAlpha"/>
<feOffset/>
<feGaussianBlur stdDeviation="15"/>
<feComposite in2="hardAlpha" operator="out"/>
<feColorMatrix type="matrix" values="0 0 0 0 0.32549 0 0 0 0 0.478431 0 0 0 0 0.937255 0 0 0 0.5 0"/>
<feBlend mode="normal" in2="BackgroundImageFix" result="effect1_dropShadow_1139_18905"/>
<feBlend mode="normal" in="SourceGraphic" in2="effect1_dropShadow_1139_18905" result="shape"/>
</filter>
<filter id="filter2_d_1139_18905" x="161" y="104" width="40" height="40" filterUnits="userSpaceOnUse" color-interpolation-filters="sRGB">
<feFlood flood-opacity="0" result="BackgroundImageFix"/>
<feColorMatrix in="SourceAlpha" type="matrix" values="0 0 0 0 0 0 0 0 0 0 0 0 0 0 0 0 0 0 127 0" result="hardAlpha"/>
<feOffset/>
<feGaussianBlur stdDeviation="5"/>
<feComposite in2="hardAlpha" operator="out"/>
<feColorMatrix type="matrix" values="0 0 0 0 0 0 0 0 0 0 0 0 0 0 0 0 0 0 0.1 0"/>
<feBlend mode="normal" in2="BackgroundImageFix" result="effect1_dropShadow_1139_18905"/>
<feBlend mode="normal" in="SourceGraphic" in2="effect1_dropShadow_1139_18905" result="shape"/>
</filter>
<radialGradient id="paint0_radial_1139_18905" cx="0" cy="0" r="1" gradientUnits="userSpaceOnUse" gradientTransform="translate(181 124) rotate(90) scale(153)">
<stop stop-color="#537AEF" stop-opacity="0.1"/>
<stop offset="1" stop-color="#537AEF" stop-opacity="0"/>
</radialGradient>
<clipPath id="clip0_1139_18905">
<rect x="15.6666" y="16" width="330.667" height="220" rx="16" fill="white"/>
</clipPath>
</defs>
</svg>
