<svg width="364" height="284" viewBox="0 0 364 284" fill="none" xmlns="http://www.w3.org/2000/svg">
<g filter="url(#filter0_di_1128_18901)">
<g clip-path="url(#clip0_1128_18901)">
<rect x="16.6666" y="16" width="330.667" height="220" rx="16" fill="#EFF2FF"/>
<path d="M71.6666 180C71.6666 175.582 75.2483 172 79.6666 172H103.667C108.085 172 111.667 175.582 111.667 180V240H71.6666V180Z" fill="#537AEF" fill-opacity="0.3"/>
<path d="M11.6666 197C11.6666 192.582 15.2483 189 19.6666 189H43.6666C48.0849 189 51.6666 192.582 51.6666 197V240H11.6666V197Z" fill="#537AEF" fill-opacity="0.3"/>
<path d="M191.667 144C191.667 139.582 195.248 136 199.667 136H223.667C228.085 136 231.667 139.582 231.667 144V240H191.667V144Z" fill="#537AEF" fill-opacity="0.3"/>
<path d="M251.667 100C251.667 95.5817 255.248 92 259.667 92H283.667C288.085 92 291.667 95.5817 291.667 100V240H251.667V100Z" fill="#537AEF" fill-opacity="0.3"/>
<path d="M311.667 100C311.667 95.5817 315.248 92 319.667 92H343.667C348.085 92 351.667 95.5817 351.667 100V240H311.667V100Z" fill="#537AEF" fill-opacity="0.3"/>
<path d="M131.667 112C131.667 107.582 135.248 104 139.667 104H163.667C168.085 104 171.667 107.582 171.667 112V240H131.667V112Z" fill="#62B7E5"/>
<path d="M44.4996 195L12.4996 187V241.5H358.667L349.667 82.5L319.167 106.5L301.5 96.5L266.5 103L254.5 116L210.5 126.5H179.5L152.5 141L117.5 151L99.9996 168L61.9996 170.5L44.4996 195Z" fill="url(#paint0_linear_1128_18901)"/>
<path d="M12.4996 187L44.4996 195L61.9996 170.5L99.9996 168L117.5 151L152.5 141L179.5 126.5H210.5L254.5 116L266.5 103L301.5 96.5L318.667 107L354.667 78.5" stroke="#537AEF" stroke-width="3" stroke-linecap="round"/>
<circle cx="152" cy="140" r="6.5" fill="#537AEF" stroke="white" stroke-width="3"/>
<path d="M43.4166 66L47.2348 42.7273H50.8712L47.053 66H43.4166ZM32.9962 60.2273L33.5984 56.5909H51.7803L51.178 60.2273H32.9962ZM35.2348 66L39.053 42.7273H42.6894L38.8712 66H35.2348ZM34.3257 52.1364L34.9394 48.5H53.1212L52.5075 52.1364H34.3257ZM64.8192 42.7273V66H59.8988V47.3977H59.7624L54.4329 50.7386V46.375L60.1942 42.7273H64.8192Z" fill="#537AEF"/>
<rect x="80.6666" y="42" width="73" height="25" rx="12.5" fill="#537AEF" fill-opacity="0.1"/>
<path d="M101.667 58H90.6666L96.1666 51L101.667 58Z" fill="#537AEF"/>
<path d="M110.68 58.3693V51.4886H112.241V58.3693H110.68ZM108.021 55.7095V54.1484H114.901V55.7095H108.021ZM119.772 49.679C120.26 49.6823 120.734 49.7685 121.194 49.9375C121.658 50.1032 122.076 50.375 122.447 50.7528C122.818 51.1274 123.113 51.6295 123.332 52.2592C123.551 52.889 123.66 53.6679 123.66 54.5959C123.663 55.4709 123.571 56.2531 123.382 56.9425C123.196 57.6286 122.929 58.2086 122.581 58.6825C122.233 59.1565 121.814 59.5178 121.323 59.7663C120.833 60.0149 120.281 60.1392 119.668 60.1392C119.025 60.1392 118.455 60.0133 117.958 59.7614C117.464 59.5095 117.064 59.1648 116.76 58.7273C116.455 58.2898 116.267 57.7893 116.198 57.2259H118.012C118.105 57.6302 118.294 57.9517 118.579 58.1903C118.868 58.4257 119.23 58.5433 119.668 58.5433C120.374 58.5433 120.917 58.2367 121.299 57.6236C121.68 57.0104 121.87 56.1586 121.87 55.0682H121.801C121.638 55.3598 121.428 55.6117 121.169 55.8239C120.911 56.0327 120.618 56.1934 120.289 56.3061C119.965 56.4188 119.62 56.4751 119.255 56.4751C118.659 56.4751 118.122 56.3326 117.645 56.0476C117.171 55.7625 116.794 55.3714 116.516 54.8743C116.241 54.3771 116.102 53.8087 116.098 53.169C116.098 52.5062 116.251 51.9112 116.556 51.3842C116.864 50.8539 117.293 50.4363 117.843 50.1314C118.394 49.8232 119.037 49.6723 119.772 49.679ZM119.777 51.1705C119.419 51.1705 119.096 51.2583 118.808 51.4339C118.523 51.6063 118.297 51.8416 118.132 52.1399C117.969 52.4349 117.888 52.7647 117.888 53.1293C117.891 53.4905 117.973 53.8187 118.132 54.1136C118.294 54.4086 118.515 54.6423 118.793 54.8146C119.075 54.987 119.396 55.0732 119.757 55.0732C120.026 55.0732 120.276 55.0218 120.508 54.919C120.74 54.8163 120.942 54.6738 121.115 54.4915C121.29 54.3059 121.426 54.0954 121.522 53.8601C121.622 53.6248 121.67 53.3762 121.667 53.1143C121.667 52.7663 121.584 52.4448 121.418 52.1499C121.256 51.8549 121.032 51.6179 120.747 51.4389C120.465 51.2599 120.142 51.1705 119.777 51.1705ZM128.095 60.1392C127.356 60.1392 126.7 60.0149 126.126 59.7663C125.556 59.5178 125.109 59.178 124.784 58.7472C124.462 58.313 124.303 57.8208 124.307 57.2706C124.303 56.843 124.396 56.4503 124.585 56.0923C124.774 55.7344 125.029 55.4361 125.351 55.1974C125.675 54.9555 126.037 54.8014 126.434 54.7351V54.6655C125.911 54.5495 125.487 54.2827 125.162 53.8651C124.84 53.4441 124.681 52.9586 124.684 52.4084C124.681 51.8847 124.827 51.4174 125.122 51.0064C125.417 50.5954 125.821 50.2723 126.335 50.0369C126.849 49.7983 127.435 49.679 128.095 49.679C128.748 49.679 129.33 49.7983 129.84 50.0369C130.354 50.2723 130.758 50.5954 131.053 51.0064C131.351 51.4174 131.501 51.8847 131.501 52.4084C131.501 52.9586 131.336 53.4441 131.008 53.8651C130.684 54.2827 130.264 54.5495 129.751 54.6655V54.7351C130.148 54.8014 130.506 54.9555 130.824 55.1974C131.146 55.4361 131.401 55.7344 131.59 56.0923C131.782 56.4503 131.878 56.843 131.878 57.2706C131.878 57.8208 131.716 58.313 131.391 58.7472C131.066 59.178 130.619 59.5178 130.049 59.7663C129.482 60.0149 128.831 60.1392 128.095 60.1392ZM128.095 58.7173C128.476 58.7173 128.808 58.6527 129.089 58.5234C129.371 58.3909 129.59 58.2053 129.746 57.9666C129.901 57.728 129.981 57.4529 129.984 57.1413C129.981 56.8165 129.896 56.5298 129.731 56.2812C129.568 56.0294 129.345 55.8321 129.059 55.6896C128.778 55.5471 128.456 55.4759 128.095 55.4759C127.73 55.4759 127.406 55.5471 127.121 55.6896C126.836 55.8321 126.61 56.0294 126.444 56.2812C126.282 56.5298 126.202 56.8165 126.206 57.1413C126.202 57.4529 126.279 57.728 126.434 57.9666C126.59 58.2019 126.809 58.3859 127.091 58.5185C127.376 58.651 127.711 58.7173 128.095 58.7173ZM128.095 54.0788C128.407 54.0788 128.682 54.0159 128.92 53.8899C129.162 53.764 129.353 53.5883 129.492 53.3629C129.631 53.1375 129.702 52.8774 129.706 52.5824C129.702 52.2907 129.633 52.0355 129.497 51.8168C129.361 51.5947 129.172 51.424 128.93 51.3047C128.688 51.1821 128.41 51.1207 128.095 51.1207C127.773 51.1207 127.49 51.1821 127.245 51.3047C127.003 51.424 126.814 51.5947 126.678 51.8168C126.546 52.0355 126.481 52.2907 126.484 52.5824C126.481 52.8774 126.547 53.1375 126.683 53.3629C126.822 53.585 127.013 53.7607 127.255 53.8899C127.5 54.0159 127.78 54.0788 128.095 54.0788ZM138.117 58.0909V57.554C138.117 57.1596 138.2 56.7966 138.365 56.4652C138.534 56.1338 138.78 55.867 139.101 55.6648C139.423 55.4626 139.812 55.3615 140.269 55.3615C140.74 55.3615 141.134 55.4626 141.453 55.6648C141.771 55.8636 142.011 56.1288 142.173 56.4602C142.339 56.7917 142.422 57.1562 142.422 57.554V58.0909C142.422 58.4853 142.339 58.8482 142.173 59.1797C142.008 59.5111 141.764 59.7779 141.443 59.9801C141.124 60.1823 140.733 60.2834 140.269 60.2834C139.805 60.2834 139.413 60.1823 139.091 59.9801C138.77 59.7779 138.526 59.5111 138.36 59.1797C138.198 58.8482 138.117 58.4853 138.117 58.0909ZM139.414 57.554V58.0909C139.414 58.3527 139.477 58.593 139.603 58.8118C139.729 59.0305 139.951 59.1399 140.269 59.1399C140.591 59.1399 140.811 59.0322 140.931 58.8168C141.053 58.598 141.115 58.3561 141.115 58.0909V57.554C141.115 57.2888 141.057 57.0469 140.941 56.8281C140.825 56.6061 140.601 56.495 140.269 56.495C139.958 56.495 139.737 56.6061 139.608 56.8281C139.479 57.0469 139.414 57.2888 139.414 57.554ZM132.941 52.2642V51.7273C132.941 51.3295 133.026 50.965 133.195 50.6335C133.364 50.3021 133.609 50.0369 133.931 49.8381C134.252 49.6359 134.642 49.5348 135.099 49.5348C135.566 49.5348 135.959 49.6359 136.277 49.8381C136.599 50.0369 136.841 50.3021 137.003 50.6335C137.165 50.965 137.247 51.3295 137.247 51.7273V52.2642C137.247 52.6619 137.164 53.0265 136.998 53.358C136.836 53.6861 136.594 53.9496 136.272 54.1484C135.951 54.3473 135.56 54.4467 135.099 54.4467C134.632 54.4467 134.237 54.3473 133.916 54.1484C133.597 53.9496 133.356 53.6844 133.19 53.353C133.024 53.0215 132.941 52.6586 132.941 52.2642ZM134.249 51.7273V52.2642C134.249 52.5294 134.31 52.7713 134.433 52.9901C134.559 53.2055 134.781 53.3132 135.099 53.3132C135.417 53.3132 135.636 53.2055 135.755 52.9901C135.878 52.7713 135.939 52.5294 135.939 52.2642V51.7273C135.939 51.4621 135.881 51.2202 135.765 51.0014C135.649 50.7794 135.427 50.6683 135.099 50.6683C134.784 50.6683 134.564 50.7794 134.438 51.0014C134.312 51.2235 134.249 51.4654 134.249 51.7273ZM133.508 60L140.508 49.8182H141.751L134.751 60H133.508Z" fill="#537AEF"/>
</g>
</g>
<defs>
<filter id="filter0_di_1128_18901" x="-19.3334" y="-8" width="402.667" height="292" filterUnits="userSpaceOnUse" color-interpolation-filters="sRGB">
<feFlood flood-opacity="0" result="BackgroundImageFix"/>
<feColorMatrix in="SourceAlpha" type="matrix" values="0 0 0 0 0 0 0 0 0 0 0 0 0 0 0 0 0 0 127 0" result="hardAlpha"/>
<feOffset dy="12"/>
<feGaussianBlur stdDeviation="18"/>
<feComposite in2="hardAlpha" operator="out"/>
<feColorMatrix type="matrix" values="0 0 0 0 0.647683 0 0 0 0 0.693705 0 0 0 0 0.785748 0 0 0 0.1 0"/>
<feBlend mode="normal" in2="BackgroundImageFix" result="effect1_dropShadow_1128_18901"/>
<feBlend mode="normal" in="SourceGraphic" in2="effect1_dropShadow_1128_18901" result="shape"/>
<feColorMatrix in="SourceAlpha" type="matrix" values="0 0 0 0 0 0 0 0 0 0 0 0 0 0 0 0 0 0 127 0" result="hardAlpha"/>
<feOffset dy="-10"/>
<feGaussianBlur stdDeviation="10"/>
<feComposite in2="hardAlpha" operator="arithmetic" k2="-1" k3="1"/>
<feColorMatrix type="matrix" values="0 0 0 0 0 0 0 0 0 0 0 0 0 0 0 0 0 0 0.04 0"/>
<feBlend mode="normal" in2="shape" result="effect2_innerShadow_1128_18901"/>
</filter>
<linearGradient id="paint0_linear_1128_18901" x1="157" y1="96.5" x2="157" y2="230" gradientUnits="userSpaceOnUse">
<stop stop-color="#537AEF" stop-opacity="0.4"/>
<stop offset="0.813634" stop-color="#537AEF" stop-opacity="0"/>
</linearGradient>
<clipPath id="clip0_1128_18901">
<rect x="16.6666" y="16" width="330.667" height="220" rx="16" fill="white"/>
</clipPath>
</defs>
</svg>
