<svg width="90" height="56" viewBox="0 0 90 56" fill="none" xmlns="http://www.w3.org/2000/svg">
<path d="M40.9766 36.1562C40.9766 39.8542 40.1302 43.1615 38.4375 46.0781C36.7448 48.9688 34.4401 51.2604 31.5234 52.9531C28.6068 54.6198 25.3125 55.4531 21.6406 55.4531C17.8385 55.4531 14.349 54.5156 11.1719 52.6406C8.02083 50.7656 5.49479 48.0573 3.59375 44.5156C1.69271 40.974 0.742188 36.6901 0.742188 31.6641C0.742188 27.3411 1.4974 23.3307 3.00781 19.6328C4.51823 15.9349 6.61458 12.6797 9.29688 9.86719C11.1979 7.86198 13.3333 6.11719 15.7031 4.63281C18.0729 3.14844 20.5729 1.96354 23.2031 1.07812C24.1927 0.765625 25.013 0.544271 25.6641 0.414062C26.3411 0.257812 27.0443 0.179688 27.7734 0.179688C28.7891 0.179688 29.6094 0.466146 30.2344 1.03906C30.8594 1.58594 31.1719 2.30208 31.1719 3.1875C31.1719 3.65625 31.0807 4.08594 30.8984 4.47656C30.7422 4.84115 30.5078 5.15365 30.1953 5.41406C29.9089 5.67448 29.5312 5.90885 29.0625 6.11719C28.6198 6.29948 28.0729 6.49479 27.4219 6.70312C25.2083 7.30208 23.125 8.13542 21.1719 9.20312C19.2448 10.2708 17.5 11.4948 15.9375 12.875C14.401 14.2552 13.0859 15.7656 11.9922 17.4062C10.8984 19.0469 10.0911 20.7656 9.57031 22.5625H10.8594C12.474 20.7656 14.3359 19.4245 16.4453 18.5391C18.5547 17.6276 20.8203 17.1719 23.2422 17.1719C26.5755 17.1719 29.5833 18.0182 32.2656 19.7109C34.9479 21.3776 37.0703 23.6432 38.6328 26.5078C40.1953 29.3724 40.9766 32.5885 40.9766 36.1562ZM89.2578 36.1562C89.2578 39.8542 88.4115 43.1615 86.7188 46.0781C85.0521 48.9688 82.7604 51.2604 79.8438 52.9531C76.9271 54.6198 73.6328 55.4531 69.9609 55.4531C66.1328 55.4531 62.6302 54.5156 59.4531 52.6406C56.3021 50.7656 53.776 48.0573 51.875 44.5156C50 40.974 49.0625 36.6901 49.0625 31.6641C49.0625 27.3411 49.8047 23.3307 51.2891 19.6328C52.7995 15.9349 54.8958 12.6797 57.5781 9.86719C59.4792 7.86198 61.6146 6.11719 63.9844 4.63281C66.3542 3.14844 68.8542 1.96354 71.4844 1.07812C72.474 0.765625 73.2943 0.544271 73.9453 0.414062C74.5964 0.257812 75.3125 0.179688 76.0938 0.179688C77.1094 0.179688 77.9167 0.466146 78.5156 1.03906C79.1406 1.58594 79.4531 2.30208 79.4531 3.1875C79.4531 3.65625 79.375 4.08594 79.2188 4.47656C79.0625 4.84115 78.8151 5.15365 78.4766 5.41406C78.2161 5.67448 77.8516 5.90885 77.3828 6.11719C76.9141 6.29948 76.3542 6.49479 75.7031 6.70312C73.4896 7.30208 71.4062 8.13542 69.4531 9.20312C67.526 10.2708 65.7812 11.4948 64.2188 12.875C62.6823 14.2552 61.3672 15.7656 60.2734 17.4062C59.1797 19.0469 58.3724 20.7656 57.8516 22.5625H59.1406C60.7292 20.7656 62.5911 19.4245 64.7266 18.5391C66.862 17.6276 69.1276 17.1719 71.5234 17.1719C74.8828 17.1719 77.8906 18.0182 80.5469 19.7109C83.2292 21.3776 85.3516 23.6432 86.9141 26.5078C88.4766 29.3724 89.2578 32.5885 89.2578 36.1562Z" fill="#EAEEF7"/>
</svg>
