<svg width="78" height="49" viewBox="0 0 78 49" fill="none" xmlns="http://www.w3.org/2000/svg">
<path d="M35.4795 31.6367C35.4795 34.8724 34.7389 37.7663 33.2578 40.3184C31.7767 42.8477 29.7601 44.8529 27.208 46.334C24.6559 47.7923 21.7734 48.5215 18.5605 48.5215C15.2337 48.5215 12.1803 47.7012 9.40039 46.0605C6.64323 44.4199 4.43294 42.0501 2.76953 38.9512C1.10612 35.8522 0.274414 32.1038 0.274414 27.7061C0.274414 23.9235 0.935221 20.4144 2.25684 17.1787C3.57845 13.943 5.41276 11.0947 7.75977 8.63379C9.42318 6.87923 11.2917 5.35254 13.3652 4.05371C15.4388 2.75488 17.6263 1.7181 19.9277 0.943359C20.7936 0.669922 21.5114 0.476237 22.0811 0.362305C22.6735 0.225586 23.2887 0.157227 23.9268 0.157227C24.8154 0.157227 25.5332 0.407878 26.0801 0.90918C26.627 1.3877 26.9004 2.01432 26.9004 2.78906C26.9004 3.19922 26.8206 3.5752 26.6611 3.91699C26.5244 4.236 26.3193 4.50944 26.0459 4.7373C25.7952 4.96517 25.4648 5.17025 25.0547 5.35254C24.6673 5.51204 24.1888 5.68294 23.6191 5.86523C21.6823 6.38932 19.8594 7.11849 18.1504 8.05273C16.4642 8.98698 14.9375 10.0579 13.5703 11.2656C12.2259 12.4733 11.0752 13.7949 10.1182 15.2305C9.16113 16.666 8.45475 18.1699 7.99902 19.7422H9.12695C10.5397 18.1699 12.1689 16.9964 14.0146 16.2217C15.8604 15.4242 17.8428 15.0254 19.9619 15.0254C22.8786 15.0254 25.5104 15.766 27.8574 17.2471C30.2044 18.7054 32.0615 20.6878 33.4287 23.1943C34.7959 25.7008 35.4795 28.515 35.4795 31.6367ZM77.7256 31.6367C77.7256 34.8724 76.985 37.7663 75.5039 40.3184C74.0456 42.8477 72.0404 44.8529 69.4883 46.334C66.9362 47.7923 64.0537 48.5215 60.8408 48.5215C57.4912 48.5215 54.4264 47.7012 51.6465 46.0605C48.8893 44.4199 46.679 42.0501 45.0156 38.9512C43.375 35.8522 42.5547 32.1038 42.5547 27.7061C42.5547 23.9235 43.2041 20.4144 44.5029 17.1787C45.8245 13.943 47.6589 11.0947 50.0059 8.63379C51.6693 6.87923 53.5378 5.35254 55.6113 4.05371C57.6849 2.75488 59.8724 1.7181 62.1738 0.943359C63.0397 0.669922 63.7575 0.476237 64.3271 0.362305C64.8968 0.225586 65.5234 0.157227 66.207 0.157227C67.0957 0.157227 67.8021 0.407878 68.3262 0.90918C68.873 1.3877 69.1465 2.01432 69.1465 2.78906C69.1465 3.19922 69.0781 3.5752 68.9414 3.91699C68.8047 4.236 68.5882 4.50944 68.292 4.7373C68.0641 4.96517 67.7451 5.17025 67.335 5.35254C66.9248 5.51204 66.4349 5.68294 65.8652 5.86523C63.9284 6.38932 62.1055 7.11849 60.3965 8.05273C58.7103 8.98698 57.1836 10.0579 55.8164 11.2656C54.472 12.4733 53.3213 13.7949 52.3643 15.2305C51.4072 16.666 50.7008 18.1699 50.2451 19.7422H51.373C52.763 18.1699 54.3923 16.9964 56.2607 16.2217C58.1292 15.4242 60.1117 15.0254 62.208 15.0254C65.1475 15.0254 67.7793 15.766 70.1035 17.2471C72.4505 18.7054 74.3076 20.6878 75.6748 23.1943C77.042 25.7008 77.7256 28.515 77.7256 31.6367Z" fill="#D3DBEE"/>
</svg>
